<?xml version="1.0" encoding="us-ascii" standalone="no"?><svg xmlns="http://www.w3.org/2000/svg" xmlns:xlink="http://www.w3.org/1999/xlink" contentStyleType="text/css" height="414px" preserveAspectRatio="none" style="width:889px;height:414px;background:#FFFFFF;" version="1.1" viewBox="0 0 889 414" width="889px" zoomAndPan="magnify"><defs/><g><text fill="#000000" font-family="sans-serif" font-size="14" font-weight="bold" lengthAdjust="spacing" textLength="293" x="297" y="30.1074">USLP02 - System Sequence Diagram (SSD)</text><rect fill="#FFFFFF" height="179.7461" style="stroke:#181818;stroke-width:1.0;" width="10" x="50" y="133.2422"/><rect fill="#FFFFFF" height="31.291" style="stroke:#181818;stroke-width:1.0;" width="10" x="846" y="156.5332"/><rect fill="#FFFFFF" height="31.291" style="stroke:#181818;stroke-width:1.0;" width="10" x="846" y="219.1152"/><rect fill="#FFFFFF" height="31.291" style="stroke:#181818;stroke-width:1.0;" width="10" x="846" y="281.6973"/><line style="stroke:#181818;stroke-width:0.5;stroke-dasharray:5.0,5.0;" x1="55" x2="55" y1="123.2422" y2="330.9883"/><line style="stroke:#181818;stroke-width:0.5;stroke-dasharray:5.0,5.0;" x1="851" x2="851" y1="123.2422" y2="330.9883"/><text fill="#000000" font-family="sans-serif" font-size="14" lengthAdjust="spacing" textLength="94" x="5" y="119.7285">Product Owner</text><ellipse cx="55" cy="53.1211" fill="#E3E3E3" rx="8" ry="8" style="stroke:#181818;stroke-width:0.5;"/><path d="M55,61.1211 L55,88.1211 M42,69.1211 L68,69.1211 M55,88.1211 L42,103.1211 M55,88.1211 L68,103.1211 " fill="none" style="stroke:#181818;stroke-width:0.5;"/><text fill="#000000" font-family="sans-serif" font-size="14" lengthAdjust="spacing" textLength="94" x="5" y="345.0957">Product Owner</text><ellipse cx="55" cy="357.1094" fill="#E3E3E3" rx="8" ry="8" style="stroke:#181818;stroke-width:0.5;"/><path d="M55,365.1094 L55,392.1094 M42,373.1094 L68,373.1094 M55,392.1094 L42,407.1094 M55,392.1094 L68,407.1094 " fill="none" style="stroke:#181818;stroke-width:0.5;"/><rect fill="#E3E3E3" height="32.6211" rx="2.5" ry="2.5" style="stroke:#181818;stroke-width:0.5;" width="64" x="819" y="89.6211"/><text fill="#000000" font-family="sans-serif" font-size="14" lengthAdjust="spacing" textLength="50" x="826" y="111.7285">:System</text><rect fill="#E3E3E3" height="32.6211" rx="2.5" ry="2.5" style="stroke:#181818;stroke-width:0.5;" width="64" x="819" y="329.9883"/><text fill="#000000" font-family="sans-serif" font-size="14" lengthAdjust="spacing" textLength="50" x="826" y="352.0957">:System</text><rect fill="#FFFFFF" height="179.7461" style="stroke:#181818;stroke-width:1.0;" width="10" x="50" y="133.2422"/><rect fill="#FFFFFF" height="31.291" style="stroke:#181818;stroke-width:1.0;" width="10" x="846" y="156.5332"/><rect fill="#FFFFFF" height="31.291" style="stroke:#181818;stroke-width:1.0;" width="10" x="846" y="219.1152"/><rect fill="#FFFFFF" height="31.291" style="stroke:#181818;stroke-width:1.0;" width="10" x="846" y="281.6973"/><polygon fill="#181818" points="834,152.5332,844,156.5332,834,160.5332,838,156.5332" style="stroke:#181818;stroke-width:1.0;"/><line style="stroke:#181818;stroke-width:1.0;" x1="60" x2="840" y1="156.5332" y2="156.5332"/><text fill="#000000" font-family="sans-serif" font-size="13" font-weight="bold" lengthAdjust="spacing" textLength="7" x="67" y="151.2705">1</text><text fill="#000000" font-family="sans-serif" font-size="13" lengthAdjust="spacing" textLength="314" x="78" y="151.2705">asks to see the irrigation system controller simulation.</text><polygon fill="#181818" points="71,183.8242,61,187.8242,71,191.8242,67,187.8242" style="stroke:#181818;stroke-width:1.0;"/><line style="stroke:#181818;stroke-width:1.0;stroke-dasharray:2.0,2.0;" x1="65" x2="850" y1="187.8242" y2="187.8242"/><text fill="#000000" font-family="sans-serif" font-size="13" font-weight="bold" lengthAdjust="spacing" textLength="7" x="77" y="182.5615">2</text><text fill="#000000" font-family="sans-serif" font-size="13" lengthAdjust="spacing" textLength="452" x="88" y="182.5615">asks the user to import a file with the irrigation plan or imports a file by default.</text><polygon fill="#181818" points="834,215.1152,844,219.1152,834,223.1152,838,219.1152" style="stroke:#181818;stroke-width:1.0;"/><line style="stroke:#181818;stroke-width:1.0;" x1="60" x2="840" y1="219.1152" y2="219.1152"/><text fill="#000000" font-family="sans-serif" font-size="13" font-weight="bold" lengthAdjust="spacing" textLength="7" x="67" y="213.8525">3</text><text fill="#000000" font-family="sans-serif" font-size="13" lengthAdjust="spacing" textLength="419" x="78" y="213.8525">chooses the desired option related to the file with the irrigation plan data.</text><polygon fill="#181818" points="71,246.4063,61,250.4063,71,254.4063,67,250.4063" style="stroke:#181818;stroke-width:1.0;"/><line style="stroke:#181818;stroke-width:1.0;stroke-dasharray:2.0,2.0;" x1="65" x2="850" y1="250.4063" y2="250.4063"/><text fill="#000000" font-family="sans-serif" font-size="13" font-weight="bold" lengthAdjust="spacing" textLength="7" x="77" y="245.1436">4</text><text fill="#000000" font-family="sans-serif" font-size="13" lengthAdjust="spacing" textLength="751" x="88" y="245.1436">asks the user to input a date/time slot to check if the system is on or asks if the user wants to check the system's current status.</text><polygon fill="#181818" points="834,277.6973,844,281.6973,834,285.6973,838,281.6973" style="stroke:#181818;stroke-width:1.0;"/><line style="stroke:#181818;stroke-width:1.0;" x1="60" x2="840" y1="281.6973" y2="281.6973"/><text fill="#000000" font-family="sans-serif" font-size="13" font-weight="bold" lengthAdjust="spacing" textLength="7" x="67" y="276.4346">5</text><text fill="#000000" font-family="sans-serif" font-size="13" lengthAdjust="spacing" textLength="323" x="78" y="276.4346">chooses the desired option related to the date/time slot.</text><polygon fill="#181818" points="66,308.9883,56,312.9883,66,316.9883,62,312.9883" style="stroke:#181818;stroke-width:1.0;"/><line style="stroke:#181818;stroke-width:1.0;stroke-dasharray:2.0,2.0;" x1="60" x2="850" y1="312.9883" y2="312.9883"/><text fill="#000000" font-family="sans-serif" font-size="13" font-weight="bold" lengthAdjust="spacing" textLength="7" x="72" y="307.7256">6</text><text fill="#000000" font-family="sans-serif" font-size="13" lengthAdjust="spacing" textLength="579" x="83" y="307.7256">shows the system's status for the chosen date/time slot and the plot that is currently being irrigated.</text><!--SRC=[jLCzRzmm3DtzAuXRqWwN5XqpPCfO806C_W2UHDl2oQ8ZKZ7ktvUMVSbTa7GeMaqIFzvxV9Ba6DA46KSOER4RCey4cWiryfgPq1snfrPFaI2JKqnzl2oG0JtF8VNGOHHg6WrgfR_Qdq_VVy0UsfCeZT3ISw7a21u2zalVbxPz-DeqM9HJ6G-KRU-KC-oUCllY51xdH7a7AB15Qg0nMWqkJ9WKTdShVArQjnKclA3ITLi3jYuZiB_VMkwi-oYW349cm40GSWuzQk04ikftd3HpZDOdOIon9cyhw2lVMG1iQnjzRqINn6SwuobYUCORnecp0a8NpBivwF1UnXGnWRcpLigvz702JnsMgAiMJn-g-MnkDp0BhLeyISZaWQTAcCbcjAEfMx9_5kPHyT-PaQQoU66Wz4s3lKc9h4l63UIE4BfQlbrC4E3gJCNPSXLgjXSYRsrlFJS2hkHCze14KOlyP- -k1_bRdsJWMQwdMDL3PzClSLCabDxxXidNx5HD750NoxRvumaEjFpTxKB9Vsh5HUZgN_q6]--></g></svg>