<?xml version="1.0" encoding="us-ascii" standalone="no"?><svg xmlns="http://www.w3.org/2000/svg" xmlns:xlink="http://www.w3.org/1999/xlink" contentStyleType="text/css" height="1395px" preserveAspectRatio="none" style="width:3409px;height:1395px;background:#FFFFFF;" version="1.1" viewBox="0 0 3409 1395" width="3409px" zoomAndPan="magnify"><defs/><g><text fill="#000000" font-family="sans-serif" font-size="14" font-weight="bold" lengthAdjust="spacing" textLength="164" x="1615.5" y="25.1074">USLP03 - Class Diagram</text><!--class WriteInFieldbookUI--><g id="elem_WriteInFieldbookUI"><rect codeLine="10" fill="#F1F1F1" height="103.8633" id="WriteInFieldbookUI" rx="2.5" ry="2.5" style="stroke:#181818;stroke-width:0.5;" width="256" x="985.5" y="46.6211"/><ellipse cx="1050.25" cy="62.6211" fill="#ADD1B2" rx="11" ry="11" style="stroke:#181818;stroke-width:1.0;"/><path d="M1053.0156,58.4961 Q1053.1719,58.2773 1053.3594,58.168 Q1053.5469,58.0586 1053.7656,58.0586 Q1054.1406,58.0586 1054.375,58.3242 Q1054.6094,58.5742 1054.6094,59.1836 L1054.6094,60.6367 Q1054.6094,61.2461 1054.375,61.5117 Q1054.1406,61.7773 1053.7656,61.7773 Q1053.4219,61.7773 1053.2188,61.5742 Q1053.0156,61.3867 1052.9063,60.8711 Q1052.8594,60.5117 1052.6719,60.3242 Q1052.3438,59.9492 1051.7344,59.7305 Q1051.125,59.5117 1050.5,59.5117 Q1049.7344,59.5117 1049.0938,59.8398 Q1048.4688,60.168 1047.9688,60.918 Q1047.4844,61.668 1047.4844,62.6992 L1047.4844,63.793 Q1047.4844,65.0273 1048.375,65.8555 Q1049.2656,66.668 1050.8594,66.668 Q1051.7969,66.668 1052.4531,66.418 Q1052.8438,66.2617 1053.2656,65.8242 Q1053.5313,65.5586 1053.6719,65.4805 Q1053.8281,65.4023 1054.0313,65.4023 Q1054.3594,65.4023 1054.6094,65.668 Q1054.875,65.918 1054.875,66.2617 Q1054.875,66.6055 1054.5313,67.0117 Q1054.0313,67.5898 1053.2344,67.918 Q1052.1563,68.3711 1050.8594,68.3711 Q1049.3438,68.3711 1048.1406,67.7461 Q1047.1563,67.2461 1046.4688,66.1836 Q1045.7813,65.1055 1045.7813,63.8242 L1045.7813,62.668 Q1045.7813,61.3398 1046.3906,60.1992 Q1047.0156,59.043 1048.1094,58.4336 Q1049.2031,57.8086 1050.4375,57.8086 Q1051.1719,57.8086 1051.8125,57.9805 Q1052.4688,58.1367 1053.0156,58.4961 Z " fill="#000000"/><text fill="#000000" font-family="sans-serif" font-size="14" lengthAdjust="spacing" textLength="118" x="1070.75" y="68.418">WriteInFieldbookUI</text><line style="stroke:#181818;stroke-width:0.5;" x1="986.5" x2="1240.5" y1="78.6211" y2="78.6211"/><text fill="#000000" font-family="sans-serif" font-size="14" lengthAdjust="spacing" textLength="244" x="991.5" y="97.7285">-controller : WriteInFieldbookController</text><line style="stroke:#181818;stroke-width:0.5;" x1="986.5" x2="1240.5" y1="105.2422" y2="105.2422"/><text fill="#000000" font-family="sans-serif" font-size="14" lengthAdjust="spacing" textLength="136" x="991.5" y="124.3496">+WriteInFieldbookUI()</text><text fill="#000000" font-family="sans-serif" font-size="14" lengthAdjust="spacing" textLength="77" x="991.5" y="142.9707">+run() : void</text></g><!--class WriteInFieldbookController--><g id="elem_WriteInFieldbookController"><rect codeLine="16" fill="#F1F1F1" height="85.2422" id="WriteInFieldbookController" rx="2.5" ry="2.5" style="stroke:#181818;stroke-width:0.5;" width="317" x="1277" y="56.1211"/><ellipse cx="1347.25" cy="72.1211" fill="#ADD1B2" rx="11" ry="11" style="stroke:#181818;stroke-width:1.0;"/><path d="M1350.0156,67.9961 Q1350.1719,67.7773 1350.3594,67.668 Q1350.5469,67.5586 1350.7656,67.5586 Q1351.1406,67.5586 1351.375,67.8242 Q1351.6094,68.0742 1351.6094,68.6836 L1351.6094,70.1367 Q1351.6094,70.7461 1351.375,71.0117 Q1351.1406,71.2773 1350.7656,71.2773 Q1350.4219,71.2773 1350.2188,71.0742 Q1350.0156,70.8867 1349.9063,70.3711 Q1349.8594,70.0117 1349.6719,69.8242 Q1349.3438,69.4492 1348.7344,69.2305 Q1348.125,69.0117 1347.5,69.0117 Q1346.7344,69.0117 1346.0938,69.3398 Q1345.4688,69.668 1344.9688,70.418 Q1344.4844,71.168 1344.4844,72.1992 L1344.4844,73.293 Q1344.4844,74.5273 1345.375,75.3555 Q1346.2656,76.168 1347.8594,76.168 Q1348.7969,76.168 1349.4531,75.918 Q1349.8438,75.7617 1350.2656,75.3242 Q1350.5313,75.0586 1350.6719,74.9805 Q1350.8281,74.9023 1351.0313,74.9023 Q1351.3594,74.9023 1351.6094,75.168 Q1351.875,75.418 1351.875,75.7617 Q1351.875,76.1055 1351.5313,76.5117 Q1351.0313,77.0898 1350.2344,77.418 Q1349.1563,77.8711 1347.8594,77.8711 Q1346.3438,77.8711 1345.1406,77.2461 Q1344.1563,76.7461 1343.4688,75.6836 Q1342.7813,74.6055 1342.7813,73.3242 L1342.7813,72.168 Q1342.7813,70.8398 1343.3906,69.6992 Q1344.0156,68.543 1345.1094,67.9336 Q1346.2031,67.3086 1347.4375,67.3086 Q1348.1719,67.3086 1348.8125,67.4805 Q1349.4688,67.6367 1350.0156,67.9961 Z " fill="#000000"/><text fill="#000000" font-family="sans-serif" font-size="14" lengthAdjust="spacing" textLength="168" x="1367.75" y="77.918">WriteInFieldbookController</text><line style="stroke:#181818;stroke-width:0.5;" x1="1278" x2="1593" y1="88.1211" y2="88.1211"/><line style="stroke:#181818;stroke-width:0.5;" x1="1278" x2="1593" y1="96.1211" y2="96.1211"/><text fill="#000000" font-family="sans-serif" font-size="14" lengthAdjust="spacing" textLength="305" x="1283" y="115.2285">+writeInFieldbook(irrigation : Irrigation) : boolean</text><text fill="#000000" font-family="sans-serif" font-size="14" lengthAdjust="spacing" textLength="222" x="1283" y="133.8496">+getFinishedOperation() : Irrigation</text></g><!--class IrrigationRepository--><g id="elem_IrrigationRepository"><rect codeLine="21" fill="#F1F1F1" height="122.4844" id="IrrigationRepository" rx="2.5" ry="2.5" style="stroke:#181818;stroke-width:0.5;" width="1235" x="7" y="285.6211"/><ellipse cx="558.75" cy="301.6211" fill="#ADD1B2" rx="11" ry="11" style="stroke:#181818;stroke-width:1.0;"/><path d="M561.5156,297.4961 Q561.6719,297.2773 561.8594,297.168 Q562.0469,297.0586 562.2656,297.0586 Q562.6406,297.0586 562.875,297.3242 Q563.1094,297.5742 563.1094,298.1836 L563.1094,299.6367 Q563.1094,300.2461 562.875,300.5117 Q562.6406,300.7773 562.2656,300.7773 Q561.9219,300.7773 561.7188,300.5742 Q561.5156,300.3867 561.4063,299.8711 Q561.3594,299.5117 561.1719,299.3242 Q560.8438,298.9492 560.2344,298.7305 Q559.625,298.5117 559,298.5117 Q558.2344,298.5117 557.5938,298.8398 Q556.9688,299.168 556.4688,299.918 Q555.9844,300.668 555.9844,301.6992 L555.9844,302.793 Q555.9844,304.0273 556.875,304.8555 Q557.7656,305.668 559.3594,305.668 Q560.2969,305.668 560.9531,305.418 Q561.3438,305.2617 561.7656,304.8242 Q562.0313,304.5586 562.1719,304.4805 Q562.3281,304.4023 562.5313,304.4023 Q562.8594,304.4023 563.1094,304.668 Q563.375,304.918 563.375,305.2617 Q563.375,305.6055 563.0313,306.0117 Q562.5313,306.5898 561.7344,306.918 Q560.6563,307.3711 559.3594,307.3711 Q557.8438,307.3711 556.6406,306.7461 Q555.6563,306.2461 554.9688,305.1836 Q554.2813,304.1055 554.2813,302.8242 L554.2813,301.668 Q554.2813,300.3398 554.8906,299.1992 Q555.5156,298.043 556.6094,297.4336 Q557.7031,296.8086 558.9375,296.8086 Q559.6719,296.8086 560.3125,296.9805 Q560.9688,297.1367 561.5156,297.4961 Z " fill="#000000"/><text fill="#000000" font-family="sans-serif" font-size="14" lengthAdjust="spacing" textLength="123" x="579.25" y="307.418">IrrigationRepository</text><line style="stroke:#181818;stroke-width:0.5;" x1="8" x2="1241" y1="317.6211" y2="317.6211"/><line style="stroke:#181818;stroke-width:0.5;" x1="8" x2="1241" y1="325.6211" y2="325.6211"/><text fill="#000000" font-family="sans-serif" font-size="14" lengthAdjust="spacing" textLength="141" x="13" y="344.7285">+IrrigationRepository()</text><text fill="#000000" font-family="sans-serif" font-size="14" lengthAdjust="spacing" textLength="205" x="13" y="363.3496">+getIrrigations() : List&lt;Irrigation&gt;</text><text fill="#000000" font-family="sans-serif" font-size="14" lengthAdjust="spacing" textLength="1223" x="13" y="381.9707">+irrigationRegister(irrigationId : Integer, fieldbookId : Integer, operationDate : LocalDate, sectorDesignation : String, durationInMinutes : Integer, startTime : LocalTime, endTime : LocalTime) : void</text><text fill="#000000" font-family="sans-serif" font-size="14" lengthAdjust="spacing" textLength="347" x="13" y="400.5918">+resultSetToList(resultSet : ResultSet) : List&lt;Irrigation&gt;</text></g><!--class Irrigation--><g id="elem_Irrigation"><rect codeLine="28" fill="#F1F1F1" height="550.7695" id="Irrigation" rx="2.5" ry="2.5" style="stroke:#181818;stroke-width:0.5;" width="957" x="1335" y="837.6211"/><ellipse cx="1781.75" cy="853.6211" fill="#ADD1B2" rx="11" ry="11" style="stroke:#181818;stroke-width:1.0;"/><path d="M1784.5156,849.4961 Q1784.6719,849.2773 1784.8594,849.168 Q1785.0469,849.0586 1785.2656,849.0586 Q1785.6406,849.0586 1785.875,849.3242 Q1786.1094,849.5742 1786.1094,850.1836 L1786.1094,851.6367 Q1786.1094,852.2461 1785.875,852.5117 Q1785.6406,852.7773 1785.2656,852.7773 Q1784.9219,852.7773 1784.7188,852.5742 Q1784.5156,852.3867 1784.4063,851.8711 Q1784.3594,851.5117 1784.1719,851.3242 Q1783.8438,850.9492 1783.2344,850.7305 Q1782.625,850.5117 1782,850.5117 Q1781.2344,850.5117 1780.5938,850.8398 Q1779.9688,851.168 1779.4688,851.918 Q1778.9844,852.668 1778.9844,853.6992 L1778.9844,854.793 Q1778.9844,856.0273 1779.875,856.8555 Q1780.7656,857.668 1782.3594,857.668 Q1783.2969,857.668 1783.9531,857.418 Q1784.3438,857.2617 1784.7656,856.8242 Q1785.0313,856.5586 1785.1719,856.4805 Q1785.3281,856.4023 1785.5313,856.4023 Q1785.8594,856.4023 1786.1094,856.668 Q1786.375,856.918 1786.375,857.2617 Q1786.375,857.6055 1786.0313,858.0117 Q1785.5313,858.5898 1784.7344,858.918 Q1783.6563,859.3711 1782.3594,859.3711 Q1780.8438,859.3711 1779.6406,858.7461 Q1778.6563,858.2461 1777.9688,857.1836 Q1777.2813,856.1055 1777.2813,854.8242 L1777.2813,853.668 Q1777.2813,852.3398 1777.8906,851.1992 Q1778.5156,850.043 1779.6094,849.4336 Q1780.7031,848.8086 1781.9375,848.8086 Q1782.6719,848.8086 1783.3125,848.9805 Q1783.9688,849.1367 1784.5156,849.4961 Z " fill="#000000"/><text fill="#000000" font-family="sans-serif" font-size="14" lengthAdjust="spacing" textLength="55" x="1802.25" y="859.418">Irrigation</text><line style="stroke:#181818;stroke-width:0.5;" x1="1336" x2="2291" y1="869.6211" y2="869.6211"/><text fill="#000000" font-family="sans-serif" font-size="14" lengthAdjust="spacing" textLength="72" x="1341" y="888.7285">-id : Integer</text><text fill="#000000" font-family="sans-serif" font-size="14" lengthAdjust="spacing" text-decoration="underline" textLength="129" x="1341" y="907.3496">-fieldbookId : Integer</text><text fill="#000000" font-family="sans-serif" font-size="14" lengthAdjust="spacing" textLength="97" x="1341" y="925.9707">-sector : Sector</text><text fill="#000000" font-family="sans-serif" font-size="14" lengthAdjust="spacing" textLength="171" x="1341" y="944.5918">-operationDate : LocalDate</text><text fill="#000000" font-family="sans-serif" font-size="14" lengthAdjust="spacing" textLength="173" x="1341" y="963.2129">-durationInMinutes : Integer</text><text fill="#000000" font-family="sans-serif" font-size="14" lengthAdjust="spacing" textLength="141" x="1341" y="981.834">-startTime : LocalTime</text><text fill="#000000" font-family="sans-serif" font-size="14" lengthAdjust="spacing" textLength="137" x="1341" y="1000.4551">-endTime : LocalTime</text><text fill="#000000" font-family="sans-serif" font-size="14" lengthAdjust="spacing" textLength="113" x="1341" y="1019.0762">-regularity : String</text><line style="stroke:#181818;stroke-width:0.5;" x1="1336" x2="2291" y1="1026.5898" y2="1026.5898"/><text fill="#000000" font-family="sans-serif" font-size="14" lengthAdjust="spacing" textLength="945" x="1341" y="1045.6973">+Irrigation(id : Integer, operationDate : LocalDate, sectorDesignation : String, durationInMinutes : Integer, startTime : LocalTime, endTime : LocalTime)</text><text fill="#000000" font-family="sans-serif" font-size="14" lengthAdjust="spacing" textLength="799" x="1341" y="1064.3184">+Irrigation(sector : Sector, operationDate : LocalDate, durationInMinutes : Integer, startTime : LocalTime, endTime : LocalTime)</text><text fill="#000000" font-family="sans-serif" font-size="14" lengthAdjust="spacing" textLength="915" x="1341" y="1082.9395">+Irrigation(sector : Sector, operationDate : LocalDate, durationInMinutes : Integer, startTime : LocalTime, endTime : LocalTime, regularity : String)</text><text fill="#000000" font-family="sans-serif" font-size="14" lengthAdjust="spacing" textLength="105" x="1341" y="1101.5605">+getId() : Integer</text><text fill="#000000" font-family="sans-serif" font-size="14" lengthAdjust="spacing" textLength="167" x="1341" y="1120.1816">+getFieldbookId() : Integer</text><text fill="#000000" font-family="sans-serif" font-size="14" lengthAdjust="spacing" textLength="132" x="1341" y="1138.8027">+getSector() : Sector</text><text fill="#000000" font-family="sans-serif" font-size="14" lengthAdjust="spacing" textLength="207" x="1341" y="1157.4238">+getOperationDate() : LocalDate</text><text fill="#000000" font-family="sans-serif" font-size="14" lengthAdjust="spacing" textLength="208" x="1341" y="1176.0449">+getDurationInMinutes() : Integer</text><text fill="#000000" font-family="sans-serif" font-size="14" lengthAdjust="spacing" textLength="176" x="1341" y="1194.666">+getStartTime() : LocalTime</text><text fill="#000000" font-family="sans-serif" font-size="14" lengthAdjust="spacing" textLength="171" x="1341" y="1213.2871">+getEndTime() : LocalTime</text><text fill="#000000" font-family="sans-serif" font-size="14" lengthAdjust="spacing" textLength="151" x="1341" y="1231.9082">+getRegularity() : String</text><text fill="#000000" font-family="sans-serif" font-size="14" lengthAdjust="spacing" textLength="153" x="1341" y="1250.5293">+setId(id : Integer) : void</text><text fill="#000000" font-family="sans-serif" font-size="14" lengthAdjust="spacing" textLength="208" x="1341" y="1269.1504">+setSector(sector : Sector) : void</text><text fill="#000000" font-family="sans-serif" font-size="14" lengthAdjust="spacing" textLength="334" x="1341" y="1287.7715">+setOperationDate(operationDate : LocalDate) : void</text><text fill="#000000" font-family="sans-serif" font-size="14" lengthAdjust="spacing" textLength="357" x="1341" y="1306.3926">+setDurationInMinutes(durationInMinutes : Integer) : void</text><text fill="#000000" font-family="sans-serif" font-size="14" lengthAdjust="spacing" textLength="272" x="1341" y="1325.0137">+setStartTime(startTime : LocalTime) : void</text><text fill="#000000" font-family="sans-serif" font-size="14" lengthAdjust="spacing" textLength="263" x="1341" y="1343.6348">+setEndTime(endTime : LocalTime) : void</text><text fill="#000000" font-family="sans-serif" font-size="14" lengthAdjust="spacing" textLength="247" x="1341" y="1362.2559">+setRegularity(regularity : String) : void</text><text fill="#000000" font-family="sans-serif" font-size="14" lengthAdjust="spacing" textLength="116" x="1341" y="1380.877">+toString() : String</text></g><!--class Fieldbook--><g id="elem_Fieldbook"><rect codeLine="58" fill="#F1F1F1" height="85.2422" id="Fieldbook" rx="2.5" ry="2.5" style="stroke:#181818;stroke-width:0.5;" width="317" x="1277" y="304.1211"/><ellipse cx="1400.25" cy="320.1211" fill="#ADD1B2" rx="11" ry="11" style="stroke:#181818;stroke-width:1.0;"/><path d="M1403.0156,315.9961 Q1403.1719,315.7773 1403.3594,315.668 Q1403.5469,315.5586 1403.7656,315.5586 Q1404.1406,315.5586 1404.375,315.8242 Q1404.6094,316.0742 1404.6094,316.6836 L1404.6094,318.1367 Q1404.6094,318.7461 1404.375,319.0117 Q1404.1406,319.2773 1403.7656,319.2773 Q1403.4219,319.2773 1403.2188,319.0742 Q1403.0156,318.8867 1402.9063,318.3711 Q1402.8594,318.0117 1402.6719,317.8242 Q1402.3438,317.4492 1401.7344,317.2305 Q1401.125,317.0117 1400.5,317.0117 Q1399.7344,317.0117 1399.0938,317.3398 Q1398.4688,317.668 1397.9688,318.418 Q1397.4844,319.168 1397.4844,320.1992 L1397.4844,321.293 Q1397.4844,322.5273 1398.375,323.3555 Q1399.2656,324.168 1400.8594,324.168 Q1401.7969,324.168 1402.4531,323.918 Q1402.8438,323.7617 1403.2656,323.3242 Q1403.5313,323.0586 1403.6719,322.9805 Q1403.8281,322.9023 1404.0313,322.9023 Q1404.3594,322.9023 1404.6094,323.168 Q1404.875,323.418 1404.875,323.7617 Q1404.875,324.1055 1404.5313,324.5117 Q1404.0313,325.0898 1403.2344,325.418 Q1402.1563,325.8711 1400.8594,325.8711 Q1399.3438,325.8711 1398.1406,325.2461 Q1397.1563,324.7461 1396.4688,323.6836 Q1395.7813,322.6055 1395.7813,321.3242 L1395.7813,320.168 Q1395.7813,318.8398 1396.3906,317.6992 Q1397.0156,316.543 1398.1094,315.9336 Q1399.2031,315.3086 1400.4375,315.3086 Q1401.1719,315.3086 1401.8125,315.4805 Q1402.4688,315.6367 1403.0156,315.9961 Z " fill="#000000"/><text fill="#000000" font-family="sans-serif" font-size="14" lengthAdjust="spacing" textLength="62" x="1420.75" y="325.918">Fieldbook</text><line style="stroke:#181818;stroke-width:0.5;" x1="1278" x2="1593" y1="336.1211" y2="336.1211"/><line style="stroke:#181818;stroke-width:0.5;" x1="1278" x2="1593" y1="344.1211" y2="344.1211"/><text fill="#000000" font-family="sans-serif" font-size="14" lengthAdjust="spacing" text-decoration="underline" textLength="305" x="1283" y="363.2285">+writeInFieldbook(irrigation : Irrigation) : boolean</text><text fill="#000000" font-family="sans-serif" font-size="14" lengthAdjust="spacing" text-decoration="underline" textLength="229" x="1283" y="381.8496">+getFieldbookFileWithPath() : String</text></g><!--class IrrigationSystem--><g id="elem_IrrigationSystem"><rect codeLine="63" fill="#F1F1F1" height="234.2109" id="IrrigationSystem" rx="2.5" ry="2.5" style="stroke:#181818;stroke-width:0.5;" width="579" x="1629" y="229.6211"/><ellipse cx="1863.75" cy="245.6211" fill="#ADD1B2" rx="11" ry="11" style="stroke:#181818;stroke-width:1.0;"/><path d="M1866.5156,241.4961 Q1866.6719,241.2773 1866.8594,241.168 Q1867.0469,241.0586 1867.2656,241.0586 Q1867.6406,241.0586 1867.875,241.3242 Q1868.1094,241.5742 1868.1094,242.1836 L1868.1094,243.6367 Q1868.1094,244.2461 1867.875,244.5117 Q1867.6406,244.7773 1867.2656,244.7773 Q1866.9219,244.7773 1866.7188,244.5742 Q1866.5156,244.3867 1866.4063,243.8711 Q1866.3594,243.5117 1866.1719,243.3242 Q1865.8438,242.9492 1865.2344,242.7305 Q1864.625,242.5117 1864,242.5117 Q1863.2344,242.5117 1862.5938,242.8398 Q1861.9688,243.168 1861.4688,243.918 Q1860.9844,244.668 1860.9844,245.6992 L1860.9844,246.793 Q1860.9844,248.0273 1861.875,248.8555 Q1862.7656,249.668 1864.3594,249.668 Q1865.2969,249.668 1865.9531,249.418 Q1866.3438,249.2617 1866.7656,248.8242 Q1867.0313,248.5586 1867.1719,248.4805 Q1867.3281,248.4023 1867.5313,248.4023 Q1867.8594,248.4023 1868.1094,248.668 Q1868.375,248.918 1868.375,249.2617 Q1868.375,249.6055 1868.0313,250.0117 Q1867.5313,250.5898 1866.7344,250.918 Q1865.6563,251.3711 1864.3594,251.3711 Q1862.8438,251.3711 1861.6406,250.7461 Q1860.6563,250.2461 1859.9688,249.1836 Q1859.2813,248.1055 1859.2813,246.8242 L1859.2813,245.668 Q1859.2813,244.3398 1859.8906,243.1992 Q1860.5156,242.043 1861.6094,241.4336 Q1862.7031,240.8086 1863.9375,240.8086 Q1864.6719,240.8086 1865.3125,240.9805 Q1865.9688,241.1367 1866.5156,241.4961 Z " fill="#000000"/><text fill="#000000" font-family="sans-serif" font-size="14" lengthAdjust="spacing" textLength="101" x="1884.25" y="251.418">IrrigationSystem</text><line style="stroke:#181818;stroke-width:0.5;" x1="1630" x2="2207" y1="261.6211" y2="261.6211"/><text fill="#000000" font-family="sans-serif" font-size="14" lengthAdjust="spacing" textLength="183" x="1635" y="280.7285">-irrigationPlan : IrrigationPlan</text><line style="stroke:#181818;stroke-width:0.5;" x1="1630" x2="2207" y1="288.2422" y2="288.2422"/><text fill="#000000" font-family="sans-serif" font-size="14" lengthAdjust="spacing" textLength="119" x="1635" y="307.3496">+IrrigationSystem()</text><text fill="#000000" font-family="sans-serif" font-size="14" lengthAdjust="spacing" textLength="391" x="1635" y="325.9707">+createIrrigationPlan(fileContent : List&lt;String&gt;) : IrrigationPlan</text><text fill="#000000" font-family="sans-serif" font-size="14" lengthAdjust="spacing" textLength="325" x="1635" y="344.5918">+isOn(date : LocalDate, time : LocalTime) : boolean</text><text fill="#000000" font-family="sans-serif" font-size="14" lengthAdjust="spacing" textLength="401" x="1635" y="363.2129">-checkIfOnInDay (date : LocalDate, regularity : String) : boolean</text><text fill="#000000" font-family="sans-serif" font-size="14" lengthAdjust="spacing" textLength="567" x="1635" y="381.834">+getCurrentlyIrrigatedSector(date : LocalDate, time : LocalTime) : CurrentlyIrrigatedSector</text><text fill="#000000" font-family="sans-serif" font-size="14" lengthAdjust="spacing" textLength="183" x="1635" y="400.4551">+endOfOperation() : boolean</text><text fill="#000000" font-family="sans-serif" font-size="14" lengthAdjust="spacing" textLength="144" x="1635" y="419.0762">+createFile() : boolean</text><text fill="#000000" font-family="sans-serif" font-size="14" lengthAdjust="spacing" textLength="521" x="1635" y="437.6973">-addContentToIrrigationPlanFile(content : List&lt;String&gt;, date : LocalDate) : boolean</text><text fill="#000000" font-family="sans-serif" font-size="14" lengthAdjust="spacing" textLength="222" x="1635" y="456.3184">+getFinishedOperation() : Irrigation</text></g><!--class IrrigationPlan--><g id="elem_IrrigationPlan"><rect codeLine="76" fill="#F1F1F1" height="215.5898" id="IrrigationPlan" rx="2.5" ry="2.5" style="stroke:#181818;stroke-width:0.5;" width="555" x="1900" y="542.6211"/><ellipse cx="2131.75" cy="558.6211" fill="#ADD1B2" rx="11" ry="11" style="stroke:#181818;stroke-width:1.0;"/><path d="M2134.5156,554.4961 Q2134.6719,554.2773 2134.8594,554.168 Q2135.0469,554.0586 2135.2656,554.0586 Q2135.6406,554.0586 2135.875,554.3242 Q2136.1094,554.5742 2136.1094,555.1836 L2136.1094,556.6367 Q2136.1094,557.2461 2135.875,557.5117 Q2135.6406,557.7773 2135.2656,557.7773 Q2134.9219,557.7773 2134.7188,557.5742 Q2134.5156,557.3867 2134.4063,556.8711 Q2134.3594,556.5117 2134.1719,556.3242 Q2133.8438,555.9492 2133.2344,555.7305 Q2132.625,555.5117 2132,555.5117 Q2131.2344,555.5117 2130.5938,555.8398 Q2129.9688,556.168 2129.4688,556.918 Q2128.9844,557.668 2128.9844,558.6992 L2128.9844,559.793 Q2128.9844,561.0273 2129.875,561.8555 Q2130.7656,562.668 2132.3594,562.668 Q2133.2969,562.668 2133.9531,562.418 Q2134.3438,562.2617 2134.7656,561.8242 Q2135.0313,561.5586 2135.1719,561.4805 Q2135.3281,561.4023 2135.5313,561.4023 Q2135.8594,561.4023 2136.1094,561.668 Q2136.375,561.918 2136.375,562.2617 Q2136.375,562.6055 2136.0313,563.0117 Q2135.5313,563.5898 2134.7344,563.918 Q2133.6563,564.3711 2132.3594,564.3711 Q2130.8438,564.3711 2129.6406,563.7461 Q2128.6563,563.2461 2127.9688,562.1836 Q2127.2813,561.1055 2127.2813,559.8242 L2127.2813,558.668 Q2127.2813,557.3398 2127.8906,556.1992 Q2128.5156,555.043 2129.6094,554.4336 Q2130.7031,553.8086 2131.9375,553.8086 Q2132.6719,553.8086 2133.3125,553.9805 Q2133.9688,554.1367 2134.5156,554.4961 Z " fill="#000000"/><text fill="#000000" font-family="sans-serif" font-size="14" lengthAdjust="spacing" textLength="83" x="2152.25" y="564.418">IrrigationPlan</text><line style="stroke:#181818;stroke-width:0.5;" x1="1901" x2="2454" y1="574.6211" y2="574.6211"/><text fill="#000000" font-family="sans-serif" font-size="14" lengthAdjust="spacing" text-decoration="underline" textLength="162" x="1906" y="593.7285">-creationDate : LocalDate</text><text fill="#000000" font-family="sans-serif" font-size="14" lengthAdjust="spacing" text-decoration="underline" textLength="127" x="1906" y="612.3496">-numberOfDays : int</text><text fill="#000000" font-family="sans-serif" font-size="14" lengthAdjust="spacing" textLength="364" x="1906" y="630.9707">-irrigationsPerDay : Map&lt;LocalDate, IrrigationPlanOfDay&gt;</text><line style="stroke:#181818;stroke-width:0.5;" x1="1901" x2="2454" y1="638.4844" y2="638.4844"/><text fill="#000000" font-family="sans-serif" font-size="14" lengthAdjust="spacing" textLength="460" x="1906" y="657.5918">+IrrigationPlan(irrigationsPerDay : Map&lt;LocalDate, IrrigationPlanOfDay&gt;)</text><text fill="#000000" font-family="sans-serif" font-size="14" lengthAdjust="spacing" textLength="101" x="1906" y="676.2129">+IrrigationPlan()</text><text fill="#000000" font-family="sans-serif" font-size="14" lengthAdjust="spacing" textLength="198" x="1906" y="694.834">+getCreationDate() : LocalDate</text><text fill="#000000" font-family="sans-serif" font-size="14" lengthAdjust="spacing" textLength="161" x="1906" y="713.4551">+getNumberOfDays() : int</text><text fill="#000000" font-family="sans-serif" font-size="14" lengthAdjust="spacing" textLength="397" x="1906" y="732.0762">+getIrrigationsPerDay() : Map&lt;LocalDate, IrrigationPlanOfDay&gt;</text><text fill="#000000" font-family="sans-serif" font-size="14" lengthAdjust="spacing" textLength="543" x="1906" y="750.6973">+setIrrigationsPerDay(irrigationsPerDay : Map&lt;LocalDate, IrrigationPlanOfDay&gt;) : void</text></g><!--class IrrigationPlanOfDay--><g id="elem_IrrigationPlanOfDay"><rect codeLine="88" fill="#F1F1F1" height="383.1797" id="IrrigationPlanOfDay" rx="2.5" ry="2.5" style="stroke:#181818;stroke-width:0.5;" width="1075" x="2327" y="921.6211"/><ellipse cx="2798.75" cy="937.6211" fill="#ADD1B2" rx="11" ry="11" style="stroke:#181818;stroke-width:1.0;"/><path d="M2801.5156,933.4961 Q2801.6719,933.2773 2801.8594,933.168 Q2802.0469,933.0586 2802.2656,933.0586 Q2802.6406,933.0586 2802.875,933.3242 Q2803.1094,933.5742 2803.1094,934.1836 L2803.1094,935.6367 Q2803.1094,936.2461 2802.875,936.5117 Q2802.6406,936.7773 2802.2656,936.7773 Q2801.9219,936.7773 2801.7188,936.5742 Q2801.5156,936.3867 2801.4063,935.8711 Q2801.3594,935.5117 2801.1719,935.3242 Q2800.8438,934.9492 2800.2344,934.7305 Q2799.625,934.5117 2799,934.5117 Q2798.2344,934.5117 2797.5938,934.8398 Q2796.9688,935.168 2796.4688,935.918 Q2795.9844,936.668 2795.9844,937.6992 L2795.9844,938.793 Q2795.9844,940.0273 2796.875,940.8555 Q2797.7656,941.668 2799.3594,941.668 Q2800.2969,941.668 2800.9531,941.418 Q2801.3438,941.2617 2801.7656,940.8242 Q2802.0313,940.5586 2802.1719,940.4805 Q2802.3281,940.4023 2802.5313,940.4023 Q2802.8594,940.4023 2803.1094,940.668 Q2803.375,940.918 2803.375,941.2617 Q2803.375,941.6055 2803.0313,942.0117 Q2802.5313,942.5898 2801.7344,942.918 Q2800.6563,943.3711 2799.3594,943.3711 Q2797.8438,943.3711 2796.6406,942.7461 Q2795.6563,942.2461 2794.9688,941.1836 Q2794.2813,940.1055 2794.2813,938.8242 L2794.2813,937.668 Q2794.2813,936.3398 2794.8906,935.1992 Q2795.5156,934.043 2796.6094,933.4336 Q2797.7031,932.8086 2798.9375,932.8086 Q2799.6719,932.8086 2800.3125,932.9805 Q2800.9688,933.1367 2801.5156,933.4961 Z " fill="#000000"/><text fill="#000000" font-family="sans-serif" font-size="14" lengthAdjust="spacing" textLength="123" x="2819.25" y="943.418">IrrigationPlanOfDay</text><line style="stroke:#181818;stroke-width:0.5;" x1="2328" x2="3401" y1="953.6211" y2="953.6211"/><text fill="#000000" font-family="sans-serif" font-size="14" lengthAdjust="spacing" textLength="176" x="2333" y="972.7285">-firstCycleBegin : LocalTime</text><text fill="#000000" font-family="sans-serif" font-size="14" lengthAdjust="spacing" textLength="165" x="2333" y="991.3496">-firstCycleEnd : LocalTime</text><text fill="#000000" font-family="sans-serif" font-size="14" lengthAdjust="spacing" textLength="199" x="2333" y="1009.9707">-secondCycleBegin : LocalTime</text><text fill="#000000" font-family="sans-serif" font-size="14" lengthAdjust="spacing" textLength="188" x="2333" y="1028.5918">-secondCycleEnd : LocalTime</text><text fill="#000000" font-family="sans-serif" font-size="14" lengthAdjust="spacing" textLength="187" x="2333" y="1047.2129">-irrigationList : List&lt;Irrigation&gt;</text><line style="stroke:#181818;stroke-width:0.5;" x1="2328" x2="3401" y1="1054.7266" y2="1054.7266"/><text fill="#000000" font-family="sans-serif" font-size="14" lengthAdjust="spacing" textLength="1063" x="2333" y="1073.834">+IrrigationPlanOfDay(firstCycleBegin : LocalTime, firstCycleEnd : LocalTime, secondCycleBegin : LocalTime, secondCycleEnd : LocalTime, irrigationList : List&lt;Irrigation&gt;)</text><text fill="#000000" font-family="sans-serif" font-size="14" lengthAdjust="spacing" textLength="214" x="2333" y="1092.4551">+getFirstCycleBegin() : LocalTime</text><text fill="#000000" font-family="sans-serif" font-size="14" lengthAdjust="spacing" textLength="203" x="2333" y="1111.0762">+getFirstCycleEnd() : LocalTime</text><text fill="#000000" font-family="sans-serif" font-size="14" lengthAdjust="spacing" textLength="234" x="2333" y="1129.6973">+getSecondCycleBegin() : LocalTime</text><text fill="#000000" font-family="sans-serif" font-size="14" lengthAdjust="spacing" textLength="223" x="2333" y="1148.3184">+getSecondCycleEnd() : LocalTime</text><text fill="#000000" font-family="sans-serif" font-size="14" lengthAdjust="spacing" textLength="220" x="2333" y="1166.9395">+getIrrigationList() : List&lt;Irrigation&gt;</text><text fill="#000000" font-family="sans-serif" font-size="14" lengthAdjust="spacing" textLength="345" x="2333" y="1185.5605">+setFirstCycleBegin(firstCycleBegin : LocalTime) : void</text><text fill="#000000" font-family="sans-serif" font-size="14" lengthAdjust="spacing" textLength="323" x="2333" y="1204.1816">+setFirstCycleEnd(firstCycleEnd : LocalTime) : void</text><text fill="#000000" font-family="sans-serif" font-size="14" lengthAdjust="spacing" textLength="388" x="2333" y="1222.8027">+setSecondCycleBegin(secondCycleBegin : LocalTime) : void</text><text fill="#000000" font-family="sans-serif" font-size="14" lengthAdjust="spacing" textLength="366" x="2333" y="1241.4238">+setSecondCycleEnd(secondCycleEnd : LocalTime) : void</text><text fill="#000000" font-family="sans-serif" font-size="14" lengthAdjust="spacing" textLength="334" x="2333" y="1260.0449">+setIrrigationList(irrigationList : List&lt;Irrigation&gt;) : void</text><text fill="#000000" font-family="sans-serif" font-size="14" lengthAdjust="spacing" textLength="184" x="2333" y="1278.666">+equals(o : Object) : boolean</text><text fill="#000000" font-family="sans-serif" font-size="14" lengthAdjust="spacing" textLength="110" x="2333" y="1297.2871">+hashCode() : int</text></g><!--link WriteInFieldbookUI to WriteInFieldbookController--><g id="link_WriteInFieldbookUI_WriteInFieldbookController"><path codeLine="109" d="M1241.53,98.6211 C1251.64,98.6211 1258.3,98.6211 1270.8,98.6211 " fill="none" id="WriteInFieldbookUI-to-WriteInFieldbookController" style="stroke:#181818;stroke-width:1.0;"/><polygon fill="#181818" points="1276.8,98.6211,1267.8,94.6211,1271.8,98.6211,1267.8,102.6211,1276.8,98.6211" style="stroke:#181818;stroke-width:1.0;"/></g><!--link WriteInFieldbookController to IrrigationRepository--><g id="link_WriteInFieldbookController_IrrigationRepository"><path codeLine="110" d="M1298.38,141.2111 C1167.85,180.8111 975.7117,239.0895 828.1117,283.8595 " fill="none" id="WriteInFieldbookController-to-IrrigationRepository" style="stroke:#181818;stroke-width:1.0;"/><polygon fill="#181818" points="822.37,285.6011,832.1436,286.8165,827.1547,284.1498,829.8215,279.161,822.37,285.6011" style="stroke:#181818;stroke-width:1.0;"/><polygon fill="#000000" points="1150.7153,191.718,1160.224,191.9048,1158.5178,186.28,1150.7153,191.718" style="stroke:#000000;stroke-width:1.0;"/><text fill="#000000" font-family="sans-serif" font-size="13" lengthAdjust="spacing" textLength="64" x="1164.5" y="195.6494">registers in</text></g><!--link WriteInFieldbookController to Fieldbook--><g id="link_WriteInFieldbookController_Fieldbook"><path codeLine="111" d="M1435.5,141.3511 C1435.5,186.7211 1435.5,252.8011 1435.5,298.1011 " fill="none" id="WriteInFieldbookController-to-Fieldbook" style="stroke:#181818;stroke-width:1.0;"/><polygon fill="#181818" points="1435.5,304.1011,1439.5,295.1011,1435.5,299.1011,1431.5,295.1011,1435.5,304.1011" style="stroke:#181818;stroke-width:1.0;"/><polygon fill="#000000" points="1440.5,195.2666,1443.4389,186.2215,1437.5611,186.2215,1440.5,195.2666" style="stroke:#000000;stroke-width:1.0;"/><text fill="#000000" font-family="sans-serif" font-size="13" lengthAdjust="spacing" textLength="48" x="1449.5" y="195.6494">writes in</text></g><!--link WriteInFieldbookController to IrrigationSystem--><g id="link_WriteInFieldbookController_IrrigationSystem"><path codeLine="112" d="M1517.16,141.2111 C1565.18,165.6711 1623.1432,195.1986 1685.2632,226.8286 " fill="none" id="WriteInFieldbookController-to-IrrigationSystem" style="stroke:#181818;stroke-width:1.0;"/><polygon fill="#181818" points="1690.61,229.5511,1684.4048,221.9029,1686.1543,227.2824,1680.7748,229.0319,1690.61,229.5511" style="stroke:#181818;stroke-width:1.0;"/><polygon fill="#000000" points="1629.9554,192.5358,1623.2293,185.8119,1620.5617,191.0496,1629.9554,192.5358" style="stroke:#000000;stroke-width:1.0;"/><text fill="#000000" font-family="sans-serif" font-size="13" lengthAdjust="spacing" textLength="28" x="1634.5" y="195.6494">uses</text></g><!--link IrrigationSystem to IrrigationPlan--><g id="link_IrrigationSystem_IrrigationPlan"><path codeLine="113" d="M2018.27,463.9511 C2040.35,489.7011 2059.7536,512.3269 2081.5236,537.7069 " fill="none" id="IrrigationSystem-to-IrrigationPlan" style="stroke:#181818;stroke-width:1.0;stroke-dasharray:7.0,7.0;"/><polygon fill="#181818" points="2085.43,542.2611,2082.6065,532.8256,2082.1747,538.466,2076.5343,538.0341,2085.43,542.2611" style="stroke:#181818;stroke-width:1.0;"/><polygon fill="#000000" points="2064.755,507.062,2061.0976,498.2828,2056.6358,502.1093,2064.755,507.062" style="stroke:#000000;stroke-width:1.0;"/><text fill="#000000" font-family="sans-serif" font-size="13" lengthAdjust="spacing" textLength="43" x="2070.5" y="508.6494">creates</text></g><!--link IrrigationPlan to IrrigationPlanOfDay--><g id="link_IrrigationPlan_IrrigationPlanOfDay"><path codeLine="114" d="M2337.27,758.7211 C2409.52,807.1511 2492.156,862.5404 2575.046,918.1004 " fill="none" id="IrrigationPlan-to-IrrigationPlanOfDay" style="stroke:#181818;stroke-width:1.0;stroke-dasharray:7.0,7.0;"/><polygon fill="#181818" points="2580.03,921.4411,2574.7812,913.1074,2575.8767,918.6572,2570.3269,919.7527,2580.03,921.4411" style="stroke:#181818;stroke-width:1.0;"/><polygon fill="#000000" points="2408.6533,801.0505,2402.7763,793.5731,2399.5036,798.4556,2408.6533,801.0505" style="stroke:#000000;stroke-width:1.0;"/><text fill="#000000" font-family="sans-serif" font-size="13" lengthAdjust="spacing" textLength="63" x="2413.5" y="803.6494">consists of</text></g><!--link IrrigationSystem to Irrigation--><g id="link_IrrigationSystem_Irrigation"><path codeLine="115" d="M1866.64,463.8711 C1848,505.6311 1831.5,542.6211 1831.5,542.6211 C1831.5,542.6211 1826.9798,685.7541 1822.3698,831.3841 " fill="none" id="IrrigationSystem-to-Irrigation" style="stroke:#181818;stroke-width:1.0;stroke-dasharray:7.0,7.0;"/><polygon fill="#181818" points="1822.18,837.3811,1826.4628,828.5122,1822.3382,832.3836,1818.4668,828.259,1822.18,837.3811" style="stroke:#181818;stroke-width:1.0;"/><polygon fill="#000000" points="1835.902,655.7307,1839.9016,647.102,1834.0659,646.3991,1835.902,655.7307" style="stroke:#000000;stroke-width:1.0;"/><text fill="#000000" font-family="sans-serif" font-size="13" lengthAdjust="spacing" textLength="36" x="1845.5" y="656.1494">gets a</text></g><!--link IrrigationPlan to Irrigation--><g id="link_IrrigationPlan_Irrigation"><path codeLine="116" d="M2092.85,758.7211 C2073.73,782.9011 2056.3109,804.9442 2034.4609,832.5842 " fill="none" id="IrrigationPlan-to-Irrigation" style="stroke:#181818;stroke-width:1.0;stroke-dasharray:7.0,7.0;"/><polygon fill="#181818" points="2030.74,837.2911,2039.4593,832.7113,2033.8408,833.3687,2033.1834,827.7501,2030.74,837.2911" style="stroke:#181818;stroke-width:1.0;"/><polygon fill="#000000" points="2062.3993,802.189,2070.3141,796.9158,2065.703,793.2707,2062.3993,802.189" style="stroke:#000000;stroke-width:1.0;"/><text fill="#000000" font-family="sans-serif" font-size="13" lengthAdjust="spacing" textLength="10" x="2074.5" y="803.6494">of</text></g><!--SRC=[tLZ1Rjiu4BthAtYKKMLHO6z6OM3NtW06sZg8K_JCIBJC3KDwIQg5DkY_xv2IA5Aav23eeTYSPCwRuRoPuN0OzKJv1KlyZ2wuVC8rEUgM4IH9gJ6l6ScK0wWphiHtocjqmapv4aOvqUs5e8jWhVcHUSAIOQN-q5hInqQJVIduaVvBqFiiqrJ3Lb-E7-_U_uvkqDO0qOxY6jIopEgXhvA24h-bX5MFGZnzsQEN3C7V3G9BMWh6Y4Jh2BTrGej-bp2KhtgHR7Y-0XlV1Aso7tCxZnPx3zwXxnD8JgMaDTPKS32tTp-CSP0pWdclMHDzIpbLPr8TBaHQbFLXL1ez6TVkoKKegeLidGyfeMC6sunoPJVuI9N-C2vkUYJrpDG08T8Ziw-CProJciW2dGQwuR8OUEom9cOZKM9clWkae9g4t155Qpv4vmW5mUi2LKsdjUUVA8S2KRvDfR7K3_JPsJFV1IAycYww_FKf9QfX-aZqWp24S_SROFV3Tp8SYQYxYgCUuNxf1LpKjFoHZaeFwlWRqlQZNvqDM2zVYCnWDnMUNfQ8KI-Hf6uOXj9jNHgYMihfhvJRsBr9H1Sz_5zvKQJIvn_tgciZNftqtSQLPnhGKR0ohqgjwE2pwff8KAeMj9loczbcO3hQSQLf0NzrdEV4zuvzvwfVlihIzojtqXMKepd9N8mBES_cDLQCux2G-OH_BZx9ceWLXdXTxuagY5wgZ4Ay5jso7sZN7LqzkOl8TSAttuhEX5-mjvIHhrIVxx0-9rqPBHvRkBYUntRj17SCXtkRXUWyT-hkyYmbWGo7Ela9l36J0E5wk3qwVpQhkGseEl2yYXg2JcJB3mSCE6TIFkrF1wYS7MvHmiPC4gDPOzj82HwpjdUGLFqvU9rRS-hz1b1wXrCuneGUT94qYSnZbhYg-e0-Y31-Lg5C1XlwQU8a_fGPozRAo_HwjnJcxsg7uytp8v674oJCd7FATLICwev8ayyr-eGl7xpGXpvO6vkeI6qLlj7OActDkpws7isvJl_PesWn0ydflDcvPY6lPwfI9jxADnhg4oYNwnELIc_Raf4_OGJcYSbfH43NJSZXLX6yMZJXGT8sHggctkS7zWIJV851CUzyiUXtiU1oSTtRbNyO0-_cRlXRtyyvq77YyIjm2zRs0OkbPvAAQIm4FRw0GtApAKdEBI7XfPmjgfkDvrCQgqw2SptZeGNoJuEPoWMi7Xx_XciZRjHdhCvRKH7NJE2u9jxzDvkbL_x2S_q6D9DlwBMvGErZLy6-Q7FDo3ZqhBifvtLgqO2oHeq2tKqMINuBuFtOqbsV8TwAOdJNqTRcVoCAY2aaJjUt0JmS0eNmjHq0QEtz1m00]--></g></svg>