<?xml version="1.0" encoding="us-ascii" standalone="no"?><svg xmlns="http://www.w3.org/2000/svg" xmlns:xlink="http://www.w3.org/1999/xlink" contentStyleType="text/css" height="532.8px" preserveAspectRatio="none" style="width:1363px;height:532px;background:#FFFFFF;" version="1.1" viewBox="0 0 1363 532" width="1363.2px" zoomAndPan="magnify"><defs/><g><text fill="#000000" font-family="sans-serif" font-size="11.2" font-weight="bold" lengthAdjust="spacing" textLength="157.6" x="604" y="24.0859">USLP03 - Sequence Diagram</text><rect fill="#FFFFFF" height="300.3938" style="stroke:#181818;stroke-width:0.8000000000000002;" width="8" x="577.2" y="146.2594"/><rect fill="#FFFFFF" height="75.0984" style="stroke:#181818;stroke-width:0.8000000000000002;" width="8" x="743.6" y="196.325"/><rect fill="#FFFFFF" height="100.1313" style="stroke:#181818;stroke-width:0.8000000000000002;" width="8" x="743.6" y="321.4891"/><rect fill="#FFFFFF" height="25.0328" style="stroke:#181818;stroke-width:0.8000000000000002;" width="8" x="880.4" y="221.3578"/><rect fill="#FFFFFF" height="25.0328" style="stroke:#181818;stroke-width:0.8000000000000002;" width="8" x="1316" y="371.5547"/><rect fill="none" height="340.8594" style="stroke:#000000;stroke-width:1.2000000000000002;" width="1350.4" x="8" y="112.1938"/><line style="stroke:#181818;stroke-width:0.4000000000000001;stroke-dasharray:5.0,5.0;" x1="29.6" x2="29.6" y1="98.5938" y2="466.6531"/><line style="stroke:#181818;stroke-width:0.4000000000000001;stroke-dasharray:5.0,5.0;" x1="98.4" x2="98.4" y1="98.5938" y2="466.6531"/><line style="stroke:#181818;stroke-width:0.4000000000000001;stroke-dasharray:5.0,5.0;" x1="581.2" x2="581.2" y1="98.5938" y2="466.6531"/><line style="stroke:#181818;stroke-width:0.4000000000000001;stroke-dasharray:5.0,5.0;" x1="747.6" x2="747.6" y1="98.5938" y2="466.6531"/><line style="stroke:#181818;stroke-width:0.4000000000000001;stroke-dasharray:5.0,5.0;" x1="884" x2="884" y1="98.5938" y2="466.6531"/><line style="stroke:#181818;stroke-width:0.4000000000000001;stroke-dasharray:5.0,5.0;" x1="1226.4" x2="1226.4" y1="98.5938" y2="466.6531"/><line style="stroke:#181818;stroke-width:0.4000000000000001;stroke-dasharray:5.0,5.0;" x1="1320" x2="1320" y1="98.5938" y2="466.6531"/><text fill="#000000" font-family="sans-serif" font-size="11.2" lengthAdjust="spacing" textLength="23.2" x="16" y="95.7828">User</text><ellipse cx="30" cy="42.4969" fill="#E2E2F0" rx="6.4" ry="6.4" style="stroke:#181818;stroke-width:0.4000000000000001;"/><path d="M30,48.8969 L30,70.4969 M19.6,55.2969 L40.4,55.2969 M30,70.4969 L19.6,82.4969 M30,70.4969 L40.4,82.4969 " fill="none" style="stroke:#181818;stroke-width:0.4000000000000001;"/><text fill="#000000" font-family="sans-serif" font-size="11.2" lengthAdjust="spacing" textLength="23.2" x="16" y="477.9391">User</text><ellipse cx="30" cy="487.55" fill="#E2E2F0" rx="6.4" ry="6.4" style="stroke:#181818;stroke-width:0.4000000000000001;"/><path d="M30,493.95 L30,515.55 M19.6,500.35 L40.4,500.35 M30,515.55 L19.6,527.55 M30,515.55 L40.4,527.55 " fill="none" style="stroke:#181818;stroke-width:0.4000000000000001;"/><rect fill="#E2E2F0" height="26.0969" rx="2" ry="2" style="stroke:#181818;stroke-width:0.4000000000000001;" width="92.8" x="52" y="71.6969"/><text fill="#000000" font-family="sans-serif" font-size="11.2" lengthAdjust="spacing" textLength="81.6" x="57.6" y="89.3828">IrrigationMonitor</text><rect fill="#E2E2F0" height="26.0969" rx="2" ry="2" style="stroke:#181818;stroke-width:0.4000000000000001;" width="92.8" x="52" y="465.8531"/><text fill="#000000" font-family="sans-serif" font-size="11.2" lengthAdjust="spacing" textLength="81.6" x="57.6" y="483.5391">IrrigationMonitor</text><rect fill="#E2E2F0" height="26.0969" rx="2" ry="2" style="stroke:#181818;stroke-width:0.4000000000000001;" width="105.6" x="528.4" y="71.6969"/><text fill="#000000" font-family="sans-serif" font-size="11.2" lengthAdjust="spacing" textLength="94.4" x="534" y="89.3828">WriteInFieldbookUI</text><rect fill="#E2E2F0" height="26.0969" rx="2" ry="2" style="stroke:#181818;stroke-width:0.4000000000000001;" width="105.6" x="528.4" y="465.8531"/><text fill="#000000" font-family="sans-serif" font-size="11.2" lengthAdjust="spacing" textLength="94.4" x="534" y="483.5391">WriteInFieldbookUI</text><rect fill="#E2E2F0" height="26.0969" rx="2" ry="2" style="stroke:#181818;stroke-width:0.4000000000000001;" width="145.6" x="674.8" y="71.6969"/><text fill="#000000" font-family="sans-serif" font-size="11.2" lengthAdjust="spacing" textLength="134.4" x="680.4" y="89.3828">WriteInFieldbookController</text><rect fill="#E2E2F0" height="26.0969" rx="2" ry="2" style="stroke:#181818;stroke-width:0.4000000000000001;" width="145.6" x="674.8" y="465.8531"/><text fill="#000000" font-family="sans-serif" font-size="11.2" lengthAdjust="spacing" textLength="134.4" x="680.4" y="483.5391">WriteInFieldbookController</text><rect fill="#E2E2F0" height="26.0969" rx="2" ry="2" style="stroke:#181818;stroke-width:0.4000000000000001;" width="92" x="838.4" y="71.6969"/><text fill="#000000" font-family="sans-serif" font-size="11.2" lengthAdjust="spacing" textLength="80.8" x="844" y="89.3828">IrrigationSystem</text><rect fill="#E2E2F0" height="26.0969" rx="2" ry="2" style="stroke:#181818;stroke-width:0.4000000000000001;" width="92" x="838.4" y="465.8531"/><text fill="#000000" font-family="sans-serif" font-size="11.2" lengthAdjust="spacing" textLength="80.8" x="844" y="483.5391">IrrigationSystem</text><rect fill="#E2E2F0" height="26.0969" rx="2" ry="2" style="stroke:#181818;stroke-width:0.4000000000000001;" width="109.6" x="1172" y="71.6969"/><text fill="#000000" font-family="sans-serif" font-size="11.2" lengthAdjust="spacing" textLength="98.4" x="1177.6" y="89.3828">IrrigationRepository</text><rect fill="#E2E2F0" height="26.0969" rx="2" ry="2" style="stroke:#181818;stroke-width:0.4000000000000001;" width="109.6" x="1172" y="465.8531"/><text fill="#000000" font-family="sans-serif" font-size="11.2" lengthAdjust="spacing" textLength="98.4" x="1177.6" y="483.5391">IrrigationRepository</text><rect fill="#E2E2F0" height="26.0969" rx="2" ry="2" style="stroke:#181818;stroke-width:0.4000000000000001;" width="60.8" x="1289.6" y="71.6969"/><text fill="#000000" font-family="sans-serif" font-size="11.2" lengthAdjust="spacing" textLength="49.6" x="1295.2" y="89.3828">Fieldbook</text><rect fill="#E2E2F0" height="26.0969" rx="2" ry="2" style="stroke:#181818;stroke-width:0.4000000000000001;" width="60.8" x="1289.6" y="465.8531"/><text fill="#000000" font-family="sans-serif" font-size="11.2" lengthAdjust="spacing" textLength="49.6" x="1295.2" y="483.5391">Fieldbook</text><rect fill="#FFFFFF" height="300.3938" style="stroke:#181818;stroke-width:0.8000000000000002;" width="8" x="577.2" y="146.2594"/><rect fill="#FFFFFF" height="75.0984" style="stroke:#181818;stroke-width:0.8000000000000002;" width="8" x="743.6" y="196.325"/><rect fill="#FFFFFF" height="100.1313" style="stroke:#181818;stroke-width:0.8000000000000002;" width="8" x="743.6" y="321.4891"/><rect fill="#FFFFFF" height="25.0328" style="stroke:#181818;stroke-width:0.8000000000000002;" width="8" x="880.4" y="221.3578"/><rect fill="#FFFFFF" height="25.0328" style="stroke:#181818;stroke-width:0.8000000000000002;" width="8" x="1316" y="371.5547"/><path d="M8,112.1938 L56.8,112.1938 L56.8,119.6266 L48.8,127.6266 L8,127.6266 L8,112.1938 " fill="#EEEEEE" style="stroke:#000000;stroke-width:1.2000000000000002;"/><rect fill="none" height="340.8594" style="stroke:#000000;stroke-width:1.2000000000000002;" width="1350.4" x="8" y="112.1938"/><text fill="#000000" font-family="sans-serif" font-size="10.4" font-weight="bold" lengthAdjust="spacing" textLength="12.8" x="20" y="124.2164">alt</text><text fill="#000000" font-family="sans-serif" font-size="8.8" font-weight="bold" lengthAdjust="spacing" textLength="76.8" x="68.8" y="123.2898">[end of irrigation]</text><polygon fill="#181818" points="567.6,143.0594,575.6,146.2594,567.6,149.4594,570.8,146.2594" style="stroke:#181818;stroke-width:0.8000000000000002;"/><line style="stroke:#181818;stroke-width:0.8000000000000002;" x1="98.4" x2="572.4" y1="146.2594" y2="146.2594"/><text fill="#000000" font-family="sans-serif" font-size="10.4" font-weight="bold" lengthAdjust="spacing" textLength="5.6" x="104" y="142.0492">1</text><text fill="#000000" font-family="sans-serif" font-size="10.4" lengthAdjust="spacing" textLength="20.8" x="112.8" y="142.0492">run()</text><polygon fill="#181818" points="38.8,168.0922,30.8,171.2922,38.8,174.4922,35.6,171.2922" style="stroke:#181818;stroke-width:0.8000000000000002;"/><line style="stroke:#181818;stroke-width:0.8000000000000002;stroke-dasharray:2.0,2.0;" x1="34" x2="576.4" y1="171.2922" y2="171.2922"/><text fill="#000000" font-family="sans-serif" font-size="10.4" font-weight="bold" lengthAdjust="spacing" textLength="5.6" x="43.6" y="167.082">2</text><text fill="#000000" font-family="sans-serif" font-size="10.4" lengthAdjust="spacing" textLength="519.2" x="52.4" y="167.082">states that an operation ended in the irrigation system at that exact moment (it shows the current date and time)</text><polygon fill="#181818" points="734,193.125,742,196.325,734,199.525,737.2,196.325" style="stroke:#181818;stroke-width:0.8000000000000002;"/><line style="stroke:#181818;stroke-width:0.8000000000000002;" x1="585.2" x2="738.8" y1="196.325" y2="196.325"/><text fill="#000000" font-family="sans-serif" font-size="10.4" font-weight="bold" lengthAdjust="spacing" textLength="5.6" x="590.8" y="192.1148">3</text><text fill="#000000" font-family="sans-serif" font-size="10.4" lengthAdjust="spacing" textLength="104.8" x="599.6" y="192.1148">getFinishedOperation()</text><polygon fill="#181818" points="870.8,218.1578,878.8,221.3578,870.8,224.5578,874,221.3578" style="stroke:#181818;stroke-width:0.8000000000000002;"/><line style="stroke:#181818;stroke-width:0.8000000000000002;" x1="751.6" x2="875.6" y1="221.3578" y2="221.3578"/><text fill="#000000" font-family="sans-serif" font-size="10.4" font-weight="bold" lengthAdjust="spacing" textLength="5.6" x="757.2" y="217.1477">4</text><text fill="#000000" font-family="sans-serif" font-size="10.4" lengthAdjust="spacing" textLength="104.8" x="766" y="217.1477">getFinishedOperation()</text><polygon fill="#181818" points="760.4,243.1906,752.4,246.3906,760.4,249.5906,757.2,246.3906" style="stroke:#181818;stroke-width:0.8000000000000002;"/><line style="stroke:#181818;stroke-width:0.8000000000000002;stroke-dasharray:2.0,2.0;" x1="755.6" x2="883.6" y1="246.3906" y2="246.3906"/><text fill="#000000" font-family="sans-serif" font-size="10.4" font-weight="bold" lengthAdjust="spacing" textLength="5.6" x="765.2" y="242.1805">5</text><text fill="#000000" font-family="sans-serif" font-size="10.4" lengthAdjust="spacing" textLength="80" x="774" y="242.1805">finishedOperation</text><polygon fill="#181818" points="594,268.2234,586,271.4234,594,274.6234,590.8,271.4234" style="stroke:#181818;stroke-width:0.8000000000000002;"/><line style="stroke:#181818;stroke-width:0.8000000000000002;stroke-dasharray:2.0,2.0;" x1="589.2" x2="746.8" y1="271.4234" y2="271.4234"/><text fill="#000000" font-family="sans-serif" font-size="10.4" font-weight="bold" lengthAdjust="spacing" textLength="5.6" x="598.8" y="267.2133">6</text><text fill="#000000" font-family="sans-serif" font-size="10.4" lengthAdjust="spacing" textLength="80" x="607.6" y="267.2133">finishedOperation</text><polygon fill="#181818" points="38.8,293.2563,30.8,296.4563,38.8,299.6563,35.6,296.4563" style="stroke:#181818;stroke-width:0.8000000000000002;"/><line style="stroke:#181818;stroke-width:0.8000000000000002;stroke-dasharray:2.0,2.0;" x1="34" x2="576.4" y1="296.4563" y2="296.4563"/><text fill="#000000" font-family="sans-serif" font-size="10.4" font-weight="bold" lengthAdjust="spacing" textLength="5.6" x="43.6" y="292.2461">7</text><text fill="#000000" font-family="sans-serif" font-size="10.4" lengthAdjust="spacing" textLength="160" x="52.4" y="292.2461">shows the details of said operation</text><polygon fill="#181818" points="734,318.2891,742,321.4891,734,324.6891,737.2,321.4891" style="stroke:#181818;stroke-width:0.8000000000000002;"/><line style="stroke:#181818;stroke-width:0.8000000000000002;" x1="585.2" x2="738.8" y1="321.4891" y2="321.4891"/><text fill="#000000" font-family="sans-serif" font-size="10.4" font-weight="bold" lengthAdjust="spacing" textLength="5.6" x="590.8" y="317.2789">8</text><text fill="#000000" font-family="sans-serif" font-size="10.4" lengthAdjust="spacing" textLength="134.4" x="599.6" y="317.2789">writeInFieldbook(id, irrigation)</text><polygon fill="#181818" points="1217.2,343.3219,1225.2,346.5219,1217.2,349.7219,1220.4,346.5219" style="stroke:#181818;stroke-width:0.8000000000000002;"/><line style="stroke:#181818;stroke-width:0.8000000000000002;" x1="751.6" x2="1222" y1="346.5219" y2="346.5219"/><text fill="#000000" font-family="sans-serif" font-size="10.4" font-weight="bold" lengthAdjust="spacing" textLength="5.6" x="757.2" y="342.3117">9</text><text fill="#000000" font-family="sans-serif" font-size="10.4" lengthAdjust="spacing" textLength="447.2" x="766" y="342.3117">irrigationRegister(id, 1, operationDate, sectorDesignation, durationInMinutes, startTime, endTime)</text><polygon fill="#181818" points="1306.4,368.3547,1314.4,371.5547,1306.4,374.7547,1309.6,371.5547" style="stroke:#181818;stroke-width:0.8000000000000002;"/><line style="stroke:#181818;stroke-width:0.8000000000000002;" x1="751.6" x2="1311.2" y1="371.5547" y2="371.5547"/><text fill="#000000" font-family="sans-serif" font-size="10.4" font-weight="bold" lengthAdjust="spacing" textLength="11.2" x="757.2" y="367.3445">10</text><text fill="#000000" font-family="sans-serif" font-size="10.4" lengthAdjust="spacing" textLength="146.4" x="771.6" y="367.3445">writeInFieldbook(map, irrigation)</text><polygon fill="#181818" points="760.4,393.3875,752.4,396.5875,760.4,399.7875,757.2,396.5875" style="stroke:#181818;stroke-width:0.8000000000000002;"/><line style="stroke:#181818;stroke-width:0.8000000000000002;stroke-dasharray:2.0,2.0;" x1="755.6" x2="1319.2" y1="396.5875" y2="396.5875"/><text fill="#000000" font-family="sans-serif" font-size="10.4" font-weight="bold" lengthAdjust="spacing" textLength="11.2" x="765.2" y="392.3773">11</text><text fill="#000000" font-family="sans-serif" font-size="10.4" lengthAdjust="spacing" textLength="39.2" x="779.6" y="392.3773">success</text><polygon fill="#181818" points="594,418.4203,586,421.6203,594,424.8203,590.8,421.6203" style="stroke:#181818;stroke-width:0.8000000000000002;"/><line style="stroke:#181818;stroke-width:0.8000000000000002;stroke-dasharray:2.0,2.0;" x1="589.2" x2="746.8" y1="421.6203" y2="421.6203"/><text fill="#000000" font-family="sans-serif" font-size="10.4" font-weight="bold" lengthAdjust="spacing" textLength="11.2" x="598.8" y="417.4102">12</text><text fill="#000000" font-family="sans-serif" font-size="10.4" lengthAdjust="spacing" textLength="39.2" x="613.2" y="417.4102">success</text><polygon fill="#181818" points="38.8,443.4531,30.8,446.6531,38.8,449.8531,35.6,446.6531" style="stroke:#181818;stroke-width:0.8000000000000002;"/><line style="stroke:#181818;stroke-width:0.8000000000000002;stroke-dasharray:2.0,2.0;" x1="34" x2="580.4" y1="446.6531" y2="446.6531"/><text fill="#000000" font-family="sans-serif" font-size="10.4" font-weight="bold" lengthAdjust="spacing" textLength="11.2" x="43.6" y="442.443">13</text><text fill="#000000" font-family="sans-serif" font-size="10.4" lengthAdjust="spacing" textLength="235.2" x="58" y="442.443">shows a success message (if successfully written)</text><!--SRC=[fLHDRvj04BtpAqOvsHAMKlNcGowr8Y4rIbK7zRo1CHuLTkdkqDJ_lhDh6nOmKQhk0S5ylPatRs7Y6Y7VV_rs_nasiCTV7Ue2OKUgigf94jMnqLtpYbRU2pOMSYVlhR9C1RLACznbrbAbc8n-CfeavWwKWvbrdFJ34cEc7mdhyjMOdtaMilBi_R0lHhCrTOrdaE5pgQNzoJ4sauxEngMKxzWQvpi-JT86npYrxox4zr_2MCs0kWHp0Egh921dnWvi7cJuBTXEhzOXHEYctuhHSmANasUmyO6o0zY2Ot4xuADYK1fCYpQKz9XO0cbnOOGCBimD4Xvoy8zWG6CQb2bMnE2Evis5fAAprbjBtu2I4PWQN2UZHXuY-hTG8J-I9dV4yldQo2hAwCU9TjOx_HdillHqMOi0SOaUOxRgKTXu0UU8m6iyps6ADIfHuWUnugakArwk75MznLAq_Msqgn9PKUsyofoYSj31U-jwcroi5PLf99Nr_-zjk2qYLOhC5GbDDW1-IeTkTmAIWaF_bzcXeqe7SmfbTmx8z1FfJXIVUkLRVX59fbxhBsDjpflgfxmnTwFQsuEFXeykzLH9lMic8TSL1Jgt99o5cZSKCotqxpfHrnhGo4DLAFVzSBKTkhe-1MOOBmH42FBx4OwJlm00]--></g></svg>