<?xml version="1.0" encoding="us-ascii" standalone="no"?><svg xmlns="http://www.w3.org/2000/svg" xmlns:xlink="http://www.w3.org/1999/xlink" contentStyleType="text/css" height="803.2px" preserveAspectRatio="none" style="width:1669px;height:803px;background:#FFFFFF;" version="1.1" viewBox="0 0 1669 803" width="1669.6px" zoomAndPan="magnify"><defs/><g><rect fill="#FFFFFF" height="25.0328" style="stroke:#181818;stroke-width:0.8000000000000002;" width="8" x="406" y="93.5297"/><rect fill="#FFFFFF" height="25.0328" style="stroke:#181818;stroke-width:0.8000000000000002;" width="8" x="406" y="143.5953"/><rect fill="#FFFFFF" height="25.0328" style="stroke:#181818;stroke-width:0.8000000000000002;" width="8" x="406" y="193.6609"/><rect fill="#FFFFFF" height="25.0328" style="stroke:#181818;stroke-width:0.8000000000000002;" width="8" x="406" y="243.7266"/><rect fill="#FFFFFF" height="25.0328" style="stroke:#181818;stroke-width:0.8000000000000002;" width="8" x="406" y="314.825"/><rect fill="#FFFFFF" height="30.6328" style="stroke:#181818;stroke-width:0.8000000000000002;" width="8" x="406" y="364.8906"/><rect fill="#FFFFFF" height="25.0328" style="stroke:#181818;stroke-width:0.8000000000000002;" width="8" x="406" y="441.5891"/><rect fill="#FFFFFF" height="30.6328" style="stroke:#181818;stroke-width:0.8000000000000002;" width="8" x="406" y="491.6547"/><rect fill="#FFFFFF" height="175.2297" style="stroke:#181818;stroke-width:0.8000000000000002;" width="8" x="406" y="547.3203"/><rect fill="#FFFFFF" height="125.1641" style="stroke:#181818;stroke-width:0.8000000000000002;" width="8" x="995.6" y="572.3531"/><rect fill="#FFFFFF" height="25.0328" style="stroke:#181818;stroke-width:0.8000000000000002;" width="8" x="1135.6" y="597.3859"/><rect fill="#FFFFFF" height="25.0328" style="stroke:#181818;stroke-width:0.8000000000000002;" width="8" x="1585.2" y="647.4516"/><rect fill="none" height="90.5313" style="stroke:#000000;stroke-width:1.2000000000000002;" width="484.8" x="8" y="280.7594"/><rect fill="none" height="90.5313" style="stroke:#000000;stroke-width:1.2000000000000002;" width="484.8" x="8" y="407.5234"/><line style="stroke:#181818;stroke-width:0.4000000000000001;stroke-dasharray:5.0,5.0;" x1="29.6" x2="29.6" y1="66.8969" y2="736.95"/><line style="stroke:#181818;stroke-width:0.4000000000000001;stroke-dasharray:5.0,5.0;" x1="409.6" x2="409.6" y1="66.8969" y2="736.95"/><line style="stroke:#181818;stroke-width:0.4000000000000001;stroke-dasharray:5.0,5.0;" x1="999.2" x2="999.2" y1="66.8969" y2="736.95"/><line style="stroke:#181818;stroke-width:0.4000000000000001;stroke-dasharray:5.0,5.0;" x1="1139.2" x2="1139.2" y1="66.8969" y2="736.95"/><line style="stroke:#181818;stroke-width:0.4000000000000001;stroke-dasharray:5.0,5.0;" x1="1589.2" x2="1589.2" y1="66.8969" y2="736.95"/><text fill="#000000" font-family="sans-serif" font-size="11.2" lengthAdjust="spacing" textLength="23.2" x="16" y="64.0859">User</text><ellipse cx="30" cy="10.8" fill="#E2E2F0" rx="6.4" ry="6.4" style="stroke:#181818;stroke-width:0.4000000000000001;"/><path d="M30,17.2 L30,38.8 M19.6,23.6 L40.4,23.6 M30,38.8 L19.6,50.8 M30,38.8 L40.4,50.8 " fill="none" style="stroke:#181818;stroke-width:0.4000000000000001;"/><text fill="#000000" font-family="sans-serif" font-size="11.2" lengthAdjust="spacing" textLength="23.2" x="16" y="748.2359">User</text><ellipse cx="30" cy="757.8469" fill="#E2E2F0" rx="6.4" ry="6.4" style="stroke:#181818;stroke-width:0.4000000000000001;"/><path d="M30,764.2469 L30,785.8469 M19.6,770.6469 L40.4,770.6469 M30,785.8469 L19.6,797.8469 M30,785.8469 L40.4,797.8469 " fill="none" style="stroke:#181818;stroke-width:0.4000000000000001;"/><rect fill="#E2E2F0" height="26.0969" rx="2" ry="2" style="stroke:#181818;stroke-width:0.4000000000000001;" width="149.6" x="335.2" y="40"/><text fill="#000000" font-family="sans-serif" font-size="11.2" lengthAdjust="spacing" textLength="138.4" x="340.8" y="57.6859">OperationSowingRegisterUI</text><rect fill="#E2E2F0" height="26.0969" rx="2" ry="2" style="stroke:#181818;stroke-width:0.4000000000000001;" width="149.6" x="335.2" y="736.15"/><text fill="#000000" font-family="sans-serif" font-size="11.2" lengthAdjust="spacing" textLength="138.4" x="340.8" y="753.8359">OperationSowingRegisterUI</text><rect fill="#E2E2F0" height="26.0969" rx="2" ry="2" style="stroke:#181818;stroke-width:0.4000000000000001;" width="189.6" x="904.8" y="40"/><text fill="#000000" font-family="sans-serif" font-size="11.2" lengthAdjust="spacing" textLength="178.4" x="910.4" y="57.6859">OperationSowingRegisterController</text><rect fill="#E2E2F0" height="26.0969" rx="2" ry="2" style="stroke:#181818;stroke-width:0.4000000000000001;" width="189.6" x="904.8" y="736.15"/><text fill="#000000" font-family="sans-serif" font-size="11.2" lengthAdjust="spacing" textLength="178.4" x="910.4" y="753.8359">OperationSowingRegisterController</text><rect fill="#E2E2F0" height="26.0969" rx="2" ry="2" style="stroke:#181818;stroke-width:0.4000000000000001;" width="74.4" x="1102.4" y="40"/><text fill="#000000" font-family="sans-serif" font-size="11.2" lengthAdjust="spacing" textLength="63.2" x="1108" y="57.6859">Repositories</text><rect fill="#E2E2F0" height="26.0969" rx="2" ry="2" style="stroke:#181818;stroke-width:0.4000000000000001;" width="74.4" x="1102.4" y="736.15"/><text fill="#000000" font-family="sans-serif" font-size="11.2" lengthAdjust="spacing" textLength="63.2" x="1108" y="753.8359">Repositories</text><rect fill="#E2E2F0" height="26.0969" rx="2" ry="2" style="stroke:#181818;stroke-width:0.4000000000000001;" width="152" x="1513.2" y="40"/><text fill="#000000" font-family="sans-serif" font-size="11.2" lengthAdjust="spacing" textLength="140.8" x="1518.8" y="57.6859">OperationSowingRepository</text><rect fill="#E2E2F0" height="26.0969" rx="2" ry="2" style="stroke:#181818;stroke-width:0.4000000000000001;" width="152" x="1513.2" y="736.15"/><text fill="#000000" font-family="sans-serif" font-size="11.2" lengthAdjust="spacing" textLength="140.8" x="1518.8" y="753.8359">OperationSowingRepository</text><rect fill="#FFFFFF" height="25.0328" style="stroke:#181818;stroke-width:0.8000000000000002;" width="8" x="406" y="93.5297"/><rect fill="#FFFFFF" height="25.0328" style="stroke:#181818;stroke-width:0.8000000000000002;" width="8" x="406" y="143.5953"/><rect fill="#FFFFFF" height="25.0328" style="stroke:#181818;stroke-width:0.8000000000000002;" width="8" x="406" y="193.6609"/><rect fill="#FFFFFF" height="25.0328" style="stroke:#181818;stroke-width:0.8000000000000002;" width="8" x="406" y="243.7266"/><rect fill="#FFFFFF" height="25.0328" style="stroke:#181818;stroke-width:0.8000000000000002;" width="8" x="406" y="314.825"/><rect fill="#FFFFFF" height="30.6328" style="stroke:#181818;stroke-width:0.8000000000000002;" width="8" x="406" y="364.8906"/><rect fill="#FFFFFF" height="25.0328" style="stroke:#181818;stroke-width:0.8000000000000002;" width="8" x="406" y="441.5891"/><rect fill="#FFFFFF" height="30.6328" style="stroke:#181818;stroke-width:0.8000000000000002;" width="8" x="406" y="491.6547"/><rect fill="#FFFFFF" height="175.2297" style="stroke:#181818;stroke-width:0.8000000000000002;" width="8" x="406" y="547.3203"/><rect fill="#FFFFFF" height="125.1641" style="stroke:#181818;stroke-width:0.8000000000000002;" width="8" x="995.6" y="572.3531"/><rect fill="#FFFFFF" height="25.0328" style="stroke:#181818;stroke-width:0.8000000000000002;" width="8" x="1135.6" y="597.3859"/><rect fill="#FFFFFF" height="25.0328" style="stroke:#181818;stroke-width:0.8000000000000002;" width="8" x="1585.2" y="647.4516"/><polygon fill="#181818" points="396.4,90.3297,404.4,93.5297,396.4,96.7297,399.6,93.5297" style="stroke:#181818;stroke-width:0.8000000000000002;"/><line style="stroke:#181818;stroke-width:0.8000000000000002;" x1="30" x2="401.2" y1="93.5297" y2="93.5297"/><text fill="#000000" font-family="sans-serif" font-size="10.4" font-weight="bold" lengthAdjust="spacing" textLength="5.6" x="35.6" y="89.3195">1</text><text fill="#000000" font-family="sans-serif" font-size="10.4" lengthAdjust="spacing" textLength="20.8" x="44.4" y="89.3195">run()</text><polygon fill="#181818" points="38.8,115.3625,30.8,118.5625,38.8,121.7625,35.6,118.5625" style="stroke:#181818;stroke-width:0.8000000000000002;"/><line style="stroke:#181818;stroke-width:0.8000000000000002;stroke-dasharray:2.0,2.0;" x1="34" x2="409.2" y1="118.5625" y2="118.5625"/><text fill="#000000" font-family="sans-serif" font-size="10.4" font-weight="bold" lengthAdjust="spacing" textLength="5.6" x="43.6" y="114.3523">2</text><text fill="#000000" font-family="sans-serif" font-size="10.4" lengthAdjust="spacing" textLength="108" x="52.4" y="114.3523">Display Operations List</text><polygon fill="#181818" points="396.4,140.3953,404.4,143.5953,396.4,146.7953,399.6,143.5953" style="stroke:#181818;stroke-width:0.8000000000000002;"/><line style="stroke:#181818;stroke-width:0.8000000000000002;" x1="30" x2="401.2" y1="143.5953" y2="143.5953"/><text fill="#000000" font-family="sans-serif" font-size="10.4" font-weight="bold" lengthAdjust="spacing" textLength="5.6" x="35.6" y="139.3852">3</text><text fill="#000000" font-family="sans-serif" font-size="10.4" lengthAdjust="spacing" textLength="88.8" x="44.4" y="139.3852">Chooses Operation</text><polygon fill="#181818" points="38.8,165.4281,30.8,168.6281,38.8,171.8281,35.6,168.6281" style="stroke:#181818;stroke-width:0.8000000000000002;"/><line style="stroke:#181818;stroke-width:0.8000000000000002;stroke-dasharray:2.0,2.0;" x1="34" x2="409.2" y1="168.6281" y2="168.6281"/><text fill="#000000" font-family="sans-serif" font-size="10.4" font-weight="bold" lengthAdjust="spacing" textLength="5.6" x="43.6" y="164.418">4</text><text fill="#000000" font-family="sans-serif" font-size="10.4" lengthAdjust="spacing" textLength="81.6" x="52.4" y="164.418">Display Plots List</text><polygon fill="#181818" points="396.4,190.4609,404.4,193.6609,396.4,196.8609,399.6,193.6609" style="stroke:#181818;stroke-width:0.8000000000000002;"/><line style="stroke:#181818;stroke-width:0.8000000000000002;" x1="30" x2="401.2" y1="193.6609" y2="193.6609"/><text fill="#000000" font-family="sans-serif" font-size="10.4" font-weight="bold" lengthAdjust="spacing" textLength="5.6" x="35.6" y="189.4508">5</text><text fill="#000000" font-family="sans-serif" font-size="10.4" lengthAdjust="spacing" textLength="62.4" x="44.4" y="189.4508">Chooses Plot</text><polygon fill="#181818" points="38.8,215.4938,30.8,218.6938,38.8,221.8938,35.6,218.6938" style="stroke:#181818;stroke-width:0.8000000000000002;"/><line style="stroke:#181818;stroke-width:0.8000000000000002;stroke-dasharray:2.0,2.0;" x1="34" x2="409.2" y1="218.6938" y2="218.6938"/><text fill="#000000" font-family="sans-serif" font-size="10.4" font-weight="bold" lengthAdjust="spacing" textLength="5.6" x="43.6" y="214.4836">6</text><text fill="#000000" font-family="sans-serif" font-size="10.4" lengthAdjust="spacing" textLength="111.2" x="52.4" y="214.4836">Asks for Operation Date</text><polygon fill="#181818" points="396.4,240.5266,404.4,243.7266,396.4,246.9266,399.6,243.7266" style="stroke:#181818;stroke-width:0.8000000000000002;"/><line style="stroke:#181818;stroke-width:0.8000000000000002;" x1="30" x2="401.2" y1="243.7266" y2="243.7266"/><text fill="#000000" font-family="sans-serif" font-size="10.4" font-weight="bold" lengthAdjust="spacing" textLength="5.6" x="35.6" y="239.5164">7</text><text fill="#000000" font-family="sans-serif" font-size="10.4" lengthAdjust="spacing" textLength="100.8" x="44.4" y="239.5164">Types Operation Date</text><polygon fill="#181818" points="38.8,265.5594,30.8,268.7594,38.8,271.9594,35.6,268.7594" style="stroke:#181818;stroke-width:0.8000000000000002;"/><line style="stroke:#181818;stroke-width:0.8000000000000002;stroke-dasharray:2.0,2.0;" x1="34" x2="409.2" y1="268.7594" y2="268.7594"/><text fill="#000000" font-family="sans-serif" font-size="10.4" font-weight="bold" lengthAdjust="spacing" textLength="5.6" x="43.6" y="264.5492">8</text><text fill="#000000" font-family="sans-serif" font-size="10.4" lengthAdjust="spacing" textLength="160.8" x="52.4" y="264.5492">Asks if wants to add quantity value</text><path d="M8,280.7594 L56.8,280.7594 L56.8,288.1922 L48.8,296.1922 L8,296.1922 L8,280.7594 " fill="#EEEEEE" style="stroke:#000000;stroke-width:1.2000000000000002;"/><rect fill="none" height="90.5313" style="stroke:#000000;stroke-width:1.2000000000000002;" width="484.8" x="8" y="280.7594"/><text fill="#000000" font-family="sans-serif" font-size="10.4" font-weight="bold" lengthAdjust="spacing" textLength="12.8" x="20" y="292.782">alt</text><text fill="#000000" font-family="sans-serif" font-size="8.8" font-weight="bold" lengthAdjust="spacing" textLength="139.2" x="68.8" y="291.8555">[If Operation has QuantityValue]</text><polygon fill="#181818" points="396.4,311.625,404.4,314.825,396.4,318.025,399.6,314.825" style="stroke:#181818;stroke-width:0.8000000000000002;"/><line style="stroke:#181818;stroke-width:0.8000000000000002;" x1="30" x2="401.2" y1="314.825" y2="314.825"/><text fill="#000000" font-family="sans-serif" font-size="10.4" font-weight="bold" lengthAdjust="spacing" textLength="5.6" x="35.6" y="310.6148">9</text><text fill="#000000" font-family="sans-serif" font-size="10.4" lengthAdjust="spacing" textLength="97.6" x="44.4" y="310.6148">Types quantity Value</text><polygon fill="#181818" points="38.8,336.6578,30.8,339.8578,38.8,343.0578,35.6,339.8578" style="stroke:#181818;stroke-width:0.8000000000000002;"/><line style="stroke:#181818;stroke-width:0.8000000000000002;stroke-dasharray:2.0,2.0;" x1="34" x2="409.2" y1="339.8578" y2="339.8578"/><text fill="#000000" font-family="sans-serif" font-size="10.4" font-weight="bold" lengthAdjust="spacing" textLength="11.2" x="43.6" y="335.6477">10</text><text fill="#000000" font-family="sans-serif" font-size="10.4" lengthAdjust="spacing" textLength="100" x="58" y="335.6477">Asks for quantity Unit</text><polygon fill="#181818" points="396.4,361.6906,404.4,364.8906,396.4,368.0906,399.6,364.8906" style="stroke:#181818;stroke-width:0.8000000000000002;"/><line style="stroke:#181818;stroke-width:0.8000000000000002;" x1="30" x2="401.2" y1="364.8906" y2="364.8906"/><text fill="#000000" font-family="sans-serif" font-size="10.4" font-weight="bold" lengthAdjust="spacing" textLength="11.2" x="35.6" y="360.6805">11</text><text fill="#000000" font-family="sans-serif" font-size="10.4" lengthAdjust="spacing" textLength="89.6" x="50" y="360.6805">Types quantity Unit</text><polygon fill="#181818" points="38.8,392.3234,30.8,395.5234,38.8,398.7234,35.6,395.5234" style="stroke:#181818;stroke-width:0.8000000000000002;"/><line style="stroke:#181818;stroke-width:0.8000000000000002;stroke-dasharray:2.0,2.0;" x1="34" x2="409.2" y1="395.5234" y2="395.5234"/><text fill="#000000" font-family="sans-serif" font-size="10.4" font-weight="bold" lengthAdjust="spacing" textLength="11.2" x="43.6" y="391.3133">12</text><text fill="#000000" font-family="sans-serif" font-size="10.4" lengthAdjust="spacing" textLength="144" x="58" y="391.3133">Asks if wants to add area value</text><path d="M8,407.5234 L56.8,407.5234 L56.8,414.9563 L48.8,422.9563 L8,422.9563 L8,407.5234 " fill="#EEEEEE" style="stroke:#000000;stroke-width:1.2000000000000002;"/><rect fill="none" height="90.5313" style="stroke:#000000;stroke-width:1.2000000000000002;" width="484.8" x="8" y="407.5234"/><text fill="#000000" font-family="sans-serif" font-size="10.4" font-weight="bold" lengthAdjust="spacing" textLength="12.8" x="20" y="419.5461">alt</text><text fill="#000000" font-family="sans-serif" font-size="8.8" font-weight="bold" lengthAdjust="spacing" textLength="124" x="68.8" y="418.6195">[If Operation has AreaValue]</text><polygon fill="#181818" points="396.4,438.3891,404.4,441.5891,396.4,444.7891,399.6,441.5891" style="stroke:#181818;stroke-width:0.8000000000000002;"/><line style="stroke:#181818;stroke-width:0.8000000000000002;" x1="30" x2="401.2" y1="441.5891" y2="441.5891"/><text fill="#000000" font-family="sans-serif" font-size="10.4" font-weight="bold" lengthAdjust="spacing" textLength="11.2" x="35.6" y="437.3789">13</text><text fill="#000000" font-family="sans-serif" font-size="10.4" lengthAdjust="spacing" textLength="80.8" x="50" y="437.3789">Types area Value</text><polygon fill="#181818" points="38.8,463.4219,30.8,466.6219,38.8,469.8219,35.6,466.6219" style="stroke:#181818;stroke-width:0.8000000000000002;"/><line style="stroke:#181818;stroke-width:0.8000000000000002;stroke-dasharray:2.0,2.0;" x1="34" x2="409.2" y1="466.6219" y2="466.6219"/><text fill="#000000" font-family="sans-serif" font-size="10.4" font-weight="bold" lengthAdjust="spacing" textLength="11.2" x="43.6" y="462.4117">14</text><text fill="#000000" font-family="sans-serif" font-size="10.4" lengthAdjust="spacing" textLength="100" x="58" y="462.4117">Asks for quantity Unit</text><polygon fill="#181818" points="396.4,488.4547,404.4,491.6547,396.4,494.8547,399.6,491.6547" style="stroke:#181818;stroke-width:0.8000000000000002;"/><line style="stroke:#181818;stroke-width:0.8000000000000002;" x1="30" x2="401.2" y1="491.6547" y2="491.6547"/><text fill="#000000" font-family="sans-serif" font-size="10.4" font-weight="bold" lengthAdjust="spacing" textLength="11.2" x="35.6" y="487.4445">15</text><text fill="#000000" font-family="sans-serif" font-size="10.4" lengthAdjust="spacing" textLength="89.6" x="50" y="487.4445">Types quantity Unit</text><polygon fill="#181818" points="38.8,519.0875,30.8,522.2875,38.8,525.4875,35.6,522.2875" style="stroke:#181818;stroke-width:0.8000000000000002;"/><line style="stroke:#181818;stroke-width:0.8000000000000002;stroke-dasharray:2.0,2.0;" x1="34" x2="409.2" y1="522.2875" y2="522.2875"/><text fill="#000000" font-family="sans-serif" font-size="10.4" font-weight="bold" lengthAdjust="spacing" textLength="11.2" x="43.6" y="518.0773">16</text><text fill="#000000" font-family="sans-serif" font-size="10.4" lengthAdjust="spacing" textLength="84.8" x="58" y="518.0773">Display Crops List</text><polygon fill="#181818" points="396.4,544.1203,404.4,547.3203,396.4,550.5203,399.6,547.3203" style="stroke:#181818;stroke-width:0.8000000000000002;"/><line style="stroke:#181818;stroke-width:0.8000000000000002;" x1="30" x2="401.2" y1="547.3203" y2="547.3203"/><text fill="#000000" font-family="sans-serif" font-size="10.4" font-weight="bold" lengthAdjust="spacing" textLength="11.2" x="35.6" y="543.1102">17</text><text fill="#000000" font-family="sans-serif" font-size="10.4" lengthAdjust="spacing" textLength="74.4" x="50" y="543.1102">Chooses a Crop</text><polygon fill="#181818" points="986,569.1531,994,572.3531,986,575.5531,989.2,572.3531" style="stroke:#181818;stroke-width:0.8000000000000002;"/><line style="stroke:#181818;stroke-width:0.8000000000000002;" x1="414" x2="990.8" y1="572.3531" y2="572.3531"/><text fill="#000000" font-family="sans-serif" font-size="10.4" font-weight="bold" lengthAdjust="spacing" textLength="11.2" x="419.6" y="568.143">18</text><text fill="#000000" font-family="sans-serif" font-size="10.4" lengthAdjust="spacing" textLength="552" x="434" y="568.143">operationSowingRegister(operationId, operationDate, plotId, quantityValue, areaValue, quantityUnitId, areaUnitId, cropId)</text><polygon fill="#181818" points="1126,594.1859,1134,597.3859,1126,600.5859,1129.2,597.3859" style="stroke:#181818;stroke-width:0.8000000000000002;"/><line style="stroke:#181818;stroke-width:0.8000000000000002;" x1="1003.6" x2="1130.8" y1="597.3859" y2="597.3859"/><text fill="#000000" font-family="sans-serif" font-size="10.4" font-weight="bold" lengthAdjust="spacing" textLength="11.2" x="1009.2" y="593.1758">19</text><text fill="#000000" font-family="sans-serif" font-size="10.4" lengthAdjust="spacing" textLength="60" x="1023.6" y="593.1758">getInstance()</text><polygon fill="#181818" points="1012.4,619.2188,1004.4,622.4188,1012.4,625.6188,1009.2,622.4188" style="stroke:#181818;stroke-width:0.8000000000000002;"/><line style="stroke:#181818;stroke-width:0.8000000000000002;stroke-dasharray:2.0,2.0;" x1="1007.6" x2="1138.8" y1="622.4188" y2="622.4188"/><text fill="#000000" font-family="sans-serif" font-size="10.4" font-weight="bold" lengthAdjust="spacing" textLength="11.2" x="1017.2" y="618.2086">20</text><text fill="#000000" font-family="sans-serif" font-size="10.4" lengthAdjust="spacing" textLength="72.8" x="1031.6" y="618.2086">Return instance</text><polygon fill="#181818" points="1575.6,644.2516,1583.6,647.4516,1575.6,650.6516,1578.8,647.4516" style="stroke:#181818;stroke-width:0.8000000000000002;"/><line style="stroke:#181818;stroke-width:0.8000000000000002;" x1="1003.6" x2="1580.4" y1="647.4516" y2="647.4516"/><text fill="#000000" font-family="sans-serif" font-size="10.4" font-weight="bold" lengthAdjust="spacing" textLength="11.2" x="1009.2" y="643.2414">21</text><text fill="#000000" font-family="sans-serif" font-size="10.4" lengthAdjust="spacing" textLength="552" x="1023.6" y="643.2414">operationSowingRegister(operationId, operationDate, plotId, quantityValue, areaValue, quantityUnitId, areaUnitId, cropId)</text><polygon fill="#181818" points="1012.4,669.2844,1004.4,672.4844,1012.4,675.6844,1009.2,672.4844" style="stroke:#181818;stroke-width:0.8000000000000002;"/><line style="stroke:#181818;stroke-width:0.8000000000000002;stroke-dasharray:2.0,2.0;" x1="1007.6" x2="1588.4" y1="672.4844" y2="672.4844"/><text fill="#000000" font-family="sans-serif" font-size="10.4" font-weight="bold" lengthAdjust="spacing" textLength="11.2" x="1017.2" y="668.2742">22</text><text fill="#000000" font-family="sans-serif" font-size="10.4" lengthAdjust="spacing" textLength="131.2" x="1031.6" y="668.2742">[Database Operation Result]</text><polygon fill="#181818" points="422.8,694.3172,414.8,697.5172,422.8,700.7172,419.6,697.5172" style="stroke:#181818;stroke-width:0.8000000000000002;"/><line style="stroke:#181818;stroke-width:0.8000000000000002;stroke-dasharray:2.0,2.0;" x1="418" x2="998.8" y1="697.5172" y2="697.5172"/><text fill="#000000" font-family="sans-serif" font-size="10.4" font-weight="bold" lengthAdjust="spacing" textLength="11.2" x="427.6" y="693.307">23</text><text fill="#000000" font-family="sans-serif" font-size="10.4" lengthAdjust="spacing" textLength="95.2" x="442" y="693.307">[Result of Operation]</text><polygon fill="#181818" points="38.8,719.35,30.8,722.55,38.8,725.75,35.6,722.55" style="stroke:#181818;stroke-width:0.8000000000000002;"/><line style="stroke:#181818;stroke-width:0.8000000000000002;stroke-dasharray:2.0,2.0;" x1="34" x2="409.2" y1="722.55" y2="722.55"/><text fill="#000000" font-family="sans-serif" font-size="10.4" font-weight="bold" lengthAdjust="spacing" textLength="11.2" x="43.6" y="718.3398">24</text><text fill="#000000" font-family="sans-serif" font-size="10.4" lengthAdjust="spacing" textLength="342.4" x="58" y="718.3398">Display "Operation registered successfully" or "Error registering operation"</text><!--SRC=[rLMnRjim4Dtr5GTFDk3yW8S0WTD1G86qRfKboC18PuSeIoeyCe7_FaTQbYXPZfKkGRL88j-xT_V88uLtHlk_JsYpJ9JEM2Y8lsjXdInbBRI3sLsDLZXfz2_p9lLkWpj93csHpq0G5FaazDfePurIQ2Eh- -spDrWRafo7H8h0TE22K0FSHzvmCCj2ON1rpGclm7ezNuI2vQjm66h8W9yYXwk0OEGARYNLIkoXrI7upgL4O8KfDrAJwEjdOmYfOqR4DBKVohXF2mNI18qR-aEmvJLk4uDR1ayG-hslqtewsiU21qMvXJTUCG9dG5GLl7Z-asuFhqBvCVL3PEKWtoQQpxogFnlgVSiSpxILw0E79Pvtg0rGQEbQxAb95-Hxx24NTJNPCs5H_8DVDqoxv5KC_V_vT6oOjJNrfnj6HDhv7NoT750hCED7shmTpwjb1mgziOIQMp8ClwGxTXdDRZwFCw7sW0nJn- -IiykhHJ_1vCnilUh6GjBfORc27RfSanEwnFdYrDtUoTfEXoUTYOwdPcpGUQj1Df77rdmySZ_LuVdyrIxth3czF59xXhCd5ZrmSk9942RTk47ooZsEsNLUBRMisS4FXq1WabP_7ExyuKuPRPpk0WNRU8qLa2zB9DfwfVWYvGwVVREMNqS8PzejmYphjzix]--></g></svg>