<?xml version="1.0" encoding="us-ascii" standalone="no"?><svg xmlns="http://www.w3.org/2000/svg" xmlns:xlink="http://www.w3.org/1999/xlink" contentStyleType="text/css" height="235px" preserveAspectRatio="none" style="width:4058px;height:235px;background:#FFFFFF;" version="1.1" viewBox="0 0 4058 235" width="4058px" zoomAndPan="magnify"><defs/><g><!--class OperationSowingRegisterUI--><g id="elem_OperationSowingRegisterUI"><rect codeLine="9" fill="#F1F1F1" height="178.3477" id="OperationSowingRegisterUI" rx="2.5" ry="2.5" style="stroke:#181818;stroke-width:0.5;" width="303" x="7" y="7"/><ellipse cx="67.75" cy="23" fill="#ADD1B2" rx="11" ry="11" style="stroke:#181818;stroke-width:1.0;"/><path d="M70.5156,18.875 Q70.6719,18.6563 70.8594,18.5469 Q71.0469,18.4375 71.2656,18.4375 Q71.6406,18.4375 71.875,18.7031 Q72.1094,18.9531 72.1094,19.5625 L72.1094,21.0156 Q72.1094,21.625 71.875,21.8906 Q71.6406,22.1563 71.2656,22.1563 Q70.9219,22.1563 70.7188,21.9531 Q70.5156,21.7656 70.4063,21.25 Q70.3594,20.8906 70.1719,20.7031 Q69.8438,20.3281 69.2344,20.1094 Q68.625,19.8906 68,19.8906 Q67.2344,19.8906 66.5938,20.2188 Q65.9688,20.5469 65.4688,21.2969 Q64.9844,22.0469 64.9844,23.0781 L64.9844,24.1719 Q64.9844,25.4063 65.875,26.2344 Q66.7656,27.0469 68.3594,27.0469 Q69.2969,27.0469 69.9531,26.7969 Q70.3438,26.6406 70.7656,26.2031 Q71.0313,25.9375 71.1719,25.8594 Q71.3281,25.7813 71.5313,25.7813 Q71.8594,25.7813 72.1094,26.0469 Q72.375,26.2969 72.375,26.6406 Q72.375,26.9844 72.0313,27.3906 Q71.5313,27.9688 70.7344,28.2969 Q69.6563,28.75 68.3594,28.75 Q66.8438,28.75 65.6406,28.125 Q64.6563,27.625 63.9688,26.5625 Q63.2813,25.4844 63.2813,24.2031 L63.2813,23.0469 Q63.2813,21.7188 63.8906,20.5781 Q64.5156,19.4219 65.6094,18.8125 Q66.7031,18.1875 67.9375,18.1875 Q68.6719,18.1875 69.3125,18.3594 Q69.9688,18.5156 70.5156,18.875 Z " fill="#000000"/><text fill="#000000" font-family="sans-serif" font-size="14" lengthAdjust="spacing" textLength="173" x="88.25" y="28.7969">OperationSowingRegisterUI</text><line style="stroke:#181818;stroke-width:0.5;" x1="8" x2="309" y1="39" y2="39"/><text fill="#000000" font-family="sans-serif" font-size="14" lengthAdjust="spacing" textLength="214" x="13" y="58.1074">-OperationsListUI operationsListUI</text><text fill="#000000" font-family="sans-serif" font-size="14" lengthAdjust="spacing" textLength="138" x="13" y="76.7285">-PlotsListUI plotsListUI</text><text fill="#000000" font-family="sans-serif" font-size="14" lengthAdjust="spacing" textLength="138" x="13" y="95.3496">-UnitsListUI unitsListUI</text><text fill="#000000" font-family="sans-serif" font-size="14" lengthAdjust="spacing" textLength="220" x="13" y="113.9707">-CropsInPlotListUI cropsInPlotListUI</text><text fill="#000000" font-family="sans-serif" font-size="14" lengthAdjust="spacing" textLength="291" x="13" y="132.5918">-OperationSowingRegisterController controller</text><line style="stroke:#181818;stroke-width:0.5;" x1="8" x2="309" y1="140.1055" y2="140.1055"/><text fill="#000000" font-family="sans-serif" font-size="14" lengthAdjust="spacing" textLength="183" x="13" y="159.2129">OperationSowingRegisterUI()</text><text fill="#000000" font-family="sans-serif" font-size="14" lengthAdjust="spacing" textLength="31" x="13" y="177.834">run()</text></g><!--class OperationSowingRegisterController--><g id="elem_OperationSowingRegisterController"><rect codeLine="19" fill="#F1F1F1" height="103.8633" id="OperationSowingRegisterController" rx="2.5" ry="2.5" style="stroke:#181818;stroke-width:0.5;" width="1150" x="371" y="44"/><ellipse cx="830.25" cy="60" fill="#ADD1B2" rx="11" ry="11" style="stroke:#181818;stroke-width:1.0;"/><path d="M833.0156,55.875 Q833.1719,55.6563 833.3594,55.5469 Q833.5469,55.4375 833.7656,55.4375 Q834.1406,55.4375 834.375,55.7031 Q834.6094,55.9531 834.6094,56.5625 L834.6094,58.0156 Q834.6094,58.625 834.375,58.8906 Q834.1406,59.1563 833.7656,59.1563 Q833.4219,59.1563 833.2188,58.9531 Q833.0156,58.7656 832.9063,58.25 Q832.8594,57.8906 832.6719,57.7031 Q832.3438,57.3281 831.7344,57.1094 Q831.125,56.8906 830.5,56.8906 Q829.7344,56.8906 829.0938,57.2188 Q828.4688,57.5469 827.9688,58.2969 Q827.4844,59.0469 827.4844,60.0781 L827.4844,61.1719 Q827.4844,62.4063 828.375,63.2344 Q829.2656,64.0469 830.8594,64.0469 Q831.7969,64.0469 832.4531,63.7969 Q832.8438,63.6406 833.2656,63.2031 Q833.5313,62.9375 833.6719,62.8594 Q833.8281,62.7813 834.0313,62.7813 Q834.3594,62.7813 834.6094,63.0469 Q834.875,63.2969 834.875,63.6406 Q834.875,63.9844 834.5313,64.3906 Q834.0313,64.9688 833.2344,65.2969 Q832.1563,65.75 830.8594,65.75 Q829.3438,65.75 828.1406,65.125 Q827.1563,64.625 826.4688,63.5625 Q825.7813,62.4844 825.7813,61.2031 L825.7813,60.0469 Q825.7813,58.7188 826.3906,57.5781 Q827.0156,56.4219 828.1094,55.8125 Q829.2031,55.1875 830.4375,55.1875 Q831.1719,55.1875 831.8125,55.3594 Q832.4688,55.5156 833.0156,55.875 Z " fill="#000000"/><text fill="#000000" font-family="sans-serif" font-size="14" lengthAdjust="spacing" textLength="223" x="850.75" y="65.7969">OperationSowingRegisterController</text><line style="stroke:#181818;stroke-width:0.5;" x1="372" x2="1520" y1="76" y2="76"/><text fill="#000000" font-family="sans-serif" font-size="14" lengthAdjust="spacing" textLength="358" x="377" y="95.1074">-OperationSowingRepository operationSowingRepository</text><line style="stroke:#181818;stroke-width:0.5;" x1="372" x2="1520" y1="102.6211" y2="102.6211"/><text fill="#000000" font-family="sans-serif" font-size="14" lengthAdjust="spacing" textLength="386" x="377" y="121.7285">OperationSowingRepository getOperationSowingRepository()</text><text fill="#000000" font-family="sans-serif" font-size="14" lengthAdjust="spacing" textLength="1138" x="377" y="140.3496">operationSowingRegister(Integer operationId, LocalDate operationDate, Integer plotId, Float quantityValue, Float areaValue, Integer quantityUnitId, Integer areaUnitId, Integer cropId)</text></g><!--class OperationSowingRepository--><g id="elem_OperationSowingRepository"><rect codeLine="25" fill="#F1F1F1" height="85.2422" id="OperationSowingRepository" rx="2.5" ry="2.5" style="stroke:#181818;stroke-width:0.5;" width="1150" x="2048" y="53.5"/><ellipse cx="2530.75" cy="69.5" fill="#ADD1B2" rx="11" ry="11" style="stroke:#181818;stroke-width:1.0;"/><path d="M2533.5156,65.375 Q2533.6719,65.1563 2533.8594,65.0469 Q2534.0469,64.9375 2534.2656,64.9375 Q2534.6406,64.9375 2534.875,65.2031 Q2535.1094,65.4531 2535.1094,66.0625 L2535.1094,67.5156 Q2535.1094,68.125 2534.875,68.3906 Q2534.6406,68.6563 2534.2656,68.6563 Q2533.9219,68.6563 2533.7188,68.4531 Q2533.5156,68.2656 2533.4063,67.75 Q2533.3594,67.3906 2533.1719,67.2031 Q2532.8438,66.8281 2532.2344,66.6094 Q2531.625,66.3906 2531,66.3906 Q2530.2344,66.3906 2529.5938,66.7188 Q2528.9688,67.0469 2528.4688,67.7969 Q2527.9844,68.5469 2527.9844,69.5781 L2527.9844,70.6719 Q2527.9844,71.9063 2528.875,72.7344 Q2529.7656,73.5469 2531.3594,73.5469 Q2532.2969,73.5469 2532.9531,73.2969 Q2533.3438,73.1406 2533.7656,72.7031 Q2534.0313,72.4375 2534.1719,72.3594 Q2534.3281,72.2813 2534.5313,72.2813 Q2534.8594,72.2813 2535.1094,72.5469 Q2535.375,72.7969 2535.375,73.1406 Q2535.375,73.4844 2535.0313,73.8906 Q2534.5313,74.4688 2533.7344,74.7969 Q2532.6563,75.25 2531.3594,75.25 Q2529.8438,75.25 2528.6406,74.625 Q2527.6563,74.125 2526.9688,73.0625 Q2526.2813,71.9844 2526.2813,70.7031 L2526.2813,69.5469 Q2526.2813,68.2188 2526.8906,67.0781 Q2527.5156,65.9219 2528.6094,65.3125 Q2529.7031,64.6875 2530.9375,64.6875 Q2531.6719,64.6875 2532.3125,64.8594 Q2532.9688,65.0156 2533.5156,65.375 Z " fill="#000000"/><text fill="#000000" font-family="sans-serif" font-size="14" lengthAdjust="spacing" textLength="176" x="2551.25" y="75.2969">OperationSowingRepository</text><line style="stroke:#181818;stroke-width:0.5;" x1="2049" x2="3197" y1="85.5" y2="85.5"/><line style="stroke:#181818;stroke-width:0.5;" x1="2049" x2="3197" y1="93.5" y2="93.5"/><text fill="#000000" font-family="sans-serif" font-size="14" lengthAdjust="spacing" textLength="186" x="2054" y="112.6074">OperationSowingRepository()</text><text fill="#000000" font-family="sans-serif" font-size="14" lengthAdjust="spacing" textLength="1138" x="2054" y="131.2285">operationSowingRegister(Integer operationId, LocalDate operationDate, Integer plotId, Float quantityValue, Float areaValue, Integer quantityUnitId, Integer areaUnitId, Integer cropId)</text></g><!--class OperationSowingDTO--><g id="elem_OperationSowingDTO"><rect codeLine="30" fill="#F1F1F1" height="159.7266" id="OperationSowingDTO" rx="2.5" ry="2.5" style="stroke:#181818;stroke-width:0.5;" width="792" x="3259" y="16"/><ellipse cx="3581.75" cy="32" fill="#ADD1B2" rx="11" ry="11" style="stroke:#181818;stroke-width:1.0;"/><path d="M3584.5156,27.875 Q3584.6719,27.6563 3584.8594,27.5469 Q3585.0469,27.4375 3585.2656,27.4375 Q3585.6406,27.4375 3585.875,27.7031 Q3586.1094,27.9531 3586.1094,28.5625 L3586.1094,30.0156 Q3586.1094,30.625 3585.875,30.8906 Q3585.6406,31.1563 3585.2656,31.1563 Q3584.9219,31.1563 3584.7188,30.9531 Q3584.5156,30.7656 3584.4063,30.25 Q3584.3594,29.8906 3584.1719,29.7031 Q3583.8438,29.3281 3583.2344,29.1094 Q3582.625,28.8906 3582,28.8906 Q3581.2344,28.8906 3580.5938,29.2188 Q3579.9688,29.5469 3579.4688,30.2969 Q3578.9844,31.0469 3578.9844,32.0781 L3578.9844,33.1719 Q3578.9844,34.4063 3579.875,35.2344 Q3580.7656,36.0469 3582.3594,36.0469 Q3583.2969,36.0469 3583.9531,35.7969 Q3584.3438,35.6406 3584.7656,35.2031 Q3585.0313,34.9375 3585.1719,34.8594 Q3585.3281,34.7813 3585.5313,34.7813 Q3585.8594,34.7813 3586.1094,35.0469 Q3586.375,35.2969 3586.375,35.6406 Q3586.375,35.9844 3586.0313,36.3906 Q3585.5313,36.9688 3584.7344,37.2969 Q3583.6563,37.75 3582.3594,37.75 Q3580.8438,37.75 3579.6406,37.125 Q3578.6563,36.625 3577.9688,35.5625 Q3577.2813,34.4844 3577.2813,33.2031 L3577.2813,32.0469 Q3577.2813,30.7188 3577.8906,29.5781 Q3578.5156,28.4219 3579.6094,27.8125 Q3580.7031,27.1875 3581.9375,27.1875 Q3582.6719,27.1875 3583.3125,27.3594 Q3583.9688,27.5156 3584.5156,27.875 Z " fill="#000000"/><text fill="#000000" font-family="sans-serif" font-size="14" lengthAdjust="spacing" textLength="138" x="3602.25" y="37.7969">OperationSowingDTO</text><line style="stroke:#181818;stroke-width:0.5;" x1="3260" x2="4050" y1="48" y2="48"/><text fill="#000000" font-family="sans-serif" font-size="14" lengthAdjust="spacing" textLength="163" x="3265" y="67.1074">-LocalDate operationDate</text><text fill="#000000" font-family="sans-serif" font-size="14" lengthAdjust="spacing" textLength="69" x="3265" y="85.7285">-String unit</text><text fill="#000000" font-family="sans-serif" font-size="14" lengthAdjust="spacing" textLength="101" x="3265" y="104.3496">-Double amount</text><text fill="#000000" font-family="sans-serif" font-size="14" lengthAdjust="spacing" textLength="152" x="3265" y="122.9707">-String plantDesignation</text><text fill="#000000" font-family="sans-serif" font-size="14" lengthAdjust="spacing" textLength="144" x="3265" y="141.5918">-String plotDesignation</text><line style="stroke:#181818;stroke-width:0.5;" x1="3260" x2="4050" y1="149.1055" y2="149.1055"/><text fill="#000000" font-family="sans-serif" font-size="14" lengthAdjust="spacing" textLength="780" x="3265" y="168.2129">OperationSowingDTO(LocalDate operationDate, Double amount, String unit, String plotDesignation,String plantDesignation)</text></g><!--class Repositories--><g id="elem_Repositories"><rect codeLine="38" fill="#F1F1F1" height="141.1055" id="Repositories" rx="2.5" ry="2.5" style="stroke:#181818;stroke-width:0.5;" width="370" x="1582" y="87.5"/><ellipse cx="1723.25" cy="103.5" fill="#ADD1B2" rx="11" ry="11" style="stroke:#181818;stroke-width:1.0;"/><path d="M1726.0156,99.375 Q1726.1719,99.1563 1726.3594,99.0469 Q1726.5469,98.9375 1726.7656,98.9375 Q1727.1406,98.9375 1727.375,99.2031 Q1727.6094,99.4531 1727.6094,100.0625 L1727.6094,101.5156 Q1727.6094,102.125 1727.375,102.3906 Q1727.1406,102.6563 1726.7656,102.6563 Q1726.4219,102.6563 1726.2188,102.4531 Q1726.0156,102.2656 1725.9063,101.75 Q1725.8594,101.3906 1725.6719,101.2031 Q1725.3438,100.8281 1724.7344,100.6094 Q1724.125,100.3906 1723.5,100.3906 Q1722.7344,100.3906 1722.0938,100.7188 Q1721.4688,101.0469 1720.9688,101.7969 Q1720.4844,102.5469 1720.4844,103.5781 L1720.4844,104.6719 Q1720.4844,105.9063 1721.375,106.7344 Q1722.2656,107.5469 1723.8594,107.5469 Q1724.7969,107.5469 1725.4531,107.2969 Q1725.8438,107.1406 1726.2656,106.7031 Q1726.5313,106.4375 1726.6719,106.3594 Q1726.8281,106.2813 1727.0313,106.2813 Q1727.3594,106.2813 1727.6094,106.5469 Q1727.875,106.7969 1727.875,107.1406 Q1727.875,107.4844 1727.5313,107.8906 Q1727.0313,108.4688 1726.2344,108.7969 Q1725.1563,109.25 1723.8594,109.25 Q1722.3438,109.25 1721.1406,108.625 Q1720.1563,108.125 1719.4688,107.0625 Q1718.7813,105.9844 1718.7813,104.7031 L1718.7813,103.5469 Q1718.7813,102.2188 1719.3906,101.0781 Q1720.0156,99.9219 1721.1094,99.3125 Q1722.2031,98.6875 1723.4375,98.6875 Q1724.1719,98.6875 1724.8125,98.8594 Q1725.4688,99.0156 1726.0156,99.375 Z " fill="#000000"/><text fill="#000000" font-family="sans-serif" font-size="14" lengthAdjust="spacing" textLength="79" x="1743.75" y="109.2969">Repositories</text><line style="stroke:#181818;stroke-width:0.5;" x1="1583" x2="1951" y1="119.5" y2="119.5"/><text fill="#000000" font-family="sans-serif" font-size="14" lengthAdjust="spacing" textLength="192" x="1588" y="138.6074">-PlotRepository plotRepository</text><text fill="#000000" font-family="sans-serif" font-size="14" lengthAdjust="spacing" textLength="192" x="1588" y="157.2285">-UnitRepository unitRepository</text><text fill="#000000" font-family="sans-serif" font-size="14" lengthAdjust="spacing" textLength="358" x="1588" y="175.8496">-OperationSowingRepository operationSowingRepository</text><text fill="#000000" font-family="sans-serif" font-size="14" lengthAdjust="spacing" textLength="204" x="1588" y="194.4707">-CropRepository cropRepository</text><line style="stroke:#181818;stroke-width:0.5;" x1="1583" x2="1951" y1="201.9844" y2="201.9844"/><text fill="#000000" font-family="sans-serif" font-size="14" lengthAdjust="spacing" textLength="89" x="1588" y="221.0918">Repositories()</text></g><!--link OperationSowingRegisterUI to OperationSowingRegisterController--><g id="link_OperationSowingRegisterUI_OperationSowingRegisterController"><path codeLine="45" d="M310.02,96 C329.18,96 343.59,96 364.93,96 " fill="none" id="OperationSowingRegisterUI-to-OperationSowingRegisterController" style="stroke:#181818;stroke-width:1.0;stroke-dasharray:7.0,7.0;"/><polygon fill="#181818" points="370.93,96,361.93,92,365.93,96,361.93,100,370.93,96" style="stroke:#181818;stroke-width:1.0;"/></g><!--link OperationSowingRegisterController to Repositories--><g id="link_OperationSowingRegisterController_Repositories"><path codeLine="46" d="M1521.11,139.46 C1542.15,141.05 1556.5072,142.136 1575.8772,143.606 " fill="none" id="OperationSowingRegisterController-to-Repositories" style="stroke:#181818;stroke-width:1.0;stroke-dasharray:7.0,7.0;"/><polygon fill="#181818" points="1581.86,144.06,1573.1885,139.3904,1576.8743,143.6816,1572.5831,147.3675,1581.86,144.06" style="stroke:#181818;stroke-width:1.0;"/></g><!--link Repositories to OperationSowingRepository--><g id="link_Repositories_OperationSowingRepository"><path codeLine="47" d="M1952.25,144.62 C1982.04,142.46 2008.2058,140.5655 2041.7358,138.1255 " fill="none" id="Repositories-to-OperationSowingRepository" style="stroke:#181818;stroke-width:1.0;"/><polygon fill="#181818" points="2047.72,137.69,2038.4534,134.3538,2042.7332,138.0529,2039.0341,142.3327,2047.72,137.69" style="stroke:#181818;stroke-width:1.0;"/><polygon fill="#000000" points="1991.9869,131.2836,1982.7528,129.0071,1983.1783,134.8695,1991.9869,131.2836" style="stroke:#000000;stroke-width:1.0;"/><text fill="#000000" font-family="sans-serif" font-size="13" lengthAdjust="spacing" textLength="21" x="1996" y="137.0283">has</text></g><!--link OperationSowingRegisterController to OperationSowingRepository--><g id="link_OperationSowingRegisterController_OperationSowingRepository"><path codeLine="48" d="M1521.11,72.49 C1558.74,70.95 1582,70 1582,70 C1582,70 1952,70 1952,70 C1952,70 1984.0445,71.2472 2041.9945,73.4972 " fill="none" id="OperationSowingRegisterController-to-OperationSowingRepository" style="stroke:#181818;stroke-width:1.0;stroke-dasharray:7.0,7.0;"/><polygon fill="#181818" points="2047.99,73.73,2039.152,69.3838,2042.9938,73.536,2038.8416,77.3778,2047.99,73.73" style="stroke:#181818;stroke-width:1.0;"/></g><!--link OperationSowingRepository to OperationSowingDTO--><g id="link_OperationSowingRepository_OperationSowingDTO"><path codeLine="49" d="M3198.1,96 C3218.53,96 3232.83,96 3252.88,96 " fill="none" id="OperationSowingRepository-to-OperationSowingDTO" style="stroke:#181818;stroke-width:1.0;stroke-dasharray:7.0,7.0;"/><polygon fill="#181818" points="3258.88,96,3249.88,92,3253.88,96,3249.88,100,3258.88,96" style="stroke:#181818;stroke-width:1.0;"/></g><!--SRC=[vLJ1Rjim3BtpAtZCWBZOUOS0GuC11WfaM9RTMOTrXAgI9j4Ol63_FicfRTcBbw7NNGpnFL9yD4M6PsKSUNf1HzKprRoNLZDwheHChHd2u11ETBG_bAdnYNJ86QqCI-iOdTLjCY0ZAqqXV1Jnwh4HBYjhzkeduti0pK-2Oj6h-YHuL2cfiWQW2y6TOqy9s7TPlt2jWh0_b6Se1YuyHF1Gefq1K7pMLdhMZMSe3aODH3EUeRZtreNIfC1NkfeZMUQfgdjhn5kjsMCr766nXDKxy8s9trytgXtlFL_9xMnGOdqxbZzdO3ccPbaaep9xNT2gDC9rB7FWo-CQ7sn5Ual28voiDVRUgGF9yPEs9FYz8IDAsc-a6-v1yaolG1_L-wMMfUWUJwvpBFMgFFxjZ_R5dU5_gdlxTHUVpe9GAFPnCED8fq60OckRnpZzz68R8mFdT5IpvQ1gqmLcX9tWVsPUBVwWIQerPZ86OtRzUa5EAlrI-T17nU5ysG3PUtSJyx87ChgPc6yRjcw5P9xLn8HSNpVxY_i1x-usjrS2t5v6wPuyxKG35iLcUKpm0vueuEOVi-pUi8AknCL70_0R]--></g></svg>