<?xml version="1.0" encoding="us-ascii" standalone="no"?><svg xmlns="http://www.w3.org/2000/svg" xmlns:xlink="http://www.w3.org/1999/xlink" contentStyleType="text/css" height="1462px" preserveAspectRatio="none" style="width:2381px;height:1462px;background:#FFFFFF;" version="1.1" viewBox="0 0 2381 1462" width="2381px" zoomAndPan="magnify"><defs/><g><text fill="#000000" font-family="sans-serif" font-size="14" font-weight="bold" lengthAdjust="spacing" textLength="197" x="1091" y="30.1074">USLP07 - Sequence Diagram</text><rect fill="#FFFFFF" height="1205.1855" style="stroke:#181818;stroke-width:1.0;" width="10" x="356.5" y="156.5332"/><rect fill="#FFFFFF" height="219.0371" style="stroke:#181818;stroke-width:1.0;" width="10" x="1149.5" y="1142.6816"/><rect fill="#FFFFFF" height="31.291" style="stroke:#181818;stroke-width:1.0;" width="10" x="1429" y="1173.9727"/><rect fill="#FFFFFF" height="93.873" style="stroke:#181818;stroke-width:1.0;" width="10" x="1942.5" y="1236.5547"/><rect fill="#FFFFFF" height="31.291" style="stroke:#181818;stroke-width:1.0;" width="10" x="2243.5" y="1267.8457"/><rect fill="none" height="424.7832" style="stroke:#000000;stroke-width:1.5;" width="585.5" x="10" y="687.6074"/><rect fill="none" height="328.9102" style="stroke:#000000;stroke-width:1.5;" width="565.5" x="20" y="776.4805"/><rect fill="none" height="126.1641" style="stroke:#000000;stroke-width:1.5;" width="479.5" x="30" y="972.2266"/><line style="stroke:#181818;stroke-width:0.5;stroke-dasharray:5.0,5.0;" x1="57" x2="57" y1="123.2422" y2="1379.7188"/><line style="stroke:#181818;stroke-width:0.5;stroke-dasharray:5.0,5.0;" x1="361.5" x2="361.5" y1="123.2422" y2="1379.7188"/><line style="stroke:#181818;stroke-width:0.5;stroke-dasharray:5.0,5.0;" x1="1154.5" x2="1154.5" y1="123.2422" y2="1379.7188"/><line style="stroke:#181818;stroke-width:0.5;stroke-dasharray:5.0,5.0;" x1="1433.5" x2="1433.5" y1="123.2422" y2="1379.7188"/><line style="stroke:#181818;stroke-width:0.5;stroke-dasharray:5.0,5.0;" x1="1947" x2="1947" y1="123.2422" y2="1379.7188"/><line style="stroke:#181818;stroke-width:0.5;stroke-dasharray:5.0,5.0;" x1="2248" x2="2248" y1="123.2422" y2="1379.7188"/><text fill="#000000" font-family="sans-serif" font-size="14" lengthAdjust="spacing" textLength="29" x="40" y="119.7285">User</text><ellipse cx="57.5" cy="53.1211" fill="#E2E2F0" rx="8" ry="8" style="stroke:#181818;stroke-width:0.5;"/><path d="M57.5,61.1211 L57.5,88.1211 M44.5,69.1211 L70.5,69.1211 M57.5,88.1211 L44.5,103.1211 M57.5,88.1211 L70.5,103.1211 " fill="none" style="stroke:#181818;stroke-width:0.5;"/><text fill="#000000" font-family="sans-serif" font-size="14" lengthAdjust="spacing" textLength="29" x="40" y="1393.8262">User</text><ellipse cx="57.5" cy="1405.8398" fill="#E2E2F0" rx="8" ry="8" style="stroke:#181818;stroke-width:0.5;"/><path d="M57.5,1413.8398 L57.5,1440.8398 M44.5,1421.8398 L70.5,1421.8398 M57.5,1440.8398 L44.5,1455.8398 M57.5,1440.8398 L70.5,1455.8398 " fill="none" style="stroke:#181818;stroke-width:0.5;"/><rect fill="#E2E2F0" height="32.6211" rx="2.5" ry="2.5" style="stroke:#181818;stroke-width:0.5;" width="270" x="226.5" y="89.6211"/><text fill="#000000" font-family="sans-serif" font-size="14" lengthAdjust="spacing" textLength="256" x="233.5" y="111.7285">UI: ProductionFactorApplianceRegisterUI</text><rect fill="#E2E2F0" height="32.6211" rx="2.5" ry="2.5" style="stroke:#181818;stroke-width:0.5;" width="270" x="226.5" y="1378.7188"/><text fill="#000000" font-family="sans-serif" font-size="14" lengthAdjust="spacing" textLength="256" x="233.5" y="1400.8262">UI: ProductionFactorApplianceRegisterUI</text><rect fill="#E2E2F0" height="32.6211" rx="2.5" ry="2.5" style="stroke:#181818;stroke-width:0.5;" width="370" x="969.5" y="89.6211"/><text fill="#000000" font-family="sans-serif" font-size="14" lengthAdjust="spacing" textLength="356" x="976.5" y="111.7285">Controller: ProductionFactorApplianceRegisterController</text><rect fill="#E2E2F0" height="32.6211" rx="2.5" ry="2.5" style="stroke:#181818;stroke-width:0.5;" width="370" x="969.5" y="1378.7188"/><text fill="#000000" font-family="sans-serif" font-size="14" lengthAdjust="spacing" textLength="356" x="976.5" y="1400.8262">Controller: ProductionFactorApplianceRegisterController</text><rect fill="#E2E2F0" height="32.6211" rx="2.5" ry="2.5" style="stroke:#181818;stroke-width:0.5;" width="169" x="1349.5" y="89.6211"/><text fill="#000000" font-family="sans-serif" font-size="14" lengthAdjust="spacing" textLength="155" x="1356.5" y="111.7285">Repository: Repositories</text><rect fill="#E2E2F0" height="32.6211" rx="2.5" ry="2.5" style="stroke:#181818;stroke-width:0.5;" width="169" x="1349.5" y="1378.7188"/><text fill="#000000" font-family="sans-serif" font-size="14" lengthAdjust="spacing" textLength="155" x="1356.5" y="1400.8262">Repository: Repositories</text><rect fill="#E2E2F0" height="32.6211" rx="2.5" ry="2.5" style="stroke:#181818;stroke-width:0.5;" width="329" x="1783" y="89.6211"/><text fill="#000000" font-family="sans-serif" font-size="14" lengthAdjust="spacing" textLength="315" x="1790" y="111.7285">Repository: ProductionFactorApplianceRepository</text><rect fill="#E2E2F0" height="32.6211" rx="2.5" ry="2.5" style="stroke:#181818;stroke-width:0.5;" width="329" x="1783" y="1378.7188"/><text fill="#000000" font-family="sans-serif" font-size="14" lengthAdjust="spacing" textLength="315" x="1790" y="1400.8262">Repository: ProductionFactorApplianceRepository</text><rect fill="#E2E2F0" height="32.6211" rx="2.5" ry="2.5" style="stroke:#181818;stroke-width:0.5;" width="253" x="2122" y="89.6211"/><text fill="#000000" font-family="sans-serif" font-size="14" lengthAdjust="spacing" textLength="239" x="2129" y="111.7285">DTO: ProductionFactorApplianceDTO</text><rect fill="#E2E2F0" height="32.6211" rx="2.5" ry="2.5" style="stroke:#181818;stroke-width:0.5;" width="253" x="2122" y="1378.7188"/><text fill="#000000" font-family="sans-serif" font-size="14" lengthAdjust="spacing" textLength="239" x="2129" y="1400.8262">DTO: ProductionFactorApplianceDTO</text><rect fill="#FFFFFF" height="1205.1855" style="stroke:#181818;stroke-width:1.0;" width="10" x="356.5" y="156.5332"/><rect fill="#FFFFFF" height="219.0371" style="stroke:#181818;stroke-width:1.0;" width="10" x="1149.5" y="1142.6816"/><rect fill="#FFFFFF" height="31.291" style="stroke:#181818;stroke-width:1.0;" width="10" x="1429" y="1173.9727"/><rect fill="#FFFFFF" height="93.873" style="stroke:#181818;stroke-width:1.0;" width="10" x="1942.5" y="1236.5547"/><rect fill="#FFFFFF" height="31.291" style="stroke:#181818;stroke-width:1.0;" width="10" x="2243.5" y="1267.8457"/><polygon fill="#181818" points="344.5,152.5332,354.5,156.5332,344.5,160.5332,348.5,156.5332" style="stroke:#181818;stroke-width:1.0;"/><line style="stroke:#181818;stroke-width:1.0;" x1="57.5" x2="350.5" y1="156.5332" y2="156.5332"/><text fill="#000000" font-family="sans-serif" font-size="13" font-weight="bold" lengthAdjust="spacing" textLength="7" x="64.5" y="151.2705">1</text><text fill="#000000" font-family="sans-serif" font-size="13" lengthAdjust="spacing" textLength="26" x="75.5" y="151.2705">run()</text><line style="stroke:#181818;stroke-width:1.0;" x1="366.5" x2="408.5" y1="187.8242" y2="187.8242"/><line style="stroke:#181818;stroke-width:1.0;" x1="408.5" x2="408.5" y1="187.8242" y2="200.8242"/><line style="stroke:#181818;stroke-width:1.0;" x1="367.5" x2="408.5" y1="200.8242" y2="200.8242"/><polygon fill="#181818" points="377.5,196.8242,367.5,200.8242,377.5,204.8242,373.5,200.8242" style="stroke:#181818;stroke-width:1.0;"/><text fill="#000000" font-family="sans-serif" font-size="13" font-weight="bold" lengthAdjust="spacing" textLength="7" x="373.5" y="182.5615">2</text><text fill="#000000" font-family="sans-serif" font-size="13" lengthAdjust="spacing" textLength="359" x="384.5" y="182.5615">Display "Register a new production factor appliance operation"</text><polygon fill="#181818" points="68.5,228.1152,58.5,232.1152,68.5,236.1152,64.5,232.1152" style="stroke:#181818;stroke-width:1.0;"/><line style="stroke:#181818;stroke-width:1.0;" x1="62.5" x2="355.5" y1="232.1152" y2="232.1152"/><text fill="#000000" font-family="sans-serif" font-size="13" font-weight="bold" lengthAdjust="spacing" textLength="7" x="74.5" y="226.8525">3</text><text fill="#000000" font-family="sans-serif" font-size="13" lengthAdjust="spacing" textLength="130" x="85.5" y="226.8525">Prompt "OperationId: "</text><polygon fill="#181818" points="344.5,259.4063,354.5,263.4063,344.5,267.4063,348.5,263.4063" style="stroke:#181818;stroke-width:1.0;"/><line style="stroke:#181818;stroke-width:1.0;" x1="57.5" x2="350.5" y1="263.4063" y2="263.4063"/><text fill="#000000" font-family="sans-serif" font-size="13" font-weight="bold" lengthAdjust="spacing" textLength="7" x="64.5" y="258.1436">4</text><text fill="#000000" font-family="sans-serif" font-size="13" lengthAdjust="spacing" textLength="63" x="75.5" y="258.1436">operationId</text><line style="stroke:#181818;stroke-width:1.0;" x1="366.5" x2="408.5" y1="294.6973" y2="294.6973"/><line style="stroke:#181818;stroke-width:1.0;" x1="408.5" x2="408.5" y1="294.6973" y2="307.6973"/><line style="stroke:#181818;stroke-width:1.0;" x1="367.5" x2="408.5" y1="307.6973" y2="307.6973"/><polygon fill="#181818" points="377.5,303.6973,367.5,307.6973,377.5,311.6973,373.5,307.6973" style="stroke:#181818;stroke-width:1.0;"/><text fill="#000000" font-family="sans-serif" font-size="13" font-weight="bold" lengthAdjust="spacing" textLength="7" x="373.5" y="289.4346">5</text><text fill="#000000" font-family="sans-serif" font-size="13" lengthAdjust="spacing" textLength="102" x="384.5" y="289.4346">Display Plots List</text><polygon fill="#181818" points="68.5,334.9883,58.5,338.9883,68.5,342.9883,64.5,338.9883" style="stroke:#181818;stroke-width:1.0;"/><line style="stroke:#181818;stroke-width:1.0;" x1="62.5" x2="355.5" y1="338.9883" y2="338.9883"/><text fill="#000000" font-family="sans-serif" font-size="13" font-weight="bold" lengthAdjust="spacing" textLength="7" x="74.5" y="333.7256">6</text><text fill="#000000" font-family="sans-serif" font-size="13" lengthAdjust="spacing" textLength="97" x="85.5" y="333.7256">Prompt "PlotId: "</text><polygon fill="#181818" points="344.5,366.2793,354.5,370.2793,344.5,374.2793,348.5,370.2793" style="stroke:#181818;stroke-width:1.0;"/><line style="stroke:#181818;stroke-width:1.0;" x1="57.5" x2="350.5" y1="370.2793" y2="370.2793"/><text fill="#000000" font-family="sans-serif" font-size="13" font-weight="bold" lengthAdjust="spacing" textLength="7" x="64.5" y="365.0166">7</text><text fill="#000000" font-family="sans-serif" font-size="13" lengthAdjust="spacing" textLength="31" x="75.5" y="365.0166">plotId</text><line style="stroke:#181818;stroke-width:1.0;" x1="366.5" x2="408.5" y1="401.5703" y2="401.5703"/><line style="stroke:#181818;stroke-width:1.0;" x1="408.5" x2="408.5" y1="401.5703" y2="414.5703"/><line style="stroke:#181818;stroke-width:1.0;" x1="367.5" x2="408.5" y1="414.5703" y2="414.5703"/><polygon fill="#181818" points="377.5,410.5703,367.5,414.5703,377.5,418.5703,373.5,414.5703" style="stroke:#181818;stroke-width:1.0;"/><text fill="#000000" font-family="sans-serif" font-size="13" font-weight="bold" lengthAdjust="spacing" textLength="7" x="373.5" y="396.3076">8</text><text fill="#000000" font-family="sans-serif" font-size="13" lengthAdjust="spacing" textLength="147" x="384.5" y="396.3076">Prompt "OperationDate: "</text><polygon fill="#181818" points="68.5,441.8613,58.5,445.8613,68.5,449.8613,64.5,445.8613" style="stroke:#181818;stroke-width:1.0;"/><line style="stroke:#181818;stroke-width:1.0;" x1="62.5" x2="355.5" y1="445.8613" y2="445.8613"/><text fill="#000000" font-family="sans-serif" font-size="13" font-weight="bold" lengthAdjust="spacing" textLength="7" x="74.5" y="440.5986">9</text><text fill="#000000" font-family="sans-serif" font-size="13" lengthAdjust="spacing" textLength="80" x="85.5" y="440.5986">operationDate</text><line style="stroke:#181818;stroke-width:1.0;" x1="366.5" x2="408.5" y1="477.1523" y2="477.1523"/><line style="stroke:#181818;stroke-width:1.0;" x1="408.5" x2="408.5" y1="477.1523" y2="490.1523"/><line style="stroke:#181818;stroke-width:1.0;" x1="367.5" x2="408.5" y1="490.1523" y2="490.1523"/><polygon fill="#181818" points="377.5,486.1523,367.5,490.1523,377.5,494.1523,373.5,490.1523" style="stroke:#181818;stroke-width:1.0;"/><text fill="#000000" font-family="sans-serif" font-size="13" font-weight="bold" lengthAdjust="spacing" textLength="14" x="373.5" y="471.8896">10</text><text fill="#000000" font-family="sans-serif" font-size="13" lengthAdjust="spacing" textLength="97" x="391.5" y="471.8896">Prompt "Value: "</text><polygon fill="#181818" points="68.5,517.4434,58.5,521.4434,68.5,525.4434,64.5,521.4434" style="stroke:#181818;stroke-width:1.0;"/><line style="stroke:#181818;stroke-width:1.0;" x1="62.5" x2="355.5" y1="521.4434" y2="521.4434"/><text fill="#000000" font-family="sans-serif" font-size="13" font-weight="bold" lengthAdjust="spacing" textLength="14" x="74.5" y="516.1807">11</text><text fill="#000000" font-family="sans-serif" font-size="13" lengthAdjust="spacing" textLength="29" x="92.5" y="516.1807">value</text><line style="stroke:#181818;stroke-width:1.0;" x1="366.5" x2="408.5" y1="552.7344" y2="552.7344"/><line style="stroke:#181818;stroke-width:1.0;" x1="408.5" x2="408.5" y1="552.7344" y2="565.7344"/><line style="stroke:#181818;stroke-width:1.0;" x1="367.5" x2="408.5" y1="565.7344" y2="565.7344"/><polygon fill="#181818" points="377.5,561.7344,367.5,565.7344,377.5,569.7344,373.5,565.7344" style="stroke:#181818;stroke-width:1.0;"/><text fill="#000000" font-family="sans-serif" font-size="13" font-weight="bold" lengthAdjust="spacing" textLength="14" x="373.5" y="547.4717">12</text><text fill="#000000" font-family="sans-serif" font-size="13" lengthAdjust="spacing" textLength="97" x="391.5" y="547.4717">Prompt "UnitId: "</text><polygon fill="#181818" points="68.5,593.0254,58.5,597.0254,68.5,601.0254,64.5,597.0254" style="stroke:#181818;stroke-width:1.0;"/><line style="stroke:#181818;stroke-width:1.0;" x1="62.5" x2="355.5" y1="597.0254" y2="597.0254"/><text fill="#000000" font-family="sans-serif" font-size="13" font-weight="bold" lengthAdjust="spacing" textLength="14" x="74.5" y="591.7627">13</text><text fill="#000000" font-family="sans-serif" font-size="13" lengthAdjust="spacing" textLength="31" x="92.5" y="591.7627">unitId</text><line style="stroke:#181818;stroke-width:1.0;" x1="366.5" x2="408.5" y1="628.3164" y2="628.3164"/><line style="stroke:#181818;stroke-width:1.0;" x1="408.5" x2="408.5" y1="628.3164" y2="641.3164"/><line style="stroke:#181818;stroke-width:1.0;" x1="367.5" x2="408.5" y1="641.3164" y2="641.3164"/><polygon fill="#181818" points="377.5,637.3164,367.5,641.3164,377.5,645.3164,373.5,641.3164" style="stroke:#181818;stroke-width:1.0;"/><text fill="#000000" font-family="sans-serif" font-size="13" font-weight="bold" lengthAdjust="spacing" textLength="14" x="373.5" y="623.0537">14</text><text fill="#000000" font-family="sans-serif" font-size="13" lengthAdjust="spacing" textLength="173" x="391.5" y="623.0537">Prompt "ProductionFactorId: "</text><polygon fill="#181818" points="344.5,668.6074,354.5,672.6074,344.5,676.6074,348.5,672.6074" style="stroke:#181818;stroke-width:1.0;"/><line style="stroke:#181818;stroke-width:1.0;" x1="57.5" x2="350.5" y1="672.6074" y2="672.6074"/><text fill="#000000" font-family="sans-serif" font-size="13" font-weight="bold" lengthAdjust="spacing" textLength="14" x="64.5" y="667.3447">15</text><text fill="#000000" font-family="sans-serif" font-size="13" lengthAdjust="spacing" textLength="107" x="82.5" y="667.3447">productionFactorId</text><path d="M10,687.6074 L71,687.6074 L71,696.8984 L61,706.8984 L10,706.8984 L10,687.6074 " fill="#EEEEEE" style="stroke:#000000;stroke-width:1.5;"/><rect fill="none" height="424.7832" style="stroke:#000000;stroke-width:1.5;" width="585.5" x="10" y="687.6074"/><text fill="#000000" font-family="sans-serif" font-size="13" font-weight="bold" lengthAdjust="spacing" textLength="16" x="25" y="702.6357">alt</text><text fill="#000000" font-family="sans-serif" font-size="11" font-weight="bold" lengthAdjust="spacing" textLength="152" x="86" y="701.4775">[If Operation is Fertilization]</text><polygon fill="#181818" points="68.5,726.1895,58.5,730.1895,68.5,734.1895,64.5,730.1895" style="stroke:#181818;stroke-width:1.0;"/><line style="stroke:#181818;stroke-width:1.0;" x1="62.5" x2="355.5" y1="730.1895" y2="730.1895"/><text fill="#000000" font-family="sans-serif" font-size="13" font-weight="bold" lengthAdjust="spacing" textLength="14" x="74.5" y="724.9268">16</text><text fill="#000000" font-family="sans-serif" font-size="13" lengthAdjust="spacing" textLength="231" x="92.5" y="724.9268">Confirm "Is the operation a fertilization?"</text><polygon fill="#181818" points="344.5,757.4805,354.5,761.4805,344.5,765.4805,348.5,761.4805" style="stroke:#181818;stroke-width:1.0;"/><line style="stroke:#181818;stroke-width:1.0;" x1="57.5" x2="350.5" y1="761.4805" y2="761.4805"/><text fill="#000000" font-family="sans-serif" font-size="13" font-weight="bold" lengthAdjust="spacing" textLength="14" x="64.5" y="756.2178">17</text><text fill="#000000" font-family="sans-serif" font-size="13" lengthAdjust="spacing" textLength="51" x="82.5" y="756.2178">[Yes/No]</text><path d="M20,776.4805 L81,776.4805 L81,785.7715 L71,795.7715 L20,795.7715 L20,776.4805 " fill="#EEEEEE" style="stroke:#000000;stroke-width:1.5;"/><rect fill="none" height="328.9102" style="stroke:#000000;stroke-width:1.5;" width="565.5" x="20" y="776.4805"/><text fill="#000000" font-family="sans-serif" font-size="13" font-weight="bold" lengthAdjust="spacing" textLength="16" x="35" y="791.5088">alt</text><text fill="#000000" font-family="sans-serif" font-size="11" font-weight="bold" lengthAdjust="spacing" textLength="142" x="96" y="790.3506">[If Fertilization is on Crop]</text><line style="stroke:#181818;stroke-width:1.0;" x1="366.5" x2="408.5" y1="819.0625" y2="819.0625"/><line style="stroke:#181818;stroke-width:1.0;" x1="408.5" x2="408.5" y1="819.0625" y2="832.0625"/><line style="stroke:#181818;stroke-width:1.0;" x1="367.5" x2="408.5" y1="832.0625" y2="832.0625"/><polygon fill="#181818" points="377.5,828.0625,367.5,832.0625,377.5,836.0625,373.5,832.0625" style="stroke:#181818;stroke-width:1.0;"/><text fill="#000000" font-family="sans-serif" font-size="13" font-weight="bold" lengthAdjust="spacing" textLength="14" x="373.5" y="813.7998">18</text><text fill="#000000" font-family="sans-serif" font-size="13" lengthAdjust="spacing" textLength="182" x="391.5" y="813.7998">Display Fertilization Modes List</text><polygon fill="#181818" points="68.5,859.3535,58.5,863.3535,68.5,867.3535,64.5,863.3535" style="stroke:#181818;stroke-width:1.0;"/><line style="stroke:#181818;stroke-width:1.0;" x1="62.5" x2="355.5" y1="863.3535" y2="863.3535"/><text fill="#000000" font-family="sans-serif" font-size="13" font-weight="bold" lengthAdjust="spacing" textLength="14" x="74.5" y="858.0908">19</text><text fill="#000000" font-family="sans-serif" font-size="13" lengthAdjust="spacing" textLength="173" x="92.5" y="858.0908">Prompt "FertilizationModeId: "</text><polygon fill="#181818" points="344.5,890.6445,354.5,894.6445,344.5,898.6445,348.5,894.6445" style="stroke:#181818;stroke-width:1.0;"/><line style="stroke:#181818;stroke-width:1.0;" x1="57.5" x2="350.5" y1="894.6445" y2="894.6445"/><text fill="#000000" font-family="sans-serif" font-size="13" font-weight="bold" lengthAdjust="spacing" textLength="14" x="64.5" y="889.3818">20</text><text fill="#000000" font-family="sans-serif" font-size="13" lengthAdjust="spacing" textLength="104" x="82.5" y="889.3818">fertilizationModeId</text><polygon fill="#181818" points="68.5,921.9355,58.5,925.9355,68.5,929.9355,64.5,925.9355" style="stroke:#181818;stroke-width:1.0;"/><line style="stroke:#181818;stroke-width:1.0;" x1="62.5" x2="355.5" y1="925.9355" y2="925.9355"/><text fill="#000000" font-family="sans-serif" font-size="13" font-weight="bold" lengthAdjust="spacing" textLength="14" x="74.5" y="920.6729">21</text><text fill="#000000" font-family="sans-serif" font-size="13" lengthAdjust="spacing" textLength="257" x="92.5" y="920.6729">Confirm "Is the fertilization made on a crop?"</text><polygon fill="#181818" points="344.5,953.2266,354.5,957.2266,344.5,961.2266,348.5,957.2266" style="stroke:#181818;stroke-width:1.0;"/><line style="stroke:#181818;stroke-width:1.0;" x1="57.5" x2="350.5" y1="957.2266" y2="957.2266"/><text fill="#000000" font-family="sans-serif" font-size="13" font-weight="bold" lengthAdjust="spacing" textLength="14" x="64.5" y="951.9639">22</text><text fill="#000000" font-family="sans-serif" font-size="13" lengthAdjust="spacing" textLength="51" x="82.5" y="951.9639">[Yes/No]</text><path d="M30,972.2266 L91,972.2266 L91,981.5176 L81,991.5176 L30,991.5176 L30,972.2266 " fill="#EEEEEE" style="stroke:#000000;stroke-width:1.5;"/><rect fill="none" height="126.1641" style="stroke:#000000;stroke-width:1.5;" width="479.5" x="30" y="972.2266"/><text fill="#000000" font-family="sans-serif" font-size="13" font-weight="bold" lengthAdjust="spacing" textLength="16" x="45" y="987.2549">alt</text><text fill="#000000" font-family="sans-serif" font-size="11" font-weight="bold" lengthAdjust="spacing" textLength="129" x="106" y="986.0967">[If Fertilization on Crop]</text><line style="stroke:#181818;stroke-width:1.0;" x1="366.5" x2="408.5" y1="1014.8086" y2="1014.8086"/><line style="stroke:#181818;stroke-width:1.0;" x1="408.5" x2="408.5" y1="1014.8086" y2="1027.8086"/><line style="stroke:#181818;stroke-width:1.0;" x1="367.5" x2="408.5" y1="1027.8086" y2="1027.8086"/><polygon fill="#181818" points="377.5,1023.8086,367.5,1027.8086,377.5,1031.8086,373.5,1027.8086" style="stroke:#181818;stroke-width:1.0;"/><text fill="#000000" font-family="sans-serif" font-size="13" font-weight="bold" lengthAdjust="spacing" textLength="14" x="373.5" y="1009.5459">23</text><text fill="#000000" font-family="sans-serif" font-size="13" lengthAdjust="spacing" textLength="106" x="391.5" y="1009.5459">Display Crops List</text><polygon fill="#181818" points="68.5,1055.0996,58.5,1059.0996,68.5,1063.0996,64.5,1059.0996" style="stroke:#181818;stroke-width:1.0;"/><line style="stroke:#181818;stroke-width:1.0;" x1="62.5" x2="355.5" y1="1059.0996" y2="1059.0996"/><text fill="#000000" font-family="sans-serif" font-size="13" font-weight="bold" lengthAdjust="spacing" textLength="14" x="74.5" y="1053.8369">24</text><text fill="#000000" font-family="sans-serif" font-size="13" lengthAdjust="spacing" textLength="101" x="92.5" y="1053.8369">Prompt "CropId: "</text><polygon fill="#181818" points="344.5,1086.3906,354.5,1090.3906,344.5,1094.3906,348.5,1090.3906" style="stroke:#181818;stroke-width:1.0;"/><line style="stroke:#181818;stroke-width:1.0;" x1="57.5" x2="350.5" y1="1090.3906" y2="1090.3906"/><text fill="#000000" font-family="sans-serif" font-size="13" font-weight="bold" lengthAdjust="spacing" textLength="14" x="64.5" y="1085.1279">25</text><text fill="#000000" font-family="sans-serif" font-size="13" lengthAdjust="spacing" textLength="35" x="82.5" y="1085.1279">cropId</text><polygon fill="#181818" points="1137.5,1138.6816,1147.5,1142.6816,1137.5,1146.6816,1141.5,1142.6816" style="stroke:#181818;stroke-width:1.0;"/><line style="stroke:#181818;stroke-width:1.0;" x1="366.5" x2="1143.5" y1="1142.6816" y2="1142.6816"/><text fill="#000000" font-family="sans-serif" font-size="13" font-weight="bold" lengthAdjust="spacing" textLength="14" x="373.5" y="1137.4189">26</text><text fill="#000000" font-family="sans-serif" font-size="13" lengthAdjust="spacing" textLength="746" x="391.5" y="1137.4189">productionFactorApplianceRegister(operationId, plotId, operationDate, value, unitId, productionFactorId, fertilizationModeId, cropId)</text><polygon fill="#181818" points="1417,1169.9727,1427,1173.9727,1417,1177.9727,1421,1173.9727" style="stroke:#181818;stroke-width:1.0;"/><line style="stroke:#181818;stroke-width:1.0;" x1="1159.5" x2="1423" y1="1173.9727" y2="1173.9727"/><text fill="#000000" font-family="sans-serif" font-size="13" font-weight="bold" lengthAdjust="spacing" textLength="14" x="1166.5" y="1168.71">27</text><text fill="#000000" font-family="sans-serif" font-size="13" lengthAdjust="spacing" textLength="75" x="1184.5" y="1168.71">getInstance()</text><polygon fill="#181818" points="1170.5,1201.2637,1160.5,1205.2637,1170.5,1209.2637,1166.5,1205.2637" style="stroke:#181818;stroke-width:1.0;"/><line style="stroke:#181818;stroke-width:1.0;" x1="1164.5" x2="1433" y1="1205.2637" y2="1205.2637"/><text fill="#000000" font-family="sans-serif" font-size="13" font-weight="bold" lengthAdjust="spacing" textLength="14" x="1176.5" y="1200.001">28</text><text fill="#000000" font-family="sans-serif" font-size="13" lengthAdjust="spacing" textLength="91" x="1194.5" y="1200.001">Return instance</text><polygon fill="#181818" points="1930.5,1232.5547,1940.5,1236.5547,1930.5,1240.5547,1934.5,1236.5547" style="stroke:#181818;stroke-width:1.0;"/><line style="stroke:#181818;stroke-width:1.0;" x1="1159.5" x2="1936.5" y1="1236.5547" y2="1236.5547"/><text fill="#000000" font-family="sans-serif" font-size="13" font-weight="bold" lengthAdjust="spacing" textLength="14" x="1166.5" y="1231.292">29</text><text fill="#000000" font-family="sans-serif" font-size="13" lengthAdjust="spacing" textLength="746" x="1184.5" y="1231.292">productionFactorApplianceRegister(operationId, plotId, operationDate, value, unitId, productionFactorId, fertilizationModeId, cropId)</text><polygon fill="#181818" points="2231.5,1263.8457,2241.5,1267.8457,2231.5,1271.8457,2235.5,1267.8457" style="stroke:#181818;stroke-width:1.0;"/><line style="stroke:#181818;stroke-width:1.0;" x1="1952.5" x2="2237.5" y1="1267.8457" y2="1267.8457"/><text fill="#000000" font-family="sans-serif" font-size="13" font-weight="bold" lengthAdjust="spacing" textLength="14" x="1959.5" y="1262.583">30</text><text fill="#000000" font-family="sans-serif" font-size="13" lengthAdjust="spacing" textLength="251" x="1977.5" y="1262.583">Create new ProductionFactorApplianceDTO</text><polygon fill="#181818" points="1963.5,1295.1367,1953.5,1299.1367,1963.5,1303.1367,1959.5,1299.1367" style="stroke:#181818;stroke-width:1.0;"/><line style="stroke:#181818;stroke-width:1.0;stroke-dasharray:2.0,2.0;" x1="1957.5" x2="2247.5" y1="1299.1367" y2="1299.1367"/><text fill="#000000" font-family="sans-serif" font-size="13" font-weight="bold" lengthAdjust="spacing" textLength="14" x="1969.5" y="1293.874">31</text><text fill="#000000" font-family="sans-serif" font-size="13" lengthAdjust="spacing" textLength="121" x="1987.5" y="1293.874">Return DTO instance</text><polygon fill="#181818" points="1170.5,1326.4277,1160.5,1330.4277,1170.5,1334.4277,1166.5,1330.4277" style="stroke:#181818;stroke-width:1.0;"/><line style="stroke:#181818;stroke-width:1.0;" x1="1164.5" x2="1946.5" y1="1330.4277" y2="1330.4277"/><text fill="#000000" font-family="sans-serif" font-size="13" font-weight="bold" lengthAdjust="spacing" textLength="14" x="1176.5" y="1325.165">32</text><text fill="#000000" font-family="sans-serif" font-size="13" lengthAdjust="spacing" textLength="164" x="1194.5" y="1325.165">[Database Operation Result]</text><polygon fill="#181818" points="372.5,1357.7188,362.5,1361.7188,372.5,1365.7188,368.5,1361.7188" style="stroke:#181818;stroke-width:1.0;"/><line style="stroke:#181818;stroke-width:1.0;" x1="366.5" x2="1153.5" y1="1361.7188" y2="1361.7188"/><text fill="#000000" font-family="sans-serif" font-size="13" font-weight="bold" lengthAdjust="spacing" textLength="14" x="378.5" y="1356.4561">33</text><text fill="#000000" font-family="sans-serif" font-size="13" lengthAdjust="spacing" textLength="119" x="396.5" y="1356.4561">[Result of Operation]</text><!--SRC=[pLNVQzim47xNNt7ugGE7xMsGXvNI431qQqZdmIXzK9rB9d0iJP8xkhz-alphPAlP7XTmBElkFdtwxdIomjO8vSFTxiD7MC43_congH0sWfyqFpF6MokRzloCseqhApMKneqLrrPKGl76GbOMQzXfUMWhAsIp3MutIjM2EwWzdeIngCiY0swWBEBOMzbOBUiQzJzWJCu1Q_gCCVUef14Eu7KDurYW2K5quksm2rG6fu2sszvCCp7Svklz1Hnd3G3kpPYN55QVm0kfs-RgdPTQl72BNYzM5eDn8uog-QldsYa271hy1MfS1evTblYm44Y5cdjJDW2PNkopSZJl1tDnM4CMKP6JAKLYLqjhuCxnI09xyn9JXLaAjo2oSViEOGHKKcCg-XklsqNKYvzCUPUD6BWHzpRCflpdQKpiQ-7XpajjeJZ2k34G1hReIgGMlyC40_UZ35n57uK-GrOOi3z8xboUZpJoEkjY2OF7xsZUVv5FB5ZwjQFb_Fhk_rPB5Np8wYIjSSXdUS0-oREGADbHa8_f51f32C_ZqfKbiUTYH85mvWU484pbzdETNclKP30cPPbhajR5kyoKU4iDxneBC2TM1O_HZ4qtzc__z2L8cwFwMtEy8iSrxyzP7X-Sl3iHUL_fUQ9gyrH-yfulwKkazx9fx4dJ1hk64zgYCTOJfMqjwiBqOxxjFTfMkyhjCTW1qnWp4b5V_k_4YsyD5drwzk7gkDNeVNrxltIBJAZ-mpsmMkw_Lz5RKqg6IsZ1WgRXqId0dxb1qitsQDhQFb6WsSRYd8G3sGM196qnGY1rHMRTBVW7]--></g></svg>