<?xml version="1.0" encoding="us-ascii" standalone="no"?><svg xmlns="http://www.w3.org/2000/svg" xmlns:xlink="http://www.w3.org/1999/xlink" contentStyleType="text/css" height="145px" preserveAspectRatio="none" style="width:1043px;height:145px;background:#FFFFFF;" version="1.1" viewBox="0 0 1043 145" width="1043px" zoomAndPan="magnify"><defs/><g><!--class OperationWeedingRegisterUI--><g id="elem_OperationWeedingRegisterUI"><rect codeLine="9" fill="#F1F1F1" height="48" id="OperationWeedingRegisterUI" rx="2.5" ry="2.5" style="stroke:#181818;stroke-width:0.5;" width="216" x="7" y="49"/><ellipse cx="22" cy="65" fill="#ADD1B2" rx="11" ry="11" style="stroke:#181818;stroke-width:1.0;"/><path d="M24.7656,60.875 Q24.9219,60.6563 25.1094,60.5469 Q25.2969,60.4375 25.5156,60.4375 Q25.8906,60.4375 26.125,60.7031 Q26.3594,60.9531 26.3594,61.5625 L26.3594,63.0156 Q26.3594,63.625 26.125,63.8906 Q25.8906,64.1563 25.5156,64.1563 Q25.1719,64.1563 24.9688,63.9531 Q24.7656,63.7656 24.6563,63.25 Q24.6094,62.8906 24.4219,62.7031 Q24.0938,62.3281 23.4844,62.1094 Q22.875,61.8906 22.25,61.8906 Q21.4844,61.8906 20.8438,62.2188 Q20.2188,62.5469 19.7188,63.2969 Q19.2344,64.0469 19.2344,65.0781 L19.2344,66.1719 Q19.2344,67.4063 20.125,68.2344 Q21.0156,69.0469 22.6094,69.0469 Q23.5469,69.0469 24.2031,68.7969 Q24.5938,68.6406 25.0156,68.2031 Q25.2813,67.9375 25.4219,67.8594 Q25.5781,67.7813 25.7813,67.7813 Q26.1094,67.7813 26.3594,68.0469 Q26.625,68.2969 26.625,68.6406 Q26.625,68.9844 26.2813,69.3906 Q25.7813,69.9688 24.9844,70.2969 Q23.9063,70.75 22.6094,70.75 Q21.0938,70.75 19.8906,70.125 Q18.9063,69.625 18.2188,68.5625 Q17.5313,67.4844 17.5313,66.2031 L17.5313,65.0469 Q17.5313,63.7188 18.1406,62.5781 Q18.7656,61.4219 19.8594,60.8125 Q20.9531,60.1875 22.1875,60.1875 Q22.9219,60.1875 23.5625,60.3594 Q24.2188,60.5156 24.7656,60.875 Z " fill="#000000"/><text fill="#000000" font-family="sans-serif" font-size="14" lengthAdjust="spacing" textLength="184" x="36" y="70.7969">OperationWeedingRegisterUI</text><line style="stroke:#181818;stroke-width:0.5;" x1="8" x2="222" y1="81" y2="81"/><line style="stroke:#181818;stroke-width:0.5;" x1="8" x2="222" y1="89" y2="89"/></g><!--class OperationWeedingRegisterController--><g id="elem_OperationWeedingRegisterController"><rect codeLine="12" fill="#F1F1F1" height="48" id="OperationWeedingRegisterController" rx="2.5" ry="2.5" style="stroke:#181818;stroke-width:0.5;" width="266" x="283" y="49"/><ellipse cx="298" cy="65" fill="#ADD1B2" rx="11" ry="11" style="stroke:#181818;stroke-width:1.0;"/><path d="M300.7656,60.875 Q300.9219,60.6563 301.1094,60.5469 Q301.2969,60.4375 301.5156,60.4375 Q301.8906,60.4375 302.125,60.7031 Q302.3594,60.9531 302.3594,61.5625 L302.3594,63.0156 Q302.3594,63.625 302.125,63.8906 Q301.8906,64.1563 301.5156,64.1563 Q301.1719,64.1563 300.9688,63.9531 Q300.7656,63.7656 300.6563,63.25 Q300.6094,62.8906 300.4219,62.7031 Q300.0938,62.3281 299.4844,62.1094 Q298.875,61.8906 298.25,61.8906 Q297.4844,61.8906 296.8438,62.2188 Q296.2188,62.5469 295.7188,63.2969 Q295.2344,64.0469 295.2344,65.0781 L295.2344,66.1719 Q295.2344,67.4063 296.125,68.2344 Q297.0156,69.0469 298.6094,69.0469 Q299.5469,69.0469 300.2031,68.7969 Q300.5938,68.6406 301.0156,68.2031 Q301.2813,67.9375 301.4219,67.8594 Q301.5781,67.7813 301.7813,67.7813 Q302.1094,67.7813 302.3594,68.0469 Q302.625,68.2969 302.625,68.6406 Q302.625,68.9844 302.2813,69.3906 Q301.7813,69.9688 300.9844,70.2969 Q299.9063,70.75 298.6094,70.75 Q297.0938,70.75 295.8906,70.125 Q294.9063,69.625 294.2188,68.5625 Q293.5313,67.4844 293.5313,66.2031 L293.5313,65.0469 Q293.5313,63.7188 294.1406,62.5781 Q294.7656,61.4219 295.8594,60.8125 Q296.9531,60.1875 298.1875,60.1875 Q298.9219,60.1875 299.5625,60.3594 Q300.2188,60.5156 300.7656,60.875 Z " fill="#000000"/><text fill="#000000" font-family="sans-serif" font-size="14" lengthAdjust="spacing" textLength="234" x="312" y="70.7969">OperationWeedingRegisterController</text><line style="stroke:#181818;stroke-width:0.5;" x1="284" x2="548" y1="81" y2="81"/><line style="stroke:#181818;stroke-width:0.5;" x1="284" x2="548" y1="89" y2="89"/></g><!--class OperationWeedingRegisterRepository--><g id="elem_OperationWeedingRegisterRepository"><rect codeLine="15" fill="#F1F1F1" height="48" id="OperationWeedingRegisterRepository" rx="2.5" ry="2.5" style="stroke:#181818;stroke-width:0.5;" width="272" x="609" y="49"/><ellipse cx="624" cy="65" fill="#ADD1B2" rx="11" ry="11" style="stroke:#181818;stroke-width:1.0;"/><path d="M626.7656,60.875 Q626.9219,60.6563 627.1094,60.5469 Q627.2969,60.4375 627.5156,60.4375 Q627.8906,60.4375 628.125,60.7031 Q628.3594,60.9531 628.3594,61.5625 L628.3594,63.0156 Q628.3594,63.625 628.125,63.8906 Q627.8906,64.1563 627.5156,64.1563 Q627.1719,64.1563 626.9688,63.9531 Q626.7656,63.7656 626.6563,63.25 Q626.6094,62.8906 626.4219,62.7031 Q626.0938,62.3281 625.4844,62.1094 Q624.875,61.8906 624.25,61.8906 Q623.4844,61.8906 622.8438,62.2188 Q622.2188,62.5469 621.7188,63.2969 Q621.2344,64.0469 621.2344,65.0781 L621.2344,66.1719 Q621.2344,67.4063 622.125,68.2344 Q623.0156,69.0469 624.6094,69.0469 Q625.5469,69.0469 626.2031,68.7969 Q626.5938,68.6406 627.0156,68.2031 Q627.2813,67.9375 627.4219,67.8594 Q627.5781,67.7813 627.7813,67.7813 Q628.1094,67.7813 628.3594,68.0469 Q628.625,68.2969 628.625,68.6406 Q628.625,68.9844 628.2813,69.3906 Q627.7813,69.9688 626.9844,70.2969 Q625.9063,70.75 624.6094,70.75 Q623.0938,70.75 621.8906,70.125 Q620.9063,69.625 620.2188,68.5625 Q619.5313,67.4844 619.5313,66.2031 L619.5313,65.0469 Q619.5313,63.7188 620.1406,62.5781 Q620.7656,61.4219 621.8594,60.8125 Q622.9531,60.1875 624.1875,60.1875 Q624.9219,60.1875 625.5625,60.3594 Q626.2188,60.5156 626.7656,60.875 Z " fill="#000000"/><text fill="#000000" font-family="sans-serif" font-size="14" lengthAdjust="spacing" textLength="240" x="638" y="70.7969">OperationWeedingRegisterRepository</text><line style="stroke:#181818;stroke-width:0.5;" x1="610" x2="880" y1="81" y2="81"/><line style="stroke:#181818;stroke-width:0.5;" x1="610" x2="880" y1="89" y2="89"/></g><!--class Operation--><g id="elem_Operation"><rect codeLine="18" fill="#F1F1F1" height="48" id="Operation" rx="2.5" ry="2.5" style="stroke:#181818;stroke-width:0.5;" width="95" x="941" y="7"/><ellipse cx="956" cy="23" fill="#ADD1B2" rx="11" ry="11" style="stroke:#181818;stroke-width:1.0;"/><path d="M958.7656,18.875 Q958.9219,18.6563 959.1094,18.5469 Q959.2969,18.4375 959.5156,18.4375 Q959.8906,18.4375 960.125,18.7031 Q960.3594,18.9531 960.3594,19.5625 L960.3594,21.0156 Q960.3594,21.625 960.125,21.8906 Q959.8906,22.1563 959.5156,22.1563 Q959.1719,22.1563 958.9688,21.9531 Q958.7656,21.7656 958.6563,21.25 Q958.6094,20.8906 958.4219,20.7031 Q958.0938,20.3281 957.4844,20.1094 Q956.875,19.8906 956.25,19.8906 Q955.4844,19.8906 954.8438,20.2188 Q954.2188,20.5469 953.7188,21.2969 Q953.2344,22.0469 953.2344,23.0781 L953.2344,24.1719 Q953.2344,25.4063 954.125,26.2344 Q955.0156,27.0469 956.6094,27.0469 Q957.5469,27.0469 958.2031,26.7969 Q958.5938,26.6406 959.0156,26.2031 Q959.2813,25.9375 959.4219,25.8594 Q959.5781,25.7813 959.7813,25.7813 Q960.1094,25.7813 960.3594,26.0469 Q960.625,26.2969 960.625,26.6406 Q960.625,26.9844 960.2813,27.3906 Q959.7813,27.9688 958.9844,28.2969 Q957.9063,28.75 956.6094,28.75 Q955.0938,28.75 953.8906,28.125 Q952.9063,27.625 952.2188,26.5625 Q951.5313,25.4844 951.5313,24.2031 L951.5313,23.0469 Q951.5313,21.7188 952.1406,20.5781 Q952.7656,19.4219 953.8594,18.8125 Q954.9531,18.1875 956.1875,18.1875 Q956.9219,18.1875 957.5625,18.3594 Q958.2188,18.5156 958.7656,18.875 Z " fill="#000000"/><text fill="#000000" font-family="sans-serif" font-size="14" lengthAdjust="spacing" textLength="63" x="970" y="28.7969">Operation</text><line style="stroke:#181818;stroke-width:0.5;" x1="942" x2="1035" y1="39" y2="39"/><line style="stroke:#181818;stroke-width:0.5;" x1="942" x2="1035" y1="47" y2="47"/></g><!--class Crop--><g id="elem_Crop"><rect codeLine="21" fill="#F1F1F1" height="48" id="Crop" rx="2.5" ry="2.5" style="stroke:#181818;stroke-width:0.5;" width="63" x="957" y="90"/><ellipse cx="972" cy="106" fill="#ADD1B2" rx="11" ry="11" style="stroke:#181818;stroke-width:1.0;"/><path d="M974.7656,101.875 Q974.9219,101.6563 975.1094,101.5469 Q975.2969,101.4375 975.5156,101.4375 Q975.8906,101.4375 976.125,101.7031 Q976.3594,101.9531 976.3594,102.5625 L976.3594,104.0156 Q976.3594,104.625 976.125,104.8906 Q975.8906,105.1563 975.5156,105.1563 Q975.1719,105.1563 974.9688,104.9531 Q974.7656,104.7656 974.6563,104.25 Q974.6094,103.8906 974.4219,103.7031 Q974.0938,103.3281 973.4844,103.1094 Q972.875,102.8906 972.25,102.8906 Q971.4844,102.8906 970.8438,103.2188 Q970.2188,103.5469 969.7188,104.2969 Q969.2344,105.0469 969.2344,106.0781 L969.2344,107.1719 Q969.2344,108.4063 970.125,109.2344 Q971.0156,110.0469 972.6094,110.0469 Q973.5469,110.0469 974.2031,109.7969 Q974.5938,109.6406 975.0156,109.2031 Q975.2813,108.9375 975.4219,108.8594 Q975.5781,108.7813 975.7813,108.7813 Q976.1094,108.7813 976.3594,109.0469 Q976.625,109.2969 976.625,109.6406 Q976.625,109.9844 976.2813,110.3906 Q975.7813,110.9688 974.9844,111.2969 Q973.9063,111.75 972.6094,111.75 Q971.0938,111.75 969.8906,111.125 Q968.9063,110.625 968.2188,109.5625 Q967.5313,108.4844 967.5313,107.2031 L967.5313,106.0469 Q967.5313,104.7188 968.1406,103.5781 Q968.7656,102.4219 969.8594,101.8125 Q970.9531,101.1875 972.1875,101.1875 Q972.9219,101.1875 973.5625,101.3594 Q974.2188,101.5156 974.7656,101.875 Z " fill="#000000"/><text fill="#000000" font-family="sans-serif" font-size="14" lengthAdjust="spacing" textLength="31" x="986" y="111.7969">Crop</text><line style="stroke:#181818;stroke-width:0.5;" x1="958" x2="1019" y1="122" y2="122"/><line style="stroke:#181818;stroke-width:0.5;" x1="958" x2="1019" y1="130" y2="130"/></g><!--link OperationWeedingRegisterUI to OperationWeedingRegisterController--><g id="link_OperationWeedingRegisterUI_OperationWeedingRegisterController"><path codeLine="23" d="M223.1,73 C242.46,73 256.84,73 276.81,73 " fill="none" id="OperationWeedingRegisterUI-to-OperationWeedingRegisterController" style="stroke:#181818;stroke-width:1.0;stroke-dasharray:7.0,7.0;"/><polygon fill="#181818" points="282.81,73,273.81,69,277.81,73,273.81,77,282.81,73" style="stroke:#181818;stroke-width:1.0;"/></g><!--link OperationWeedingRegisterController to OperationWeedingRegisterRepository--><g id="link_OperationWeedingRegisterController_OperationWeedingRegisterRepository"><path codeLine="24" d="M549.06,73 C568.74,73 583.04,73 602.78,73 " fill="none" id="OperationWeedingRegisterController-to-OperationWeedingRegisterRepository" style="stroke:#181818;stroke-width:1.0;stroke-dasharray:7.0,7.0;"/><polygon fill="#181818" points="608.78,73,599.78,69,603.78,73,599.78,77,608.78,73" style="stroke:#181818;stroke-width:1.0;"/></g><!--reverse link OperationWeedingRegisterRepository to Crop--><g id="link_OperationWeedingRegisterRepository_Crop"><path codeLine="25" d="M893.0508,97.9678 C921.5108,102.7978 937.04,105.43 956.88,108.8 " fill="none" id="OperationWeedingRegisterRepository-backto-Crop" style="stroke:#181818;stroke-width:1.0;"/><polygon fill="#181818" points="881.22,95.96,886.4661,100.9075,893.0508,97.9678,887.8047,93.0203,881.22,95.96" style="stroke:#181818;stroke-width:1.0;"/></g><!--reverse link OperationWeedingRegisterRepository to Operation--><g id="link_OperationWeedingRegisterRepository_Operation"><path codeLine="26" d="M893.0426,47.4241 C914.4926,43.6941 923.5,42.13 940.95,39.09 " fill="none" id="OperationWeedingRegisterRepository-backto-Operation" style="stroke:#181818;stroke-width:1.0;"/><polygon fill="#181818" points="881.22,49.48,887.8166,52.3929,893.0426,47.4241,886.446,44.5112,881.22,49.48" style="stroke:#181818;stroke-width:1.0;"/></g><!--SRC=[ZOwnRW9134HxVuLh952-02cwYWe95ALsxinYuQnNNaVHWVBluIZW2fAxScQUFLDFaWivVMAXzaI9zz4hetCRb9Cor3jGZzJPj-I41z8wJbGoHryOYsa_21Y5hLAjhn4k7r_1czRoNiwCBm3AXy0mT4d7m4w6Kh4CS3l1RM6dmNXdxgwrEqvIW_rjSu6VAQYn76wgx3FW7HUh4kRzCtZaDMvba7zFmzLgFMCKJ2F_VdeiXca45ylbRVfSzex1Bm00]--></g></svg>