<?xml version="1.0" encoding="us-ascii" standalone="no"?><svg xmlns="http://www.w3.org/2000/svg" xmlns:xlink="http://www.w3.org/1999/xlink" contentStyleType="text/css" height="714px" preserveAspectRatio="none" style="width:1190px;height:714px;background:#FFFFFF;" version="1.1" viewBox="0 0 1190 714" width="1190px" zoomAndPan="magnify"><defs/><g><text fill="#000000" font-family="sans-serif" font-size="14" font-weight="bold" lengthAdjust="spacing" textLength="293" x="449.5" y="30.1074">USLP07 - System Sequence Diagram (SSD)</text><rect fill="#FFFFFF" height="479.9961" style="stroke:#181818;stroke-width:1.0;" width="10" x="65" y="133.2422"/><rect fill="#FFFFFF" height="31.291" style="stroke:#181818;stroke-width:1.0;" width="10" x="1136" y="156.5332"/><rect fill="#FFFFFF" height="31.291" style="stroke:#181818;stroke-width:1.0;" width="10" x="1136" y="219.1152"/><rect fill="#FFFFFF" height="31.291" style="stroke:#181818;stroke-width:1.0;" width="10" x="1136" y="281.6973"/><rect fill="#FFFFFF" height="31.291" style="stroke:#181818;stroke-width:1.0;" width="10" x="1136" y="344.2793"/><rect fill="#FFFFFF" height="57.582" style="stroke:#181818;stroke-width:1.0;" width="10" x="1136" y="406.8613"/><rect fill="#FFFFFF" height="31.291" style="stroke:#181818;stroke-width:1.0;" width="10" x="1136" y="495.7344"/><rect fill="#FFFFFF" height="54.9219" style="stroke:#181818;stroke-width:1.0;" width="10" x="1136" y="558.3164"/><rect fill="none" height="161.0859" style="stroke:#000000;stroke-width:1.5;" width="1173" x="10" y="421.8613"/><line style="stroke:#181818;stroke-width:0.5;stroke-dasharray:5.0,5.0;" x1="70" x2="70" y1="123.2422" y2="631.2383"/><line style="stroke:#181818;stroke-width:0.5;stroke-dasharray:5.0,5.0;" x1="1141" x2="1141" y1="123.2422" y2="631.2383"/><text fill="#000000" font-family="sans-serif" font-size="14" lengthAdjust="spacing" textLength="94" x="20" y="119.7285">Product Owner</text><ellipse cx="70" cy="53.1211" fill="#E3E3E3" rx="8" ry="8" style="stroke:#181818;stroke-width:0.5;"/><path d="M70,61.1211 L70,88.1211 M57,69.1211 L83,69.1211 M70,88.1211 L57,103.1211 M70,88.1211 L83,103.1211 " fill="none" style="stroke:#181818;stroke-width:0.5;"/><text fill="#000000" font-family="sans-serif" font-size="14" lengthAdjust="spacing" textLength="94" x="20" y="645.3457">Product Owner</text><ellipse cx="70" cy="657.3594" fill="#E3E3E3" rx="8" ry="8" style="stroke:#181818;stroke-width:0.5;"/><path d="M70,665.3594 L70,692.3594 M57,673.3594 L83,673.3594 M70,692.3594 L57,707.3594 M70,692.3594 L83,707.3594 " fill="none" style="stroke:#181818;stroke-width:0.5;"/><rect fill="#E3E3E3" height="32.6211" rx="2.5" ry="2.5" style="stroke:#181818;stroke-width:0.5;" width="64" x="1109" y="89.6211"/><text fill="#000000" font-family="sans-serif" font-size="14" lengthAdjust="spacing" textLength="50" x="1116" y="111.7285">:System</text><rect fill="#E3E3E3" height="32.6211" rx="2.5" ry="2.5" style="stroke:#181818;stroke-width:0.5;" width="64" x="1109" y="630.2383"/><text fill="#000000" font-family="sans-serif" font-size="14" lengthAdjust="spacing" textLength="50" x="1116" y="652.3457">:System</text><rect fill="#FFFFFF" height="479.9961" style="stroke:#181818;stroke-width:1.0;" width="10" x="65" y="133.2422"/><rect fill="#FFFFFF" height="31.291" style="stroke:#181818;stroke-width:1.0;" width="10" x="1136" y="156.5332"/><rect fill="#FFFFFF" height="31.291" style="stroke:#181818;stroke-width:1.0;" width="10" x="1136" y="219.1152"/><rect fill="#FFFFFF" height="31.291" style="stroke:#181818;stroke-width:1.0;" width="10" x="1136" y="281.6973"/><rect fill="#FFFFFF" height="31.291" style="stroke:#181818;stroke-width:1.0;" width="10" x="1136" y="344.2793"/><rect fill="#FFFFFF" height="57.582" style="stroke:#181818;stroke-width:1.0;" width="10" x="1136" y="406.8613"/><rect fill="#FFFFFF" height="31.291" style="stroke:#181818;stroke-width:1.0;" width="10" x="1136" y="495.7344"/><rect fill="#FFFFFF" height="54.9219" style="stroke:#181818;stroke-width:1.0;" width="10" x="1136" y="558.3164"/><polygon fill="#181818" points="1124,152.5332,1134,156.5332,1124,160.5332,1128,156.5332" style="stroke:#181818;stroke-width:1.0;"/><line style="stroke:#181818;stroke-width:1.0;" x1="75" x2="1130" y1="156.5332" y2="156.5332"/><text fill="#000000" font-family="sans-serif" font-size="13" font-weight="bold" lengthAdjust="spacing" textLength="7" x="82" y="151.2705">1</text><text fill="#000000" font-family="sans-serif" font-size="13" lengthAdjust="spacing" textLength="348" x="93" y="151.2705">asks to register a new production factor appliance operation.</text><polygon fill="#181818" points="86,183.8242,76,187.8242,86,191.8242,82,187.8242" style="stroke:#181818;stroke-width:1.0;"/><line style="stroke:#181818;stroke-width:1.0;stroke-dasharray:2.0,2.0;" x1="80" x2="1140" y1="187.8242" y2="187.8242"/><text fill="#000000" font-family="sans-serif" font-size="13" font-weight="bold" lengthAdjust="spacing" textLength="7" x="92" y="182.5615">2</text><text fill="#000000" font-family="sans-serif" font-size="13" lengthAdjust="spacing" textLength="1026" x="103" y="182.5615">shows the user the operationId (one more than the last one registered) and asks the user to input the id of the plot where the operation took place (after showing him all the plots).</text><polygon fill="#181818" points="1124,215.1152,1134,219.1152,1124,223.1152,1128,219.1152" style="stroke:#181818;stroke-width:1.0;"/><line style="stroke:#181818;stroke-width:1.0;" x1="75" x2="1130" y1="219.1152" y2="219.1152"/><text fill="#000000" font-family="sans-serif" font-size="13" font-weight="bold" lengthAdjust="spacing" textLength="7" x="82" y="213.8525">3</text><text fill="#000000" font-family="sans-serif" font-size="13" lengthAdjust="spacing" textLength="146" x="93" y="213.8525">chooses the desired plot.</text><polygon fill="#181818" points="86,246.4063,76,250.4063,86,254.4063,82,250.4063" style="stroke:#181818;stroke-width:1.0;"/><line style="stroke:#181818;stroke-width:1.0;stroke-dasharray:2.0,2.0;" x1="80" x2="1140" y1="250.4063" y2="250.4063"/><text fill="#000000" font-family="sans-serif" font-size="13" font-weight="bold" lengthAdjust="spacing" textLength="7" x="92" y="245.1436">4</text><text fill="#000000" font-family="sans-serif" font-size="13" lengthAdjust="spacing" textLength="358" x="103" y="245.1436">asks the user to input the date when the operation took place.</text><polygon fill="#181818" points="1124,277.6973,1134,281.6973,1124,285.6973,1128,281.6973" style="stroke:#181818;stroke-width:1.0;"/><line style="stroke:#181818;stroke-width:1.0;" x1="75" x2="1130" y1="281.6973" y2="281.6973"/><text fill="#000000" font-family="sans-serif" font-size="13" font-weight="bold" lengthAdjust="spacing" textLength="7" x="82" y="276.4346">5</text><text fill="#000000" font-family="sans-serif" font-size="13" lengthAdjust="spacing" textLength="84" x="93" y="276.4346">gives the date.</text><polygon fill="#181818" points="86,308.9883,76,312.9883,86,316.9883,82,312.9883" style="stroke:#181818;stroke-width:1.0;"/><line style="stroke:#181818;stroke-width:1.0;stroke-dasharray:2.0,2.0;" x1="80" x2="1140" y1="312.9883" y2="312.9883"/><text fill="#000000" font-family="sans-serif" font-size="13" font-weight="bold" lengthAdjust="spacing" textLength="7" x="92" y="307.7256">6</text><text fill="#000000" font-family="sans-serif" font-size="13" lengthAdjust="spacing" textLength="539" x="103" y="307.7256">asks the user to input the quantity and/or area of the operation, as well as the respective unit.</text><polygon fill="#181818" points="1124,340.2793,1134,344.2793,1124,348.2793,1128,344.2793" style="stroke:#181818;stroke-width:1.0;"/><line style="stroke:#181818;stroke-width:1.0;" x1="75" x2="1130" y1="344.2793" y2="344.2793"/><text fill="#000000" font-family="sans-serif" font-size="13" font-weight="bold" lengthAdjust="spacing" textLength="7" x="82" y="339.0166">7</text><text fill="#000000" font-family="sans-serif" font-size="13" lengthAdjust="spacing" textLength="442" x="93" y="339.0166">gives the quantity and/or area of the operation, as well as the respective unit.</text><polygon fill="#181818" points="86,371.5703,76,375.5703,86,379.5703,82,375.5703" style="stroke:#181818;stroke-width:1.0;"/><line style="stroke:#181818;stroke-width:1.0;stroke-dasharray:2.0,2.0;" x1="80" x2="1140" y1="375.5703" y2="375.5703"/><text fill="#000000" font-family="sans-serif" font-size="13" font-weight="bold" lengthAdjust="spacing" textLength="7" x="92" y="370.3076">8</text><text fill="#000000" font-family="sans-serif" font-size="13" lengthAdjust="spacing" textLength="603" x="103" y="370.3076">asks the user to input the id of the production factor used in the operation (after showing him the full list).</text><polygon fill="#181818" points="1124,402.8613,1134,406.8613,1124,410.8613,1128,406.8613" style="stroke:#181818;stroke-width:1.0;"/><line style="stroke:#181818;stroke-width:1.0;" x1="75" x2="1130" y1="406.8613" y2="406.8613"/><text fill="#000000" font-family="sans-serif" font-size="13" font-weight="bold" lengthAdjust="spacing" textLength="7" x="82" y="401.5986">9</text><text fill="#000000" font-family="sans-serif" font-size="13" lengthAdjust="spacing" textLength="221" x="93" y="401.5986">chooses the desired production factor.</text><path d="M10,421.8613 L71,421.8613 L71,431.1523 L61,441.1523 L10,441.1523 L10,421.8613 " fill="#EEEEEE" style="stroke:#000000;stroke-width:1.5;"/><rect fill="none" height="161.0859" style="stroke:#000000;stroke-width:1.5;" width="1173" x="10" y="421.8613"/><text fill="#000000" font-family="sans-serif" font-size="13" font-weight="bold" lengthAdjust="spacing" textLength="16" x="25" y="436.8896">alt</text><text fill="#000000" font-family="sans-serif" font-size="11" font-weight="bold" lengthAdjust="spacing" textLength="169" x="86" y="435.7314">[the operation is a fertilization]</text><polygon fill="#181818" points="86,460.4434,76,464.4434,86,468.4434,82,464.4434" style="stroke:#181818;stroke-width:1.0;"/><line style="stroke:#181818;stroke-width:1.0;stroke-dasharray:2.0,2.0;" x1="80" x2="1140" y1="464.4434" y2="464.4434"/><text fill="#000000" font-family="sans-serif" font-size="13" font-weight="bold" lengthAdjust="spacing" textLength="14" x="92" y="459.1807">10</text><text fill="#000000" font-family="sans-serif" font-size="13" lengthAdjust="spacing" textLength="647" x="110" y="459.1807">asks the user to input the mode the fertilization was made (in soil or foliar) in case the operation is a fertilization.</text><polygon fill="#181818" points="1124,491.7344,1134,495.7344,1124,499.7344,1128,495.7344" style="stroke:#181818;stroke-width:1.0;"/><line style="stroke:#181818;stroke-width:1.0;" x1="75" x2="1130" y1="495.7344" y2="495.7344"/><text fill="#000000" font-family="sans-serif" font-size="13" font-weight="bold" lengthAdjust="spacing" textLength="14" x="82" y="490.4717">11</text><text fill="#000000" font-family="sans-serif" font-size="13" lengthAdjust="spacing" textLength="91" x="100" y="490.4717">gives the mode.</text><polygon fill="#181818" points="86,523.0254,76,527.0254,86,531.0254,82,527.0254" style="stroke:#181818;stroke-width:1.0;"/><line style="stroke:#181818;stroke-width:1.0;stroke-dasharray:2.0,2.0;" x1="80" x2="1140" y1="527.0254" y2="527.0254"/><text fill="#000000" font-family="sans-serif" font-size="13" font-weight="bold" lengthAdjust="spacing" textLength="14" x="92" y="521.7627">12</text><text fill="#000000" font-family="sans-serif" font-size="13" lengthAdjust="spacing" textLength="401" x="110" y="521.7627">asks the user to input a crop (after showing him the full list) if wanted.</text><polygon fill="#181818" points="1124,554.3164,1134,558.3164,1124,562.3164,1128,558.3164" style="stroke:#181818;stroke-width:1.0;"/><line style="stroke:#181818;stroke-width:1.0;" x1="75" x2="1130" y1="558.3164" y2="558.3164"/><text fill="#000000" font-family="sans-serif" font-size="13" font-weight="bold" lengthAdjust="spacing" textLength="14" x="82" y="553.0537">13</text><text fill="#000000" font-family="sans-serif" font-size="13" lengthAdjust="spacing" textLength="84" x="100" y="553.0537">gives the crop.</text><line style="stroke:#000000;stroke-width:1.0;stroke-dasharray:2.0,2.0;" x1="10" x2="1183" y1="567.3164" y2="567.3164"/><text fill="#000000" font-family="sans-serif" font-size="11" font-weight="bold" lengthAdjust="spacing" textLength="190" x="15" y="579.1865">[the operation is not a fertilization]</text><polygon fill="#181818" points="81,609.2383,71,613.2383,81,617.2383,77,613.2383" style="stroke:#181818;stroke-width:1.0;"/><line style="stroke:#181818;stroke-width:1.0;stroke-dasharray:2.0,2.0;" x1="75" x2="1140" y1="613.2383" y2="613.2383"/><text fill="#000000" font-family="sans-serif" font-size="13" font-weight="bold" lengthAdjust="spacing" textLength="14" x="87" y="607.9756">14</text><text fill="#000000" font-family="sans-serif" font-size="13" lengthAdjust="spacing" textLength="254" x="105" y="607.9756">says if the operation was successfull or not.</text><!--SRC=[jLN1Rjim3BtxAuYS4c3fTXkGmqwz31Ym0iO-W9DeMuWikf9S8_lwKNBYEMdI56dcaq1HZ-yzKdBO6jUXnnPQTgmQpor1z3qLOThfK6snfZBkB84d5T7LTfuG6jGy65T3XJPGKKGJ9VLN-UFforTOGxaBaLeewRadfmWU3TRftB8i7rT5WNrarxU_oSjQHVQmUFAiUnNXv-38Bm03x2CvK4ZPQ9Jfq4LOR4Rud3KkCunvmKZ7nmgGRnw1zRVzaOsStWQ8B09h8n4F28u6wCPqmqx4PNBOTTPWqi4TUKnR3nbvAdfW0VjlhtyjrURLDs8S3rAq8UY3L4oB2VExXYKxahvuwKY3BczR315I-42Jz0hGwJtz2Ob1cjF7734QkCghpdA4eQ6CEAib-RoLNHHHIwoI-aGjTRGnBQ2rq_6m6iLgEYltahkgOGuqCjGKZF3ESBSwzuPSdO14fBkeyIO5jNavy9SZ_u7tSo_ZRE8kjVDpcZDFU6ZSfE9JclA1f24uudWA7IKQ0kbC_A2qEtAugpUp4Nvr7oLRI-f9jy-CSKgeUg5jvURSSOnF6RsX7sqyuMc2F3GLoNjcpPySceowrQoMzNY_Zs1Xa6wrA5jBCIkmiI3cLInlcLyb_nG6kahkOM9tmRdtpLcY-0_g8j0j3Y0epztr_eEfn18NITz9KofxHHFPSnOxZgzcO4nt-Zq_4To59EOODtKxz4fH25cpzDhnvUTX5ZhwPVu5]--></g></svg>