<?xml version="1.0" encoding="us-ascii" standalone="no"?><svg xmlns="http://www.w3.org/2000/svg" xmlns:xlink="http://www.w3.org/1999/xlink" contentStyleType="text/css" height="1964px" preserveAspectRatio="none" style="width:1799px;height:1964px;background:#FFFFFF;" version="1.1" viewBox="0 0 1799 1964" width="1799px" zoomAndPan="magnify"><defs/><g><text fill="#000000" font-family="sans-serif" font-size="14" font-weight="bold" lengthAdjust="spacing" textLength="164" x="810.5" y="25.1074">USLP10 - Class Diagram</text><!--class IrrigationSystemUI--><g id="elem_IrrigationSystemUI"><rect codeLine="10" fill="#F1F1F1" height="85.2422" id="IrrigationSystemUI" rx="2.5" ry="2.5" style="stroke:#181818;stroke-width:0.5;" width="145" x="776.5" y="46.6211"/><ellipse cx="791.5" cy="62.6211" fill="#ADD1B2" rx="11" ry="11" style="stroke:#181818;stroke-width:1.0;"/><path d="M794.2656,58.4961 Q794.4219,58.2773 794.6094,58.168 Q794.7969,58.0586 795.0156,58.0586 Q795.3906,58.0586 795.625,58.3242 Q795.8594,58.5742 795.8594,59.1836 L795.8594,60.6367 Q795.8594,61.2461 795.625,61.5117 Q795.3906,61.7773 795.0156,61.7773 Q794.6719,61.7773 794.4688,61.5742 Q794.2656,61.3867 794.1563,60.8711 Q794.1094,60.5117 793.9219,60.3242 Q793.5938,59.9492 792.9844,59.7305 Q792.375,59.5117 791.75,59.5117 Q790.9844,59.5117 790.3438,59.8398 Q789.7188,60.168 789.2188,60.918 Q788.7344,61.668 788.7344,62.6992 L788.7344,63.793 Q788.7344,65.0273 789.625,65.8555 Q790.5156,66.668 792.1094,66.668 Q793.0469,66.668 793.7031,66.418 Q794.0938,66.2617 794.5156,65.8242 Q794.7813,65.5586 794.9219,65.4805 Q795.0781,65.4023 795.2813,65.4023 Q795.6094,65.4023 795.8594,65.668 Q796.125,65.918 796.125,66.2617 Q796.125,66.6055 795.7813,67.0117 Q795.2813,67.5898 794.4844,67.918 Q793.4063,68.3711 792.1094,68.3711 Q790.5938,68.3711 789.3906,67.7461 Q788.4063,67.2461 787.7188,66.1836 Q787.0313,65.1055 787.0313,63.8242 L787.0313,62.668 Q787.0313,61.3398 787.6406,60.1992 Q788.2656,59.043 789.3594,58.4336 Q790.4531,57.8086 791.6875,57.8086 Q792.4219,57.8086 793.0625,57.9805 Q793.7188,58.1367 794.2656,58.4961 Z " fill="#000000"/><text fill="#000000" font-family="sans-serif" font-size="14" lengthAdjust="spacing" textLength="113" x="805.5" y="68.418">IrrigationSystemUI</text><line style="stroke:#181818;stroke-width:0.5;" x1="777.5" x2="920.5" y1="78.6211" y2="78.6211"/><line style="stroke:#181818;stroke-width:0.5;" x1="777.5" x2="920.5" y1="86.6211" y2="86.6211"/><text fill="#000000" font-family="sans-serif" font-size="14" lengthAdjust="spacing" textLength="39" x="782.5" y="105.7285">+run()</text><text fill="#000000" font-family="sans-serif" font-size="14" lengthAdjust="spacing" textLength="90" x="782.5" y="124.3496">+showStatus()</text></g><!--class IrrigationSystemController--><g id="elem_IrrigationSystemController"><rect codeLine="15" fill="#F1F1F1" height="196.9688" id="IrrigationSystemController" rx="2.5" ry="2.5" style="stroke:#181818;stroke-width:0.5;" width="288" x="705" y="191.6211"/><ellipse cx="763.25" cy="207.6211" fill="#ADD1B2" rx="11" ry="11" style="stroke:#181818;stroke-width:1.0;"/><path d="M766.0156,203.4961 Q766.1719,203.2773 766.3594,203.168 Q766.5469,203.0586 766.7656,203.0586 Q767.1406,203.0586 767.375,203.3242 Q767.6094,203.5742 767.6094,204.1836 L767.6094,205.6367 Q767.6094,206.2461 767.375,206.5117 Q767.1406,206.7773 766.7656,206.7773 Q766.4219,206.7773 766.2188,206.5742 Q766.0156,206.3867 765.9063,205.8711 Q765.8594,205.5117 765.6719,205.3242 Q765.3438,204.9492 764.7344,204.7305 Q764.125,204.5117 763.5,204.5117 Q762.7344,204.5117 762.0938,204.8398 Q761.4688,205.168 760.9688,205.918 Q760.4844,206.668 760.4844,207.6992 L760.4844,208.793 Q760.4844,210.0273 761.375,210.8555 Q762.2656,211.668 763.8594,211.668 Q764.7969,211.668 765.4531,211.418 Q765.8438,211.2617 766.2656,210.8242 Q766.5313,210.5586 766.6719,210.4805 Q766.8281,210.4023 767.0313,210.4023 Q767.3594,210.4023 767.6094,210.668 Q767.875,210.918 767.875,211.2617 Q767.875,211.6055 767.5313,212.0117 Q767.0313,212.5898 766.2344,212.918 Q765.1563,213.3711 763.8594,213.3711 Q762.3438,213.3711 761.1406,212.7461 Q760.1563,212.2461 759.4688,211.1836 Q758.7813,210.1055 758.7813,208.8242 L758.7813,207.668 Q758.7813,206.3398 759.3906,205.1992 Q760.0156,204.043 761.1094,203.4336 Q762.2031,202.8086 763.4375,202.8086 Q764.1719,202.8086 764.8125,202.9805 Q765.4688,203.1367 766.0156,203.4961 Z " fill="#000000"/><text fill="#000000" font-family="sans-serif" font-size="14" lengthAdjust="spacing" textLength="163" x="783.75" y="213.418">IrrigationSystemController</text><line style="stroke:#181818;stroke-width:0.5;" x1="706" x2="992" y1="223.6211" y2="223.6211"/><text fill="#000000" font-family="sans-serif" font-size="14" lengthAdjust="spacing" textLength="106" x="711" y="242.7285">-irrigationSystem</text><text fill="#000000" font-family="sans-serif" font-size="14" lengthAdjust="spacing" textLength="73" x="711" y="261.3496">-fileContent</text><line style="stroke:#181818;stroke-width:0.5;" x1="706" x2="992" y1="268.8633" y2="268.8633"/><text fill="#000000" font-family="sans-serif" font-size="14" lengthAdjust="spacing" textLength="181" x="711" y="287.9707">+IrrigationSystemController()</text><text fill="#000000" font-family="sans-serif" font-size="14" lengthAdjust="spacing" textLength="165" x="711" y="306.5918">+getFileContent(fileName)</text><text fill="#000000" font-family="sans-serif" font-size="14" lengthAdjust="spacing" textLength="252" x="711" y="325.2129">+getIrrigationSystem() : IrrigationSystem</text><text fill="#000000" font-family="sans-serif" font-size="14" lengthAdjust="spacing" textLength="276" x="711" y="343.834">+getIrrigationPlanDTO() : IrrigationPlanDTO</text><text fill="#000000" font-family="sans-serif" font-size="14" lengthAdjust="spacing" textLength="269" x="711" y="362.4551">+isOn(currentDate, currentTime) : boolean</text><text fill="#000000" font-family="sans-serif" font-size="14" lengthAdjust="spacing" textLength="144" x="711" y="381.0762">+createFile() : boolean</text></g><!--class Repositories--><g id="elem_Repositories"><rect codeLine="26" fill="#F1F1F1" height="103.8633" id="Repositories" rx="2.5" ry="2.5" style="stroke:#181818;stroke-width:0.5;" width="400" x="7" y="448.6211"/><ellipse cx="163.25" cy="464.6211" fill="#ADD1B2" rx="11" ry="11" style="stroke:#181818;stroke-width:1.0;"/><path d="M166.0156,460.4961 Q166.1719,460.2773 166.3594,460.168 Q166.5469,460.0586 166.7656,460.0586 Q167.1406,460.0586 167.375,460.3242 Q167.6094,460.5742 167.6094,461.1836 L167.6094,462.6367 Q167.6094,463.2461 167.375,463.5117 Q167.1406,463.7773 166.7656,463.7773 Q166.4219,463.7773 166.2188,463.5742 Q166.0156,463.3867 165.9063,462.8711 Q165.8594,462.5117 165.6719,462.3242 Q165.3438,461.9492 164.7344,461.7305 Q164.125,461.5117 163.5,461.5117 Q162.7344,461.5117 162.0938,461.8398 Q161.4688,462.168 160.9688,462.918 Q160.4844,463.668 160.4844,464.6992 L160.4844,465.793 Q160.4844,467.0273 161.375,467.8555 Q162.2656,468.668 163.8594,468.668 Q164.7969,468.668 165.4531,468.418 Q165.8438,468.2617 166.2656,467.8242 Q166.5313,467.5586 166.6719,467.4805 Q166.8281,467.4023 167.0313,467.4023 Q167.3594,467.4023 167.6094,467.668 Q167.875,467.918 167.875,468.2617 Q167.875,468.6055 167.5313,469.0117 Q167.0313,469.5898 166.2344,469.918 Q165.1563,470.3711 163.8594,470.3711 Q162.3438,470.3711 161.1406,469.7461 Q160.1563,469.2461 159.4688,468.1836 Q158.7813,467.1055 158.7813,465.8242 L158.7813,464.668 Q158.7813,463.3398 159.3906,462.1992 Q160.0156,461.043 161.1094,460.4336 Q162.2031,459.8086 163.4375,459.8086 Q164.1719,459.8086 164.8125,459.9805 Q165.4688,460.1367 166.0156,460.4961 Z " fill="#000000"/><text fill="#000000" font-family="sans-serif" font-size="14" lengthAdjust="spacing" textLength="79" x="183.75" y="470.418">Repositories</text><line style="stroke:#181818;stroke-width:0.5;" x1="8" x2="406" y1="480.6211" y2="480.6211"/><text fill="#000000" font-family="sans-serif" font-size="14" lengthAdjust="spacing" textLength="174" x="13" y="499.7285">-irrigationSystemRepository</text><line style="stroke:#181818;stroke-width:0.5;" x1="8" x2="406" y1="507.2422" y2="507.2422"/><text fill="#000000" font-family="sans-serif" font-size="14" lengthAdjust="spacing" textLength="182" x="13" y="526.3496">+getInstance() : Repositories</text><text fill="#000000" font-family="sans-serif" font-size="14" lengthAdjust="spacing" textLength="388" x="13" y="544.9707">+getIrrigationSystemRepository() : IrrigationSystemRepository</text></g><!--class IrrigationSystemRepository--><g id="elem_IrrigationSystemRepository"><rect codeLine="32" fill="#F1F1F1" height="66.6211" id="IrrigationSystemRepository" rx="2.5" ry="2.5" style="stroke:#181818;stroke-width:0.5;" width="201" x="260.5" y="631.1211"/><ellipse cx="275.5" cy="647.1211" fill="#ADD1B2" rx="11" ry="11" style="stroke:#181818;stroke-width:1.0;"/><path d="M278.2656,642.9961 Q278.4219,642.7773 278.6094,642.668 Q278.7969,642.5586 279.0156,642.5586 Q279.3906,642.5586 279.625,642.8242 Q279.8594,643.0742 279.8594,643.6836 L279.8594,645.1367 Q279.8594,645.7461 279.625,646.0117 Q279.3906,646.2773 279.0156,646.2773 Q278.6719,646.2773 278.4688,646.0742 Q278.2656,645.8867 278.1563,645.3711 Q278.1094,645.0117 277.9219,644.8242 Q277.5938,644.4492 276.9844,644.2305 Q276.375,644.0117 275.75,644.0117 Q274.9844,644.0117 274.3438,644.3398 Q273.7188,644.668 273.2188,645.418 Q272.7344,646.168 272.7344,647.1992 L272.7344,648.293 Q272.7344,649.5273 273.625,650.3555 Q274.5156,651.168 276.1094,651.168 Q277.0469,651.168 277.7031,650.918 Q278.0938,650.7617 278.5156,650.3242 Q278.7813,650.0586 278.9219,649.9805 Q279.0781,649.9023 279.2813,649.9023 Q279.6094,649.9023 279.8594,650.168 Q280.125,650.418 280.125,650.7617 Q280.125,651.1055 279.7813,651.5117 Q279.2813,652.0898 278.4844,652.418 Q277.4063,652.8711 276.1094,652.8711 Q274.5938,652.8711 273.3906,652.2461 Q272.4063,651.7461 271.7188,650.6836 Q271.0313,649.6055 271.0313,648.3242 L271.0313,647.168 Q271.0313,645.8398 271.6406,644.6992 Q272.2656,643.543 273.3594,642.9336 Q274.4531,642.3086 275.6875,642.3086 Q276.4219,642.3086 277.0625,642.4805 Q277.7188,642.6367 278.2656,642.9961 Z " fill="#000000"/><text fill="#000000" font-family="sans-serif" font-size="14" lengthAdjust="spacing" textLength="169" x="289.5" y="652.918">IrrigationSystemRepository</text><line style="stroke:#181818;stroke-width:0.5;" x1="261.5" x2="460.5" y1="663.1211" y2="663.1211"/><text fill="#000000" font-family="sans-serif" font-size="14" lengthAdjust="spacing" textLength="106" x="266.5" y="682.2285">-irrigationSystem</text><line style="stroke:#181818;stroke-width:0.5;" x1="261.5" x2="460.5" y1="689.7422" y2="689.7422"/></g><!--class IrrigationSystem--><g id="elem_IrrigationSystem"><rect codeLine="36" fill="#F1F1F1" height="215.5898" id="IrrigationSystem" rx="2.5" ry="2.5" style="stroke:#181818;stroke-width:0.5;" width="375" x="173.5" y="776.6211"/><ellipse cx="306.25" cy="792.6211" fill="#ADD1B2" rx="11" ry="11" style="stroke:#181818;stroke-width:1.0;"/><path d="M309.0156,788.4961 Q309.1719,788.2773 309.3594,788.168 Q309.5469,788.0586 309.7656,788.0586 Q310.1406,788.0586 310.375,788.3242 Q310.6094,788.5742 310.6094,789.1836 L310.6094,790.6367 Q310.6094,791.2461 310.375,791.5117 Q310.1406,791.7773 309.7656,791.7773 Q309.4219,791.7773 309.2188,791.5742 Q309.0156,791.3867 308.9063,790.8711 Q308.8594,790.5117 308.6719,790.3242 Q308.3438,789.9492 307.7344,789.7305 Q307.125,789.5117 306.5,789.5117 Q305.7344,789.5117 305.0938,789.8398 Q304.4688,790.168 303.9688,790.918 Q303.4844,791.668 303.4844,792.6992 L303.4844,793.793 Q303.4844,795.0273 304.375,795.8555 Q305.2656,796.668 306.8594,796.668 Q307.7969,796.668 308.4531,796.418 Q308.8438,796.2617 309.2656,795.8242 Q309.5313,795.5586 309.6719,795.4805 Q309.8281,795.4023 310.0313,795.4023 Q310.3594,795.4023 310.6094,795.668 Q310.875,795.918 310.875,796.2617 Q310.875,796.6055 310.5313,797.0117 Q310.0313,797.5898 309.2344,797.918 Q308.1563,798.3711 306.8594,798.3711 Q305.3438,798.3711 304.1406,797.7461 Q303.1563,797.2461 302.4688,796.1836 Q301.7813,795.1055 301.7813,793.8242 L301.7813,792.668 Q301.7813,791.3398 302.3906,790.1992 Q303.0156,789.043 304.1094,788.4336 Q305.2031,787.8086 306.4375,787.8086 Q307.1719,787.8086 307.8125,787.9805 Q308.4688,788.1367 309.0156,788.4961 Z " fill="#000000"/><text fill="#000000" font-family="sans-serif" font-size="14" lengthAdjust="spacing" textLength="101" x="326.75" y="798.418">IrrigationSystem</text><line style="stroke:#181818;stroke-width:0.5;" x1="174.5" x2="547.5" y1="808.6211" y2="808.6211"/><text fill="#000000" font-family="sans-serif" font-size="14" lengthAdjust="spacing" textLength="88" x="179.5" y="827.7285">-irrigationPlan</text><line style="stroke:#181818;stroke-width:0.5;" x1="174.5" x2="547.5" y1="835.2422" y2="835.2422"/><text fill="#000000" font-family="sans-serif" font-size="14" lengthAdjust="spacing" textLength="304" x="179.5" y="854.3496">+createIrrigationPlan(fileContent) : IrrigationPlan</text><text fill="#000000" font-family="sans-serif" font-size="14" lengthAdjust="spacing" textLength="172" x="179.5" y="872.9707">+isOn(date, time) : boolean</text><text fill="#000000" font-family="sans-serif" font-size="14" lengthAdjust="spacing" textLength="275" x="179.5" y="891.5918">+checkIfOnInDay(date, regularity) : boolean</text><text fill="#000000" font-family="sans-serif" font-size="14" lengthAdjust="spacing" textLength="359" x="179.5" y="910.2129">+checkIfFertigationInDay(date, mixRecurrence) : boolean</text><text fill="#000000" font-family="sans-serif" font-size="14" lengthAdjust="spacing" textLength="363" x="179.5" y="928.834">+getCurrentIrrigation(date, time) : Pair&lt;Irrigation, Integer&gt;</text><text fill="#000000" font-family="sans-serif" font-size="14" lengthAdjust="spacing" textLength="184" x="179.5" y="947.4551">+isFertigation(split) : boolean</text><text fill="#000000" font-family="sans-serif" font-size="14" lengthAdjust="spacing" textLength="144" x="179.5" y="966.0762">+createFile() : boolean</text><text fill="#000000" font-family="sans-serif" font-size="14" lengthAdjust="spacing" textLength="249" x="179.5" y="984.6973">+getNextIrrigation(date, time) : Irrigation</text></g><!--class IrrigationPlan--><g id="elem_IrrigationPlan"><rect codeLine="48" fill="#F1F1F1" height="103.8633" id="IrrigationPlan" rx="2.5" ry="2.5" style="stroke:#181818;stroke-width:0.5;" width="126" x="539" y="1052.6211"/><ellipse cx="558.95" cy="1068.6211" fill="#ADD1B2" rx="11" ry="11" style="stroke:#181818;stroke-width:1.0;"/><path d="M561.7156,1064.4961 Q561.8719,1064.2773 562.0594,1064.168 Q562.2469,1064.0586 562.4656,1064.0586 Q562.8406,1064.0586 563.075,1064.3242 Q563.3094,1064.5742 563.3094,1065.1836 L563.3094,1066.6367 Q563.3094,1067.2461 563.075,1067.5117 Q562.8406,1067.7773 562.4656,1067.7773 Q562.1219,1067.7773 561.9188,1067.5742 Q561.7156,1067.3867 561.6063,1066.8711 Q561.5594,1066.5117 561.3719,1066.3242 Q561.0438,1065.9492 560.4344,1065.7305 Q559.825,1065.5117 559.2,1065.5117 Q558.4344,1065.5117 557.7938,1065.8398 Q557.1688,1066.168 556.6688,1066.918 Q556.1844,1067.668 556.1844,1068.6992 L556.1844,1069.793 Q556.1844,1071.0273 557.075,1071.8555 Q557.9656,1072.668 559.5594,1072.668 Q560.4969,1072.668 561.1531,1072.418 Q561.5438,1072.2617 561.9656,1071.8242 Q562.2313,1071.5586 562.3719,1071.4805 Q562.5281,1071.4023 562.7313,1071.4023 Q563.0594,1071.4023 563.3094,1071.668 Q563.575,1071.918 563.575,1072.2617 Q563.575,1072.6055 563.2313,1073.0117 Q562.7313,1073.5898 561.9344,1073.918 Q560.8563,1074.3711 559.5594,1074.3711 Q558.0438,1074.3711 556.8406,1073.7461 Q555.8563,1073.2461 555.1688,1072.1836 Q554.4813,1071.1055 554.4813,1069.8242 L554.4813,1068.668 Q554.4813,1067.3398 555.0906,1066.1992 Q555.7156,1065.043 556.8094,1064.4336 Q557.9031,1063.8086 559.1375,1063.8086 Q559.8719,1063.8086 560.5125,1063.9805 Q561.1688,1064.1367 561.7156,1064.4961 Z " fill="#000000"/><text fill="#000000" font-family="sans-serif" font-size="14" lengthAdjust="spacing" textLength="83" x="574.05" y="1074.418">IrrigationPlan</text><line style="stroke:#181818;stroke-width:0.5;" x1="540" x2="664" y1="1084.6211" y2="1084.6211"/><text fill="#000000" font-family="sans-serif" font-size="14" lengthAdjust="spacing" textLength="86" x="545" y="1103.7285">-creationDate</text><text fill="#000000" font-family="sans-serif" font-size="14" lengthAdjust="spacing" textLength="100" x="545" y="1122.3496">-numberOfDays</text><text fill="#000000" font-family="sans-serif" font-size="14" lengthAdjust="spacing" textLength="114" x="545" y="1140.9707">-irrigationsPerDay</text><line style="stroke:#181818;stroke-width:0.5;" x1="540" x2="664" y1="1148.4844" y2="1148.4844"/></g><!--class IrrigationPlanOfDay--><g id="elem_IrrigationPlanOfDay"><rect codeLine="54" fill="#F1F1F1" height="103.8633" id="IrrigationPlanOfDay" rx="2.5" ry="2.5" style="stroke:#181818;stroke-width:0.5;" width="155" x="651.5" y="1216.6211"/><ellipse cx="666.5" cy="1232.6211" fill="#ADD1B2" rx="11" ry="11" style="stroke:#181818;stroke-width:1.0;"/><path d="M669.2656,1228.4961 Q669.4219,1228.2773 669.6094,1228.168 Q669.7969,1228.0586 670.0156,1228.0586 Q670.3906,1228.0586 670.625,1228.3242 Q670.8594,1228.5742 670.8594,1229.1836 L670.8594,1230.6367 Q670.8594,1231.2461 670.625,1231.5117 Q670.3906,1231.7773 670.0156,1231.7773 Q669.6719,1231.7773 669.4688,1231.5742 Q669.2656,1231.3867 669.1563,1230.8711 Q669.1094,1230.5117 668.9219,1230.3242 Q668.5938,1229.9492 667.9844,1229.7305 Q667.375,1229.5117 666.75,1229.5117 Q665.9844,1229.5117 665.3438,1229.8398 Q664.7188,1230.168 664.2188,1230.918 Q663.7344,1231.668 663.7344,1232.6992 L663.7344,1233.793 Q663.7344,1235.0273 664.625,1235.8555 Q665.5156,1236.668 667.1094,1236.668 Q668.0469,1236.668 668.7031,1236.418 Q669.0938,1236.2617 669.5156,1235.8242 Q669.7813,1235.5586 669.9219,1235.4805 Q670.0781,1235.4023 670.2813,1235.4023 Q670.6094,1235.4023 670.8594,1235.668 Q671.125,1235.918 671.125,1236.2617 Q671.125,1236.6055 670.7813,1237.0117 Q670.2813,1237.5898 669.4844,1237.918 Q668.4063,1238.3711 667.1094,1238.3711 Q665.5938,1238.3711 664.3906,1237.7461 Q663.4063,1237.2461 662.7188,1236.1836 Q662.0313,1235.1055 662.0313,1233.8242 L662.0313,1232.668 Q662.0313,1231.3398 662.6406,1230.1992 Q663.2656,1229.043 664.3594,1228.4336 Q665.4531,1227.8086 666.6875,1227.8086 Q667.4219,1227.8086 668.0625,1227.9805 Q668.7188,1228.1367 669.2656,1228.4961 Z " fill="#000000"/><text fill="#000000" font-family="sans-serif" font-size="14" lengthAdjust="spacing" textLength="123" x="680.5" y="1238.418">IrrigationPlanOfDay</text><line style="stroke:#181818;stroke-width:0.5;" x1="652.5" x2="805.5" y1="1248.6211" y2="1248.6211"/><text fill="#000000" font-family="sans-serif" font-size="14" lengthAdjust="spacing" textLength="80" x="657.5" y="1267.7285">-cycleBegins</text><text fill="#000000" font-family="sans-serif" font-size="14" lengthAdjust="spacing" textLength="69" x="657.5" y="1286.3496">-cycleEnds</text><text fill="#000000" font-family="sans-serif" font-size="14" lengthAdjust="spacing" textLength="82" x="657.5" y="1304.9707">-irrigationList</text><line style="stroke:#181818;stroke-width:0.5;" x1="652.5" x2="805.5" y1="1312.4844" y2="1312.4844"/></g><!--class Irrigation--><g id="elem_Irrigation"><rect codeLine="60" fill="#F1F1F1" height="159.7266" id="Irrigation" rx="2.5" ry="2.5" style="stroke:#181818;stroke-width:0.5;" width="129" x="704.5" y="1380.6211"/><ellipse cx="738.4" cy="1396.6211" fill="#ADD1B2" rx="11" ry="11" style="stroke:#181818;stroke-width:1.0;"/><path d="M741.1656,1392.4961 Q741.3219,1392.2773 741.5094,1392.168 Q741.6969,1392.0586 741.9156,1392.0586 Q742.2906,1392.0586 742.525,1392.3242 Q742.7594,1392.5742 742.7594,1393.1836 L742.7594,1394.6367 Q742.7594,1395.2461 742.525,1395.5117 Q742.2906,1395.7773 741.9156,1395.7773 Q741.5719,1395.7773 741.3688,1395.5742 Q741.1656,1395.3867 741.0563,1394.8711 Q741.0094,1394.5117 740.8219,1394.3242 Q740.4938,1393.9492 739.8844,1393.7305 Q739.275,1393.5117 738.65,1393.5117 Q737.8844,1393.5117 737.2438,1393.8398 Q736.6188,1394.168 736.1188,1394.918 Q735.6344,1395.668 735.6344,1396.6992 L735.6344,1397.793 Q735.6344,1399.0273 736.525,1399.8555 Q737.4156,1400.668 739.0094,1400.668 Q739.9469,1400.668 740.6031,1400.418 Q740.9938,1400.2617 741.4156,1399.8242 Q741.6813,1399.5586 741.8219,1399.4805 Q741.9781,1399.4023 742.1813,1399.4023 Q742.5094,1399.4023 742.7594,1399.668 Q743.025,1399.918 743.025,1400.2617 Q743.025,1400.6055 742.6813,1401.0117 Q742.1813,1401.5898 741.3844,1401.918 Q740.3063,1402.3711 739.0094,1402.3711 Q737.4938,1402.3711 736.2906,1401.7461 Q735.3063,1401.2461 734.6188,1400.1836 Q733.9313,1399.1055 733.9313,1397.8242 L733.9313,1396.668 Q733.9313,1395.3398 734.5406,1394.1992 Q735.1656,1393.043 736.2594,1392.4336 Q737.3531,1391.8086 738.5875,1391.8086 Q739.3219,1391.8086 739.9625,1391.9805 Q740.6188,1392.1367 741.1656,1392.4961 Z " fill="#000000"/><text fill="#000000" font-family="sans-serif" font-size="14" lengthAdjust="spacing" textLength="55" x="756.6" y="1402.418">Irrigation</text><line style="stroke:#181818;stroke-width:0.5;" x1="705.5" x2="832.5" y1="1412.6211" y2="1412.6211"/><text fill="#000000" font-family="sans-serif" font-size="14" lengthAdjust="spacing" textLength="44" x="710.5" y="1431.7285">-sector</text><text fill="#000000" font-family="sans-serif" font-size="14" lengthAdjust="spacing" textLength="95" x="710.5" y="1450.3496">-operationDate</text><text fill="#000000" font-family="sans-serif" font-size="14" lengthAdjust="spacing" textLength="117" x="710.5" y="1468.9707">-durationInMinutes</text><text fill="#000000" font-family="sans-serif" font-size="14" lengthAdjust="spacing" textLength="64" x="710.5" y="1487.5918">-startTime</text><text fill="#000000" font-family="sans-serif" font-size="14" lengthAdjust="spacing" textLength="60" x="710.5" y="1506.2129">-endTime</text><text fill="#000000" font-family="sans-serif" font-size="14" lengthAdjust="spacing" textLength="64" x="710.5" y="1524.834">-regularity</text><line style="stroke:#181818;stroke-width:0.5;" x1="705.5" x2="832.5" y1="1532.3477" y2="1532.3477"/></g><!--class Fertigation--><g id="elem_Fertigation"><rect codeLine="69" fill="#F1F1F1" height="85.2422" id="Fertigation" rx="2.5" ry="2.5" style="stroke:#181818;stroke-width:0.5;" width="111" x="713.5" y="1600.6211"/><ellipse cx="733.45" cy="1616.6211" fill="#ADD1B2" rx="11" ry="11" style="stroke:#181818;stroke-width:1.0;"/><path d="M736.2156,1612.4961 Q736.3719,1612.2773 736.5594,1612.168 Q736.7469,1612.0586 736.9656,1612.0586 Q737.3406,1612.0586 737.575,1612.3242 Q737.8094,1612.5742 737.8094,1613.1836 L737.8094,1614.6367 Q737.8094,1615.2461 737.575,1615.5117 Q737.3406,1615.7773 736.9656,1615.7773 Q736.6219,1615.7773 736.4188,1615.5742 Q736.2156,1615.3867 736.1063,1614.8711 Q736.0594,1614.5117 735.8719,1614.3242 Q735.5438,1613.9492 734.9344,1613.7305 Q734.325,1613.5117 733.7,1613.5117 Q732.9344,1613.5117 732.2938,1613.8398 Q731.6688,1614.168 731.1688,1614.918 Q730.6844,1615.668 730.6844,1616.6992 L730.6844,1617.793 Q730.6844,1619.0273 731.575,1619.8555 Q732.4656,1620.668 734.0594,1620.668 Q734.9969,1620.668 735.6531,1620.418 Q736.0438,1620.2617 736.4656,1619.8242 Q736.7313,1619.5586 736.8719,1619.4805 Q737.0281,1619.4023 737.2313,1619.4023 Q737.5594,1619.4023 737.8094,1619.668 Q738.075,1619.918 738.075,1620.2617 Q738.075,1620.6055 737.7313,1621.0117 Q737.2313,1621.5898 736.4344,1621.918 Q735.3563,1622.3711 734.0594,1622.3711 Q732.5438,1622.3711 731.3406,1621.7461 Q730.3563,1621.2461 729.6688,1620.1836 Q728.9813,1619.1055 728.9813,1617.8242 L728.9813,1616.668 Q728.9813,1615.3398 729.5906,1614.1992 Q730.2156,1613.043 731.3094,1612.4336 Q732.4031,1611.8086 733.6375,1611.8086 Q734.3719,1611.8086 735.0125,1611.9805 Q735.6688,1612.1367 736.2156,1612.4961 Z " fill="#000000"/><text fill="#000000" font-family="sans-serif" font-size="14" lengthAdjust="spacing" textLength="68" x="748.55" y="1622.418">Fertigation</text><line style="stroke:#181818;stroke-width:0.5;" x1="714.5" x2="823.5" y1="1632.6211" y2="1632.6211"/><text fill="#000000" font-family="sans-serif" font-size="14" lengthAdjust="spacing" textLength="25" x="719.5" y="1651.7285">-mix</text><text fill="#000000" font-family="sans-serif" font-size="14" lengthAdjust="spacing" textLength="99" x="719.5" y="1670.3496">-mixRecurrence</text><line style="stroke:#181818;stroke-width:0.5;" x1="714.5" x2="823.5" y1="1677.8633" y2="1677.8633"/></g><!--class Recipe--><g id="elem_Recipe"><rect codeLine="74" fill="#F1F1F1" height="66.6211" id="Recipe" rx="2.5" ry="2.5" style="stroke:#181818;stroke-width:0.5;" width="76" x="731" y="1745.6211"/><ellipse cx="746" cy="1761.6211" fill="#ADD1B2" rx="11" ry="11" style="stroke:#181818;stroke-width:1.0;"/><path d="M748.7656,1757.4961 Q748.9219,1757.2773 749.1094,1757.168 Q749.2969,1757.0586 749.5156,1757.0586 Q749.8906,1757.0586 750.125,1757.3242 Q750.3594,1757.5742 750.3594,1758.1836 L750.3594,1759.6367 Q750.3594,1760.2461 750.125,1760.5117 Q749.8906,1760.7773 749.5156,1760.7773 Q749.1719,1760.7773 748.9688,1760.5742 Q748.7656,1760.3867 748.6563,1759.8711 Q748.6094,1759.5117 748.4219,1759.3242 Q748.0938,1758.9492 747.4844,1758.7305 Q746.875,1758.5117 746.25,1758.5117 Q745.4844,1758.5117 744.8438,1758.8398 Q744.2188,1759.168 743.7188,1759.918 Q743.2344,1760.668 743.2344,1761.6992 L743.2344,1762.793 Q743.2344,1764.0273 744.125,1764.8555 Q745.0156,1765.668 746.6094,1765.668 Q747.5469,1765.668 748.2031,1765.418 Q748.5938,1765.2617 749.0156,1764.8242 Q749.2813,1764.5586 749.4219,1764.4805 Q749.5781,1764.4023 749.7813,1764.4023 Q750.1094,1764.4023 750.3594,1764.668 Q750.625,1764.918 750.625,1765.2617 Q750.625,1765.6055 750.2813,1766.0117 Q749.7813,1766.5898 748.9844,1766.918 Q747.9063,1767.3711 746.6094,1767.3711 Q745.0938,1767.3711 743.8906,1766.7461 Q742.9063,1766.2461 742.2188,1765.1836 Q741.5313,1764.1055 741.5313,1762.8242 L741.5313,1761.668 Q741.5313,1760.3398 742.1406,1759.1992 Q742.7656,1758.043 743.8594,1757.4336 Q744.9531,1756.8086 746.1875,1756.8086 Q746.9219,1756.8086 747.5625,1756.9805 Q748.2188,1757.1367 748.7656,1757.4961 Z " fill="#000000"/><text fill="#000000" font-family="sans-serif" font-size="14" lengthAdjust="spacing" textLength="44" x="760" y="1767.418">Recipe</text><line style="stroke:#181818;stroke-width:0.5;" x1="732" x2="806" y1="1777.6211" y2="1777.6211"/><text fill="#000000" font-family="sans-serif" font-size="14" lengthAdjust="spacing" textLength="16" x="737" y="1796.7285">-id</text><line style="stroke:#181818;stroke-width:0.5;" x1="732" x2="806" y1="1804.2422" y2="1804.2422"/></g><!--class ProductionFactor--><g id="elem_ProductionFactor"><rect codeLine="78" fill="#F1F1F1" height="85.2422" id="ProductionFactor" rx="2.5" ry="2.5" style="stroke:#181818;stroke-width:0.5;" width="141" x="698.5" y="1872.6211"/><ellipse cx="713.5" cy="1888.6211" fill="#ADD1B2" rx="11" ry="11" style="stroke:#181818;stroke-width:1.0;"/><path d="M716.2656,1884.4961 Q716.4219,1884.2773 716.6094,1884.168 Q716.7969,1884.0586 717.0156,1884.0586 Q717.3906,1884.0586 717.625,1884.3242 Q717.8594,1884.5742 717.8594,1885.1836 L717.8594,1886.6367 Q717.8594,1887.2461 717.625,1887.5117 Q717.3906,1887.7773 717.0156,1887.7773 Q716.6719,1887.7773 716.4688,1887.5742 Q716.2656,1887.3867 716.1563,1886.8711 Q716.1094,1886.5117 715.9219,1886.3242 Q715.5938,1885.9492 714.9844,1885.7305 Q714.375,1885.5117 713.75,1885.5117 Q712.9844,1885.5117 712.3438,1885.8398 Q711.7188,1886.168 711.2188,1886.918 Q710.7344,1887.668 710.7344,1888.6992 L710.7344,1889.793 Q710.7344,1891.0273 711.625,1891.8555 Q712.5156,1892.668 714.1094,1892.668 Q715.0469,1892.668 715.7031,1892.418 Q716.0938,1892.2617 716.5156,1891.8242 Q716.7813,1891.5586 716.9219,1891.4805 Q717.0781,1891.4023 717.2813,1891.4023 Q717.6094,1891.4023 717.8594,1891.668 Q718.125,1891.918 718.125,1892.2617 Q718.125,1892.6055 717.7813,1893.0117 Q717.2813,1893.5898 716.4844,1893.918 Q715.4063,1894.3711 714.1094,1894.3711 Q712.5938,1894.3711 711.3906,1893.7461 Q710.4063,1893.2461 709.7188,1892.1836 Q709.0313,1891.1055 709.0313,1889.8242 L709.0313,1888.668 Q709.0313,1887.3398 709.6406,1886.1992 Q710.2656,1885.043 711.3594,1884.4336 Q712.4531,1883.8086 713.6875,1883.8086 Q714.4219,1883.8086 715.0625,1883.9805 Q715.7188,1884.1367 716.2656,1884.4961 Z " fill="#000000"/><text fill="#000000" font-family="sans-serif" font-size="14" lengthAdjust="spacing" textLength="109" x="727.5" y="1894.418">ProductionFactor</text><line style="stroke:#181818;stroke-width:0.5;" x1="699.5" x2="838.5" y1="1904.6211" y2="1904.6211"/><text fill="#000000" font-family="sans-serif" font-size="14" lengthAdjust="spacing" textLength="124" x="704.5" y="1923.7285">-productionFactorId</text><text fill="#000000" font-family="sans-serif" font-size="14" lengthAdjust="spacing" textLength="78" x="704.5" y="1942.3496">-designation</text><line style="stroke:#181818;stroke-width:0.5;" x1="699.5" x2="838.5" y1="1949.8633" y2="1949.8633"/></g><!--class IrrigationPlanMapper--><g id="elem_IrrigationPlanMapper"><rect codeLine="83" fill="#F1F1F1" height="85.2422" id="IrrigationPlanMapper" rx="2.5" ry="2.5" style="stroke:#181818;stroke-width:0.5;" width="317" x="584.5" y="458.1211"/><ellipse cx="673.25" cy="474.1211" fill="#ADD1B2" rx="11" ry="11" style="stroke:#181818;stroke-width:1.0;"/><path d="M676.0156,469.9961 Q676.1719,469.7773 676.3594,469.668 Q676.5469,469.5586 676.7656,469.5586 Q677.1406,469.5586 677.375,469.8242 Q677.6094,470.0742 677.6094,470.6836 L677.6094,472.1367 Q677.6094,472.7461 677.375,473.0117 Q677.1406,473.2773 676.7656,473.2773 Q676.4219,473.2773 676.2188,473.0742 Q676.0156,472.8867 675.9063,472.3711 Q675.8594,472.0117 675.6719,471.8242 Q675.3438,471.4492 674.7344,471.2305 Q674.125,471.0117 673.5,471.0117 Q672.7344,471.0117 672.0938,471.3398 Q671.4688,471.668 670.9688,472.418 Q670.4844,473.168 670.4844,474.1992 L670.4844,475.293 Q670.4844,476.5273 671.375,477.3555 Q672.2656,478.168 673.8594,478.168 Q674.7969,478.168 675.4531,477.918 Q675.8438,477.7617 676.2656,477.3242 Q676.5313,477.0586 676.6719,476.9805 Q676.8281,476.9023 677.0313,476.9023 Q677.3594,476.9023 677.6094,477.168 Q677.875,477.418 677.875,477.7617 Q677.875,478.1055 677.5313,478.5117 Q677.0313,479.0898 676.2344,479.418 Q675.1563,479.8711 673.8594,479.8711 Q672.3438,479.8711 671.1406,479.2461 Q670.1563,478.7461 669.4688,477.6836 Q668.7813,476.6055 668.7813,475.3242 L668.7813,474.168 Q668.7813,472.8398 669.3906,471.6992 Q670.0156,470.543 671.1094,469.9336 Q672.2031,469.3086 673.4375,469.3086 Q674.1719,469.3086 674.8125,469.4805 Q675.4688,469.6367 676.0156,469.9961 Z " fill="#000000"/><text fill="#000000" font-family="sans-serif" font-size="14" lengthAdjust="spacing" textLength="131" x="693.75" y="479.918">IrrigationPlanMapper</text><line style="stroke:#181818;stroke-width:0.5;" x1="585.5" x2="900.5" y1="490.1211" y2="490.1211"/><line style="stroke:#181818;stroke-width:0.5;" x1="585.5" x2="900.5" y1="498.1211" y2="498.1211"/><text fill="#000000" font-family="sans-serif" font-size="14" lengthAdjust="spacing" textLength="300" x="590.5" y="517.2285">+mapToDTO(irrigationPlan) : IrrigationPlanDTO</text><text fill="#000000" font-family="sans-serif" font-size="14" lengthAdjust="spacing" textLength="305" x="590.5" y="535.8496">+mapToEntity(irrigationPlanDTO) : IrrigationPlan</text></g><!--class IrrigationPlanDTO--><g id="elem_IrrigationPlanDTO"><rect codeLine="88" fill="#F1F1F1" height="103.8633" id="IrrigationPlanDTO" rx="2.5" ry="2.5" style="stroke:#181818;stroke-width:0.5;" width="145" x="713.5" y="612.6211"/><ellipse cx="728.5" cy="628.6211" fill="#ADD1B2" rx="11" ry="11" style="stroke:#181818;stroke-width:1.0;"/><path d="M731.2656,624.4961 Q731.4219,624.2773 731.6094,624.168 Q731.7969,624.0586 732.0156,624.0586 Q732.3906,624.0586 732.625,624.3242 Q732.8594,624.5742 732.8594,625.1836 L732.8594,626.6367 Q732.8594,627.2461 732.625,627.5117 Q732.3906,627.7773 732.0156,627.7773 Q731.6719,627.7773 731.4688,627.5742 Q731.2656,627.3867 731.1563,626.8711 Q731.1094,626.5117 730.9219,626.3242 Q730.5938,625.9492 729.9844,625.7305 Q729.375,625.5117 728.75,625.5117 Q727.9844,625.5117 727.3438,625.8398 Q726.7188,626.168 726.2188,626.918 Q725.7344,627.668 725.7344,628.6992 L725.7344,629.793 Q725.7344,631.0273 726.625,631.8555 Q727.5156,632.668 729.1094,632.668 Q730.0469,632.668 730.7031,632.418 Q731.0938,632.2617 731.5156,631.8242 Q731.7813,631.5586 731.9219,631.4805 Q732.0781,631.4023 732.2813,631.4023 Q732.6094,631.4023 732.8594,631.668 Q733.125,631.918 733.125,632.2617 Q733.125,632.6055 732.7813,633.0117 Q732.2813,633.5898 731.4844,633.918 Q730.4063,634.3711 729.1094,634.3711 Q727.5938,634.3711 726.3906,633.7461 Q725.4063,633.2461 724.7188,632.1836 Q724.0313,631.1055 724.0313,629.8242 L724.0313,628.668 Q724.0313,627.3398 724.6406,626.1992 Q725.2656,625.043 726.3594,624.4336 Q727.4531,623.8086 728.6875,623.8086 Q729.4219,623.8086 730.0625,623.9805 Q730.7188,624.1367 731.2656,624.4961 Z " fill="#000000"/><text fill="#000000" font-family="sans-serif" font-size="14" lengthAdjust="spacing" textLength="113" x="742.5" y="634.418">IrrigationPlanDTO</text><line style="stroke:#181818;stroke-width:0.5;" x1="714.5" x2="857.5" y1="644.6211" y2="644.6211"/><text fill="#000000" font-family="sans-serif" font-size="14" lengthAdjust="spacing" textLength="86" x="719.5" y="663.7285">-creationDate</text><text fill="#000000" font-family="sans-serif" font-size="14" lengthAdjust="spacing" textLength="100" x="719.5" y="682.3496">-numberOfDays</text><text fill="#000000" font-family="sans-serif" font-size="14" lengthAdjust="spacing" textLength="114" x="719.5" y="700.9707">-irrigationsPerDay</text><line style="stroke:#181818;stroke-width:0.5;" x1="714.5" x2="857.5" y1="708.4844" y2="708.4844"/></g><!--class IrrigationPlanOfDayMapper--><g id="elem_IrrigationPlanOfDayMapper"><rect codeLine="94" fill="#F1F1F1" height="85.2422" id="IrrigationPlanOfDayMapper" rx="2.5" ry="2.5" style="stroke:#181818;stroke-width:0.5;" width="397" x="655.5" y="842.1211"/><ellipse cx="764.25" cy="858.1211" fill="#ADD1B2" rx="11" ry="11" style="stroke:#181818;stroke-width:1.0;"/><path d="M767.0156,853.9961 Q767.1719,853.7773 767.3594,853.668 Q767.5469,853.5586 767.7656,853.5586 Q768.1406,853.5586 768.375,853.8242 Q768.6094,854.0742 768.6094,854.6836 L768.6094,856.1367 Q768.6094,856.7461 768.375,857.0117 Q768.1406,857.2773 767.7656,857.2773 Q767.4219,857.2773 767.2188,857.0742 Q767.0156,856.8867 766.9063,856.3711 Q766.8594,856.0117 766.6719,855.8242 Q766.3438,855.4492 765.7344,855.2305 Q765.125,855.0117 764.5,855.0117 Q763.7344,855.0117 763.0938,855.3398 Q762.4688,855.668 761.9688,856.418 Q761.4844,857.168 761.4844,858.1992 L761.4844,859.293 Q761.4844,860.5273 762.375,861.3555 Q763.2656,862.168 764.8594,862.168 Q765.7969,862.168 766.4531,861.918 Q766.8438,861.7617 767.2656,861.3242 Q767.5313,861.0586 767.6719,860.9805 Q767.8281,860.9023 768.0313,860.9023 Q768.3594,860.9023 768.6094,861.168 Q768.875,861.418 768.875,861.7617 Q768.875,862.1055 768.5313,862.5117 Q768.0313,863.0898 767.2344,863.418 Q766.1563,863.8711 764.8594,863.8711 Q763.3438,863.8711 762.1406,863.2461 Q761.1563,862.7461 760.4688,861.6836 Q759.7813,860.6055 759.7813,859.3242 L759.7813,858.168 Q759.7813,856.8398 760.3906,855.6992 Q761.0156,854.543 762.1094,853.9336 Q763.2031,853.3086 764.4375,853.3086 Q765.1719,853.3086 765.8125,853.4805 Q766.4688,853.6367 767.0156,853.9961 Z " fill="#000000"/><text fill="#000000" font-family="sans-serif" font-size="14" lengthAdjust="spacing" textLength="171" x="784.75" y="863.918">IrrigationPlanOfDayMapper</text><line style="stroke:#181818;stroke-width:0.5;" x1="656.5" x2="1051.5" y1="874.1211" y2="874.1211"/><line style="stroke:#181818;stroke-width:0.5;" x1="656.5" x2="1051.5" y1="882.1211" y2="882.1211"/><text fill="#000000" font-family="sans-serif" font-size="14" lengthAdjust="spacing" textLength="380" x="661.5" y="901.2285">+mapToDTO(irrigationPlanOfDay) : IrrigationPlanOfDayDTO</text><text fill="#000000" font-family="sans-serif" font-size="14" lengthAdjust="spacing" textLength="385" x="661.5" y="919.8496">+mapToEntity(irrigationPlanOfDayDTO) : IrrigationPlanOfDay</text></g><!--class IrrigationPlanOfDayDTO--><g id="elem_IrrigationPlanOfDayDTO"><rect codeLine="99" fill="#F1F1F1" height="103.8633" id="IrrigationPlanOfDayDTO" rx="2.5" ry="2.5" style="stroke:#181818;stroke-width:0.5;" width="185" x="843.5" y="1052.6211"/><ellipse cx="858.5" cy="1068.6211" fill="#ADD1B2" rx="11" ry="11" style="stroke:#181818;stroke-width:1.0;"/><path d="M861.2656,1064.4961 Q861.4219,1064.2773 861.6094,1064.168 Q861.7969,1064.0586 862.0156,1064.0586 Q862.3906,1064.0586 862.625,1064.3242 Q862.8594,1064.5742 862.8594,1065.1836 L862.8594,1066.6367 Q862.8594,1067.2461 862.625,1067.5117 Q862.3906,1067.7773 862.0156,1067.7773 Q861.6719,1067.7773 861.4688,1067.5742 Q861.2656,1067.3867 861.1563,1066.8711 Q861.1094,1066.5117 860.9219,1066.3242 Q860.5938,1065.9492 859.9844,1065.7305 Q859.375,1065.5117 858.75,1065.5117 Q857.9844,1065.5117 857.3438,1065.8398 Q856.7188,1066.168 856.2188,1066.918 Q855.7344,1067.668 855.7344,1068.6992 L855.7344,1069.793 Q855.7344,1071.0273 856.625,1071.8555 Q857.5156,1072.668 859.1094,1072.668 Q860.0469,1072.668 860.7031,1072.418 Q861.0938,1072.2617 861.5156,1071.8242 Q861.7813,1071.5586 861.9219,1071.4805 Q862.0781,1071.4023 862.2813,1071.4023 Q862.6094,1071.4023 862.8594,1071.668 Q863.125,1071.918 863.125,1072.2617 Q863.125,1072.6055 862.7813,1073.0117 Q862.2813,1073.5898 861.4844,1073.918 Q860.4063,1074.3711 859.1094,1074.3711 Q857.5938,1074.3711 856.3906,1073.7461 Q855.4063,1073.2461 854.7188,1072.1836 Q854.0313,1071.1055 854.0313,1069.8242 L854.0313,1068.668 Q854.0313,1067.3398 854.6406,1066.1992 Q855.2656,1065.043 856.3594,1064.4336 Q857.4531,1063.8086 858.6875,1063.8086 Q859.4219,1063.8086 860.0625,1063.9805 Q860.7188,1064.1367 861.2656,1064.4961 Z " fill="#000000"/><text fill="#000000" font-family="sans-serif" font-size="14" lengthAdjust="spacing" textLength="153" x="872.5" y="1074.418">IrrigationPlanOfDayDTO</text><line style="stroke:#181818;stroke-width:0.5;" x1="844.5" x2="1027.5" y1="1084.6211" y2="1084.6211"/><text fill="#000000" font-family="sans-serif" font-size="14" lengthAdjust="spacing" textLength="80" x="849.5" y="1103.7285">-cycleBegins</text><text fill="#000000" font-family="sans-serif" font-size="14" lengthAdjust="spacing" textLength="69" x="849.5" y="1122.3496">-cycleEnds</text><text fill="#000000" font-family="sans-serif" font-size="14" lengthAdjust="spacing" textLength="82" x="849.5" y="1140.9707">-irrigationList</text><line style="stroke:#181818;stroke-width:0.5;" x1="844.5" x2="1027.5" y1="1148.4844" y2="1148.4844"/></g><!--class IrrigationMapper--><g id="elem_IrrigationMapper"><rect codeLine="105" fill="#F1F1F1" height="85.2422" id="IrrigationMapper" rx="2.5" ry="2.5" style="stroke:#181818;stroke-width:0.5;" width="261" x="841.5" y="1226.1211"/><ellipse cx="916.25" cy="1242.1211" fill="#ADD1B2" rx="11" ry="11" style="stroke:#181818;stroke-width:1.0;"/><path d="M919.0156,1237.9961 Q919.1719,1237.7773 919.3594,1237.668 Q919.5469,1237.5586 919.7656,1237.5586 Q920.1406,1237.5586 920.375,1237.8242 Q920.6094,1238.0742 920.6094,1238.6836 L920.6094,1240.1367 Q920.6094,1240.7461 920.375,1241.0117 Q920.1406,1241.2773 919.7656,1241.2773 Q919.4219,1241.2773 919.2188,1241.0742 Q919.0156,1240.8867 918.9063,1240.3711 Q918.8594,1240.0117 918.6719,1239.8242 Q918.3438,1239.4492 917.7344,1239.2305 Q917.125,1239.0117 916.5,1239.0117 Q915.7344,1239.0117 915.0938,1239.3398 Q914.4688,1239.668 913.9688,1240.418 Q913.4844,1241.168 913.4844,1242.1992 L913.4844,1243.293 Q913.4844,1244.5273 914.375,1245.3555 Q915.2656,1246.168 916.8594,1246.168 Q917.7969,1246.168 918.4531,1245.918 Q918.8438,1245.7617 919.2656,1245.3242 Q919.5313,1245.0586 919.6719,1244.9805 Q919.8281,1244.9023 920.0313,1244.9023 Q920.3594,1244.9023 920.6094,1245.168 Q920.875,1245.418 920.875,1245.7617 Q920.875,1246.1055 920.5313,1246.5117 Q920.0313,1247.0898 919.2344,1247.418 Q918.1563,1247.8711 916.8594,1247.8711 Q915.3438,1247.8711 914.1406,1247.2461 Q913.1563,1246.7461 912.4688,1245.6836 Q911.7813,1244.6055 911.7813,1243.3242 L911.7813,1242.168 Q911.7813,1240.8398 912.3906,1239.6992 Q913.0156,1238.543 914.1094,1237.9336 Q915.2031,1237.3086 916.4375,1237.3086 Q917.1719,1237.3086 917.8125,1237.4805 Q918.4688,1237.6367 919.0156,1237.9961 Z " fill="#000000"/><text fill="#000000" font-family="sans-serif" font-size="14" lengthAdjust="spacing" textLength="103" x="936.75" y="1247.918">IrrigationMapper</text><line style="stroke:#181818;stroke-width:0.5;" x1="842.5" x2="1101.5" y1="1258.1211" y2="1258.1211"/><line style="stroke:#181818;stroke-width:0.5;" x1="842.5" x2="1101.5" y1="1266.1211" y2="1266.1211"/><text fill="#000000" font-family="sans-serif" font-size="14" lengthAdjust="spacing" textLength="244" x="847.5" y="1285.2285">+mapToDTO(irrigation) : IrrigationDTO</text><text fill="#000000" font-family="sans-serif" font-size="14" lengthAdjust="spacing" textLength="249" x="847.5" y="1303.8496">+mapToEntity(irrigationDTO) : Irrigation</text></g><!--class IrrigationDTO--><g id="elem_IrrigationDTO"><rect codeLine="110" fill="#F1F1F1" height="159.7266" id="IrrigationDTO" rx="2.5" ry="2.5" style="stroke:#181818;stroke-width:0.5;" width="129" x="907.5" y="1380.6211"/><ellipse cx="927.9" cy="1396.6211" fill="#ADD1B2" rx="11" ry="11" style="stroke:#181818;stroke-width:1.0;"/><path d="M930.6656,1392.4961 Q930.8219,1392.2773 931.0094,1392.168 Q931.1969,1392.0586 931.4156,1392.0586 Q931.7906,1392.0586 932.025,1392.3242 Q932.2594,1392.5742 932.2594,1393.1836 L932.2594,1394.6367 Q932.2594,1395.2461 932.025,1395.5117 Q931.7906,1395.7773 931.4156,1395.7773 Q931.0719,1395.7773 930.8688,1395.5742 Q930.6656,1395.3867 930.5563,1394.8711 Q930.5094,1394.5117 930.3219,1394.3242 Q929.9938,1393.9492 929.3844,1393.7305 Q928.775,1393.5117 928.15,1393.5117 Q927.3844,1393.5117 926.7438,1393.8398 Q926.1188,1394.168 925.6188,1394.918 Q925.1344,1395.668 925.1344,1396.6992 L925.1344,1397.793 Q925.1344,1399.0273 926.025,1399.8555 Q926.9156,1400.668 928.5094,1400.668 Q929.4469,1400.668 930.1031,1400.418 Q930.4938,1400.2617 930.9156,1399.8242 Q931.1813,1399.5586 931.3219,1399.4805 Q931.4781,1399.4023 931.6813,1399.4023 Q932.0094,1399.4023 932.2594,1399.668 Q932.525,1399.918 932.525,1400.2617 Q932.525,1400.6055 932.1813,1401.0117 Q931.6813,1401.5898 930.8844,1401.918 Q929.8063,1402.3711 928.5094,1402.3711 Q926.9938,1402.3711 925.7906,1401.7461 Q924.8063,1401.2461 924.1188,1400.1836 Q923.4313,1399.1055 923.4313,1397.8242 L923.4313,1396.668 Q923.4313,1395.3398 924.0406,1394.1992 Q924.6656,1393.043 925.7594,1392.4336 Q926.8531,1391.8086 928.0875,1391.8086 Q928.8219,1391.8086 929.4625,1391.9805 Q930.1188,1392.1367 930.6656,1392.4961 Z " fill="#000000"/><text fill="#000000" font-family="sans-serif" font-size="14" lengthAdjust="spacing" textLength="85" x="943.1" y="1402.418">IrrigationDTO</text><line style="stroke:#181818;stroke-width:0.5;" x1="908.5" x2="1035.5" y1="1412.6211" y2="1412.6211"/><text fill="#000000" font-family="sans-serif" font-size="14" lengthAdjust="spacing" textLength="44" x="913.5" y="1431.7285">-sector</text><text fill="#000000" font-family="sans-serif" font-size="14" lengthAdjust="spacing" textLength="95" x="913.5" y="1450.3496">-operationDate</text><text fill="#000000" font-family="sans-serif" font-size="14" lengthAdjust="spacing" textLength="117" x="913.5" y="1468.9707">-durationInMinutes</text><text fill="#000000" font-family="sans-serif" font-size="14" lengthAdjust="spacing" textLength="64" x="913.5" y="1487.5918">-startTime</text><text fill="#000000" font-family="sans-serif" font-size="14" lengthAdjust="spacing" textLength="60" x="913.5" y="1506.2129">-endTime</text><text fill="#000000" font-family="sans-serif" font-size="14" lengthAdjust="spacing" textLength="36" x="913.5" y="1524.834">-mixId</text><line style="stroke:#181818;stroke-width:0.5;" x1="908.5" x2="1035.5" y1="1532.3477" y2="1532.3477"/></g><!--class CreateFile--><g id="elem_CreateFile"><rect codeLine="119" fill="#F1F1F1" height="66.6211" id="CreateFile" rx="2.5" ry="2.5" style="stroke:#181818;stroke-width:0.5;" width="320" x="1159" y="467.1211"/><ellipse cx="1281.75" cy="483.1211" fill="#ADD1B2" rx="11" ry="11" style="stroke:#181818;stroke-width:1.0;"/><path d="M1284.5156,478.9961 Q1284.6719,478.7773 1284.8594,478.668 Q1285.0469,478.5586 1285.2656,478.5586 Q1285.6406,478.5586 1285.875,478.8242 Q1286.1094,479.0742 1286.1094,479.6836 L1286.1094,481.1367 Q1286.1094,481.7461 1285.875,482.0117 Q1285.6406,482.2773 1285.2656,482.2773 Q1284.9219,482.2773 1284.7188,482.0742 Q1284.5156,481.8867 1284.4063,481.3711 Q1284.3594,481.0117 1284.1719,480.8242 Q1283.8438,480.4492 1283.2344,480.2305 Q1282.625,480.0117 1282,480.0117 Q1281.2344,480.0117 1280.5938,480.3398 Q1279.9688,480.668 1279.4688,481.418 Q1278.9844,482.168 1278.9844,483.1992 L1278.9844,484.293 Q1278.9844,485.5273 1279.875,486.3555 Q1280.7656,487.168 1282.3594,487.168 Q1283.2969,487.168 1283.9531,486.918 Q1284.3438,486.7617 1284.7656,486.3242 Q1285.0313,486.0586 1285.1719,485.9805 Q1285.3281,485.9023 1285.5313,485.9023 Q1285.8594,485.9023 1286.1094,486.168 Q1286.375,486.418 1286.375,486.7617 Q1286.375,487.1055 1286.0313,487.5117 Q1285.5313,488.0898 1284.7344,488.418 Q1283.6563,488.8711 1282.3594,488.8711 Q1280.8438,488.8711 1279.6406,488.2461 Q1278.6563,487.7461 1277.9688,486.6836 Q1277.2813,485.6055 1277.2813,484.3242 L1277.2813,483.168 Q1277.2813,481.8398 1277.8906,480.6992 Q1278.5156,479.543 1279.6094,478.9336 Q1280.7031,478.3086 1281.9375,478.3086 Q1282.6719,478.3086 1283.3125,478.4805 Q1283.9688,478.6367 1284.5156,478.9961 Z " fill="#000000"/><text fill="#000000" font-family="sans-serif" font-size="14" lengthAdjust="spacing" textLength="66" x="1302.25" y="488.918">CreateFile</text><line style="stroke:#181818;stroke-width:0.5;" x1="1160" x2="1478" y1="499.1211" y2="499.1211"/><line style="stroke:#181818;stroke-width:0.5;" x1="1160" x2="1478" y1="507.1211" y2="507.1211"/><text fill="#000000" font-family="sans-serif" font-size="14" lengthAdjust="spacing" textLength="308" x="1165" y="526.2285">+createFile(filePath, fileName, content) : boolean</text></g><!--class ReadFile--><g id="elem_ReadFile"><rect codeLine="123" fill="#F1F1F1" height="66.6211" id="ReadFile" rx="2.5" ry="2.5" style="stroke:#181818;stroke-width:0.5;" width="278" x="1514" y="467.1211"/><ellipse cx="1620.25" cy="483.1211" fill="#ADD1B2" rx="11" ry="11" style="stroke:#181818;stroke-width:1.0;"/><path d="M1623.0156,478.9961 Q1623.1719,478.7773 1623.3594,478.668 Q1623.5469,478.5586 1623.7656,478.5586 Q1624.1406,478.5586 1624.375,478.8242 Q1624.6094,479.0742 1624.6094,479.6836 L1624.6094,481.1367 Q1624.6094,481.7461 1624.375,482.0117 Q1624.1406,482.2773 1623.7656,482.2773 Q1623.4219,482.2773 1623.2188,482.0742 Q1623.0156,481.8867 1622.9063,481.3711 Q1622.8594,481.0117 1622.6719,480.8242 Q1622.3438,480.4492 1621.7344,480.2305 Q1621.125,480.0117 1620.5,480.0117 Q1619.7344,480.0117 1619.0938,480.3398 Q1618.4688,480.668 1617.9688,481.418 Q1617.4844,482.168 1617.4844,483.1992 L1617.4844,484.293 Q1617.4844,485.5273 1618.375,486.3555 Q1619.2656,487.168 1620.8594,487.168 Q1621.7969,487.168 1622.4531,486.918 Q1622.8438,486.7617 1623.2656,486.3242 Q1623.5313,486.0586 1623.6719,485.9805 Q1623.8281,485.9023 1624.0313,485.9023 Q1624.3594,485.9023 1624.6094,486.168 Q1624.875,486.418 1624.875,486.7617 Q1624.875,487.1055 1624.5313,487.5117 Q1624.0313,488.0898 1623.2344,488.418 Q1622.1563,488.8711 1620.8594,488.8711 Q1619.3438,488.8711 1618.1406,488.2461 Q1617.1563,487.7461 1616.4688,486.6836 Q1615.7813,485.6055 1615.7813,484.3242 L1615.7813,483.168 Q1615.7813,481.8398 1616.3906,480.6992 Q1617.0156,479.543 1618.1094,478.9336 Q1619.2031,478.3086 1620.4375,478.3086 Q1621.1719,478.3086 1621.8125,478.4805 Q1622.4688,478.6367 1623.0156,478.9961 Z " fill="#000000"/><text fill="#000000" font-family="sans-serif" font-size="14" lengthAdjust="spacing" textLength="57" x="1640.75" y="488.918">ReadFile</text><line style="stroke:#181818;stroke-width:0.5;" x1="1515" x2="1791" y1="499.1211" y2="499.1211"/><line style="stroke:#181818;stroke-width:0.5;" x1="1515" x2="1791" y1="507.1211" y2="507.1211"/><text fill="#000000" font-family="sans-serif" font-size="14" lengthAdjust="spacing" textLength="266" x="1520" y="526.2285">+readFile(filePath, fileName) : List&lt;String&gt;</text></g><!--link IrrigationSystemUI to IrrigationSystemController--><g id="link_IrrigationSystemUI_IrrigationSystemController"><path codeLine="127" d="M849,131.8411 C849,149.2711 849,164.3411 849,185.3011 " fill="none" id="IrrigationSystemUI-to-IrrigationSystemController" style="stroke:#181818;stroke-width:1.0;stroke-dasharray:7.0,7.0;"/><polygon fill="#181818" points="849,191.3011,853,182.3011,849,186.3011,845,182.3011,849,191.3011" style="stroke:#181818;stroke-width:1.0;"/></g><!--link IrrigationSystemController to Repositories--><g id="link_IrrigationSystemController_Repositories"><path codeLine="129" d="M704.92,337.9111 C603.63,370.8111 473.8567,412.9582 369.7867,446.7482 " fill="none" id="IrrigationSystemController-to-Repositories" style="stroke:#181818;stroke-width:1.0;stroke-dasharray:7.0,7.0;"/><polygon fill="#181818" points="364.08,448.6011,373.8754,449.6262,368.8356,447.057,371.4048,442.0173,364.08,448.6011" style="stroke:#181818;stroke-width:1.0;"/></g><!--link IrrigationSystemController to IrrigationSystemRepository--><g id="link_IrrigationSystemController_IrrigationSystemRepository"><path codeLine="130" d="M704.61,357.2311 C610.47,400.3311 505,448.6211 505,448.6211 C505,448.6211 426.4885,565.8357 386.2085,625.9857 " fill="none" id="IrrigationSystemController-to-IrrigationSystemRepository" style="stroke:#181818;stroke-width:1.0;stroke-dasharray:7.0,7.0;"/><polygon fill="#181818" points="382.87,630.9711,391.2014,625.7187,385.6521,626.8166,384.5542,621.2673,382.87,630.9711" style="stroke:#181818;stroke-width:1.0;"/></g><!--link IrrigationSystemController to ReadFile--><g id="link_IrrigationSystemController_ReadFile"><path codeLine="131" d="M993.21,326.1711 C1184.16,372.5811 1497,448.6211 1497,448.6211 C1497,448.6211 1517.0468,455.1773 1547.6168,465.1673 " fill="none" id="IrrigationSystemController-to-ReadFile" style="stroke:#181818;stroke-width:1.0;stroke-dasharray:7.0,7.0;"/><polygon fill="#181818" points="1553.32,467.0311,1546.0077,460.4333,1548.5673,465.478,1543.5227,468.0376,1553.32,467.0311" style="stroke:#181818;stroke-width:1.0;"/></g><!--link IrrigationSystemController to CreateFile--><g id="link_IrrigationSystemController_CreateFile"><path codeLine="132" d="M993.21,355.0911 C1076.73,392.1411 1172.8356,434.7777 1240.1356,464.6377 " fill="none" id="IrrigationSystemController-to-CreateFile" style="stroke:#181818;stroke-width:1.0;stroke-dasharray:7.0,7.0;"/><polygon fill="#181818" points="1245.62,467.0711,1239.0156,459.7648,1241.0497,465.0433,1235.7711,467.0773,1245.62,467.0711" style="stroke:#181818;stroke-width:1.0;"/></g><!--link IrrigationSystemController to IrrigationSystem--><g id="link_IrrigationSystemController_IrrigationSystem"><path codeLine="133" d="M704.7,371.7211 C635.31,410.4711 567,448.6211 567,448.6211 C567,448.6211 479,716.6211 479,716.6211 C479,716.6211 463.1726,739.021 440.1926,771.541 " fill="none" id="IrrigationSystemController-to-IrrigationSystem" style="stroke:#181818;stroke-width:1.0;stroke-dasharray:7.0,7.0;"/><polygon fill="#181818" points="436.73,776.4411,445.1906,771.3994,439.6155,772.3577,438.6572,766.7826,436.73,776.4411" style="stroke:#181818;stroke-width:1.0;"/></g><!--link Repositories to IrrigationSystemRepository--><g id="link_Repositories_IrrigationSystemRepository"><path codeLine="135" d="M255.73,552.8811 C280.05,578.4611 304.6065,604.292 325.8865,626.682 " fill="none" id="Repositories-to-IrrigationSystemRepository" style="stroke:#181818;stroke-width:1.0;stroke-dasharray:7.0,7.0;"/><polygon fill="#181818" points="330.02,631.0311,326.7192,621.7518,326.5754,627.4069,320.9204,627.2631,330.02,631.0311" style="stroke:#181818;stroke-width:1.0;"/></g><!--link IrrigationSystemRepository to IrrigationSystem--><g id="link_IrrigationSystemRepository_IrrigationSystem"><path codeLine="137" d="M361,698.2611 C361,719.2811 361,741.9211 361,770.4011 " fill="none" id="IrrigationSystemRepository-to-IrrigationSystem" style="stroke:#181818;stroke-width:1.0;"/><polygon fill="#181818" points="361,776.4011,365,767.4011,361,771.4011,357,767.4011,361,776.4011" style="stroke:#181818;stroke-width:1.0;"/></g><!--link IrrigationSystem to IrrigationPlan--><g id="link_IrrigationSystem_IrrigationPlan"><path codeLine="139" d="M479.38,992.7011 C502.48,1013.5911 521.2192,1030.5573 541.1292,1048.5573 " fill="none" id="IrrigationSystem-to-IrrigationPlan" style="stroke:#181818;stroke-width:1.0;"/><polygon fill="#181818" points="545.58,1052.5811,541.5864,1043.5783,541.871,1049.2279,536.2214,1049.5126,545.58,1052.5811" style="stroke:#181818;stroke-width:1.0;"/></g><!--link IrrigationPlan to IrrigationPlanOfDay--><g id="link_IrrigationPlan_IrrigationPlanOfDay"><path codeLine="141" d="M642.18,1156.8811 C657.08,1175.8811 670.269,1192.6985 685.159,1211.6985 " fill="none" id="IrrigationPlan-to-IrrigationPlanOfDay" style="stroke:#181818;stroke-width:1.0;"/><polygon fill="#181818" points="688.86,1216.4211,686.4569,1206.8699,685.7758,1212.4856,680.1601,1211.8046,688.86,1216.4211" style="stroke:#181818;stroke-width:1.0;"/></g><!--link IrrigationPlanOfDay to Irrigation--><g id="link_IrrigationPlanOfDay_Irrigation"><path codeLine="143" d="M739.77,1320.7911 C743.64,1339.1411 746.8529,1354.42 751.1029,1374.59 " fill="none" id="IrrigationPlanOfDay-to-Irrigation" style="stroke:#181818;stroke-width:1.0;"/><polygon fill="#181818" points="752.34,1380.4611,754.3984,1370.8297,751.3091,1375.5685,746.5703,1372.4792,752.34,1380.4611" style="stroke:#181818;stroke-width:1.0;"/></g><!--link IrrigationSystemController to IrrigationPlanMapper--><g id="link_IrrigationSystemController_IrrigationPlanMapper"><path codeLine="145" d="M799.41,388.6511 C787.02,413.0311 777.0996,432.5528 766.9296,452.5528 " fill="none" id="IrrigationSystemController-to-IrrigationPlanMapper" style="stroke:#181818;stroke-width:1.0;"/><polygon fill="#181818" points="764.21,457.9011,771.8549,451.6918,766.4763,453.4442,764.7239,448.0657,764.21,457.9011" style="stroke:#181818;stroke-width:1.0;"/></g><!--link IrrigationSystemController to IrrigationPlanOfDayMapper--><g id="link_IrrigationSystemController_IrrigationPlanOfDayMapper"><path codeLine="146" d="M892.34,388.6311 C906.66,420.8511 919,448.6211 919,448.6211 C919,448.6211 919,552.6211 919,552.6211 C919,552.6211 880.7757,747.2434 863.3257,836.1434 " fill="none" id="IrrigationSystemController-to-IrrigationPlanOfDayMapper" style="stroke:#181818;stroke-width:1.0;"/><polygon fill="#181818" points="862.17,842.0311,867.8286,833.9701,863.1331,837.1247,859.9784,832.4292,862.17,842.0311" style="stroke:#181818;stroke-width:1.0;"/></g><!--link IrrigationSystemController to IrrigationMapper--><g id="link_IrrigationSystemController_IrrigationMapper"><path codeLine="147" d="M916.52,388.9911 C992.67,499.3611 1106,663.6211 1106,663.6211 C1106,663.6211 1106,663.6211 1106,885.6211 C1106,885.6211 1046,1156.6211 1046,1156.6211 C1046,1156.6211 1024.0878,1189.4885 1003.0978,1220.9785 " fill="none" id="IrrigationSystemController-to-IrrigationMapper" style="stroke:#181818;stroke-width:1.0;"/><polygon fill="#181818" points="999.77,1225.9711,1008.0901,1220.7008,1002.5432,1221.8106,1001.4334,1216.2637,999.77,1225.9711" style="stroke:#181818;stroke-width:1.0;"/></g><!--link IrrigationPlanMapper to IrrigationPlan--><g id="link_IrrigationPlanMapper_IrrigationPlan"><path codeLine="149" d="M725.37,543.2711 C712.03,574.7611 696,612.6211 696,612.6211 C696,612.6211 638,776.6211 638,776.6211 C638,776.6211 618.4063,954.5971 608.2863,1046.5671 " fill="none" id="IrrigationPlanMapper-to-IrrigationPlan" style="stroke:#181818;stroke-width:1.0;"/><polygon fill="#181818" points="607.63,1052.5311,612.5904,1044.0226,608.1769,1047.5611,604.6384,1043.1476,607.63,1052.5311" style="stroke:#181818;stroke-width:1.0;"/></g><!--link IrrigationPlanOfDayMapper to IrrigationPlanOfDay--><g id="link_IrrigationPlanOfDayMapper_IrrigationPlanOfDay"><path codeLine="150" d="M840.38,927.2311 C817.35,997.6111 772.6358,1134.2686 747.6358,1210.6786 " fill="none" id="IrrigationPlanOfDayMapper-to-IrrigationPlanOfDay" style="stroke:#181818;stroke-width:1.0;"/><polygon fill="#181818" points="745.77,1216.3811,752.3703,1209.0711,747.3248,1211.629,744.767,1206.5834,745.77,1216.3811" style="stroke:#181818;stroke-width:1.0;"/></g><!--link IrrigationMapper to Irrigation--><g id="link_IrrigationMapper_Irrigation"><path codeLine="151" d="M927.45,1311.3211 C900.02,1336.9911 868.7703,1366.2407 838.2503,1394.8107 " fill="none" id="IrrigationMapper-to-Irrigation" style="stroke:#181818;stroke-width:1.0;"/><polygon fill="#181818" points="833.87,1398.9111,843.174,1395.6807,837.5202,1395.4941,837.7068,1389.8403,833.87,1398.9111" style="stroke:#181818;stroke-width:1.0;"/></g><!--link IrrigationPlanMapper to IrrigationPlanDTO--><g id="link_IrrigationPlanMapper_IrrigationPlanDTO"><path codeLine="153" d="M754.07,543.3411 C759.67,564.4311 764.981,584.4218 770.891,606.6918 " fill="none" id="IrrigationPlanMapper-to-IrrigationPlanDTO" style="stroke:#181818;stroke-width:1.0;"/><polygon fill="#181818" points="772.43,612.4911,773.9877,602.7662,771.1475,607.6584,766.2553,604.8182,772.43,612.4911" style="stroke:#181818;stroke-width:1.0;"/></g><!--link IrrigationPlanOfDayMapper to IrrigationPlanOfDayDTO--><g id="link_IrrigationPlanOfDayMapper_IrrigationPlanOfDayDTO"><path codeLine="154" d="M869.62,927.1411 C883,962.7211 900.2181,1008.4951 914.5681,1046.6551 " fill="none" id="IrrigationPlanOfDayMapper-to-IrrigationPlanOfDayDTO" style="stroke:#181818;stroke-width:1.0;"/><polygon fill="#181818" points="916.68,1052.2711,917.2562,1042.4391,914.9201,1047.5911,909.7681,1045.255,916.68,1052.2711" style="stroke:#181818;stroke-width:1.0;"/></g><!--link IrrigationMapper to IrrigationDTO--><g id="link_IrrigationMapper_IrrigationDTO"><path codeLine="155" d="M972,1311.3211 C972,1331.6311 972,1350.7611 972,1374.5211 " fill="none" id="IrrigationMapper-to-IrrigationDTO" style="stroke:#181818;stroke-width:1.0;"/><polygon fill="#181818" points="972,1380.5211,976,1371.5211,972,1375.5211,968,1371.5211,972,1380.5211" style="stroke:#181818;stroke-width:1.0;"/></g><!--link IrrigationPlanDTO to IrrigationPlanOfDayMapper--><g id="link_IrrigationPlanDTO_IrrigationPlanOfDayMapper"><path codeLine="157" d="M801.94,716.7311 C813.84,754.8611 828.1048,800.5828 839.2148,836.2328 " fill="none" id="IrrigationPlanDTO-to-IrrigationPlanOfDayMapper" style="stroke:#181818;stroke-width:1.0;"/><polygon fill="#181818" points="841,841.9611,842.1411,832.1786,839.5124,837.1875,834.5034,834.5588,841,841.9611" style="stroke:#181818;stroke-width:1.0;"/></g><!--link IrrigationPlanOfDayDTO to IrrigationMapper--><g id="link_IrrigationPlanOfDayDTO_IrrigationMapper"><path codeLine="159" d="M947.39,1156.8811 C952.33,1179.1311 956.7478,1198.9941 961.4278,1220.0441 " fill="none" id="IrrigationPlanOfDayDTO-to-IrrigationMapper" style="stroke:#181818;stroke-width:1.0;"/><polygon fill="#181818" points="962.73,1225.9011,964.6814,1216.2475,961.6449,1221.0203,956.8721,1217.9837,962.73,1225.9011" style="stroke:#181818;stroke-width:1.0;"/></g><!--reverse link Irrigation to Fertigation--><g id="link_Irrigation_Fertigation"><path codeLine="161" d="M769,1546.7911 C769,1567.2511 769,1582.4811 769,1600.1911 " fill="none" id="Irrigation-backto-Fertigation" style="stroke:#181818;stroke-width:1.0;"/><polygon fill="#181818" points="769,1540.7911,765,1549.7911,769,1545.7911,773,1549.7911,769,1540.7911" style="stroke:#181818;stroke-width:1.0;"/></g><!--link Fertigation to Recipe--><g id="link_Fertigation_Recipe"><path codeLine="163" d="M769,1685.7811 C769,1704.9911 769,1721.4611 769,1739.4211 " fill="none" id="Fertigation-to-Recipe" style="stroke:#181818;stroke-width:1.0;"/><polygon fill="#181818" points="769,1745.4211,773,1736.4211,769,1740.4211,765,1736.4211,769,1745.4211" style="stroke:#181818;stroke-width:1.0;"/></g><!--link Recipe to ProductionFactor--><g id="link_Recipe_ProductionFactor"><path codeLine="165" d="M769,1812.9011 C769,1830.8811 769,1847.3411 769,1866.5411 " fill="none" id="Recipe-to-ProductionFactor" style="stroke:#181818;stroke-width:1.0;"/><polygon fill="#181818" points="769,1872.5411,773,1863.5411,769,1867.5411,765,1863.5411,769,1872.5411" style="stroke:#181818;stroke-width:1.0;"/></g><!--SRC=[jLRTJjim5BxtK_Wo23AnsmaXRIr8aO1M51x09AUfHUf4jYF8fhtxxDIDdSHEMcdqgh6_yvt_SopUAQi89tjSaVITvB2HJG6OGoe9omj0eWE87SdA3yfol2M5S6yAoa0s5U2gB1hzWPpBj212_9IIqxTQGfAMR4D_0xv6I5AfLBrk7jRVht6C5ng8bvJaIWoXLWuddDESIAga6Y5X_vhWFmYhtoNcDOikp7-nApysaiXQgAE_8U55oIGlYmAu8Oan7K3CyPOMeD70fD4GvkgCo47UMxb8SpoHFJZNGvBe0lyOCVlWwuAmvSjgW3UdHe2A5OlIcdEbV4aaN67pyKAL4KhmhImB8Cp0KmuAf0sEtCikUCzGbOBAabCGmN1reCQncWbLE-c1rcK9ny7IU2FYQ0dcrcB2kGqAUqHqR7kHweSzSYfad1Gt8rcR2kdFmGxIzsIxOWbRaiP0EUHrGJYLJL3W7hWqwbp9FVryXaFIKuys5VZ5eIAijGFpreJo6tjxXHFbOGxyjlF8KHs9gg3ovChgZ7Y2px05ziANBXtSBbcj7dMeYzqSiNh_1dorLJ4HevIADN1r4U9jfInvanRm2tBAX7jonx8nyGCLqiVQaGarJajkFieA-D3khEOccu-KgJ5vrA4wYRVzQxw1PSwNhHIhtSbFfrxLXVrdAyJjzPIgyTrrGMQlrhpCwbJJtHFjH0Ug1XT9TlG51CtPP0eVILLrG_WIxqdrKkhnrc-_gM7NYjmnjKAQWPJ2U1eoO8W2VsavdUPe2nqRtHwVul8H6A2OjB0NWVzGy_CUzwsSys_aba-fwyGNzPhgdCHfYqKtupfNdR6dbyEQoDqLFZu2r3AsoyApQqdMu-BcmCEa2NJmRpRgISNoMytYUILzYsydtYnZ4UTjf4LxUti6Ex6kPxKSt9p3sMYVQmj2lNVCZBbeubKHUzb7Bua-h9qzQB2_nf13coBVFkg39_CsvZqqutaopjmwNT3WaNVCUq8I7fMXu8mcJ3Wmawhrl3bRUr_8YzKGD5ukq_55WO4y5rny4yVkfaV8NVjnsrbwe-lgRpUxFXfkSlGF]--></g></svg>