<?xml version="1.0" encoding="us-ascii" standalone="no"?><svg xmlns="http://www.w3.org/2000/svg" xmlns:xlink="http://www.w3.org/1999/xlink" contentStyleType="text/css" height="481px" preserveAspectRatio="none" style="width:961px;height:481px;background:#FFFFFF;" version="1.1" viewBox="0 0 961 481" width="961px" zoomAndPan="magnify"><defs/><g><text fill="#000000" font-family="sans-serif" font-size="7" font-weight="bold" lengthAdjust="spacing" textLength="82" x="436.125" y="12.5537">USLP11 - Class Diagram</text><!--class WriteInFieldbookUI--><g id="elem_WriteInFieldbookUI"><rect codeLine="10" fill="#F1F1F1" height="51.9316" id="WriteInFieldbookUI" rx="1.25" ry="1.25" style="stroke:#181818;stroke-width:0.25;" width="128" x="422.75" y="23.3105"/><ellipse cx="455.125" cy="31.3105" fill="#ADD1B2" rx="5.5" ry="5.5" style="stroke:#181818;stroke-width:0.5;"/><path d="M456.5078,29.248 Q456.5859,29.1387 456.6797,29.084 Q456.7734,29.0293 456.8828,29.0293 Q457.0703,29.0293 457.1875,29.1621 Q457.3047,29.2871 457.3047,29.5918 L457.3047,30.3184 Q457.3047,30.623 457.1875,30.7559 Q457.0703,30.8887 456.8828,30.8887 Q456.7109,30.8887 456.6094,30.7871 Q456.5078,30.6934 456.4531,30.4355 Q456.4297,30.2559 456.3359,30.1621 Q456.1719,29.9746 455.8672,29.8652 Q455.5625,29.7559 455.25,29.7559 Q454.8672,29.7559 454.5469,29.9199 Q454.2344,30.084 453.9844,30.459 Q453.7422,30.834 453.7422,31.3496 L453.7422,31.8965 Q453.7422,32.5137 454.1875,32.9277 Q454.6328,33.334 455.4297,33.334 Q455.8984,33.334 456.2266,33.209 Q456.4219,33.1309 456.6328,32.9121 Q456.7656,32.7793 456.8359,32.7402 Q456.9141,32.7012 457.0156,32.7012 Q457.1797,32.7012 457.3047,32.834 Q457.4375,32.959 457.4375,33.1309 Q457.4375,33.3027 457.2656,33.5059 Q457.0156,33.7949 456.6172,33.959 Q456.0781,34.1855 455.4297,34.1855 Q454.6719,34.1855 454.0703,33.873 Q453.5781,33.623 453.2344,33.0918 Q452.8906,32.5527 452.8906,31.9121 L452.8906,31.334 Q452.8906,30.6699 453.1953,30.0996 Q453.5078,29.5215 454.0547,29.2168 Q454.6016,28.9043 455.2188,28.9043 Q455.5859,28.9043 455.9063,28.9902 Q456.2344,29.0684 456.5078,29.248 Z " fill="#000000"/><text fill="#000000" font-family="sans-serif" font-size="7" lengthAdjust="spacing" textLength="59" x="465.375" y="34.209">WriteInFieldbookUI</text><line style="stroke:#181818;stroke-width:0.25;" x1="423.25" x2="550.25" y1="39.3105" y2="39.3105"/><text fill="#000000" font-family="sans-serif" font-size="7" lengthAdjust="spacing" textLength="122" x="425.75" y="48.8643">-controller : WriteInFieldbookController</text><line style="stroke:#181818;stroke-width:0.25;" x1="423.25" x2="550.25" y1="52.6211" y2="52.6211"/><text fill="#000000" font-family="sans-serif" font-size="7" lengthAdjust="spacing" textLength="68" x="425.75" y="62.1748">+WriteInFieldbookUI()</text><text fill="#000000" font-family="sans-serif" font-size="7" lengthAdjust="spacing" textLength="38.5" x="425.75" y="71.4854">+run() : void</text></g><!--class WriteInFieldbookController--><g id="elem_WriteInFieldbookController"><rect codeLine="16" fill="#F1F1F1" height="42.6211" id="WriteInFieldbookController" rx="1.25" ry="1.25" style="stroke:#181818;stroke-width:0.25;" width="158.5" x="568.5" y="28.0605"/><ellipse cx="603.625" cy="36.0605" fill="#ADD1B2" rx="5.5" ry="5.5" style="stroke:#181818;stroke-width:0.5;"/><path d="M605.0078,33.998 Q605.0859,33.8887 605.1797,33.834 Q605.2734,33.7793 605.3828,33.7793 Q605.5703,33.7793 605.6875,33.9121 Q605.8047,34.0371 605.8047,34.3418 L605.8047,35.0684 Q605.8047,35.373 605.6875,35.5059 Q605.5703,35.6387 605.3828,35.6387 Q605.2109,35.6387 605.1094,35.5371 Q605.0078,35.4434 604.9531,35.1855 Q604.9297,35.0059 604.8359,34.9121 Q604.6719,34.7246 604.3672,34.6152 Q604.0625,34.5059 603.75,34.5059 Q603.3672,34.5059 603.0469,34.6699 Q602.7344,34.834 602.4844,35.209 Q602.2422,35.584 602.2422,36.0996 L602.2422,36.6465 Q602.2422,37.2637 602.6875,37.6777 Q603.1328,38.084 603.9297,38.084 Q604.3984,38.084 604.7266,37.959 Q604.9219,37.8809 605.1328,37.6621 Q605.2656,37.5293 605.3359,37.4902 Q605.4141,37.4512 605.5156,37.4512 Q605.6797,37.4512 605.8047,37.584 Q605.9375,37.709 605.9375,37.8809 Q605.9375,38.0527 605.7656,38.2559 Q605.5156,38.5449 605.1172,38.709 Q604.5781,38.9355 603.9297,38.9355 Q603.1719,38.9355 602.5703,38.623 Q602.0781,38.373 601.7344,37.8418 Q601.3906,37.3027 601.3906,36.6621 L601.3906,36.084 Q601.3906,35.4199 601.6953,34.8496 Q602.0078,34.2715 602.5547,33.9668 Q603.1016,33.6543 603.7188,33.6543 Q604.0859,33.6543 604.4063,33.7402 Q604.7344,33.8184 605.0078,33.998 Z " fill="#000000"/><text fill="#000000" font-family="sans-serif" font-size="7" lengthAdjust="spacing" textLength="84" x="613.875" y="38.959">WriteInFieldbookController</text><line style="stroke:#181818;stroke-width:0.25;" x1="569" x2="726.5" y1="44.0605" y2="44.0605"/><line style="stroke:#181818;stroke-width:0.25;" x1="569" x2="726.5" y1="48.0605" y2="48.0605"/><text fill="#000000" font-family="sans-serif" font-size="7" lengthAdjust="spacing" textLength="152.5" x="571.5" y="57.6143">+writeInFieldbook(irrigation : Irrigation) : boolean</text><text fill="#000000" font-family="sans-serif" font-size="7" lengthAdjust="spacing" textLength="111" x="571.5" y="66.9248">+getFinishedOperation() : Irrigation</text></g><!--class IrrigationRepository--><g id="elem_IrrigationRepository"><rect codeLine="21" fill="#F1F1F1" height="61.2422" id="IrrigationRepository" rx="1.25" ry="1.25" style="stroke:#181818;stroke-width:0.25;" width="617.5" x="3.5" y="114.8105"/><ellipse cx="279.375" cy="122.8105" fill="#ADD1B2" rx="5.5" ry="5.5" style="stroke:#181818;stroke-width:0.5;"/><path d="M280.7578,120.748 Q280.8359,120.6387 280.9297,120.584 Q281.0234,120.5293 281.1328,120.5293 Q281.3203,120.5293 281.4375,120.6621 Q281.5547,120.7871 281.5547,121.0918 L281.5547,121.8184 Q281.5547,122.123 281.4375,122.2559 Q281.3203,122.3887 281.1328,122.3887 Q280.9609,122.3887 280.8594,122.2871 Q280.7578,122.1934 280.7031,121.9355 Q280.6797,121.7559 280.5859,121.6621 Q280.4219,121.4746 280.1172,121.3652 Q279.8125,121.2559 279.5,121.2559 Q279.1172,121.2559 278.7969,121.4199 Q278.4844,121.584 278.2344,121.959 Q277.9922,122.334 277.9922,122.8496 L277.9922,123.3965 Q277.9922,124.0137 278.4375,124.4277 Q278.8828,124.834 279.6797,124.834 Q280.1484,124.834 280.4766,124.709 Q280.6719,124.6309 280.8828,124.4121 Q281.0156,124.2793 281.0859,124.2402 Q281.1641,124.2012 281.2656,124.2012 Q281.4297,124.2012 281.5547,124.334 Q281.6875,124.459 281.6875,124.6309 Q281.6875,124.8027 281.5156,125.0059 Q281.2656,125.2949 280.8672,125.459 Q280.3281,125.6855 279.6797,125.6855 Q278.9219,125.6855 278.3203,125.373 Q277.8281,125.123 277.4844,124.5918 Q277.1406,124.0527 277.1406,123.4121 L277.1406,122.834 Q277.1406,122.1699 277.4453,121.5996 Q277.7578,121.0215 278.3047,120.7168 Q278.8516,120.4043 279.4688,120.4043 Q279.8359,120.4043 280.1563,120.4902 Q280.4844,120.5684 280.7578,120.748 Z " fill="#000000"/><text fill="#000000" font-family="sans-serif" font-size="7" lengthAdjust="spacing" textLength="61.5" x="289.625" y="125.709">IrrigationRepository</text><line style="stroke:#181818;stroke-width:0.25;" x1="4" x2="620.5" y1="130.8105" y2="130.8105"/><line style="stroke:#181818;stroke-width:0.25;" x1="4" x2="620.5" y1="134.8105" y2="134.8105"/><text fill="#000000" font-family="sans-serif" font-size="7" lengthAdjust="spacing" textLength="70.5" x="6.5" y="144.3643">+IrrigationRepository()</text><text fill="#000000" font-family="sans-serif" font-size="7" lengthAdjust="spacing" textLength="102.5" x="6.5" y="153.6748">+getIrrigations() : List&lt;Irrigation&gt;</text><text fill="#000000" font-family="sans-serif" font-size="7" lengthAdjust="spacing" textLength="611.5" x="6.5" y="162.9854">+irrigationRegister(irrigationId : Integer, fieldbookId : Integer, operationDate : LocalDate, sectorDesignation : String, durationInMinutes : Integer, startTime : LocalTime, endTime : LocalTime) : void</text><text fill="#000000" font-family="sans-serif" font-size="7" lengthAdjust="spacing" textLength="173.5" x="6.5" y="172.2959">+resultSetToList(resultSet : ResultSet) : List&lt;Irrigation&gt;</text></g><!--class Irrigation--><g id="elem_Irrigation"><rect codeLine="28" fill="#F1F1F1" height="89.1738" id="Irrigation" rx="1.25" ry="1.25" style="stroke:#181818;stroke-width:0.25;" width="92.5" x="680.5" y="306.8105"/><ellipse cx="710.875" cy="314.8105" fill="#ADD1B2" rx="5.5" ry="5.5" style="stroke:#181818;stroke-width:0.5;"/><path d="M712.2578,312.748 Q712.3359,312.6387 712.4297,312.584 Q712.5234,312.5293 712.6328,312.5293 Q712.8203,312.5293 712.9375,312.6621 Q713.0547,312.7871 713.0547,313.0918 L713.0547,313.8184 Q713.0547,314.123 712.9375,314.2559 Q712.8203,314.3887 712.6328,314.3887 Q712.4609,314.3887 712.3594,314.2871 Q712.2578,314.1934 712.2031,313.9355 Q712.1797,313.7559 712.0859,313.6621 Q711.9219,313.4746 711.6172,313.3652 Q711.3125,313.2559 711,313.2559 Q710.6172,313.2559 710.2969,313.4199 Q709.9844,313.584 709.7344,313.959 Q709.4922,314.334 709.4922,314.8496 L709.4922,315.3965 Q709.4922,316.0137 709.9375,316.4277 Q710.3828,316.834 711.1797,316.834 Q711.6484,316.834 711.9766,316.709 Q712.1719,316.6309 712.3828,316.4121 Q712.5156,316.2793 712.5859,316.2402 Q712.6641,316.2012 712.7656,316.2012 Q712.9297,316.2012 713.0547,316.334 Q713.1875,316.459 713.1875,316.6309 Q713.1875,316.8027 713.0156,317.0059 Q712.7656,317.2949 712.3672,317.459 Q711.8281,317.6855 711.1797,317.6855 Q710.4219,317.6855 709.8203,317.373 Q709.3281,317.123 708.9844,316.5918 Q708.6406,316.0527 708.6406,315.4121 L708.6406,314.834 Q708.6406,314.1699 708.9453,313.5996 Q709.2578,313.0215 709.8047,312.7168 Q710.3516,312.4043 710.9688,312.4043 Q711.3359,312.4043 711.6563,312.4902 Q711.9844,312.5684 712.2578,312.748 Z " fill="#000000"/><text fill="#000000" font-family="sans-serif" font-size="7" lengthAdjust="spacing" textLength="27.5" x="721.125" y="317.709">Irrigation</text><line style="stroke:#181818;stroke-width:0.25;" x1="681" x2="772.5" y1="322.8105" y2="322.8105"/><text fill="#000000" font-family="sans-serif" font-size="7" lengthAdjust="spacing" textLength="36" x="683.5" y="332.3643">-id : Integer</text><text fill="#000000" font-family="sans-serif" font-size="7" lengthAdjust="spacing" textLength="48.5" x="683.5" y="341.6748">-sector : Sector</text><text fill="#000000" font-family="sans-serif" font-size="7" lengthAdjust="spacing" textLength="85.5" x="683.5" y="350.9854">-operationDate : LocalDate</text><text fill="#000000" font-family="sans-serif" font-size="7" lengthAdjust="spacing" textLength="86.5" x="683.5" y="360.2959">-durationInMinutes : Integer</text><text fill="#000000" font-family="sans-serif" font-size="7" lengthAdjust="spacing" textLength="70.5" x="683.5" y="369.6064">-startTime : LocalTime</text><text fill="#000000" font-family="sans-serif" font-size="7" lengthAdjust="spacing" textLength="68.5" x="683.5" y="378.917">-endTime : LocalTime</text><text fill="#000000" font-family="sans-serif" font-size="7" lengthAdjust="spacing" textLength="56.5" x="683.5" y="388.2275">-regularity : String</text><line style="stroke:#181818;stroke-width:0.25;" x1="681" x2="772.5" y1="391.9844" y2="391.9844"/></g><!--class Fieldbook--><g id="elem_Fieldbook"><rect codeLine="38" fill="#F1F1F1" height="42.6211" id="Fieldbook" rx="1.25" ry="1.25" style="stroke:#181818;stroke-width:0.25;" width="459" x="418.25" y="435.3105"/><ellipse cx="630.125" cy="443.3105" fill="#ADD1B2" rx="5.5" ry="5.5" style="stroke:#181818;stroke-width:0.5;"/><path d="M631.5078,441.248 Q631.5859,441.1387 631.6797,441.084 Q631.7734,441.0293 631.8828,441.0293 Q632.0703,441.0293 632.1875,441.1621 Q632.3047,441.2871 632.3047,441.5918 L632.3047,442.3184 Q632.3047,442.623 632.1875,442.7559 Q632.0703,442.8887 631.8828,442.8887 Q631.7109,442.8887 631.6094,442.7871 Q631.5078,442.6934 631.4531,442.4355 Q631.4297,442.2559 631.3359,442.1621 Q631.1719,441.9746 630.8672,441.8652 Q630.5625,441.7559 630.25,441.7559 Q629.8672,441.7559 629.5469,441.9199 Q629.2344,442.084 628.9844,442.459 Q628.7422,442.834 628.7422,443.3496 L628.7422,443.8965 Q628.7422,444.5137 629.1875,444.9277 Q629.6328,445.334 630.4297,445.334 Q630.8984,445.334 631.2266,445.209 Q631.4219,445.1309 631.6328,444.9121 Q631.7656,444.7793 631.8359,444.7402 Q631.9141,444.7012 632.0156,444.7012 Q632.1797,444.7012 632.3047,444.834 Q632.4375,444.959 632.4375,445.1309 Q632.4375,445.3027 632.2656,445.5059 Q632.0156,445.7949 631.6172,445.959 Q631.0781,446.1855 630.4297,446.1855 Q629.6719,446.1855 629.0703,445.873 Q628.5781,445.623 628.2344,445.0918 Q627.8906,444.5527 627.8906,443.9121 L627.8906,443.334 Q627.8906,442.6699 628.1953,442.0996 Q628.5078,441.5215 629.0547,441.2168 Q629.6016,440.9043 630.2188,440.9043 Q630.5859,440.9043 630.9063,440.9902 Q631.2344,441.0684 631.5078,441.248 Z " fill="#000000"/><text fill="#000000" font-family="sans-serif" font-size="7" lengthAdjust="spacing" textLength="31" x="640.375" y="446.209">Fieldbook</text><line style="stroke:#181818;stroke-width:0.25;" x1="418.75" x2="876.75" y1="451.3105" y2="451.3105"/><line style="stroke:#181818;stroke-width:0.25;" x1="418.75" x2="876.75" y1="455.3105" y2="455.3105"/><text fill="#000000" font-family="sans-serif" font-size="7" lengthAdjust="spacing" text-decoration="underline" textLength="152.5" x="421.25" y="464.8643">+writeInFieldbook(irrigation : Irrigation) : boolean</text><text fill="#000000" font-family="sans-serif" font-size="7" lengthAdjust="spacing" text-decoration="underline" textLength="453" x="421.25" y="474.1748">+registerInFieldbook(irrigationRepository: IrrigationRepository, irrigationSystem : IrrigationSystem, plotId : Integer, irrigation : Irrigation) : boolean</text></g><!--class IrrigationSystem--><g id="elem_IrrigationSystem"><rect codeLine="43" fill="#F1F1F1" height="51.9316" id="IrrigationSystem" rx="1.25" ry="1.25" style="stroke:#181818;stroke-width:0.25;" width="117" x="674.25" y="119.3105"/><ellipse cx="705.375" cy="127.3105" fill="#ADD1B2" rx="5.5" ry="5.5" style="stroke:#181818;stroke-width:0.5;"/><path d="M706.7578,125.248 Q706.8359,125.1387 706.9297,125.084 Q707.0234,125.0293 707.1328,125.0293 Q707.3203,125.0293 707.4375,125.1621 Q707.5547,125.2871 707.5547,125.5918 L707.5547,126.3184 Q707.5547,126.623 707.4375,126.7559 Q707.3203,126.8887 707.1328,126.8887 Q706.9609,126.8887 706.8594,126.7871 Q706.7578,126.6934 706.7031,126.4355 Q706.6797,126.2559 706.5859,126.1621 Q706.4219,125.9746 706.1172,125.8652 Q705.8125,125.7559 705.5,125.7559 Q705.1172,125.7559 704.7969,125.9199 Q704.4844,126.084 704.2344,126.459 Q703.9922,126.834 703.9922,127.3496 L703.9922,127.8965 Q703.9922,128.5137 704.4375,128.9277 Q704.8828,129.334 705.6797,129.334 Q706.1484,129.334 706.4766,129.209 Q706.6719,129.1309 706.8828,128.9121 Q707.0156,128.7793 707.0859,128.7402 Q707.1641,128.7012 707.2656,128.7012 Q707.4297,128.7012 707.5547,128.834 Q707.6875,128.959 707.6875,129.1309 Q707.6875,129.3027 707.5156,129.5059 Q707.2656,129.7949 706.8672,129.959 Q706.3281,130.1855 705.6797,130.1855 Q704.9219,130.1855 704.3203,129.873 Q703.8281,129.623 703.4844,129.0918 Q703.1406,128.5527 703.1406,127.9121 L703.1406,127.334 Q703.1406,126.6699 703.4453,126.0996 Q703.7578,125.5215 704.3047,125.2168 Q704.8516,124.9043 705.4688,124.9043 Q705.8359,124.9043 706.1563,124.9902 Q706.4844,125.0684 706.7578,125.248 Z " fill="#000000"/><text fill="#000000" font-family="sans-serif" font-size="7" lengthAdjust="spacing" textLength="50.5" x="715.625" y="130.209">IrrigationSystem</text><line style="stroke:#181818;stroke-width:0.25;" x1="674.75" x2="790.75" y1="135.3105" y2="135.3105"/><text fill="#000000" font-family="sans-serif" font-size="7" lengthAdjust="spacing" textLength="91.5" x="677.25" y="144.8643">-irrigationPlan : IrrigationPlan</text><line style="stroke:#181818;stroke-width:0.25;" x1="674.75" x2="790.75" y1="148.6211" y2="148.6211"/><text fill="#000000" font-family="sans-serif" font-size="7" lengthAdjust="spacing" textLength="91.5" x="677.25" y="158.1748">+endOfOperation() : boolean</text><text fill="#000000" font-family="sans-serif" font-size="7" lengthAdjust="spacing" textLength="111" x="677.25" y="167.4854">+getFinishedOperation() : Irrigation</text></g><!--class IrrigationPlan--><g id="elem_IrrigationPlan"><rect codeLine="49" fill="#F1F1F1" height="51.9316" id="IrrigationPlan" rx="1.25" ry="1.25" style="stroke:#181818;stroke-width:0.25;" width="188" x="769.75" y="215.3105"/><ellipse cx="840.875" cy="223.3105" fill="#ADD1B2" rx="5.5" ry="5.5" style="stroke:#181818;stroke-width:0.5;"/><path d="M842.2578,221.248 Q842.3359,221.1387 842.4297,221.084 Q842.5234,221.0293 842.6328,221.0293 Q842.8203,221.0293 842.9375,221.1621 Q843.0547,221.2871 843.0547,221.5918 L843.0547,222.3184 Q843.0547,222.623 842.9375,222.7559 Q842.8203,222.8887 842.6328,222.8887 Q842.4609,222.8887 842.3594,222.7871 Q842.2578,222.6934 842.2031,222.4355 Q842.1797,222.2559 842.0859,222.1621 Q841.9219,221.9746 841.6172,221.8652 Q841.3125,221.7559 841,221.7559 Q840.6172,221.7559 840.2969,221.9199 Q839.9844,222.084 839.7344,222.459 Q839.4922,222.834 839.4922,223.3496 L839.4922,223.8965 Q839.4922,224.5137 839.9375,224.9277 Q840.3828,225.334 841.1797,225.334 Q841.6484,225.334 841.9766,225.209 Q842.1719,225.1309 842.3828,224.9121 Q842.5156,224.7793 842.5859,224.7402 Q842.6641,224.7012 842.7656,224.7012 Q842.9297,224.7012 843.0547,224.834 Q843.1875,224.959 843.1875,225.1309 Q843.1875,225.3027 843.0156,225.5059 Q842.7656,225.7949 842.3672,225.959 Q841.8281,226.1855 841.1797,226.1855 Q840.4219,226.1855 839.8203,225.873 Q839.3281,225.623 838.9844,225.0918 Q838.6406,224.5527 838.6406,223.9121 L838.6406,223.334 Q838.6406,222.6699 838.9453,222.0996 Q839.2578,221.5215 839.8047,221.2168 Q840.3516,220.9043 840.9688,220.9043 Q841.3359,220.9043 841.6563,220.9902 Q841.9844,221.0684 842.2578,221.248 Z " fill="#000000"/><text fill="#000000" font-family="sans-serif" font-size="7" lengthAdjust="spacing" textLength="41.5" x="851.125" y="226.209">IrrigationPlan</text><line style="stroke:#181818;stroke-width:0.25;" x1="770.25" x2="957.25" y1="231.3105" y2="231.3105"/><text fill="#000000" font-family="sans-serif" font-size="7" lengthAdjust="spacing" text-decoration="underline" textLength="81" x="772.75" y="240.8643">-creationDate : LocalDate</text><text fill="#000000" font-family="sans-serif" font-size="7" lengthAdjust="spacing" text-decoration="underline" textLength="63.5" x="772.75" y="250.1748">-numberOfDays : int</text><text fill="#000000" font-family="sans-serif" font-size="7" lengthAdjust="spacing" textLength="182" x="772.75" y="259.4854">-irrigationsPerDay : Map&lt;LocalDate, IrrigationPlanOfDay&gt;</text><line style="stroke:#181818;stroke-width:0.25;" x1="770.25" x2="957.25" y1="263.2422" y2="263.2422"/></g><!--class IrrigationPlanOfDay--><g id="elem_IrrigationPlanOfDay"><rect codeLine="55" fill="#F1F1F1" height="70.5527" id="IrrigationPlanOfDay" rx="1.25" ry="1.25" style="stroke:#181818;stroke-width:0.25;" width="166.5" x="790.5" y="316.0605"/><ellipse cx="840.875" cy="324.0605" fill="#ADD1B2" rx="5.5" ry="5.5" style="stroke:#181818;stroke-width:0.5;"/><path d="M842.2578,321.998 Q842.3359,321.8887 842.4297,321.834 Q842.5234,321.7793 842.6328,321.7793 Q842.8203,321.7793 842.9375,321.9121 Q843.0547,322.0371 843.0547,322.3418 L843.0547,323.0684 Q843.0547,323.373 842.9375,323.5059 Q842.8203,323.6387 842.6328,323.6387 Q842.4609,323.6387 842.3594,323.5371 Q842.2578,323.4434 842.2031,323.1855 Q842.1797,323.0059 842.0859,322.9121 Q841.9219,322.7246 841.6172,322.6152 Q841.3125,322.5059 841,322.5059 Q840.6172,322.5059 840.2969,322.6699 Q839.9844,322.834 839.7344,323.209 Q839.4922,323.584 839.4922,324.0996 L839.4922,324.6465 Q839.4922,325.2637 839.9375,325.6777 Q840.3828,326.084 841.1797,326.084 Q841.6484,326.084 841.9766,325.959 Q842.1719,325.8809 842.3828,325.6621 Q842.5156,325.5293 842.5859,325.4902 Q842.6641,325.4512 842.7656,325.4512 Q842.9297,325.4512 843.0547,325.584 Q843.1875,325.709 843.1875,325.8809 Q843.1875,326.0527 843.0156,326.2559 Q842.7656,326.5449 842.3672,326.709 Q841.8281,326.9355 841.1797,326.9355 Q840.4219,326.9355 839.8203,326.623 Q839.3281,326.373 838.9844,325.8418 Q838.6406,325.3027 838.6406,324.6621 L838.6406,324.084 Q838.6406,323.4199 838.9453,322.8496 Q839.2578,322.2715 839.8047,321.9668 Q840.3516,321.6543 840.9688,321.6543 Q841.3359,321.6543 841.6563,321.7402 Q841.9844,321.8184 842.2578,321.998 Z " fill="#000000"/><text fill="#000000" font-family="sans-serif" font-size="7" lengthAdjust="spacing" textLength="61.5" x="851.125" y="326.959">IrrigationPlanOfDay</text><line style="stroke:#181818;stroke-width:0.25;" x1="791" x2="956.5" y1="332.0605" y2="332.0605"/><text fill="#000000" font-family="sans-serif" font-size="7" lengthAdjust="spacing" textLength="97.5" x="793.5" y="341.6143">-cycleBegins : List&lt;LocalTime&gt;</text><text fill="#000000" font-family="sans-serif" font-size="7" lengthAdjust="spacing" textLength="92" x="793.5" y="350.9248">-cycleEnds : List&lt;LocalTime&gt;</text><text fill="#000000" font-family="sans-serif" font-size="7" lengthAdjust="spacing" textLength="93.5" x="793.5" y="360.2354">-irrigationList : List&lt;Irrigation&gt;</text><line style="stroke:#181818;stroke-width:0.25;" x1="791" x2="956.5" y1="363.9922" y2="363.9922"/><text fill="#000000" font-family="sans-serif" font-size="7" lengthAdjust="spacing" textLength="160.5" x="793.5" y="373.5459">+addCycleBegin(cycleBegin : LocalTime) : boolean</text><text fill="#000000" font-family="sans-serif" font-size="7" lengthAdjust="spacing" textLength="149.5" x="793.5" y="382.8564">+addCycleEnd(cycleEnd : LocalTime) : boolean</text></g><!--class Sector--><g id="elem_Sector"><rect fill="#F1F1F1" height="24" id="Sector" rx="1.25" ry="1.25" style="stroke:#181818;stroke-width:0.25;" width="36.5" x="895" y="444.5605"/><ellipse cx="902.5" cy="452.5605" fill="#ADD1B2" rx="5.5" ry="5.5" style="stroke:#181818;stroke-width:0.5;"/><path d="M903.8828,450.498 Q903.9609,450.3887 904.0547,450.334 Q904.1484,450.2793 904.2578,450.2793 Q904.4453,450.2793 904.5625,450.4121 Q904.6797,450.5371 904.6797,450.8418 L904.6797,451.5684 Q904.6797,451.873 904.5625,452.0059 Q904.4453,452.1387 904.2578,452.1387 Q904.0859,452.1387 903.9844,452.0371 Q903.8828,451.9434 903.8281,451.6855 Q903.8047,451.5059 903.7109,451.4121 Q903.5469,451.2246 903.2422,451.1152 Q902.9375,451.0059 902.625,451.0059 Q902.2422,451.0059 901.9219,451.1699 Q901.6094,451.334 901.3594,451.709 Q901.1172,452.084 901.1172,452.5996 L901.1172,453.1465 Q901.1172,453.7637 901.5625,454.1777 Q902.0078,454.584 902.8047,454.584 Q903.2734,454.584 903.6016,454.459 Q903.7969,454.3809 904.0078,454.1621 Q904.1406,454.0293 904.2109,453.9902 Q904.2891,453.9512 904.3906,453.9512 Q904.5547,453.9512 904.6797,454.084 Q904.8125,454.209 904.8125,454.3809 Q904.8125,454.5527 904.6406,454.7559 Q904.3906,455.0449 903.9922,455.209 Q903.4531,455.4355 902.8047,455.4355 Q902.0469,455.4355 901.4453,455.123 Q900.9531,454.873 900.6094,454.3418 Q900.2656,453.8027 900.2656,453.1621 L900.2656,452.584 Q900.2656,451.9199 900.5703,451.3496 Q900.8828,450.7715 901.4297,450.4668 Q901.9766,450.1543 902.5938,450.1543 Q902.9609,450.1543 903.2813,450.2402 Q903.6094,450.3184 903.8828,450.498 Z " fill="#000000"/><text fill="#000000" font-family="sans-serif" font-size="7" lengthAdjust="spacing" textLength="20.5" x="909.5" y="455.459">Sector</text><line style="stroke:#181818;stroke-width:0.25;" x1="895.5" x2="931" y1="460.5605" y2="460.5605"/><line style="stroke:#181818;stroke-width:0.25;" x1="895.5" x2="931" y1="464.5605" y2="464.5605"/></g><!--link WriteInFieldbookUI to WriteInFieldbookController--><g id="link_WriteInFieldbookUI_WriteInFieldbookController"><path codeLine="63" d="M550.765,49.3105 C555.82,49.3105 559.15,49.3105 565.4,49.3105 " fill="none" id="WriteInFieldbookUI-to-WriteInFieldbookController" style="stroke:#181818;stroke-width:0.5;"/><polygon fill="#181818" points="568.4,49.3105,563.9,47.3105,565.9,49.3105,563.9,51.3105,568.4,49.3105" style="stroke:#181818;stroke-width:0.5;"/></g><!--link WriteInFieldbookController to IrrigationRepository--><g id="link_WriteInFieldbookController_IrrigationRepository"><path codeLine="64" d="M575.69,70.5755 C565.96,73.3755 559.25,75.3105 559.25,75.3105 C559.25,75.3105 488.6629,95.1731 421.8579,113.9681 " fill="none" id="WriteInFieldbookController-to-IrrigationRepository" style="stroke:#181818;stroke-width:0.5;"/><polygon fill="#181818" points="418.97,114.7805,423.8435,115.4871,421.3766,114.1035,422.7602,111.6366,418.97,114.7805" style="stroke:#181818;stroke-width:0.5;"/><polygon fill="#000000" points="506.3439,95.812,511.0955,95.9985,510.2976,93.1699,506.3439,95.812" style="stroke:#000000;stroke-width:0.5;"/><text fill="#000000" font-family="sans-serif" font-size="6.5" lengthAdjust="spacing" textLength="32" x="513.25" y="97.8247">registers in</text></g><!--link WriteInFieldbookController to Fieldbook--><g id="link_WriteInFieldbookController_Fieldbook"><path codeLine="65" d="M647.75,70.6605 C647.75,98.6255 647.75,144.8105 647.75,144.8105 C647.75,144.8105 647.75,144.8105 647.75,351.8105 C647.75,351.8105 647.75,401.7905 647.75,432.2155 " fill="none" id="WriteInFieldbookController-to-Fieldbook" style="stroke:#181818;stroke-width:0.5;"/><polygon fill="#181818" points="647.75,435.2155,649.75,430.7155,647.75,432.7155,645.75,430.7155,647.75,435.2155" style="stroke:#181818;stroke-width:0.5;"/><polygon fill="#000000" points="650.25,243.8833,651.7195,239.3608,648.7805,239.3608,650.25,243.8833" style="stroke:#000000;stroke-width:0.5;"/><text fill="#000000" font-family="sans-serif" font-size="6.5" lengthAdjust="spacing" textLength="24" x="654.75" y="244.0747">writes in</text></g><!--link WriteInFieldbookController to IrrigationSystem--><g id="link_WriteInFieldbookController_IrrigationSystem"><path codeLine="66" d="M666.405,70.6605 C679.205,84.9705 694.2798,101.8147 707.8998,117.0397 " fill="none" id="WriteInFieldbookController-to-IrrigationSystem" style="stroke:#181818;stroke-width:0.5;"/><polygon fill="#181818" points="709.9,119.2755,708.3903,114.5882,708.2332,117.4123,705.4091,117.2552,709.9,119.2755" style="stroke:#181818;stroke-width:0.5;"/><polygon fill="#000000" points="694.4169,96.9964,692.4966,92.6462,690.3063,94.6058,694.4169,96.9964" style="stroke:#000000;stroke-width:0.5;"/><text fill="#000000" font-family="sans-serif" font-size="6.5" lengthAdjust="spacing" textLength="14" x="697.25" y="97.8247">uses</text></g><!--link IrrigationSystem to IrrigationPlan--><g id="link_IrrigationSystem_IrrigationPlan"><path codeLine="67" d="M768.03,171.3955 C786.745,184.9655 807.2512,199.8396 825.9812,213.4196 " fill="none" id="IrrigationSystem-to-IrrigationPlan" style="stroke:#181818;stroke-width:0.5;stroke-dasharray:7.0,7.0;"/><polygon fill="#181818" points="828.41,215.1805,825.9408,210.9199,826.386,213.7131,823.5928,214.1583,828.41,215.1805" style="stroke:#181818;stroke-width:0.5;"/><polygon fill="#000000" points="810.7739,197.1009,807.9753,193.2564,806.25,195.6356,810.7739,197.1009" style="stroke:#000000;stroke-width:0.5;"/><text fill="#000000" font-family="sans-serif" font-size="6.5" lengthAdjust="spacing" textLength="21.5" x="813.25" y="198.3247">creates</text></g><!--link IrrigationPlan to IrrigationPlanOfDay--><g id="link_IrrigationPlan_IrrigationPlanOfDay"><path codeLine="68" d="M866.095,267.3655 C867.42,281.8405 868.8255,297.1581 870.2755,312.9381 " fill="none" id="IrrigationPlan-to-IrrigationPlanOfDay" style="stroke:#181818;stroke-width:0.5;stroke-dasharray:7.0,7.0;"/><polygon fill="#181818" points="870.55,315.9255,872.1298,311.2614,870.3212,313.436,868.1466,311.6274,870.55,315.9255" style="stroke:#181818;stroke-width:0.5;"/><polygon fill="#000000" points="870.9784,289.6228,872.0286,284.985,869.1019,285.2534,870.9784,289.6228" style="stroke:#000000;stroke-width:0.5;"/><text fill="#000000" font-family="sans-serif" font-size="6.5" lengthAdjust="spacing" textLength="31.5" x="875.25" y="289.8247">consists of</text></g><!--link IrrigationSystem to Irrigation--><g id="link_IrrigationSystem_Irrigation"><path codeLine="69" d="M732,171.3605 C731.01,205.2205 729.3325,262.4918 728.1275,303.7668 " fill="none" id="IrrigationSystem-to-Irrigation" style="stroke:#181818;stroke-width:0.5;stroke-dasharray:7.0,7.0;"/><polygon fill="#181818" points="728.04,306.7655,730.1705,302.3258,728.113,304.2666,726.1722,302.2091,728.04,306.7655" style="stroke:#181818;stroke-width:0.5;"/><polygon fill="#000000" points="733.1769,243.8822,734.778,239.4046,731.8403,239.3187,733.1769,243.8822" style="stroke:#000000;stroke-width:0.5;"/><text fill="#000000" font-family="sans-serif" font-size="6.5" lengthAdjust="spacing" textLength="18" x="737.75" y="244.0747">gets a</text></g><!--link IrrigationPlan to Irrigation--><g id="link_IrrigationPlan_Irrigation"><path codeLine="70" d="M831.575,267.3155 C808.605,285.5255 781.75,306.8105 781.75,306.8105 C781.75,306.8105 780.6583,307.6873 775.4983,311.8123 " fill="none" id="IrrigationPlan-to-Irrigation" style="stroke:#181818;stroke-width:0.5;stroke-dasharray:7.0,7.0;"/><polygon fill="#181818" points="773.155,313.6855,777.9187,312.4378,775.1077,312.1245,775.4211,309.3135,773.155,313.6855" style="stroke:#181818;stroke-width:0.5;"/><polygon fill="#000000" points="811.2916,288.6873,815.7477,287.0272,813.921,284.725,811.2916,288.6873" style="stroke:#000000;stroke-width:0.5;"/><text fill="#000000" font-family="sans-serif" font-size="6.5" lengthAdjust="spacing" textLength="5" x="817.75" y="289.8247">of</text></g><!--link Irrigation to Fieldbook--><g id="link_Irrigation_Fieldbook"><path codeLine="71" d="M693.36,395.8705 C683,409.5405 673.8822,421.5797 665.3172,432.8797 " fill="none" id="Irrigation-to-Fieldbook" style="stroke:#181818;stroke-width:0.5;stroke-dasharray:7.0,7.0;"/><polygon fill="#181818" points="663.505,435.2705,667.8171,432.8924,665.0151,433.2782,664.6294,430.4762,663.505,435.2705" style="stroke:#181818;stroke-width:0.5;"/><polygon fill="#000000" points="681.2402,417.6259,685.1427,414.9087,682.8003,413.1338,681.2402,417.6259" style="stroke:#000000;stroke-width:0.5;"/><text fill="#000000" font-family="sans-serif" font-size="6.5" lengthAdjust="spacing" textLength="26" x="687.25" y="418.3247">written in</text></g><!--link Irrigation to Sector--><g id="link_Irrigation_Sector"><path codeLine="72" d="M773.155,388.9355 C778.315,393.0605 781.75,395.8105 781.75,395.8105 C781.75,395.8105 885.75,435.3105 885.75,435.3105 C885.75,435.3105 889.2003,437.9136 895.4953,442.6636 " fill="none" id="Irrigation-to-Sector" style="stroke:#181818;stroke-width:0.5;stroke-dasharray:7.0,7.0;"/><polygon fill="#181818" points="897.89,444.4705,895.5026,440.1636,895.8944,442.9647,893.0932,443.3566,897.89,444.4705" style="stroke:#181818;stroke-width:0.5;"/><polygon fill="#000000" points="851.039,416.6386,847.489,413.4746,846.3073,416.1655,851.039,416.6386" style="stroke:#000000;stroke-width:0.5;"/><text fill="#000000" font-family="sans-serif" font-size="6.5" lengthAdjust="spacing" textLength="10.5" x="853.25" y="418.3247">of a</text></g><!--SRC=[hLLDQ-Cm4BtxL-YOKgTihw4OTfCj65eIwfOzg_R45L4a8ybRlAN_VKUsB7_4JWgxFicQDsy-z4RI1oOAgkYH53Gzq1mIKt4W2b93HSuXq1wWtsWctvd8oPvotRTm9i1K1P12yih-13rZogdMturHxBKq4ATI9EmFa6z1O9Z1K2_9m-xsbYp9sWB9Xj4StOAWzYE_54CdSS-0PwzI7bvYyX4G_9O4cOoId8CYgnFSsXjhzFK4qUBAcLGf5bV8yLkoBFYSYzmnkWokoVi8ic1AiPmQ9WNInVx7agET0nNECmTppmJJRv1j2r0rgiwXS-eowVQUe92Q6QagdyEKqLU6OJgxhWCyC6tkkit88LcF9aS8g5unSMOp4mPoK27Pj-KEjsLRnuOQi85aIhbTXqIZcgJQW6QvQBkJe2147fAiRBnYySW42aJtERMXoZope-Upwv20oCQR_lpSaO8kkKd0F4jRyCB_8-ofNK-sOwBhNd6iLx3RQagpzTGBjplR2sS_KtJBErMviqsKxomAyf9JL6NbEzmLv6NgjVE1KGnBF_z1o9v2ETbCitJQN4qgDkm9CAcGvpY8sso5fE3I35NtXKGdJjI5yEVg3JjEXqHsmvMART_kXzFwNuQwZjcculkPAZYd88yJvV4Lr7Q_ePLL4HFcf2Yz0uLcj3xIugutbyCSQeveBiFQsjszLShX1nwvqEqGUIr6VSnFaSqZkXIjVVvoebcszW4NNUpn1J0yZjOBKrYqkSnvOD4JByqoElUkd7aWbkWvUMkl_9neF2eINIBfPdRL3EdNtEBJOIer-aR1YULc07VwhyKtmjUcKtIZYvLzZJKMfedSNmw3U1mMJUYb20WSyTM0SLiCYAOl8rpItiv8OcFz1G00]--></g></svg>