<?xml version="1.0" encoding="us-ascii" standalone="no"?><svg xmlns="http://www.w3.org/2000/svg" xmlns:xlink="http://www.w3.org/1999/xlink" contentStyleType="text/css" height="580px" preserveAspectRatio="none" style="width:1081px;height:580px;background:#FFFFFF;" version="1.1" viewBox="0 0 1081 580" width="1081px" zoomAndPan="magnify"><defs/><g><text fill="#000000" font-family="sans-serif" font-size="14" font-weight="bold" lengthAdjust="spacing" textLength="293" x="395.5" y="30.1074">USLP11 - System Sequence Diagram (SSD)</text><rect fill="#FFFFFF" height="354.25" style="stroke:#181818;stroke-width:1.0;" width="10" x="75" y="133.2422"/><rect fill="#FFFFFF" height="354.25" style="stroke:#181818;stroke-width:1.0;" width="10" x="484" y="133.2422"/><rect fill="none" height="295.959" style="stroke:#000000;stroke-width:1.5;" width="1065" x="10" y="184.5332"/><rect fill="none" height="155.7949" style="stroke:#000000;stroke-width:1.5;" width="830" x="20" y="317.6973"/><line style="stroke:#181818;stroke-width:0.5;stroke-dasharray:5.0,5.0;" x1="80" x2="80" y1="123.2422" y2="497.4922"/><line style="stroke:#181818;stroke-width:0.5;stroke-dasharray:5.0,5.0;" x1="489" x2="489" y1="123.2422" y2="497.4922"/><text fill="#000000" font-family="sans-serif" font-size="14" lengthAdjust="spacing" textLength="94" x="30" y="119.7285">Product Owner</text><ellipse cx="80" cy="53.1211" fill="#E3E3E3" rx="8" ry="8" style="stroke:#181818;stroke-width:0.5;"/><path d="M80,61.1211 L80,88.1211 M67,69.1211 L93,69.1211 M80,88.1211 L67,103.1211 M80,88.1211 L93,103.1211 " fill="none" style="stroke:#181818;stroke-width:0.5;"/><text fill="#000000" font-family="sans-serif" font-size="14" lengthAdjust="spacing" textLength="94" x="30" y="511.5996">Product Owner</text><ellipse cx="80" cy="523.6133" fill="#E3E3E3" rx="8" ry="8" style="stroke:#181818;stroke-width:0.5;"/><path d="M80,531.6133 L80,558.6133 M67,539.6133 L93,539.6133 M80,558.6133 L67,573.6133 M80,558.6133 L93,573.6133 " fill="none" style="stroke:#181818;stroke-width:0.5;"/><rect fill="#E3E3E3" height="32.6211" rx="2.5" ry="2.5" style="stroke:#181818;stroke-width:0.5;" width="64" x="457" y="89.6211"/><text fill="#000000" font-family="sans-serif" font-size="14" lengthAdjust="spacing" textLength="50" x="464" y="111.7285">:System</text><rect fill="#E3E3E3" height="32.6211" rx="2.5" ry="2.5" style="stroke:#181818;stroke-width:0.5;" width="64" x="457" y="496.4922"/><text fill="#000000" font-family="sans-serif" font-size="14" lengthAdjust="spacing" textLength="50" x="464" y="518.5996">:System</text><rect fill="#FFFFFF" height="354.25" style="stroke:#181818;stroke-width:1.0;" width="10" x="75" y="133.2422"/><rect fill="#FFFFFF" height="354.25" style="stroke:#181818;stroke-width:1.0;" width="10" x="484" y="133.2422"/><line style="stroke:#181818;stroke-width:1.0;" x1="494" x2="536" y1="156.5332" y2="156.5332"/><line style="stroke:#181818;stroke-width:1.0;" x1="536" x2="536" y1="156.5332" y2="169.5332"/><line style="stroke:#181818;stroke-width:1.0;" x1="495" x2="536" y1="169.5332" y2="169.5332"/><polygon fill="#181818" points="505,165.5332,495,169.5332,505,173.5332,501,169.5332" style="stroke:#181818;stroke-width:1.0;"/><text fill="#000000" font-family="sans-serif" font-size="13" font-weight="bold" lengthAdjust="spacing" textLength="7" x="501" y="151.2705">1</text><text fill="#000000" font-family="sans-serif" font-size="13" lengthAdjust="spacing" textLength="227" x="512" y="151.2705">gets a list with the irrigations end times</text><path d="M10,184.5332 L83,184.5332 L83,193.8242 L73,203.8242 L10,203.8242 L10,184.5332 " fill="#EEEEEE" style="stroke:#000000;stroke-width:1.5;"/><rect fill="none" height="295.959" style="stroke:#000000;stroke-width:1.5;" width="1065" x="10" y="184.5332"/><text fill="#000000" font-family="sans-serif" font-size="13" font-weight="bold" lengthAdjust="spacing" textLength="28" x="25" y="199.5615">loop</text><text fill="#000000" font-family="sans-serif" font-size="11" font-weight="bold" lengthAdjust="spacing" textLength="144" x="98" y="198.4033">[for each end of irrigation]</text><polygon fill="#181818" points="96,223.1152,86,227.1152,96,231.1152,92,227.1152" style="stroke:#181818;stroke-width:1.0;"/><line style="stroke:#181818;stroke-width:1.0;stroke-dasharray:2.0,2.0;" x1="90" x2="483" y1="227.1152" y2="227.1152"/><text fill="#000000" font-family="sans-serif" font-size="13" font-weight="bold" lengthAdjust="spacing" textLength="7" x="102" y="221.8525">2</text><text fill="#000000" font-family="sans-serif" font-size="13" lengthAdjust="spacing" textLength="306" x="113" y="221.8525">shows that an irrigation ended and its specific details</text><line style="stroke:#181818;stroke-width:1.0;" x1="494" x2="536" y1="258.4063" y2="258.4063"/><line style="stroke:#181818;stroke-width:1.0;" x1="536" x2="536" y1="258.4063" y2="271.4063"/><line style="stroke:#181818;stroke-width:1.0;" x1="495" x2="536" y1="271.4063" y2="271.4063"/><polygon fill="#181818" points="505,267.4063,495,271.4063,505,275.4063,501,271.4063" style="stroke:#181818;stroke-width:1.0;"/><text fill="#000000" font-family="sans-serif" font-size="13" font-weight="bold" lengthAdjust="spacing" textLength="7" x="501" y="253.1436">3</text><text fill="#000000" font-family="sans-serif" font-size="13" lengthAdjust="spacing" textLength="551" x="512" y="253.1436">registers all irrigations since the last one registered in the fieldbook (in both DBMS and .csv file)</text><polygon fill="#181818" points="96,298.6973,86,302.6973,96,306.6973,92,302.6973" style="stroke:#181818;stroke-width:1.0;"/><line style="stroke:#181818;stroke-width:1.0;stroke-dasharray:2.0,2.0;" x1="90" x2="483" y1="302.6973" y2="302.6973"/><text fill="#000000" font-family="sans-serif" font-size="13" font-weight="bold" lengthAdjust="spacing" textLength="7" x="102" y="297.4346">4</text><text fill="#000000" font-family="sans-serif" font-size="13" lengthAdjust="spacing" textLength="278" x="113" y="297.4346">shows if the registrations were successful or not</text><path d="M20,317.6973 L81,317.6973 L81,326.9883 L71,336.9883 L20,336.9883 L20,317.6973 " fill="#EEEEEE" style="stroke:#000000;stroke-width:1.5;"/><rect fill="none" height="155.7949" style="stroke:#000000;stroke-width:1.5;" width="830" x="20" y="317.6973"/><text fill="#000000" font-family="sans-serif" font-size="13" font-weight="bold" lengthAdjust="spacing" textLength="16" x="35" y="332.7256">alt</text><text fill="#000000" font-family="sans-serif" font-size="11" font-weight="bold" lengthAdjust="spacing" textLength="253" x="96" y="331.5674">[the irrigations were registered successfully]</text><line style="stroke:#181818;stroke-width:1.0;" x1="494" x2="536" y1="360.2793" y2="360.2793"/><line style="stroke:#181818;stroke-width:1.0;" x1="536" x2="536" y1="360.2793" y2="373.2793"/><line style="stroke:#181818;stroke-width:1.0;" x1="495" x2="536" y1="373.2793" y2="373.2793"/><polygon fill="#181818" points="505,369.2793,495,373.2793,505,377.2793,501,373.2793" style="stroke:#181818;stroke-width:1.0;"/><text fill="#000000" font-family="sans-serif" font-size="13" font-weight="bold" lengthAdjust="spacing" textLength="7" x="501" y="355.0166">5</text><text fill="#000000" font-family="sans-serif" font-size="13" lengthAdjust="spacing" textLength="326" x="512" y="355.0166">gets the list of irrigations currently registered in fieldbook</text><polygon fill="#181818" points="96,400.5703,86,404.5703,96,408.5703,92,404.5703" style="stroke:#181818;stroke-width:1.0;"/><line style="stroke:#181818;stroke-width:1.0;stroke-dasharray:2.0,2.0;" x1="90" x2="483" y1="404.5703" y2="404.5703"/><text fill="#000000" font-family="sans-serif" font-size="13" font-weight="bold" lengthAdjust="spacing" textLength="7" x="102" y="399.3076">6</text><text fill="#000000" font-family="sans-serif" font-size="13" lengthAdjust="spacing" textLength="364" x="113" y="399.3076">shows the list of irrigations that currently registered in fieldbook</text><line style="stroke:#000000;stroke-width:1.0;stroke-dasharray:2.0,2.0;" x1="20" x2="850" y1="413.5703" y2="413.5703"/><text fill="#000000" font-family="sans-serif" font-size="11" font-weight="bold" lengthAdjust="spacing" textLength="274" x="25" y="425.4404">[the irrigations were not registered successfully]</text><line style="stroke:#181818;stroke-width:1.0;" x1="494" x2="536" y1="452.4922" y2="452.4922"/><line style="stroke:#181818;stroke-width:1.0;" x1="536" x2="536" y1="452.4922" y2="465.4922"/><line style="stroke:#181818;stroke-width:1.0;" x1="495" x2="536" y1="465.4922" y2="465.4922"/><polygon fill="#181818" points="505,461.4922,495,465.4922,505,469.4922,501,465.4922" style="stroke:#181818;stroke-width:1.0;"/><text fill="#000000" font-family="sans-serif" font-size="13" font-weight="bold" lengthAdjust="spacing" textLength="7" x="501" y="447.2295">5</text><text fill="#000000" font-family="sans-serif" font-size="13" lengthAdjust="spacing" textLength="137" x="512" y="447.2295">prints an error message</text><!--SRC=[dLGzRzj03DtrAmXFoP026Rfaw51uR940Gdy0VKT9X4ztwf6Au7zVwkp8Skm6JJKH_7YFV3nAzXm7pDX3ds9oNKuzWUQHAbaY0xezjbJh8H1aSegn3Ui4wT2dYMCB3GQXgb9MI_rL_tXvV8G7g0-Yr4DDlqUAZc3BsCvrTtMzlQyg73N5iTzHDjjfoh1voScFJk5vYfGtW08dJt5KHgliUC2ei7awmfUierbW-1MLBiigi6y9lUN2wJjr-V3jpNg2bbG08R0eJAmTQ4V0ENEBoYaAKFIWt9CiA26b0HgRWT1r9PwQLScPRarfdEj6ZLcwD8dHeGB6LVsCIDvy7jXwau4SD-p0ao87kGs_cYXJQyDGjh52k1X5U5xDF6106pT5MfADa6C9DKp1xrBQmvrvTiaasNx_MPT-lZXvjOH0zwM9JmtAJO4_4kPJHvCnWupEaKWp1Z1HOz9hS0nwjPXIk-h_31CErmWVhRyeCZ-0YpqAk35dYXeExsHQ9FgOvkyhlqrNdi9_S98Tv6rrJClFANI-K_ZwpneEcUDyHFPoSxODsgs8_KnkD1fzzTxsT7MjAzV5RVy1]--></g></svg>