<?xml version="1.0" encoding="us-ascii" standalone="no"?><svg xmlns="http://www.w3.org/2000/svg" xmlns:xlink="http://www.w3.org/1999/xlink" contentStyleType="text/css" height="495px" preserveAspectRatio="none" style="width:932px;height:495px;background:#FFFFFF;" version="1.1" viewBox="0 0 932 495" width="932px" zoomAndPan="magnify"><defs/><g><text fill="#000000" font-family="sans-serif" font-size="14" font-weight="bold" lengthAdjust="spacing" textLength="293" x="320.5" y="30.1074">USLP10 - System Sequence Diagram (SSD)</text><rect fill="#FFFFFF" height="268.959" style="stroke:#181818;stroke-width:1.0;" width="10" x="65" y="133.2422"/><rect fill="#FFFFFF" height="31.291" style="stroke:#181818;stroke-width:1.0;" width="10" x="878" y="156.5332"/><rect fill="#FFFFFF" height="31.291" style="stroke:#181818;stroke-width:1.0;" width="10" x="878" y="219.1152"/><rect fill="#FFFFFF" height="120.5039" style="stroke:#181818;stroke-width:1.0;" width="10" x="878" y="281.6973"/><rect fill="none" height="98.5039" style="stroke:#000000;stroke-width:1.5;" width="915" x="10" y="296.6973"/><line style="stroke:#181818;stroke-width:0.5;stroke-dasharray:5.0,5.0;" x1="70" x2="70" y1="123.2422" y2="412.2012"/><line style="stroke:#181818;stroke-width:0.5;stroke-dasharray:5.0,5.0;" x1="883" x2="883" y1="123.2422" y2="412.2012"/><text fill="#000000" font-family="sans-serif" font-size="14" lengthAdjust="spacing" textLength="94" x="20" y="119.7285">Product Owner</text><ellipse cx="70" cy="53.1211" fill="#E3E3E3" rx="8" ry="8" style="stroke:#181818;stroke-width:0.5;"/><path d="M70,61.1211 L70,88.1211 M57,69.1211 L83,69.1211 M70,88.1211 L57,103.1211 M70,88.1211 L83,103.1211 " fill="none" style="stroke:#181818;stroke-width:0.5;"/><text fill="#000000" font-family="sans-serif" font-size="14" lengthAdjust="spacing" textLength="94" x="20" y="426.3086">Product Owner</text><ellipse cx="70" cy="438.3223" fill="#E3E3E3" rx="8" ry="8" style="stroke:#181818;stroke-width:0.5;"/><path d="M70,446.3223 L70,473.3223 M57,454.3223 L83,454.3223 M70,473.3223 L57,488.3223 M70,473.3223 L83,488.3223 " fill="none" style="stroke:#181818;stroke-width:0.5;"/><rect fill="#E3E3E3" height="32.6211" rx="2.5" ry="2.5" style="stroke:#181818;stroke-width:0.5;" width="64" x="851" y="89.6211"/><text fill="#000000" font-family="sans-serif" font-size="14" lengthAdjust="spacing" textLength="50" x="858" y="111.7285">:System</text><rect fill="#E3E3E3" height="32.6211" rx="2.5" ry="2.5" style="stroke:#181818;stroke-width:0.5;" width="64" x="851" y="411.2012"/><text fill="#000000" font-family="sans-serif" font-size="14" lengthAdjust="spacing" textLength="50" x="858" y="433.3086">:System</text><rect fill="#FFFFFF" height="268.959" style="stroke:#181818;stroke-width:1.0;" width="10" x="65" y="133.2422"/><rect fill="#FFFFFF" height="31.291" style="stroke:#181818;stroke-width:1.0;" width="10" x="878" y="156.5332"/><rect fill="#FFFFFF" height="31.291" style="stroke:#181818;stroke-width:1.0;" width="10" x="878" y="219.1152"/><rect fill="#FFFFFF" height="120.5039" style="stroke:#181818;stroke-width:1.0;" width="10" x="878" y="281.6973"/><polygon fill="#181818" points="866,152.5332,876,156.5332,866,160.5332,870,156.5332" style="stroke:#181818;stroke-width:1.0;"/><line style="stroke:#181818;stroke-width:1.0;" x1="75" x2="872" y1="156.5332" y2="156.5332"/><text fill="#000000" font-family="sans-serif" font-size="13" font-weight="bold" lengthAdjust="spacing" textLength="7" x="82" y="151.2705">1</text><text fill="#000000" font-family="sans-serif" font-size="13" lengthAdjust="spacing" textLength="314" x="93" y="151.2705">asks to see the irrigation system controller simulation.</text><polygon fill="#181818" points="86,183.8242,76,187.8242,86,191.8242,82,187.8242" style="stroke:#181818;stroke-width:1.0;"/><line style="stroke:#181818;stroke-width:1.0;stroke-dasharray:2.0,2.0;" x1="80" x2="882" y1="187.8242" y2="187.8242"/><text fill="#000000" font-family="sans-serif" font-size="13" font-weight="bold" lengthAdjust="spacing" textLength="7" x="92" y="182.5615">2</text><text fill="#000000" font-family="sans-serif" font-size="13" lengthAdjust="spacing" textLength="621" x="103" y="182.5615">asks the user to import a file with the irrigation plan or imports a file by default (irrigationPlanFor30Days.txt).</text><polygon fill="#181818" points="866,215.1152,876,219.1152,866,223.1152,870,219.1152" style="stroke:#181818;stroke-width:1.0;"/><line style="stroke:#181818;stroke-width:1.0;" x1="75" x2="872" y1="219.1152" y2="219.1152"/><text fill="#000000" font-family="sans-serif" font-size="13" font-weight="bold" lengthAdjust="spacing" textLength="7" x="82" y="213.8525">3</text><text fill="#000000" font-family="sans-serif" font-size="13" lengthAdjust="spacing" textLength="419" x="93" y="213.8525">chooses the desired option related to the file with the irrigation plan data.</text><polygon fill="#181818" points="86,246.4063,76,250.4063,86,254.4063,82,250.4063" style="stroke:#181818;stroke-width:1.0;"/><line style="stroke:#181818;stroke-width:1.0;stroke-dasharray:2.0,2.0;" x1="80" x2="882" y1="250.4063" y2="250.4063"/><text fill="#000000" font-family="sans-serif" font-size="13" font-weight="bold" lengthAdjust="spacing" textLength="7" x="92" y="245.1436">4</text><text fill="#000000" font-family="sans-serif" font-size="13" lengthAdjust="spacing" textLength="751" x="103" y="245.1436">asks the user to input a date/time slot to check if the system is on or asks if the user wants to check the system's current status.</text><polygon fill="#181818" points="866,277.6973,876,281.6973,866,285.6973,870,281.6973" style="stroke:#181818;stroke-width:1.0;"/><line style="stroke:#181818;stroke-width:1.0;" x1="75" x2="872" y1="281.6973" y2="281.6973"/><text fill="#000000" font-family="sans-serif" font-size="13" font-weight="bold" lengthAdjust="spacing" textLength="7" x="82" y="276.4346">5</text><text fill="#000000" font-family="sans-serif" font-size="13" lengthAdjust="spacing" textLength="323" x="93" y="276.4346">chooses the desired option related to the date/time slot.</text><path d="M10,296.6973 L71,296.6973 L71,305.9883 L61,315.9883 L10,315.9883 L10,296.6973 " fill="#EEEEEE" style="stroke:#000000;stroke-width:1.5;"/><rect fill="none" height="98.5039" style="stroke:#000000;stroke-width:1.5;" width="915" x="10" y="296.6973"/><text fill="#000000" font-family="sans-serif" font-size="13" font-weight="bold" lengthAdjust="spacing" textLength="16" x="25" y="311.7256">alt</text><text fill="#000000" font-family="sans-serif" font-size="11" font-weight="bold" lengthAdjust="spacing" textLength="80" x="86" y="310.5674">[System is on]</text><polygon fill="#181818" points="86,335.2793,76,339.2793,86,343.2793,82,339.2793" style="stroke:#181818;stroke-width:1.0;"/><line style="stroke:#181818;stroke-width:1.0;stroke-dasharray:2.0,2.0;" x1="80" x2="877" y1="339.2793" y2="339.2793"/><text fill="#000000" font-family="sans-serif" font-size="13" font-weight="bold" lengthAdjust="spacing" textLength="7" x="92" y="334.0166">6</text><text fill="#000000" font-family="sans-serif" font-size="13" lengthAdjust="spacing" textLength="768" x="103" y="334.0166">shows the system's status for the chosen date/time slot and the sector that is currently being irrigated, as well as its specific details.</text><line style="stroke:#000000;stroke-width:1.0;stroke-dasharray:2.0,2.0;" x1="10" x2="925" y1="348.2793" y2="348.2793"/><text fill="#000000" font-family="sans-serif" font-size="11" font-weight="bold" lengthAdjust="spacing" textLength="81" x="15" y="360.1494">[System is off]</text><polygon fill="#181818" points="86,383.2012,76,387.2012,86,391.2012,82,387.2012" style="stroke:#181818;stroke-width:1.0;"/><line style="stroke:#181818;stroke-width:1.0;stroke-dasharray:2.0,2.0;" x1="80" x2="877" y1="387.2012" y2="387.2012"/><text fill="#000000" font-family="sans-serif" font-size="13" font-weight="bold" lengthAdjust="spacing" textLength="7" x="92" y="381.9385">6</text><text fill="#000000" font-family="sans-serif" font-size="13" lengthAdjust="spacing" textLength="744" x="103" y="381.9385">shows the system's status for the chosen date/time slot and the next sector to be irrigated (if any), as well as its specific details.</text><!--SRC=[lLHDZzD03BtdLrYzi9NeiWY9mnuuLPoGg1Jn0zo9aumwcGbZ3zdyUvn9sgOhTX4IC9UczhFztfiFFbdVOyGEkk23QMFe22GcAlYIwT6SiA5IHaSGoGZwngq1t68L1kiRgD4n5OLOKUYtyilX_GFie1nPg8EIlYVoXc1liPdgxifoloqAJ19yweuKzTj8YB0vn50b8_1ry1GtW0nB90SA7IlMs1wzmEPnRfzHysTkOt-Wq6rP0RhM4TXzMaeUjVh4806Or82MmCPe6nGRFF3CtmGlCJYdTMoxv7BoFZUzp3iJW6KjqdSwQ3tuF4xd9DP-EjTsVOW22BLLxmOhxNCQlKCFwiwCv3FqE495DIOdS7T57nJyESGF3tiS-LwUP3iphUYNN5zonRGXCCrCAs8RgOBGPpgHr07zgzodxEkqAnJyUrRvFarEQLDw9rPFBBiWKyQqP4vWwmnVjiqoXEnRxhFaSgj1pmzVowurRnXCYf7qUB6W9Fx7tjqA-OrFg1jThgHT4g-Qo6qO-5RYB0rgjMQAArqc_znKzDLSHVbcIeioZLtiSICSQRhuotvJzNQwXWCvD_rQjPTxChQsHYqGj6wnSbgaRyLQILtVIBa-2_3n_sZqz2GNeK6LNMNfrQeLDsx_H9-lNZesgz3D2_KJ]--></g></svg>