<?xml version="1.0" encoding="us-ascii" standalone="no"?><svg xmlns="http://www.w3.org/2000/svg" xmlns:xlink="http://www.w3.org/1999/xlink" contentStyleType="text/css" height="892.5px" preserveAspectRatio="none" style="width:1962px;height:892px;background:#FFFFFF;" version="1.1" viewBox="0 0 1962 892" width="1962.1px" zoomAndPan="magnify"><defs/><g><text fill="#000000" font-family="sans-serif" font-size="9.8" font-weight="bold" lengthAdjust="spacing" textLength="137.9" x="911.4" y="21.0752">USLP07 - Sequence Diagram</text><rect fill="#FFFFFF" height="712.8187" style="stroke:#181818;stroke-width:0.6999999999999998;" width="7" x="362.25" y="109.5732"/><rect fill="#FFFFFF" height="153.326" style="stroke:#181818;stroke-width:0.6999999999999998;" width="7" x="917.35" y="647.1623"/><rect fill="#FFFFFF" height="21.9037" style="stroke:#181818;stroke-width:0.6999999999999998;" width="7" x="1092" y="669.066"/><rect fill="#FFFFFF" height="65.7111" style="stroke:#181818;stroke-width:0.6999999999999998;" width="7" x="1472.45" y="712.8734"/><rect fill="#FFFFFF" height="21.9037" style="stroke:#181818;stroke-width:0.6999999999999998;" width="7" x="1804.95" y="734.7771"/><rect fill="none" height="264.9445" style="stroke:#000000;stroke-width:1.0499999999999998;" width="469.35" x="7" y="361.0141"/><rect fill="none" height="197.8334" style="stroke:#000000;stroke-width:1.0499999999999998;" width="455.35" x="14" y="423.2252"/><line style="stroke:#181818;stroke-width:0.3499999999999999;stroke-dasharray:5.0,5.0;" x1="32.9" x2="32.9" y1="86.2695" y2="834.992"/><line style="stroke:#181818;stroke-width:0.3499999999999999;stroke-dasharray:5.0,5.0;" x1="365.75" x2="365.75" y1="86.2695" y2="834.992"/><line style="stroke:#181818;stroke-width:0.3499999999999999;stroke-dasharray:5.0,5.0;" x1="920.85" x2="920.85" y1="86.2695" y2="834.992"/><line style="stroke:#181818;stroke-width:0.3499999999999999;stroke-dasharray:5.0,5.0;" x1="1095.15" x2="1095.15" y1="86.2695" y2="834.992"/><line style="stroke:#181818;stroke-width:0.3499999999999999;stroke-dasharray:5.0,5.0;" x1="1475.6" x2="1475.6" y1="86.2695" y2="834.992"/><line style="stroke:#181818;stroke-width:0.3499999999999999;stroke-dasharray:5.0,5.0;" x1="1808.1" x2="1808.1" y1="86.2695" y2="834.992"/><text fill="#000000" font-family="sans-serif" font-size="9.8" lengthAdjust="spacing" textLength="20.3" x="21" y="83.81">User</text><ellipse cx="33.25" cy="37.1848" fill="#E2E2F0" rx="5.6" ry="5.6" style="stroke:#181818;stroke-width:0.3499999999999999;"/><path d="M33.25,42.7848 L33.25,61.6848 M24.15,48.3848 L42.35,48.3848 M33.25,61.6848 L24.15,72.1848 M33.25,61.6848 L42.35,72.1848 " fill="none" style="stroke:#181818;stroke-width:0.3499999999999999;"/><text fill="#000000" font-family="sans-serif" font-size="9.8" lengthAdjust="spacing" textLength="20.3" x="21" y="844.8672">User</text><ellipse cx="33.25" cy="853.2768" fill="#E2E2F0" rx="5.6" ry="5.6" style="stroke:#181818;stroke-width:0.3499999999999999;"/><path d="M33.25,858.8768 L33.25,877.7768 M24.15,864.4768 L42.35,864.4768 M33.25,877.7768 L24.15,888.2768 M33.25,877.7768 L42.35,888.2768 " fill="none" style="stroke:#181818;stroke-width:0.3499999999999999;"/><rect fill="#E2E2F0" height="22.8348" rx="1.75" ry="1.75" style="stroke:#181818;stroke-width:0.3499999999999999;" width="175" x="278.25" y="62.7348"/><text fill="#000000" font-family="sans-serif" font-size="9.8" lengthAdjust="spacing" textLength="165.2" x="283.15" y="78.21">ProductionFactorApplianceRegisterUI</text><rect fill="#E2E2F0" height="22.8348" rx="1.75" ry="1.75" style="stroke:#181818;stroke-width:0.3499999999999999;" width="175" x="278.25" y="834.292"/><text fill="#000000" font-family="sans-serif" font-size="9.8" lengthAdjust="spacing" textLength="165.2" x="283.15" y="849.7672">ProductionFactorApplianceRegisterUI</text><rect fill="#E2E2F0" height="22.8348" rx="1.75" ry="1.75" style="stroke:#181818;stroke-width:0.3499999999999999;" width="210" x="815.85" y="62.7348"/><text fill="#000000" font-family="sans-serif" font-size="9.8" lengthAdjust="spacing" textLength="200.2" x="820.75" y="78.21">ProductionFactorApplianceRegisterController</text><rect fill="#E2E2F0" height="22.8348" rx="1.75" ry="1.75" style="stroke:#181818;stroke-width:0.3499999999999999;" width="210" x="815.85" y="834.292"/><text fill="#000000" font-family="sans-serif" font-size="9.8" lengthAdjust="spacing" textLength="200.2" x="820.75" y="849.7672">ProductionFactorApplianceRegisterController</text><rect fill="#E2E2F0" height="22.8348" rx="1.75" ry="1.75" style="stroke:#181818;stroke-width:0.3499999999999999;" width="125.3" x="1032.85" y="62.7348"/><text fill="#000000" font-family="sans-serif" font-size="9.8" lengthAdjust="spacing" textLength="115.5" x="1037.75" y="78.21">repositories : Repositories</text><rect fill="#E2E2F0" height="22.8348" rx="1.75" ry="1.75" style="stroke:#181818;stroke-width:0.3499999999999999;" width="125.3" x="1032.85" y="834.292"/><text fill="#000000" font-family="sans-serif" font-size="9.8" lengthAdjust="spacing" textLength="115.5" x="1037.75" y="849.7672">repositories : Repositories</text><rect fill="#E2E2F0" height="22.8348" rx="1.75" ry="1.75" style="stroke:#181818;stroke-width:0.3499999999999999;" width="352.1" x="1299.9" y="62.7348"/><text fill="#000000" font-family="sans-serif" font-size="9.8" lengthAdjust="spacing" textLength="342.3" x="1304.8" y="78.21">productionFactorApplianceRepository : ProductionFactorApplianceRepository</text><rect fill="#E2E2F0" height="22.8348" rx="1.75" ry="1.75" style="stroke:#181818;stroke-width:0.3499999999999999;" width="352.1" x="1299.9" y="834.292"/><text fill="#000000" font-family="sans-serif" font-size="9.8" lengthAdjust="spacing" textLength="342.3" x="1304.8" y="849.7672">productionFactorApplianceRepository : ProductionFactorApplianceRepository</text><rect fill="#E2E2F0" height="22.8348" rx="1.75" ry="1.75" style="stroke:#181818;stroke-width:0.3499999999999999;" width="298.9" x="1659" y="62.7348"/><text fill="#000000" font-family="sans-serif" font-size="9.8" lengthAdjust="spacing" textLength="289.1" x="1663.9" y="78.21">productionFactorApplianceDTO : ProductionFactorApplianceDTO</text><rect fill="#E2E2F0" height="22.8348" rx="1.75" ry="1.75" style="stroke:#181818;stroke-width:0.3499999999999999;" width="298.9" x="1659" y="834.292"/><text fill="#000000" font-family="sans-serif" font-size="9.8" lengthAdjust="spacing" textLength="289.1" x="1663.9" y="849.7672">productionFactorApplianceDTO : ProductionFactorApplianceDTO</text><rect fill="#FFFFFF" height="712.8187" style="stroke:#181818;stroke-width:0.6999999999999998;" width="7" x="362.25" y="109.5732"/><rect fill="#FFFFFF" height="153.326" style="stroke:#181818;stroke-width:0.6999999999999998;" width="7" x="917.35" y="647.1623"/><rect fill="#FFFFFF" height="21.9037" style="stroke:#181818;stroke-width:0.6999999999999998;" width="7" x="1092" y="669.066"/><rect fill="#FFFFFF" height="65.7111" style="stroke:#181818;stroke-width:0.6999999999999998;" width="7" x="1472.45" y="712.8734"/><rect fill="#FFFFFF" height="21.9037" style="stroke:#181818;stroke-width:0.6999999999999998;" width="7" x="1804.95" y="734.7771"/><polygon fill="#181818" points="353.85,106.7732,360.85,109.5732,353.85,112.3732,356.65,109.5732" style="stroke:#181818;stroke-width:0.6999999999999998;"/><line style="stroke:#181818;stroke-width:0.6999999999999998;" x1="33.25" x2="358.05" y1="109.5732" y2="109.5732"/><text fill="#000000" font-family="sans-serif" font-size="9.1" font-weight="bold" lengthAdjust="spacing" textLength="4.9" x="38.15" y="105.8894">1</text><text fill="#000000" font-family="sans-serif" font-size="9.1" lengthAdjust="spacing" textLength="18.2" x="45.85" y="105.8894">run()</text><polygon fill="#181818" points="40.95,128.677,33.95,131.477,40.95,134.277,38.15,131.477" style="stroke:#181818;stroke-width:0.6999999999999998;"/><line style="stroke:#181818;stroke-width:0.6999999999999998;stroke-dasharray:2.0,2.0;" x1="36.75" x2="361.55" y1="131.477" y2="131.477"/><text fill="#000000" font-family="sans-serif" font-size="9.1" font-weight="bold" lengthAdjust="spacing" textLength="4.9" x="45.15" y="127.7931">2</text><text fill="#000000" font-family="sans-serif" font-size="9.1" lengthAdjust="spacing" textLength="177.1" x="52.85" y="127.7931">Shows operationId (automatic) and plots list</text><polygon fill="#181818" points="40.95,150.5807,33.95,153.3807,40.95,156.1807,38.15,153.3807" style="stroke:#181818;stroke-width:0.6999999999999998;"/><line style="stroke:#181818;stroke-width:0.6999999999999998;stroke-dasharray:2.0,2.0;" x1="36.75" x2="361.55" y1="153.3807" y2="153.3807"/><text fill="#000000" font-family="sans-serif" font-size="9.1" font-weight="bold" lengthAdjust="spacing" textLength="4.9" x="45.15" y="149.6968">3</text><text fill="#000000" font-family="sans-serif" font-size="9.1" lengthAdjust="spacing" textLength="67.9" x="52.85" y="149.6968">Prompt "PlotId: "</text><polygon fill="#181818" points="353.85,172.4844,360.85,175.2844,353.85,178.0844,356.65,175.2844" style="stroke:#181818;stroke-width:0.6999999999999998;"/><line style="stroke:#181818;stroke-width:0.6999999999999998;" x1="33.25" x2="358.05" y1="175.2844" y2="175.2844"/><text fill="#000000" font-family="sans-serif" font-size="9.1" font-weight="bold" lengthAdjust="spacing" textLength="4.9" x="38.15" y="171.6005">4</text><text fill="#000000" font-family="sans-serif" font-size="9.1" lengthAdjust="spacing" textLength="21.7" x="45.85" y="171.6005">plotId</text><polygon fill="#181818" points="40.95,194.3881,33.95,197.1881,40.95,199.9881,38.15,197.1881" style="stroke:#181818;stroke-width:0.6999999999999998;"/><line style="stroke:#181818;stroke-width:0.6999999999999998;stroke-dasharray:2.0,2.0;" x1="36.75" x2="361.55" y1="197.1881" y2="197.1881"/><text fill="#000000" font-family="sans-serif" font-size="9.1" font-weight="bold" lengthAdjust="spacing" textLength="4.9" x="45.15" y="193.5042">5</text><text fill="#000000" font-family="sans-serif" font-size="9.1" lengthAdjust="spacing" textLength="102.9" x="52.85" y="193.5042">Prompt "OperationDate: "</text><polygon fill="#181818" points="353.85,216.2918,360.85,219.0918,353.85,221.8918,356.65,219.0918" style="stroke:#181818;stroke-width:0.6999999999999998;"/><line style="stroke:#181818;stroke-width:0.6999999999999998;" x1="33.25" x2="358.05" y1="219.0918" y2="219.0918"/><text fill="#000000" font-family="sans-serif" font-size="9.1" font-weight="bold" lengthAdjust="spacing" textLength="4.9" x="38.15" y="215.4079">6</text><text fill="#000000" font-family="sans-serif" font-size="9.1" lengthAdjust="spacing" textLength="56" x="45.85" y="215.4079">operationDate</text><polygon fill="#181818" points="40.95,238.1955,33.95,240.9955,40.95,243.7955,38.15,240.9955" style="stroke:#181818;stroke-width:0.6999999999999998;"/><line style="stroke:#181818;stroke-width:0.6999999999999998;stroke-dasharray:2.0,2.0;" x1="36.75" x2="361.55" y1="240.9955" y2="240.9955"/><text fill="#000000" font-family="sans-serif" font-size="9.1" font-weight="bold" lengthAdjust="spacing" textLength="4.9" x="45.15" y="237.3116">7</text><text fill="#000000" font-family="sans-serif" font-size="9.1" lengthAdjust="spacing" textLength="67.9" x="52.85" y="237.3116">Prompt "Value: "</text><polygon fill="#181818" points="353.85,260.0992,360.85,262.8992,353.85,265.6992,356.65,262.8992" style="stroke:#181818;stroke-width:0.6999999999999998;"/><line style="stroke:#181818;stroke-width:0.6999999999999998;" x1="33.25" x2="358.05" y1="262.8992" y2="262.8992"/><text fill="#000000" font-family="sans-serif" font-size="9.1" font-weight="bold" lengthAdjust="spacing" textLength="4.9" x="38.15" y="259.2153">8</text><text fill="#000000" font-family="sans-serif" font-size="9.1" lengthAdjust="spacing" textLength="20.3" x="45.85" y="259.2153">value</text><polygon fill="#181818" points="40.95,282.0029,33.95,284.8029,40.95,287.6029,38.15,284.8029" style="stroke:#181818;stroke-width:0.6999999999999998;"/><line style="stroke:#181818;stroke-width:0.6999999999999998;stroke-dasharray:2.0,2.0;" x1="36.75" x2="361.55" y1="284.8029" y2="284.8029"/><text fill="#000000" font-family="sans-serif" font-size="9.1" font-weight="bold" lengthAdjust="spacing" textLength="4.9" x="45.15" y="281.119">9</text><text fill="#000000" font-family="sans-serif" font-size="9.1" lengthAdjust="spacing" textLength="67.9" x="52.85" y="281.119">Prompt "UnitId: "</text><polygon fill="#181818" points="353.85,303.9066,360.85,306.7066,353.85,309.5066,356.65,306.7066" style="stroke:#181818;stroke-width:0.6999999999999998;"/><line style="stroke:#181818;stroke-width:0.6999999999999998;" x1="33.25" x2="358.05" y1="306.7066" y2="306.7066"/><text fill="#000000" font-family="sans-serif" font-size="9.1" font-weight="bold" lengthAdjust="spacing" textLength="9.8" x="38.15" y="303.0228">10</text><text fill="#000000" font-family="sans-serif" font-size="9.1" lengthAdjust="spacing" textLength="21.7" x="50.75" y="303.0228">unitId</text><polygon fill="#181818" points="40.95,325.8104,33.95,328.6104,40.95,331.4104,38.15,328.6104" style="stroke:#181818;stroke-width:0.6999999999999998;"/><line style="stroke:#181818;stroke-width:0.6999999999999998;stroke-dasharray:2.0,2.0;" x1="36.75" x2="361.55" y1="328.6104" y2="328.6104"/><text fill="#000000" font-family="sans-serif" font-size="9.1" font-weight="bold" lengthAdjust="spacing" textLength="9.8" x="45.15" y="324.9265">11</text><text fill="#000000" font-family="sans-serif" font-size="9.1" lengthAdjust="spacing" textLength="121.1" x="57.75" y="324.9265">Prompt "ProductionFactorId: "</text><polygon fill="#181818" points="353.85,347.7141,360.85,350.5141,353.85,353.3141,356.65,350.5141" style="stroke:#181818;stroke-width:0.6999999999999998;"/><line style="stroke:#181818;stroke-width:0.6999999999999998;" x1="33.25" x2="358.05" y1="350.5141" y2="350.5141"/><text fill="#000000" font-family="sans-serif" font-size="9.1" font-weight="bold" lengthAdjust="spacing" textLength="9.8" x="38.15" y="346.8302">12</text><text fill="#000000" font-family="sans-serif" font-size="9.1" lengthAdjust="spacing" textLength="74.9" x="50.75" y="346.8302">productionFactorId</text><path d="M7,361.0141 L49.7,361.0141 L49.7,367.5178 L42.7,374.5178 L7,374.5178 L7,361.0141 " fill="#EEEEEE" style="stroke:#000000;stroke-width:1.0499999999999998;"/><rect fill="none" height="264.9445" style="stroke:#000000;stroke-width:1.0499999999999998;" width="469.35" x="7" y="361.0141"/><text fill="#000000" font-family="sans-serif" font-size="9.1" font-weight="bold" lengthAdjust="spacing" textLength="11.2" x="17.5" y="371.5339">alt</text><text fill="#000000" font-family="sans-serif" font-size="7.7" font-weight="bold" lengthAdjust="spacing" textLength="106.4" x="60.2" y="370.7231">[If Operation is Fertilization]</text><polygon fill="#181818" points="40.95,388.0215,33.95,390.8215,40.95,393.6215,38.15,390.8215" style="stroke:#181818;stroke-width:0.6999999999999998;"/><line style="stroke:#181818;stroke-width:0.6999999999999998;stroke-dasharray:2.0,2.0;" x1="36.75" x2="361.55" y1="390.8215" y2="390.8215"/><text fill="#000000" font-family="sans-serif" font-size="9.1" font-weight="bold" lengthAdjust="spacing" textLength="9.8" x="45.15" y="387.1376">13</text><text fill="#000000" font-family="sans-serif" font-size="9.1" lengthAdjust="spacing" textLength="161.7" x="57.75" y="387.1376">Confirm "Is the operation a fertilization?"</text><polygon fill="#181818" points="353.85,409.9252,360.85,412.7252,353.85,415.5252,356.65,412.7252" style="stroke:#181818;stroke-width:0.6999999999999998;"/><line style="stroke:#181818;stroke-width:0.6999999999999998;" x1="33.25" x2="358.05" y1="412.7252" y2="412.7252"/><text fill="#000000" font-family="sans-serif" font-size="9.1" font-weight="bold" lengthAdjust="spacing" textLength="9.8" x="38.15" y="409.0413">14</text><text fill="#000000" font-family="sans-serif" font-size="9.1" lengthAdjust="spacing" textLength="35.7" x="50.75" y="409.0413">[Yes/No]</text><path d="M14,423.2252 L56.7,423.2252 L56.7,429.7289 L49.7,436.7289 L14,436.7289 L14,423.2252 " fill="#EEEEEE" style="stroke:#000000;stroke-width:1.0499999999999998;"/><rect fill="none" height="197.8334" style="stroke:#000000;stroke-width:1.0499999999999998;" width="455.35" x="14" y="423.2252"/><text fill="#000000" font-family="sans-serif" font-size="9.1" font-weight="bold" lengthAdjust="spacing" textLength="11.2" x="24.5" y="433.745">alt</text><text fill="#000000" font-family="sans-serif" font-size="7.7" font-weight="bold" lengthAdjust="spacing" textLength="99.4" x="67.2" y="432.9343">[If Fertilization is on Crop]</text><polygon fill="#181818" points="40.95,450.2326,33.95,453.0326,40.95,455.8326,38.15,453.0326" style="stroke:#181818;stroke-width:0.6999999999999998;"/><line style="stroke:#181818;stroke-width:0.6999999999999998;stroke-dasharray:2.0,2.0;" x1="36.75" x2="361.55" y1="453.0326" y2="453.0326"/><text fill="#000000" font-family="sans-serif" font-size="9.1" font-weight="bold" lengthAdjust="spacing" textLength="9.8" x="45.15" y="449.3487">15</text><text fill="#000000" font-family="sans-serif" font-size="9.1" lengthAdjust="spacing" textLength="127.4" x="57.75" y="449.3487">Display Fertilization Modes List</text><polygon fill="#181818" points="40.95,472.1363,33.95,474.9363,40.95,477.7363,38.15,474.9363" style="stroke:#181818;stroke-width:0.6999999999999998;"/><line style="stroke:#181818;stroke-width:0.6999999999999998;stroke-dasharray:2.0,2.0;" x1="36.75" x2="361.55" y1="474.9363" y2="474.9363"/><text fill="#000000" font-family="sans-serif" font-size="9.1" font-weight="bold" lengthAdjust="spacing" textLength="9.8" x="45.15" y="471.2524">16</text><text fill="#000000" font-family="sans-serif" font-size="9.1" lengthAdjust="spacing" textLength="121.1" x="57.75" y="471.2524">Prompt "FertilizationModeId: "</text><polygon fill="#181818" points="353.85,494.04,360.85,496.84,353.85,499.64,356.65,496.84" style="stroke:#181818;stroke-width:0.6999999999999998;"/><line style="stroke:#181818;stroke-width:0.6999999999999998;" x1="33.25" x2="358.05" y1="496.84" y2="496.84"/><text fill="#000000" font-family="sans-serif" font-size="9.1" font-weight="bold" lengthAdjust="spacing" textLength="9.8" x="38.15" y="493.1562">17</text><text fill="#000000" font-family="sans-serif" font-size="9.1" lengthAdjust="spacing" textLength="72.8" x="50.75" y="493.1562">fertilizationModeId</text><polygon fill="#181818" points="40.95,515.9437,33.95,518.7437,40.95,521.5437,38.15,518.7437" style="stroke:#181818;stroke-width:0.6999999999999998;"/><line style="stroke:#181818;stroke-width:0.6999999999999998;stroke-dasharray:2.0,2.0;" x1="36.75" x2="361.55" y1="518.7437" y2="518.7437"/><text fill="#000000" font-family="sans-serif" font-size="9.1" font-weight="bold" lengthAdjust="spacing" textLength="9.8" x="45.15" y="515.0599">18</text><text fill="#000000" font-family="sans-serif" font-size="9.1" lengthAdjust="spacing" textLength="179.9" x="57.75" y="515.0599">Confirm "Is the fertilization made on a crop?"</text><polygon fill="#181818" points="353.85,537.8475,360.85,540.6475,353.85,543.4475,356.65,540.6475" style="stroke:#181818;stroke-width:0.6999999999999998;"/><line style="stroke:#181818;stroke-width:0.6999999999999998;" x1="33.25" x2="358.05" y1="540.6475" y2="540.6475"/><text fill="#000000" font-family="sans-serif" font-size="9.1" font-weight="bold" lengthAdjust="spacing" textLength="9.8" x="38.15" y="536.9636">19</text><text fill="#000000" font-family="sans-serif" font-size="9.1" lengthAdjust="spacing" textLength="35.7" x="50.75" y="536.9636">[Yes/No]</text><line style="stroke:#181818;stroke-width:0.6999999999999998;stroke-dasharray:2.0,2.0;" x1="369.25" x2="398.65" y1="562.5512" y2="562.5512"/><line style="stroke:#181818;stroke-width:0.6999999999999998;stroke-dasharray:2.0,2.0;" x1="398.65" x2="398.65" y1="562.5512" y2="571.6512"/><line style="stroke:#181818;stroke-width:0.6999999999999998;stroke-dasharray:2.0,2.0;" x1="369.95" x2="398.65" y1="571.6512" y2="571.6512"/><polygon fill="#181818" points="376.95,568.8512,369.95,571.6512,376.95,574.4512,374.15,571.6512" style="stroke:#181818;stroke-width:0.6999999999999998;"/><text fill="#000000" font-family="sans-serif" font-size="9.1" font-weight="bold" lengthAdjust="spacing" textLength="9.8" x="374.15" y="558.8673">20</text><text fill="#000000" font-family="sans-serif" font-size="9.1" lengthAdjust="spacing" textLength="74.2" x="386.75" y="558.8673">Display Crops List</text><polygon fill="#181818" points="40.95,590.7549,33.95,593.5549,40.95,596.3549,38.15,593.5549" style="stroke:#181818;stroke-width:0.6999999999999998;"/><line style="stroke:#181818;stroke-width:0.6999999999999998;stroke-dasharray:2.0,2.0;" x1="36.75" x2="361.55" y1="593.5549" y2="593.5549"/><text fill="#000000" font-family="sans-serif" font-size="9.1" font-weight="bold" lengthAdjust="spacing" textLength="9.8" x="45.15" y="589.871">21</text><text fill="#000000" font-family="sans-serif" font-size="9.1" lengthAdjust="spacing" textLength="70.7" x="57.75" y="589.871">Prompt "CropId: "</text><polygon fill="#181818" points="353.85,612.6586,360.85,615.4586,353.85,618.2586,356.65,615.4586" style="stroke:#181818;stroke-width:0.6999999999999998;"/><line style="stroke:#181818;stroke-width:0.6999999999999998;" x1="33.25" x2="358.05" y1="615.4586" y2="615.4586"/><text fill="#000000" font-family="sans-serif" font-size="9.1" font-weight="bold" lengthAdjust="spacing" textLength="9.8" x="38.15" y="611.7747">22</text><text fill="#000000" font-family="sans-serif" font-size="9.1" lengthAdjust="spacing" textLength="24.5" x="50.75" y="611.7747">cropId</text><polygon fill="#181818" points="908.95,644.3623,915.95,647.1623,908.95,649.9623,911.75,647.1623" style="stroke:#181818;stroke-width:0.6999999999999998;"/><line style="stroke:#181818;stroke-width:0.6999999999999998;" x1="369.25" x2="913.15" y1="647.1623" y2="647.1623"/><text fill="#000000" font-family="sans-serif" font-size="9.1" font-weight="bold" lengthAdjust="spacing" textLength="9.8" x="374.15" y="643.4784">23</text><text fill="#000000" font-family="sans-serif" font-size="9.1" lengthAdjust="spacing" textLength="522.2" x="386.75" y="643.4784">productionFactorApplianceRegister(operationId, plotId, operationDate, value, unitId, productionFactorId, fertilizationModeId, cropId)</text><polygon fill="#181818" points="1083.6,666.266,1090.6,669.066,1083.6,671.866,1086.4,669.066" style="stroke:#181818;stroke-width:0.6999999999999998;"/><line style="stroke:#181818;stroke-width:0.6999999999999998;" x1="924.35" x2="1087.8" y1="669.066" y2="669.066"/><text fill="#000000" font-family="sans-serif" font-size="9.1" font-weight="bold" lengthAdjust="spacing" textLength="9.8" x="929.25" y="665.3821">24</text><text fill="#000000" font-family="sans-serif" font-size="9.1" lengthAdjust="spacing" textLength="52.5" x="941.85" y="665.3821">getInstance()</text><polygon fill="#181818" points="932.05,688.1697,925.05,690.9697,932.05,693.7697,929.25,690.9697" style="stroke:#181818;stroke-width:0.6999999999999998;"/><line style="stroke:#181818;stroke-width:0.6999999999999998;stroke-dasharray:2.0,2.0;" x1="927.85" x2="1094.8" y1="690.9697" y2="690.9697"/><text fill="#000000" font-family="sans-serif" font-size="9.1" font-weight="bold" lengthAdjust="spacing" textLength="9.8" x="936.25" y="687.2858">25</text><text fill="#000000" font-family="sans-serif" font-size="9.1" lengthAdjust="spacing" textLength="63.7" x="948.85" y="687.2858">Return instance</text><polygon fill="#181818" points="1464.05,710.0734,1471.05,712.8734,1464.05,715.6734,1466.85,712.8734" style="stroke:#181818;stroke-width:0.6999999999999998;"/><line style="stroke:#181818;stroke-width:0.6999999999999998;" x1="924.35" x2="1468.25" y1="712.8734" y2="712.8734"/><text fill="#000000" font-family="sans-serif" font-size="9.1" font-weight="bold" lengthAdjust="spacing" textLength="9.8" x="929.25" y="709.1896">26</text><text fill="#000000" font-family="sans-serif" font-size="9.1" lengthAdjust="spacing" textLength="522.2" x="941.85" y="709.1896">productionFactorApplianceRegister(operationId, plotId, operationDate, value, unitId, productionFactorId, fertilizationModeId, cropId)</text><polygon fill="#181818" points="1796.55,731.9771,1803.55,734.7771,1796.55,737.5771,1799.35,734.7771" style="stroke:#181818;stroke-width:0.6999999999999998;"/><line style="stroke:#181818;stroke-width:0.6999999999999998;" x1="1479.45" x2="1800.75" y1="734.7771" y2="734.7771"/><text fill="#000000" font-family="sans-serif" font-size="9.1" font-weight="bold" lengthAdjust="spacing" textLength="9.8" x="1484.35" y="731.0933">27</text><text fill="#000000" font-family="sans-serif" font-size="9.1" lengthAdjust="spacing" textLength="175.7" x="1496.95" y="731.0933">Create new ProductionFactorApplianceDTO</text><polygon fill="#181818" points="1487.15,753.8809,1480.15,756.6809,1487.15,759.4809,1484.35,756.6809" style="stroke:#181818;stroke-width:0.6999999999999998;"/><line style="stroke:#181818;stroke-width:0.6999999999999998;stroke-dasharray:2.0,2.0;" x1="1482.95" x2="1807.75" y1="756.6809" y2="756.6809"/><text fill="#000000" font-family="sans-serif" font-size="9.1" font-weight="bold" lengthAdjust="spacing" textLength="9.8" x="1491.35" y="752.997">28</text><text fill="#000000" font-family="sans-serif" font-size="9.1" lengthAdjust="spacing" textLength="84.7" x="1503.95" y="752.997">Return DTO instance</text><polygon fill="#181818" points="932.05,775.7846,925.05,778.5846,932.05,781.3846,929.25,778.5846" style="stroke:#181818;stroke-width:0.6999999999999998;"/><line style="stroke:#181818;stroke-width:0.6999999999999998;stroke-dasharray:2.0,2.0;" x1="927.85" x2="1475.25" y1="778.5846" y2="778.5846"/><text fill="#000000" font-family="sans-serif" font-size="9.1" font-weight="bold" lengthAdjust="spacing" textLength="9.8" x="936.25" y="774.9007">29</text><text fill="#000000" font-family="sans-serif" font-size="9.1" lengthAdjust="spacing" textLength="114.8" x="948.85" y="774.9007">[Database Operation Result]</text><polygon fill="#181818" points="376.95,797.6883,369.95,800.4883,376.95,803.2883,374.15,800.4883" style="stroke:#181818;stroke-width:0.6999999999999998;"/><line style="stroke:#181818;stroke-width:0.6999999999999998;stroke-dasharray:2.0,2.0;" x1="372.75" x2="920.15" y1="800.4883" y2="800.4883"/><text fill="#000000" font-family="sans-serif" font-size="9.1" font-weight="bold" lengthAdjust="spacing" textLength="9.8" x="381.15" y="796.8044">30</text><text fill="#000000" font-family="sans-serif" font-size="9.1" lengthAdjust="spacing" textLength="83.3" x="393.75" y="796.8044">[Result of Operation]</text><polygon fill="#181818" points="40.95,819.592,33.95,822.392,40.95,825.192,38.15,822.392" style="stroke:#181818;stroke-width:0.6999999999999998;"/><line style="stroke:#181818;stroke-width:0.6999999999999998;stroke-dasharray:2.0,2.0;" x1="36.75" x2="365.05" y1="822.392" y2="822.392"/><text fill="#000000" font-family="sans-serif" font-size="9.1" font-weight="bold" lengthAdjust="spacing" textLength="9.8" x="45.15" y="818.7081">31</text><text fill="#000000" font-family="sans-serif" font-size="9.1" lengthAdjust="spacing" textLength="299.6" x="57.75" y="818.7081">Display "Operation registered successfully" or "Error registering operation"</text><!--SRC=[pLPDRzim3BtxLn0-9O23xJOWXnP5im86kZL8bm53qODgCwa0nV8akKNtwqV9ZYtvgzrjESGVv7ka7YdAXXk1iB-_tNx-0YkunzyL5Xd2XhEZOgSeOfMHHNLwGaNtcP4AzfhkIwOCptZ92WFnLicyoWoNnOrpkIfBmHdHxF38jK6rJsDW6lRfF-AkPM6K50ALmtUF8O_2KcfE11mrh67dFJgS_o94bjCPD90t8jo-x-NYR6-kkZSV3BJvSJSNWSoEcgvHP9M7rGNfk0PL5OkbhGX_OGQjj17GRv_2odgGvnhkd-Mh1bcYOfOwpM5XotcYfsm9hCYX5D9e42Js29oIEfMsJEIKvck8QnSlYT9PPg1tvzWRIdACGVeECqG_cQX62LwiOGQuB_X4yfMppAsxLvG93GPUDIKJ1j83j0e0rt23r1A2_t4ldDSWEFNuWQiJnAa6yuoTGC3WuCCluux0I-VX5-fFt-LZr5gRH8BODXdwlrQoRFq6gMouBWLxwo6_oPnssQrjcKdaMS40QO6TX6Ev7uRkqNIGlb816auiHt2gPRJ8o-cWhM1ZWT9E1QlLHzTjVUUNcZcFren5VM-lRKDUU0Dls6U3ORdmDdhIRCqat619lLsIflUJaUPDnggGDFakwyu-3nrl7hShwTxP1VYJTmr7D6cXZKrwiUpwyqmNZEb0ET_YvFQ5sQ6f57Lqmzm2Sto7EKmr6Dx_azo1Hk4H4uWKcEoAwCoWNQBGuWfydJra0gOscZjreFUp9zPgA5XJ1ciTbA9NZW5jB_LUWHz8I_R4D7h3T8Uw4kPnhDWJ4ldLFc_zcWMaDwPhIe_EQt9hYIR7P7VOWMfw17FGLPQXreTA2Ff8eC-d-AjIT3cxyEBODKqSUO7fIFyB]--></g></svg>