<?xml version="1.0" encoding="us-ascii" standalone="no"?><svg xmlns="http://www.w3.org/2000/svg" xmlns:xlink="http://www.w3.org/1999/xlink" contentStyleType="text/css" height="326.5px" preserveAspectRatio="none" style="width:1589px;height:326px;background:#FFFFFF;" version="1.1" viewBox="0 0 1589 326" width="1589.5px" zoomAndPan="magnify"><defs/><g><text fill="#000000" font-family="sans-serif" font-size="7" font-weight="bold" lengthAdjust="spacing" textLength="82" x="750.25" y="12.5537">USLP07 - Class Diagram</text><!--class ProductionFactorApplianceRegisterUI--><g id="elem_ProductionFactorApplianceRegisterUI"><rect codeLine="10" fill="#F1F1F1" height="51.9316" id="ProductionFactorApplianceRegisterUI" rx="1.25" ry="1.25" style="stroke:#181818;stroke-width:0.25;" width="187" x="247.5" y="23.3105"/><ellipse cx="279.875" cy="31.3105" fill="#ADD1B2" rx="5.5" ry="5.5" style="stroke:#181818;stroke-width:0.5;"/><path d="M281.2578,29.248 Q281.3359,29.1387 281.4297,29.084 Q281.5234,29.0293 281.6328,29.0293 Q281.8203,29.0293 281.9375,29.1621 Q282.0547,29.2871 282.0547,29.5918 L282.0547,30.3184 Q282.0547,30.623 281.9375,30.7559 Q281.8203,30.8887 281.6328,30.8887 Q281.4609,30.8887 281.3594,30.7871 Q281.2578,30.6934 281.2031,30.4355 Q281.1797,30.2559 281.0859,30.1621 Q280.9219,29.9746 280.6172,29.8652 Q280.3125,29.7559 280,29.7559 Q279.6172,29.7559 279.2969,29.9199 Q278.9844,30.084 278.7344,30.459 Q278.4922,30.834 278.4922,31.3496 L278.4922,31.8965 Q278.4922,32.5137 278.9375,32.9277 Q279.3828,33.334 280.1797,33.334 Q280.6484,33.334 280.9766,33.209 Q281.1719,33.1309 281.3828,32.9121 Q281.5156,32.7793 281.5859,32.7402 Q281.6641,32.7012 281.7656,32.7012 Q281.9297,32.7012 282.0547,32.834 Q282.1875,32.959 282.1875,33.1309 Q282.1875,33.3027 282.0156,33.5059 Q281.7656,33.7949 281.3672,33.959 Q280.8281,34.1855 280.1797,34.1855 Q279.4219,34.1855 278.8203,33.873 Q278.3281,33.623 277.9844,33.0918 Q277.6406,32.5527 277.6406,31.9121 L277.6406,31.334 Q277.6406,30.6699 277.9453,30.0996 Q278.2578,29.5215 278.8047,29.2168 Q279.3516,28.9043 279.9688,28.9043 Q280.3359,28.9043 280.6563,28.9902 Q280.9844,29.0684 281.2578,29.248 Z " fill="#000000"/><text fill="#000000" font-family="sans-serif" font-size="7" lengthAdjust="spacing" textLength="118" x="290.125" y="34.209">ProductionFactorApplianceRegisterUI</text><line style="stroke:#181818;stroke-width:0.25;" x1="248" x2="434" y1="39.3105" y2="39.3105"/><text fill="#000000" font-family="sans-serif" font-size="7" lengthAdjust="spacing" textLength="181" x="250.5" y="48.8643">-controller : ProductionFactorApplianceRegisterController</text><line style="stroke:#181818;stroke-width:0.25;" x1="248" x2="434" y1="52.6211" y2="52.6211"/><text fill="#000000" font-family="sans-serif" font-size="7" lengthAdjust="spacing" textLength="127" x="250.5" y="62.1748">+ProductionFactorApplianceRegisterUI()</text><text fill="#000000" font-family="sans-serif" font-size="7" lengthAdjust="spacing" textLength="38.5" x="250.5" y="71.4854">+run() : void</text></g><!--class ProductionFactorApplianceRegisterController--><g id="elem_ProductionFactorApplianceRegisterController"><rect codeLine="16" fill="#F1F1F1" height="51.9316" id="ProductionFactorApplianceRegisterController" rx="1.25" ry="1.25" style="stroke:#181818;stroke-width:0.25;" width="675" x="3.5" y="105.3105"/><ellipse cx="267.375" cy="113.3105" fill="#ADD1B2" rx="5.5" ry="5.5" style="stroke:#181818;stroke-width:0.5;"/><path d="M268.7578,111.248 Q268.8359,111.1387 268.9297,111.084 Q269.0234,111.0293 269.1328,111.0293 Q269.3203,111.0293 269.4375,111.1621 Q269.5547,111.2871 269.5547,111.5918 L269.5547,112.3184 Q269.5547,112.623 269.4375,112.7559 Q269.3203,112.8887 269.1328,112.8887 Q268.9609,112.8887 268.8594,112.7871 Q268.7578,112.6934 268.7031,112.4355 Q268.6797,112.2559 268.5859,112.1621 Q268.4219,111.9746 268.1172,111.8652 Q267.8125,111.7559 267.5,111.7559 Q267.1172,111.7559 266.7969,111.9199 Q266.4844,112.084 266.2344,112.459 Q265.9922,112.834 265.9922,113.3496 L265.9922,113.8965 Q265.9922,114.5137 266.4375,114.9277 Q266.8828,115.334 267.6797,115.334 Q268.1484,115.334 268.4766,115.209 Q268.6719,115.1309 268.8828,114.9121 Q269.0156,114.7793 269.0859,114.7402 Q269.1641,114.7012 269.2656,114.7012 Q269.4297,114.7012 269.5547,114.834 Q269.6875,114.959 269.6875,115.1309 Q269.6875,115.3027 269.5156,115.5059 Q269.2656,115.7949 268.8672,115.959 Q268.3281,116.1855 267.6797,116.1855 Q266.9219,116.1855 266.3203,115.873 Q265.8281,115.623 265.4844,115.0918 Q265.1406,114.5527 265.1406,113.9121 L265.1406,113.334 Q265.1406,112.6699 265.4453,112.0996 Q265.7578,111.5215 266.3047,111.2168 Q266.8516,110.9043 267.4688,110.9043 Q267.8359,110.9043 268.1563,110.9902 Q268.4844,111.0684 268.7578,111.248 Z " fill="#000000"/><text fill="#000000" font-family="sans-serif" font-size="7" lengthAdjust="spacing" textLength="143" x="277.625" y="116.209">ProductionFactorApplianceRegisterController</text><line style="stroke:#181818;stroke-width:0.25;" x1="4" x2="678" y1="121.3105" y2="121.3105"/><text fill="#000000" font-family="sans-serif" font-size="7" lengthAdjust="spacing" textLength="247" x="6.5" y="130.8643">-productionFactorApplianceRepository : ProductionFactorApplianceRepository</text><line style="stroke:#181818;stroke-width:0.25;" x1="4" x2="678" y1="134.6211" y2="134.6211"/><text fill="#000000" font-family="sans-serif" font-size="7" lengthAdjust="spacing" textLength="152" x="6.5" y="144.1748">+ProductionFactorApplianceRegisterController()</text><text fill="#000000" font-family="sans-serif" font-size="7" lengthAdjust="spacing" textLength="669" x="6.5" y="153.4854">+productionFactorApplianceRegister(operationId : Integer, plotId : Integer, operationDate : LocalDate, value : Double, unitId : Integer, productionFactorId : Integer, fertilizationModeId : Integer, cropId : Integer) : void</text></g><!--class ProductionFactorApplianceRepository--><g id="elem_ProductionFactorApplianceRepository"><rect codeLine="22" fill="#F1F1F1" height="70.5527" id="ProductionFactorApplianceRepository" rx="1.25" ry="1.25" style="stroke:#181818;stroke-width:0.25;" width="675" x="493.5" y="219.8105"/><ellipse cx="769.125" cy="227.8105" fill="#ADD1B2" rx="5.5" ry="5.5" style="stroke:#181818;stroke-width:0.5;"/><path d="M770.5078,225.748 Q770.5859,225.6387 770.6797,225.584 Q770.7734,225.5293 770.8828,225.5293 Q771.0703,225.5293 771.1875,225.6621 Q771.3047,225.7871 771.3047,226.0918 L771.3047,226.8184 Q771.3047,227.123 771.1875,227.2559 Q771.0703,227.3887 770.8828,227.3887 Q770.7109,227.3887 770.6094,227.2871 Q770.5078,227.1934 770.4531,226.9355 Q770.4297,226.7559 770.3359,226.6621 Q770.1719,226.4746 769.8672,226.3652 Q769.5625,226.2559 769.25,226.2559 Q768.8672,226.2559 768.5469,226.4199 Q768.2344,226.584 767.9844,226.959 Q767.7422,227.334 767.7422,227.8496 L767.7422,228.3965 Q767.7422,229.0137 768.1875,229.4277 Q768.6328,229.834 769.4297,229.834 Q769.8984,229.834 770.2266,229.709 Q770.4219,229.6309 770.6328,229.4121 Q770.7656,229.2793 770.8359,229.2402 Q770.9141,229.2012 771.0156,229.2012 Q771.1797,229.2012 771.3047,229.334 Q771.4375,229.459 771.4375,229.6309 Q771.4375,229.8027 771.2656,230.0059 Q771.0156,230.2949 770.6172,230.459 Q770.0781,230.6855 769.4297,230.6855 Q768.6719,230.6855 768.0703,230.373 Q767.5781,230.123 767.2344,229.5918 Q766.8906,229.0527 766.8906,228.4121 L766.8906,227.834 Q766.8906,227.1699 767.1953,226.5996 Q767.5078,226.0215 768.0547,225.7168 Q768.6016,225.4043 769.2188,225.4043 Q769.5859,225.4043 769.9063,225.4902 Q770.2344,225.5684 770.5078,225.748 Z " fill="#000000"/><text fill="#000000" font-family="sans-serif" font-size="7" lengthAdjust="spacing" textLength="119.5" x="779.375" y="230.709">ProductionFactorApplianceRepository</text><line style="stroke:#181818;stroke-width:0.25;" x1="494" x2="1168" y1="235.8105" y2="235.8105"/><line style="stroke:#181818;stroke-width:0.25;" x1="494" x2="1168" y1="239.8105" y2="239.8105"/><text fill="#000000" font-family="sans-serif" font-size="7" lengthAdjust="spacing" textLength="128.5" x="496.5" y="249.3643">+ProductionFactorApplianceRepository()</text><text fill="#000000" font-family="sans-serif" font-size="7" lengthAdjust="spacing" textLength="436.5" x="496.5" y="258.6748">+getProductionFactorAppliances(pPlotId : Integer, pInitialDate : LocalDate, pFinalDate : LocalDate) : List&lt;ProductionFactorApplianceDTO&gt;</text><text fill="#000000" font-family="sans-serif" font-size="7" lengthAdjust="spacing" textLength="669" x="496.5" y="267.9854">+productionFactorApplianceRegister(operationId : Integer, plotId : Integer, operationDate : LocalDate, value : Double, unitId : Integer, productionFactorId : Integer, fertilizationModeId : Integer, cropId : Integer) : void</text><text fill="#000000" font-family="sans-serif" font-size="7" lengthAdjust="spacing" textLength="191.5" x="496.5" y="277.2959">+productionFactorApplianceDelete(operationId : Integer) : int</text><text fill="#000000" font-family="sans-serif" font-size="7" lengthAdjust="spacing" textLength="245" x="496.5" y="286.6064">-resultSetToList(resultSet : ResultSet) : List&lt;ProductionFactorApplianceDTO&gt;</text></g><!--class Repositories--><g id="elem_Repositories"><rect codeLine="30" fill="#F1F1F1" height="107.7949" id="Repositories" rx="1.25" ry="1.25" style="stroke:#181818;stroke-width:0.25;" width="270" x="206" y="201.0605"/><ellipse cx="319.125" cy="209.0605" fill="#ADD1B2" rx="5.5" ry="5.5" style="stroke:#181818;stroke-width:0.5;"/><path d="M320.5078,206.998 Q320.5859,206.8887 320.6797,206.834 Q320.7734,206.7793 320.8828,206.7793 Q321.0703,206.7793 321.1875,206.9121 Q321.3047,207.0371 321.3047,207.3418 L321.3047,208.0684 Q321.3047,208.373 321.1875,208.5059 Q321.0703,208.6387 320.8828,208.6387 Q320.7109,208.6387 320.6094,208.5371 Q320.5078,208.4434 320.4531,208.1855 Q320.4297,208.0059 320.3359,207.9121 Q320.1719,207.7246 319.8672,207.6152 Q319.5625,207.5059 319.25,207.5059 Q318.8672,207.5059 318.5469,207.6699 Q318.2344,207.834 317.9844,208.209 Q317.7422,208.584 317.7422,209.0996 L317.7422,209.6465 Q317.7422,210.2637 318.1875,210.6777 Q318.6328,211.084 319.4297,211.084 Q319.8984,211.084 320.2266,210.959 Q320.4219,210.8809 320.6328,210.6621 Q320.7656,210.5293 320.8359,210.4902 Q320.9141,210.4512 321.0156,210.4512 Q321.1797,210.4512 321.3047,210.584 Q321.4375,210.709 321.4375,210.8809 Q321.4375,211.0527 321.2656,211.2559 Q321.0156,211.5449 320.6172,211.709 Q320.0781,211.9355 319.4297,211.9355 Q318.6719,211.9355 318.0703,211.623 Q317.5781,211.373 317.2344,210.8418 Q316.8906,210.3027 316.8906,209.6621 L316.8906,209.084 Q316.8906,208.4199 317.1953,207.8496 Q317.5078,207.2715 318.0547,206.9668 Q318.6016,206.6543 319.2188,206.6543 Q319.5859,206.6543 319.9063,206.7402 Q320.2344,206.8184 320.5078,206.998 Z " fill="#000000"/><text fill="#000000" font-family="sans-serif" font-size="7" lengthAdjust="spacing" textLength="39.5" x="329.375" y="211.959">Repositories</text><line style="stroke:#181818;stroke-width:0.25;" x1="206.5" x2="475.5" y1="217.0605" y2="217.0605"/><text fill="#000000" font-family="sans-serif" font-size="7" lengthAdjust="spacing" textLength="100" x="209" y="226.6143">-plotRepository : PlotRepository</text><text fill="#000000" font-family="sans-serif" font-size="7" lengthAdjust="spacing" textLength="138" x="209" y="235.9248">-operationRepository : OperationRepository</text><text fill="#000000" font-family="sans-serif" font-size="7" lengthAdjust="spacing" textLength="247" x="209" y="245.2354">-productionFactorApplianceRepository : ProductionFactorApplianceRepository</text><text fill="#000000" font-family="sans-serif" font-size="7" lengthAdjust="spacing" textLength="146" x="209" y="254.5459">-fertilizationRepository : FertilizationRepository</text><line style="stroke:#181818;stroke-width:0.25;" x1="206.5" x2="475.5" y1="258.3027" y2="258.3027"/><text fill="#000000" font-family="sans-serif" font-size="7" lengthAdjust="spacing" textLength="91" x="209" y="267.8564">+getInstance() : Repositories</text><text fill="#000000" font-family="sans-serif" font-size="7" lengthAdjust="spacing" textLength="117" x="209" y="277.167">+getPlotRepository() : PlotRepository</text><text fill="#000000" font-family="sans-serif" font-size="7" lengthAdjust="spacing" textLength="156" x="209" y="286.4775">+getOperationRepository() : OperationRepository</text><text fill="#000000" font-family="sans-serif" font-size="7" lengthAdjust="spacing" textLength="264" x="209" y="295.7881">+getProductionFactorApplianceRepository() : ProductionFactorApplianceRepository</text><text fill="#000000" font-family="sans-serif" font-size="7" lengthAdjust="spacing" textLength="165" x="209" y="305.0986">+getFertilizationRepository() : FertilizationRepository</text></g><!--class ProductionFactorApplianceDTO--><g id="elem_ProductionFactorApplianceDTO"><rect codeLine="42" fill="#F1F1F1" height="135.7266" id="ProductionFactorApplianceDTO" rx="1.25" ry="1.25" style="stroke:#181818;stroke-width:0.25;" width="400" x="1186" y="187.3105"/><ellipse cx="1333.625" cy="195.3105" fill="#ADD1B2" rx="5.5" ry="5.5" style="stroke:#181818;stroke-width:0.5;"/><path d="M1335.0078,193.248 Q1335.0859,193.1387 1335.1797,193.084 Q1335.2734,193.0293 1335.3828,193.0293 Q1335.5703,193.0293 1335.6875,193.1621 Q1335.8047,193.2871 1335.8047,193.5918 L1335.8047,194.3184 Q1335.8047,194.623 1335.6875,194.7559 Q1335.5703,194.8887 1335.3828,194.8887 Q1335.2109,194.8887 1335.1094,194.7871 Q1335.0078,194.6934 1334.9531,194.4355 Q1334.9297,194.2559 1334.8359,194.1621 Q1334.6719,193.9746 1334.3672,193.8652 Q1334.0625,193.7559 1333.75,193.7559 Q1333.3672,193.7559 1333.0469,193.9199 Q1332.7344,194.084 1332.4844,194.459 Q1332.2422,194.834 1332.2422,195.3496 L1332.2422,195.8965 Q1332.2422,196.5137 1332.6875,196.9277 Q1333.1328,197.334 1333.9297,197.334 Q1334.3984,197.334 1334.7266,197.209 Q1334.9219,197.1309 1335.1328,196.9121 Q1335.2656,196.7793 1335.3359,196.7402 Q1335.4141,196.7012 1335.5156,196.7012 Q1335.6797,196.7012 1335.8047,196.834 Q1335.9375,196.959 1335.9375,197.1309 Q1335.9375,197.3027 1335.7656,197.5059 Q1335.5156,197.7949 1335.1172,197.959 Q1334.5781,198.1855 1333.9297,198.1855 Q1333.1719,198.1855 1332.5703,197.873 Q1332.0781,197.623 1331.7344,197.0918 Q1331.3906,196.5527 1331.3906,195.9121 L1331.3906,195.334 Q1331.3906,194.6699 1331.6953,194.0996 Q1332.0078,193.5215 1332.5547,193.2168 Q1333.1016,192.9043 1333.7188,192.9043 Q1334.0859,192.9043 1334.4063,192.9902 Q1334.7344,193.0684 1335.0078,193.248 Z " fill="#000000"/><text fill="#000000" font-family="sans-serif" font-size="7" lengthAdjust="spacing" textLength="100.5" x="1343.875" y="198.209">ProductionFactorApplianceDTO</text><line style="stroke:#181818;stroke-width:0.25;" x1="1186.5" x2="1585.5" y1="203.3105" y2="203.3105"/><text fill="#000000" font-family="sans-serif" font-size="7" lengthAdjust="spacing" textLength="85.5" x="1189" y="212.8643">-operationDate : LocalDate</text><text fill="#000000" font-family="sans-serif" font-size="7" lengthAdjust="spacing" textLength="118.5" x="1189" y="222.1748">-productionFactorDesignation : String</text><text fill="#000000" font-family="sans-serif" font-size="7" lengthAdjust="spacing" textLength="80" x="1189" y="231.4854">-plantDesignation : String</text><line style="stroke:#181818;stroke-width:0.25;" x1="1186.5" x2="1585.5" y1="235.2422" y2="235.2422"/><text fill="#000000" font-family="sans-serif" font-size="7" lengthAdjust="spacing" textLength="394" x="1189" y="244.7959">+ProductionFactorApplianceDTO(operationDate : LocalDate, productionFactorDesignation : String, plantDesignation : String)</text><text fill="#000000" font-family="sans-serif" font-size="7" lengthAdjust="spacing" textLength="103.5" x="1189" y="254.1064">+getOperationDate() : LocalDate</text><text fill="#000000" font-family="sans-serif" font-size="7" lengthAdjust="spacing" textLength="167" x="1189" y="263.417">+setOperationDate(operationDate : LocalDate) : void</text><text fill="#000000" font-family="sans-serif" font-size="7" lengthAdjust="spacing" textLength="135.5" x="1189" y="272.7275">+getProductionFactorDesignation() : String</text><text fill="#000000" font-family="sans-serif" font-size="7" lengthAdjust="spacing" textLength="245.5" x="1189" y="282.0381">+setProductionFactorDesignation(productionFactorDesignation : String) : void</text><text fill="#000000" font-family="sans-serif" font-size="7" lengthAdjust="spacing" textLength="97" x="1189" y="291.3486">+getPlantDesignation() : String</text><text fill="#000000" font-family="sans-serif" font-size="7" lengthAdjust="spacing" textLength="168.5" x="1189" y="300.6592">+setPlantDesignation(plantDesignation : String) : void</text><text fill="#000000" font-family="sans-serif" font-size="7" lengthAdjust="spacing" textLength="82" x="1189" y="309.9697">+equals(Object) : boolean</text><text fill="#000000" font-family="sans-serif" font-size="7" lengthAdjust="spacing" textLength="58" x="1189" y="319.2803">+toString() : String</text></g><!--link ProductionFactorApplianceRegisterUI to ProductionFactorApplianceRegisterController--><g id="link_ProductionFactorApplianceRegisterUI_ProductionFactorApplianceRegisterController"><path codeLine="57" d="M341,75.4405 C341,84.9405 341,92.7105 341,102.2105 " fill="none" id="ProductionFactorApplianceRegisterUI-to-ProductionFactorApplianceRegisterController" style="stroke:#181818;stroke-width:0.5;"/><polygon fill="#181818" points="341,105.2105,343,100.7105,341,102.7105,339,100.7105,341,105.2105" style="stroke:#181818;stroke-width:0.5;"/></g><!--link ProductionFactorApplianceRegisterController to Repositories--><g id="link_ProductionFactorApplianceRegisterController_Repositories"><path codeLine="58" d="M341,157.3955 C341,170.0755 341,182.8905 341,198.0555 " fill="none" id="ProductionFactorApplianceRegisterController-to-Repositories" style="stroke:#181818;stroke-width:0.5;"/><polygon fill="#181818" points="341,201.0555,343,196.5555,341,198.5555,339,196.5555,341,201.0555" style="stroke:#181818;stroke-width:0.5;"/></g><!--link Repositories to ProductionFactorApplianceRepository--><g id="link_Repositories_ProductionFactorApplianceRepository"><path codeLine="59" d="M476.07,255.0605 C482.84,255.0605 485.735,255.0605 490.365,255.0605 " fill="none" id="Repositories-to-ProductionFactorApplianceRepository" style="stroke:#181818;stroke-width:0.5;stroke-dasharray:7.0,7.0;"/><polygon fill="#181818" points="493.365,255.0605,488.865,253.0605,490.865,255.0605,488.865,257.0605,493.365,255.0605" style="stroke:#181818;stroke-width:0.5;"/></g><!--link ProductionFactorApplianceRepository to ProductionFactorApplianceDTO--><g id="link_ProductionFactorApplianceRepository_ProductionFactorApplianceDTO"><path codeLine="60" d="M1168.565,255.0605 C1175.195,255.0605 1178.1,255.0605 1182.995,255.0605 " fill="none" id="ProductionFactorApplianceRepository-to-ProductionFactorApplianceDTO" style="stroke:#181818;stroke-width:0.5;stroke-dasharray:7.0,7.0;"/><polygon fill="#181818" points="1185.995,255.0605,1181.495,253.0605,1183.495,255.0605,1181.495,257.0605,1185.995,255.0605" style="stroke:#181818;stroke-width:0.5;"/></g><!--SRC=[vLRDRjim3BxxANHqaAJeRS0m12Xg132G8K7JFe3YiAvMJT8akaDQxDqdkObYEPRj77QQJpRvyUyJISkyCg6efZ-9eiKhBM6B1mv4Gu5Kb1mIum7cXUxbRoPAyaovQMeu4u071KH9Vd0VIKDPS6hC7Q9ckmeXBwJOidSWjqc236sef-rgS_k5pCcz0vACqTAQ9KbjHpPQxgi2cHHBMg3KTqfnHaK13r0oWw2VSlAH4FlCYNMDMd8EcdmTDhptwDfyEYPKEZbYTINIYOto9ja- -JCwsNDCdxIAsoXfc9KS-giveSPMSSx1LwE6R5AfG5C7oFSscrmWbA1dH769eSG3CufW5IjPKExUP-IDyig9CbdjkFsk16iPj_C8jS-WaN7sNhl_BlSGgWijLLDorV5ugZ-6QJnXFNqbO1HkKhMv84dbjdJsoKl8aLeoSIbtfQpiGNoBXiaUrul_uZ07Qio00q9tXSu74tYSEmscuhW5V9IEsjH_MzJ3wNqayRx3V7CmCES9jxo6mnm8ZYYVSW1TNqh_oTwOXmSI-5XsQyxDdmk3pcUz4PiKDEOZABa6Th1GGpjAhl4nAlhdhnrqz1wrJYE5ruvYf0ml6zinlZMY0nOvv0mCAqLjOT5R-qyLfUyoAZ2gd_Rca_OC-fWKPl7eauw3TOvh4iDofyIqGT6yMlkWemCQoTIn0Z9CFtvCpHqPj3Ze3ji6nPaB0y2lojwwqlNkXxsQETrEIWvK7DKeFwsQGMqlZha-pUUBgsvBrznodEzW8mGRycOnQY37_BTlD2jViC-XxVFaBm00]--></g></svg>