<?xml version="1.0" encoding="us-ascii" standalone="no"?><svg xmlns="http://www.w3.org/2000/svg" xmlns:xlink="http://www.w3.org/1999/xlink" contentStyleType="text/css" height="1731px" preserveAspectRatio="none" style="width:1594px;height:1731px;background:#FFFFFF;" version="1.1" viewBox="0 0 1594 1731" width="1594.8px" zoomAndPan="magnify"><defs/><g><text fill="#000000" font-family="sans-serif" font-size="8.4" font-weight="bold" lengthAdjust="spacing" textLength="98.4" x="744.15" y="15.0645">USLP02 - Class Diagram</text><!--class IrrigationSystemUI--><g id="elem_IrrigationSystemUI"><rect codeLine="10" fill="#F1F1F1" height="51.1453" id="IrrigationSystemUI" rx="1.5" ry="1.5" style="stroke:#181818;stroke-width:0.3;" width="87" x="732.6" y="67.2727"/><ellipse cx="741.6" cy="76.8727" fill="#ADD1B2" rx="6.6" ry="6.6" style="stroke:#181818;stroke-width:0.6;"/><path d="M743.2594,74.3977 Q743.3531,74.2664 743.4656,74.2008 Q743.5781,74.1352 743.7094,74.1352 Q743.9344,74.1352 744.075,74.2945 Q744.2156,74.4445 744.2156,74.8102 L744.2156,75.682 Q744.2156,76.0477 744.075,76.207 Q743.9344,76.3664 743.7094,76.3664 Q743.5031,76.3664 743.3813,76.2445 Q743.2594,76.132 743.1938,75.8227 Q743.1656,75.607 743.0531,75.4945 Q742.8562,75.2695 742.4906,75.1383 Q742.125,75.007 741.75,75.007 Q741.2906,75.007 740.9063,75.2039 Q740.5313,75.4008 740.2312,75.8508 Q739.9406,76.3008 739.9406,76.9195 L739.9406,77.5758 Q739.9406,78.3164 740.475,78.8133 Q741.0094,79.3008 741.9656,79.3008 Q742.5281,79.3008 742.9219,79.1508 Q743.1563,79.057 743.4094,78.7945 Q743.5688,78.6352 743.6531,78.5883 Q743.7469,78.5414 743.8688,78.5414 Q744.0656,78.5414 744.2156,78.7008 Q744.375,78.8508 744.375,79.057 Q744.375,79.2633 744.1687,79.507 Q743.8688,79.8539 743.3906,80.0508 Q742.7438,80.3227 741.9656,80.3227 Q741.0563,80.3227 740.3344,79.9477 Q739.7438,79.6477 739.3313,79.0102 Q738.9187,78.3633 738.9187,77.5945 L738.9187,76.9008 Q738.9187,76.1039 739.2844,75.4195 Q739.6594,74.7258 740.3156,74.3602 Q740.9719,73.9852 741.7125,73.9852 Q742.1531,73.9852 742.5375,74.0883 Q742.9313,74.182 743.2594,74.3977 Z " fill="#000000"/><text fill="#000000" font-family="sans-serif" font-size="8.4" lengthAdjust="spacing" textLength="67.8" x="750" y="80.3508">IrrigationSystemUI</text><line style="stroke:#181818;stroke-width:0.3;" x1="733.2" x2="819" y1="86.4727" y2="86.4727"/><line style="stroke:#181818;stroke-width:0.3;" x1="733.2" x2="819" y1="91.2727" y2="91.2727"/><text fill="#000000" font-family="sans-serif" font-size="8.4" lengthAdjust="spacing" textLength="23.4" x="736.2" y="102.7371">+run()</text><text fill="#000000" font-family="sans-serif" font-size="8.4" lengthAdjust="spacing" textLength="54" x="736.2" y="113.9098">+showStatus()</text></g><!--class IrrigationSystemController--><g id="elem_IrrigationSystemController"><rect codeLine="15" fill="#F1F1F1" height="129.3539" id="IrrigationSystemController" rx="1.5" ry="1.5" style="stroke:#181818;stroke-width:0.3;" width="228" x="840.9" y="27.9727"/><ellipse cx="903.45" cy="37.5727" fill="#ADD1B2" rx="6.6" ry="6.6" style="stroke:#181818;stroke-width:0.6;"/><path d="M905.1094,35.0977 Q905.2031,34.9664 905.3156,34.9008 Q905.4281,34.8352 905.5594,34.8352 Q905.7844,34.8352 905.925,34.9945 Q906.0656,35.1445 906.0656,35.5102 L906.0656,36.382 Q906.0656,36.7477 905.925,36.907 Q905.7844,37.0664 905.5594,37.0664 Q905.3531,37.0664 905.2312,36.9445 Q905.1094,36.832 905.0437,36.5227 Q905.0156,36.307 904.9031,36.1945 Q904.7063,35.9695 904.3406,35.8383 Q903.975,35.707 903.6,35.707 Q903.1406,35.707 902.7563,35.9039 Q902.3813,36.1008 902.0813,36.5508 Q901.7906,37.0008 901.7906,37.6195 L901.7906,38.2758 Q901.7906,39.0164 902.325,39.5133 Q902.8594,40.0008 903.8156,40.0008 Q904.3781,40.0008 904.7719,39.8508 Q905.0063,39.757 905.2594,39.4945 Q905.4187,39.3352 905.5031,39.2883 Q905.5969,39.2414 905.7188,39.2414 Q905.9156,39.2414 906.0656,39.4008 Q906.225,39.5508 906.225,39.757 Q906.225,39.9633 906.0188,40.207 Q905.7188,40.5539 905.2406,40.7508 Q904.5938,41.0227 903.8156,41.0227 Q902.9063,41.0227 902.1844,40.6477 Q901.5938,40.3477 901.1813,39.7102 Q900.7688,39.0633 900.7688,38.2945 L900.7688,37.6008 Q900.7688,36.8039 901.1344,36.1195 Q901.5094,35.4258 902.1656,35.0602 Q902.8219,34.6852 903.5625,34.6852 Q904.0031,34.6852 904.3875,34.7883 Q904.7813,34.882 905.1094,35.0977 Z " fill="#000000"/><text fill="#000000" font-family="sans-serif" font-size="8.4" lengthAdjust="spacing" textLength="97.8" x="915.75" y="41.0508">IrrigationSystemController</text><line style="stroke:#181818;stroke-width:0.3;" x1="841.5" x2="1068.3" y1="47.1727" y2="47.1727"/><text fill="#000000" font-family="sans-serif" font-size="8.4" lengthAdjust="spacing" textLength="63.6" x="844.5" y="58.6371">-irrigationSystem</text><text fill="#000000" font-family="sans-serif" font-size="8.4" lengthAdjust="spacing" textLength="43.8" x="844.5" y="69.8098">-fileContent</text><line style="stroke:#181818;stroke-width:0.3;" x1="841.5" x2="1068.3" y1="74.318" y2="74.318"/><text fill="#000000" font-family="sans-serif" font-size="8.4" lengthAdjust="spacing" textLength="108.6" x="844.5" y="85.7824">+IrrigationSystemController()</text><text fill="#000000" font-family="sans-serif" font-size="8.4" lengthAdjust="spacing" textLength="99" x="844.5" y="96.9551">+getFileContent(fileName)</text><text fill="#000000" font-family="sans-serif" font-size="8.4" lengthAdjust="spacing" textLength="151.2" x="844.5" y="108.1277">+getIrrigationSystem() : IrrigationSystem</text><text fill="#000000" font-family="sans-serif" font-size="8.4" lengthAdjust="spacing" textLength="165.6" x="844.5" y="119.3004">+getIrrigationPlanDTO() : IrrigationPlanDTO</text><text fill="#000000" font-family="sans-serif" font-size="8.4" lengthAdjust="spacing" textLength="161.4" x="844.5" y="130.473">+isOn(currentDate, currentTime) : boolean</text><text fill="#000000" font-family="sans-serif" font-size="8.4" lengthAdjust="spacing" textLength="220.8" x="844.5" y="141.6457">+getCurrentIrrigatedPlotDTO() : CurrentlyIrrigatedPlotDTO</text><text fill="#000000" font-family="sans-serif" font-size="8.4" lengthAdjust="spacing" textLength="86.4" x="844.5" y="152.8184">+createFile() : boolean</text></g><!--class IrrigationSystem--><g id="elem_IrrigationSystem"><rect codeLine="27" fill="#F1F1F1" height="95.8359" id="IrrigationSystem" rx="1.5" ry="1.5" style="stroke:#181818;stroke-width:0.3;" width="229.2" x="186.9" y="244.2727"/><ellipse cx="268.65" cy="253.8727" fill="#ADD1B2" rx="6.6" ry="6.6" style="stroke:#181818;stroke-width:0.6;"/><path d="M270.3094,251.3977 Q270.4031,251.2664 270.5156,251.2008 Q270.6281,251.1352 270.7594,251.1352 Q270.9844,251.1352 271.125,251.2945 Q271.2656,251.4445 271.2656,251.8102 L271.2656,252.682 Q271.2656,253.0477 271.125,253.207 Q270.9844,253.3664 270.7594,253.3664 Q270.5531,253.3664 270.4313,253.2445 Q270.3094,253.132 270.2438,252.8227 Q270.2156,252.607 270.1031,252.4945 Q269.9063,252.2695 269.5406,252.1383 Q269.175,252.007 268.8,252.007 Q268.3406,252.007 267.9563,252.2039 Q267.5813,252.4008 267.2813,252.8508 Q266.9906,253.3008 266.9906,253.9195 L266.9906,254.5758 Q266.9906,255.3164 267.525,255.8133 Q268.0594,256.3008 269.0156,256.3008 Q269.5781,256.3008 269.9719,256.1508 Q270.2063,256.057 270.4594,255.7945 Q270.6188,255.6352 270.7031,255.5883 Q270.7969,255.5414 270.9188,255.5414 Q271.1156,255.5414 271.2656,255.7008 Q271.425,255.8508 271.425,256.057 Q271.425,256.2633 271.2188,256.507 Q270.9188,256.8539 270.4406,257.0508 Q269.7938,257.3227 269.0156,257.3227 Q268.1063,257.3227 267.3844,256.9477 Q266.7938,256.6477 266.3812,256.0102 Q265.9688,255.3633 265.9688,254.5945 L265.9688,253.9008 Q265.9688,253.1039 266.3344,252.4195 Q266.7094,251.7258 267.3656,251.3602 Q268.0219,250.9852 268.7625,250.9852 Q269.2031,250.9852 269.5875,251.0883 Q269.9813,251.182 270.3094,251.3977 Z " fill="#000000"/><text fill="#000000" font-family="sans-serif" font-size="8.4" lengthAdjust="spacing" textLength="60.6" x="280.95" y="257.3508">IrrigationSystem</text><line style="stroke:#181818;stroke-width:0.3;" x1="187.5" x2="415.5" y1="263.4727" y2="263.4727"/><line style="stroke:#181818;stroke-width:0.3;" x1="187.5" x2="415.5" y1="268.2727" y2="268.2727"/><text fill="#000000" font-family="sans-serif" font-size="8.4" lengthAdjust="spacing" textLength="182.4" x="190.5" y="279.7371">+createIrrigationPlan(fileContent) : IrrigationPlan</text><text fill="#000000" font-family="sans-serif" font-size="8.4" lengthAdjust="spacing" textLength="103.2" x="190.5" y="290.9098">+isOn(date, time) : boolean</text><text fill="#000000" font-family="sans-serif" font-size="8.4" lengthAdjust="spacing" textLength="165" x="190.5" y="302.0824">+checkIfOffInDay(date, regularity) : boolean</text><text fill="#000000" font-family="sans-serif" font-size="8.4" lengthAdjust="spacing" textLength="222" x="190.5" y="313.2551">+getCurrentIrrigatedPlot(date, time) : CurrentlyIrrigatedPlot</text><text fill="#000000" font-family="sans-serif" font-size="8.4" lengthAdjust="spacing" textLength="86.4" x="190.5" y="324.4277">+createFile() : boolean</text><text fill="#000000" font-family="sans-serif" font-size="8.4" lengthAdjust="spacing" textLength="198.6" x="190.5" y="335.6004">-addContentToIrrigationPlanFile(content, date, start)</text></g><!--class IrrigationPlan--><g id="elem_IrrigationPlan"><rect codeLine="36" fill="#F1F1F1" height="274.5984" id="IrrigationPlan" rx="1.5" ry="1.5" style="stroke:#181818;stroke-width:0.3;" width="351" x="504.6" y="408.3727"/><ellipse cx="652.65" cy="417.9727" fill="#ADD1B2" rx="6.6" ry="6.6" style="stroke:#181818;stroke-width:0.6;"/><path d="M654.3094,415.4977 Q654.4031,415.3664 654.5156,415.3008 Q654.6281,415.2352 654.7594,415.2352 Q654.9844,415.2352 655.125,415.3945 Q655.2656,415.5445 655.2656,415.9102 L655.2656,416.782 Q655.2656,417.1477 655.125,417.307 Q654.9844,417.4664 654.7594,417.4664 Q654.5531,417.4664 654.4313,417.3445 Q654.3094,417.232 654.2438,416.9227 Q654.2156,416.707 654.1031,416.5945 Q653.9063,416.3695 653.5406,416.2383 Q653.175,416.107 652.8,416.107 Q652.3406,416.107 651.9563,416.3039 Q651.5813,416.5008 651.2813,416.9508 Q650.9906,417.4008 650.9906,418.0195 L650.9906,418.6758 Q650.9906,419.4164 651.525,419.9133 Q652.0594,420.4008 653.0156,420.4008 Q653.5781,420.4008 653.9719,420.2508 Q654.2063,420.157 654.4594,419.8945 Q654.6188,419.7352 654.7031,419.6883 Q654.7969,419.6414 654.9187,419.6414 Q655.1156,419.6414 655.2656,419.8008 Q655.425,419.9508 655.425,420.157 Q655.425,420.3633 655.2188,420.607 Q654.9187,420.9539 654.4406,421.1508 Q653.7937,421.4227 653.0156,421.4227 Q652.1062,421.4227 651.3844,421.0477 Q650.7937,420.7477 650.3813,420.1102 Q649.9688,419.4633 649.9688,418.6945 L649.9688,418.0008 Q649.9688,417.2039 650.3344,416.5195 Q650.7094,415.8258 651.3656,415.4602 Q652.0219,415.0852 652.7625,415.0852 Q653.2031,415.0852 653.5875,415.1883 Q653.9812,415.282 654.3094,415.4977 Z " fill="#000000"/><text fill="#000000" font-family="sans-serif" font-size="8.4" lengthAdjust="spacing" textLength="49.8" x="664.95" y="421.4508">IrrigationPlan</text><line style="stroke:#181818;stroke-width:0.3;" x1="505.2" x2="855" y1="427.5727" y2="427.5727"/><text fill="#000000" font-family="sans-serif" font-size="8.4" lengthAdjust="spacing" textLength="51.6" x="508.2" y="439.0371">-creationDate</text><text fill="#000000" font-family="sans-serif" font-size="8.4" lengthAdjust="spacing" textLength="60" x="508.2" y="450.2098">-numberOfDays</text><text fill="#000000" font-family="sans-serif" font-size="8.4" lengthAdjust="spacing" textLength="59.4" x="508.2" y="461.3824">-firstCycleBegin</text><text fill="#000000" font-family="sans-serif" font-size="8.4" lengthAdjust="spacing" textLength="52.8" x="508.2" y="472.5551">-firstCycleEnd</text><text fill="#000000" font-family="sans-serif" font-size="8.4" lengthAdjust="spacing" textLength="73.2" x="508.2" y="483.7277">-secondCycleBegin</text><text fill="#000000" font-family="sans-serif" font-size="8.4" lengthAdjust="spacing" textLength="66.6" x="508.2" y="494.9004">-secondCycleEnd</text><line style="stroke:#181818;stroke-width:0.3;" x1="505.2" x2="855" y1="499.4086" y2="499.4086"/><text fill="#000000" font-family="sans-serif" font-size="8.4" lengthAdjust="spacing" textLength="60.6" x="508.2" y="510.873">+IrrigationPlan()</text><text fill="#000000" font-family="sans-serif" font-size="8.4" lengthAdjust="spacing" textLength="343.8" x="508.2" y="522.0457">+IrrigationPlan(firstCycleBegin, firstCycleEnd, secondCycleBegin, secondCycleEnd, cipList)</text><text fill="#000000" font-family="sans-serif" font-size="8.4" lengthAdjust="spacing" textLength="118.8" x="508.2" y="533.2184">+getCreationDate() : LocalDate</text><text fill="#000000" font-family="sans-serif" font-size="8.4" lengthAdjust="spacing" textLength="96.6" x="508.2" y="544.391">+getNumberOfDays() : int</text><text fill="#000000" font-family="sans-serif" font-size="8.4" lengthAdjust="spacing" textLength="128.4" x="508.2" y="555.5637">+getFirstCycleBegin() : LocalTime</text><text fill="#000000" font-family="sans-serif" font-size="8.4" lengthAdjust="spacing" textLength="138" x="508.2" y="566.7363">+setFirstCycleBegin(firstCycleBegin)</text><text fill="#000000" font-family="sans-serif" font-size="8.4" lengthAdjust="spacing" textLength="121.8" x="508.2" y="577.909">+getFirstCycleEnd() : LocalTime</text><text fill="#000000" font-family="sans-serif" font-size="8.4" lengthAdjust="spacing" textLength="124.8" x="508.2" y="589.0816">+setFirstCycleEnd(firstCycleEnd)</text><text fill="#000000" font-family="sans-serif" font-size="8.4" lengthAdjust="spacing" textLength="140.4" x="508.2" y="600.2543">+getSecondCycleBegin() : LocalTime</text><text fill="#000000" font-family="sans-serif" font-size="8.4" lengthAdjust="spacing" textLength="163.8" x="508.2" y="611.427">+setSecondCycleBegin(secondCycleBegin)</text><text fill="#000000" font-family="sans-serif" font-size="8.4" lengthAdjust="spacing" textLength="133.8" x="508.2" y="622.5996">+getSecondCycleEnd() : LocalTime</text><text fill="#000000" font-family="sans-serif" font-size="8.4" lengthAdjust="spacing" textLength="150.6" x="508.2" y="633.7723">+setSecondCycleEnd(secondCycleEnd)</text><text fill="#000000" font-family="sans-serif" font-size="8.4" lengthAdjust="spacing" textLength="159" x="508.2" y="644.9449">+getCipList() : List&lt;CurrentlyIrrigatedPlot&gt;</text><text fill="#000000" font-family="sans-serif" font-size="8.4" lengthAdjust="spacing" textLength="72" x="508.2" y="656.1176">+setCipList(cipList)</text><text fill="#000000" font-family="sans-serif" font-size="8.4" lengthAdjust="spacing" textLength="96.6" x="508.2" y="667.2902">+equals(object) : boolean</text><text fill="#000000" font-family="sans-serif" font-size="8.4" lengthAdjust="spacing" textLength="66" x="508.2" y="678.4629">+hashCode() : int</text></g><!--class IrrigationPlanMapper--><g id="elem_IrrigationPlanMapper"><rect codeLine="61" fill="#F1F1F1" height="51.1453" id="IrrigationPlanMapper" rx="1.5" ry="1.5" style="stroke:#181818;stroke-width:0.3;" width="190.2" x="480" y="967.2727"/><ellipse cx="533.25" cy="976.8727" fill="#ADD1B2" rx="6.6" ry="6.6" style="stroke:#181818;stroke-width:0.6;"/><path d="M534.9094,974.3977 Q535.0031,974.2664 535.1156,974.2008 Q535.2281,974.1352 535.3594,974.1352 Q535.5844,974.1352 535.725,974.2945 Q535.8656,974.4445 535.8656,974.8102 L535.8656,975.682 Q535.8656,976.0477 535.725,976.207 Q535.5844,976.3664 535.3594,976.3664 Q535.1531,976.3664 535.0313,976.2445 Q534.9094,976.132 534.8438,975.8227 Q534.8156,975.607 534.7031,975.4945 Q534.5063,975.2695 534.1406,975.1383 Q533.775,975.007 533.4,975.007 Q532.9406,975.007 532.5563,975.2039 Q532.1813,975.4008 531.8813,975.8508 Q531.5906,976.3008 531.5906,976.9195 L531.5906,977.5758 Q531.5906,978.3164 532.125,978.8133 Q532.6594,979.3008 533.6156,979.3008 Q534.1781,979.3008 534.5719,979.1508 Q534.8063,979.057 535.0594,978.7945 Q535.2188,978.6352 535.3031,978.5883 Q535.3969,978.5414 535.5188,978.5414 Q535.7156,978.5414 535.8656,978.7008 Q536.025,978.8508 536.025,979.057 Q536.025,979.2633 535.8188,979.507 Q535.5188,979.8539 535.0406,980.0508 Q534.3938,980.3227 533.6156,980.3227 Q532.7063,980.3227 531.9844,979.9477 Q531.3938,979.6477 530.9812,979.0102 Q530.5688,978.3633 530.5688,977.5945 L530.5688,976.9008 Q530.5688,976.1039 530.9344,975.4195 Q531.3094,974.7258 531.9656,974.3602 Q532.6219,973.9852 533.3625,973.9852 Q533.8031,973.9852 534.1875,974.0883 Q534.5813,974.182 534.9094,974.3977 Z " fill="#000000"/><text fill="#000000" font-family="sans-serif" font-size="8.4" lengthAdjust="spacing" textLength="78.6" x="545.55" y="980.3508">IrrigationPlanMapper</text><line style="stroke:#181818;stroke-width:0.3;" x1="480.6" x2="669.6" y1="986.4727" y2="986.4727"/><line style="stroke:#181818;stroke-width:0.3;" x1="480.6" x2="669.6" y1="991.2727" y2="991.2727"/><text fill="#000000" font-family="sans-serif" font-size="8.4" lengthAdjust="spacing" textLength="180" x="483.6" y="1002.7371">+mapToDTO(irrigationPlan) : IrrigationPlanDTO</text><text fill="#000000" font-family="sans-serif" font-size="8.4" lengthAdjust="spacing" textLength="183" x="483.6" y="1013.9098">+mapToEntity(irrigationPlanDTO) : IrrigationPlan</text></g><!--class IrrigationPlanDTO--><g id="elem_IrrigationPlanDTO"><rect codeLine="66" fill="#F1F1F1" height="263.4258" id="IrrigationPlanDTO" rx="1.5" ry="1.5" style="stroke:#181818;stroke-width:0.3;" width="369" x="304.2" y="1110.3727"/><ellipse cx="452.25" cy="1119.9727" fill="#ADD1B2" rx="6.6" ry="6.6" style="stroke:#181818;stroke-width:0.6;"/><path d="M453.9094,1117.4977 Q454.0031,1117.3664 454.1156,1117.3008 Q454.2281,1117.2352 454.3594,1117.2352 Q454.5844,1117.2352 454.725,1117.3945 Q454.8656,1117.5445 454.8656,1117.9102 L454.8656,1118.782 Q454.8656,1119.1477 454.725,1119.307 Q454.5844,1119.4664 454.3594,1119.4664 Q454.1531,1119.4664 454.0313,1119.3445 Q453.9094,1119.232 453.8438,1118.9227 Q453.8156,1118.707 453.7031,1118.5945 Q453.5062,1118.3695 453.1406,1118.2383 Q452.775,1118.107 452.4,1118.107 Q451.9406,1118.107 451.5563,1118.3039 Q451.1813,1118.5008 450.8812,1118.9508 Q450.5906,1119.4008 450.5906,1120.0195 L450.5906,1120.6758 Q450.5906,1121.4164 451.125,1121.9133 Q451.6594,1122.4008 452.6156,1122.4008 Q453.1781,1122.4008 453.5719,1122.2508 Q453.8063,1122.157 454.0594,1121.8945 Q454.2188,1121.7352 454.3031,1121.6883 Q454.3969,1121.6414 454.5188,1121.6414 Q454.7156,1121.6414 454.8656,1121.8008 Q455.025,1121.9508 455.025,1122.157 Q455.025,1122.3633 454.8187,1122.607 Q454.5188,1122.9539 454.0406,1123.1508 Q453.3938,1123.4227 452.6156,1123.4227 Q451.7063,1123.4227 450.9844,1123.0477 Q450.3938,1122.7477 449.9813,1122.1102 Q449.5687,1121.4633 449.5687,1120.6945 L449.5687,1120.0008 Q449.5687,1119.2039 449.9344,1118.5195 Q450.3094,1117.8258 450.9656,1117.4602 Q451.6219,1117.0852 452.3625,1117.0852 Q452.8031,1117.0852 453.1875,1117.1883 Q453.5813,1117.282 453.9094,1117.4977 Z " fill="#000000"/><text fill="#000000" font-family="sans-serif" font-size="8.4" lengthAdjust="spacing" textLength="67.8" x="464.55" y="1123.4508">IrrigationPlanDTO</text><line style="stroke:#181818;stroke-width:0.3;" x1="304.8" x2="672.6" y1="1129.5727" y2="1129.5727"/><text fill="#000000" font-family="sans-serif" font-size="8.4" lengthAdjust="spacing" textLength="51.6" x="307.8" y="1141.0371">-creationDate</text><text fill="#000000" font-family="sans-serif" font-size="8.4" lengthAdjust="spacing" textLength="60" x="307.8" y="1152.2098">-numberOfDays</text><text fill="#000000" font-family="sans-serif" font-size="8.4" lengthAdjust="spacing" textLength="59.4" x="307.8" y="1163.3824">-firstCycleBegin</text><text fill="#000000" font-family="sans-serif" font-size="8.4" lengthAdjust="spacing" textLength="52.8" x="307.8" y="1174.5551">-firstCycleEnd</text><text fill="#000000" font-family="sans-serif" font-size="8.4" lengthAdjust="spacing" textLength="73.2" x="307.8" y="1185.7277">-secondCycleBegin</text><text fill="#000000" font-family="sans-serif" font-size="8.4" lengthAdjust="spacing" textLength="66.6" x="307.8" y="1196.9004">-secondCycleEnd</text><line style="stroke:#181818;stroke-width:0.3;" x1="304.8" x2="672.6" y1="1201.4086" y2="1201.4086"/><text fill="#000000" font-family="sans-serif" font-size="8.4" lengthAdjust="spacing" textLength="361.8" x="307.8" y="1212.873">+IrrigationPlanDTO(firstCycleBegin, firstCycleEnd, secondCycleBegin, secondCycleEnd, cipList)</text><text fill="#000000" font-family="sans-serif" font-size="8.4" lengthAdjust="spacing" textLength="118.8" x="307.8" y="1224.0457">+getCreationDate() : LocalDate</text><text fill="#000000" font-family="sans-serif" font-size="8.4" lengthAdjust="spacing" textLength="121.2" x="307.8" y="1235.2184">+setCreationDate(creationDate)</text><text fill="#000000" font-family="sans-serif" font-size="8.4" lengthAdjust="spacing" textLength="96.6" x="307.8" y="1246.391">+getNumberOfDays() : int</text><text fill="#000000" font-family="sans-serif" font-size="8.4" lengthAdjust="spacing" textLength="136.8" x="307.8" y="1257.5637">+setNumberOfDays(numberOfDays)</text><text fill="#000000" font-family="sans-serif" font-size="8.4" lengthAdjust="spacing" textLength="128.4" x="307.8" y="1268.7363">+getFirstCycleBegin() : LocalTime</text><text fill="#000000" font-family="sans-serif" font-size="8.4" lengthAdjust="spacing" textLength="138" x="307.8" y="1279.909">+setFirstCycleBegin(firstCycleBegin)</text><text fill="#000000" font-family="sans-serif" font-size="8.4" lengthAdjust="spacing" textLength="121.8" x="307.8" y="1291.0816">+getFirstCycleEnd() : LocalTime</text><text fill="#000000" font-family="sans-serif" font-size="8.4" lengthAdjust="spacing" textLength="124.8" x="307.8" y="1302.2543">+setFirstCycleEnd(firstCycleEnd)</text><text fill="#000000" font-family="sans-serif" font-size="8.4" lengthAdjust="spacing" textLength="140.4" x="307.8" y="1313.427">+getSecondCycleBegin() : LocalTime</text><text fill="#000000" font-family="sans-serif" font-size="8.4" lengthAdjust="spacing" textLength="163.8" x="307.8" y="1324.5996">+setSecondCycleBegin(secondCycleBegin)</text><text fill="#000000" font-family="sans-serif" font-size="8.4" lengthAdjust="spacing" textLength="133.8" x="307.8" y="1335.7723">+getSecondCycleEnd() : LocalTime</text><text fill="#000000" font-family="sans-serif" font-size="8.4" lengthAdjust="spacing" textLength="150.6" x="307.8" y="1346.9449">+setSecondCycleEnd(secondCycleEnd)</text><text fill="#000000" font-family="sans-serif" font-size="8.4" lengthAdjust="spacing" textLength="195" x="307.8" y="1358.1176">+getCipDTOList() : List&lt;CurrentlyIrrigatedPlotDTO&gt;</text><text fill="#000000" font-family="sans-serif" font-size="8.4" lengthAdjust="spacing" textLength="108" x="307.8" y="1369.2902">+setCipDTOList(cipDTOList)</text></g><!--class CurrentlyIrrigatedSector--><g id="elem_CurrentlyIrrigatedPlot"><rect codeLine="90" fill="#F1F1F1" height="196.3898" id="CurrentlyIrrigatedPlot" rx="1.5" ry="1.5" style="stroke:#181818;stroke-width:0.3;" width="273" x="1029.6" y="194.1727"/><ellipse cx="1123.35" cy="203.7727" fill="#ADD1B2" rx="6.6" ry="6.6" style="stroke:#181818;stroke-width:0.6;"/><path d="M1125.0094,201.2977 Q1125.1031,201.1664 1125.2156,201.1008 Q1125.3281,201.0352 1125.4594,201.0352 Q1125.6844,201.0352 1125.825,201.1945 Q1125.9656,201.3445 1125.9656,201.7102 L1125.9656,202.582 Q1125.9656,202.9477 1125.825,203.107 Q1125.6844,203.2664 1125.4594,203.2664 Q1125.2531,203.2664 1125.1313,203.1445 Q1125.0094,203.032 1124.9438,202.7227 Q1124.9156,202.507 1124.8031,202.3945 Q1124.6063,202.1695 1124.2406,202.0383 Q1123.875,201.907 1123.5,201.907 Q1123.0406,201.907 1122.6563,202.1039 Q1122.2813,202.3008 1121.9813,202.7508 Q1121.6906,203.2008 1121.6906,203.8195 L1121.6906,204.4758 Q1121.6906,205.2164 1122.225,205.7133 Q1122.7594,206.2008 1123.7156,206.2008 Q1124.2781,206.2008 1124.6719,206.0508 Q1124.9063,205.957 1125.1594,205.6945 Q1125.3188,205.5352 1125.4031,205.4883 Q1125.4969,205.4414 1125.6187,205.4414 Q1125.8156,205.4414 1125.9656,205.6008 Q1126.125,205.7508 1126.125,205.957 Q1126.125,206.1633 1125.9188,206.407 Q1125.6187,206.7539 1125.1406,206.9508 Q1124.4937,207.2227 1123.7156,207.2227 Q1122.8062,207.2227 1122.0844,206.8477 Q1121.4937,206.5477 1121.0813,205.9102 Q1120.6688,205.2633 1120.6688,204.4945 L1120.6688,203.8008 Q1120.6688,203.0039 1121.0344,202.3195 Q1121.4094,201.6258 1122.0656,201.2602 Q1122.7219,200.8852 1123.4625,200.8852 Q1123.9031,200.8852 1124.2875,200.9883 Q1124.6812,201.082 1125.0094,201.2977 Z " fill="#000000"/><text fill="#000000" font-family="sans-serif" font-size="8.4" lengthAdjust="spacing" textLength="80.4" x="1135.65" y="207.2508">CurrentlyIrrigatedPlot</text><line style="stroke:#181818;stroke-width:0.3;" x1="1030.2" x2="1302" y1="213.3727" y2="213.3727"/><text fill="#000000" font-family="sans-serif" font-size="8.4" lengthAdjust="spacing" textLength="16.8" x="1033.2" y="224.8371">-plot</text><text fill="#000000" font-family="sans-serif" font-size="8.4" lengthAdjust="spacing" textLength="70.2" x="1033.2" y="236.0098">-durationInMinutes</text><text fill="#000000" font-family="sans-serif" font-size="8.4" lengthAdjust="spacing" textLength="38.4" x="1033.2" y="247.1824">-regularity</text><text fill="#000000" font-family="sans-serif" font-size="8.4" lengthAdjust="spacing" textLength="46.8" x="1033.2" y="258.3551">-minutesLeft</text><line style="stroke:#181818;stroke-width:0.3;" x1="1030.2" x2="1302" y1="262.8633" y2="262.8633"/><text fill="#000000" font-family="sans-serif" font-size="8.4" lengthAdjust="spacing" textLength="265.8" x="1033.2" y="274.3277">+CurrentlyIrrigatedPlot(plot, durationInMinutes, regularity, minutesLeft)</text><text fill="#000000" font-family="sans-serif" font-size="8.4" lengthAdjust="spacing" textLength="153.6" x="1033.2" y="285.5004">+CurrentlyIrrigatedPlot(plot, minutesLeft)</text><text fill="#000000" font-family="sans-serif" font-size="8.4" lengthAdjust="spacing" textLength="58.8" x="1033.2" y="296.673">+getPlot() : Plot</text><text fill="#000000" font-family="sans-serif" font-size="8.4" lengthAdjust="spacing" textLength="50.4" x="1033.2" y="307.8457">+setPlot(plot)</text><text fill="#000000" font-family="sans-serif" font-size="8.4" lengthAdjust="spacing" textLength="107.4" x="1033.2" y="319.0184">+getDurationInMinutes() : int</text><text fill="#000000" font-family="sans-serif" font-size="8.4" lengthAdjust="spacing" textLength="157.8" x="1033.2" y="330.191">+setDurationInMinutes(durationInMinutes)</text><text fill="#000000" font-family="sans-serif" font-size="8.4" lengthAdjust="spacing" textLength="77.4" x="1033.2" y="341.3637">+getRegularity() : int</text><text fill="#000000" font-family="sans-serif" font-size="8.4" lengthAdjust="spacing" textLength="96" x="1033.2" y="352.5363">+setRegularity(regularity)</text><text fill="#000000" font-family="sans-serif" font-size="8.4" lengthAdjust="spacing" textLength="82.8" x="1033.2" y="363.709">+getMinutesLeft() : int</text><text fill="#000000" font-family="sans-serif" font-size="8.4" lengthAdjust="spacing" textLength="109.8" x="1033.2" y="374.8816">+setMinutesLeft(minutesLeft)</text><text fill="#000000" font-family="sans-serif" font-size="8.4" lengthAdjust="spacing" textLength="96.6" x="1033.2" y="386.0543">+equals(object) : boolean</text></g><!--class CurrentlyIrrigatedSectorDTO--><g id="elem_CurrentlyIrrigatedPlotDTO"><rect codeLine="108" fill="#F1F1F1" height="118.1812" id="CurrentlyIrrigatedPlotDTO" rx="1.5" ry="1.5" style="stroke:#181818;stroke-width:0.3;" width="196.8" x="978.3" y="1182.9727"/><ellipse cx="1024.95" cy="1192.5727" fill="#ADD1B2" rx="6.6" ry="6.6" style="stroke:#181818;stroke-width:0.6;"/><path d="M1026.6094,1190.0977 Q1026.7031,1189.9664 1026.8156,1189.9008 Q1026.9281,1189.8352 1027.0594,1189.8352 Q1027.2844,1189.8352 1027.425,1189.9945 Q1027.5656,1190.1445 1027.5656,1190.5102 L1027.5656,1191.382 Q1027.5656,1191.7477 1027.425,1191.907 Q1027.2844,1192.0664 1027.0594,1192.0664 Q1026.8531,1192.0664 1026.7313,1191.9445 Q1026.6094,1191.832 1026.5438,1191.5227 Q1026.5156,1191.307 1026.4031,1191.1945 Q1026.2063,1190.9695 1025.8406,1190.8383 Q1025.475,1190.707 1025.1,1190.707 Q1024.6406,1190.707 1024.2563,1190.9039 Q1023.8812,1191.1008 1023.5813,1191.5508 Q1023.2906,1192.0008 1023.2906,1192.6195 L1023.2906,1193.2758 Q1023.2906,1194.0164 1023.825,1194.5133 Q1024.3594,1195.0008 1025.3156,1195.0008 Q1025.8781,1195.0008 1026.2719,1194.8508 Q1026.5063,1194.757 1026.7594,1194.4945 Q1026.9188,1194.3352 1027.0031,1194.2883 Q1027.0969,1194.2414 1027.2188,1194.2414 Q1027.4156,1194.2414 1027.5656,1194.4008 Q1027.725,1194.5508 1027.725,1194.757 Q1027.725,1194.9633 1027.5188,1195.207 Q1027.2188,1195.5539 1026.7406,1195.7508 Q1026.0938,1196.0227 1025.3156,1196.0227 Q1024.4063,1196.0227 1023.6844,1195.6477 Q1023.0938,1195.3477 1022.6813,1194.7102 Q1022.2688,1194.0633 1022.2688,1193.2945 L1022.2688,1192.6008 Q1022.2688,1191.8039 1022.6344,1191.1195 Q1023.0094,1190.4258 1023.6656,1190.0602 Q1024.3219,1189.6852 1025.0625,1189.6852 Q1025.5031,1189.6852 1025.8875,1189.7883 Q1026.2813,1189.882 1026.6094,1190.0977 Z " fill="#000000"/><text fill="#000000" font-family="sans-serif" font-size="8.4" lengthAdjust="spacing" textLength="98.4" x="1037.25" y="1196.0508">CurrentlyIrrigatedPlotDTO</text><line style="stroke:#181818;stroke-width:0.3;" x1="978.9" x2="1174.5" y1="1202.1727" y2="1202.1727"/><text fill="#000000" font-family="sans-serif" font-size="8.4" lengthAdjust="spacing" textLength="34.8" x="981.9" y="1213.6371">-plotDTO</text><text fill="#000000" font-family="sans-serif" font-size="8.4" lengthAdjust="spacing" textLength="46.8" x="981.9" y="1224.8098">-minutesLeft</text><line style="stroke:#181818;stroke-width:0.3;" x1="978.9" x2="1174.5" y1="1229.318" y2="1229.318"/><text fill="#000000" font-family="sans-serif" font-size="8.4" lengthAdjust="spacing" textLength="189.6" x="981.9" y="1240.7824">+CurrentlyIrrigatedPlotDTO(plotDTO, minutesLeft)</text><text fill="#000000" font-family="sans-serif" font-size="8.4" lengthAdjust="spacing" textLength="94.8" x="981.9" y="1251.9551">+getPlotDTO() : PlotDTO</text><text fill="#000000" font-family="sans-serif" font-size="8.4" lengthAdjust="spacing" textLength="86.4" x="981.9" y="1263.1277">+setPlotDTO(plotDTO)</text><text fill="#000000" font-family="sans-serif" font-size="8.4" lengthAdjust="spacing" textLength="82.8" x="981.9" y="1274.3004">+getMinutesLeft() : int</text><text fill="#000000" font-family="sans-serif" font-size="8.4" lengthAdjust="spacing" textLength="109.8" x="981.9" y="1285.473">+setMinutesLeft(minutesLeft)</text><text fill="#000000" font-family="sans-serif" font-size="8.4" lengthAdjust="spacing" textLength="69.6" x="981.9" y="1296.6457">+toString() : String</text></g><!--class CurrentlyIrrigatedSectorMapper--><g id="elem_CurrentlyIrrigatedPlotMapper"><rect codeLine="119" fill="#F1F1F1" height="73.4906" id="CurrentlyIrrigatedPlotMapper" rx="1.5" ry="1.5" style="stroke:#181818;stroke-width:0.3;" width="249.6" x="986.7" y="956.1727"/><ellipse cx="1054.35" cy="965.7727" fill="#ADD1B2" rx="6.6" ry="6.6" style="stroke:#181818;stroke-width:0.6;"/><path d="M1056.0094,963.2977 Q1056.1031,963.1664 1056.2156,963.1008 Q1056.3281,963.0352 1056.4594,963.0352 Q1056.6844,963.0352 1056.825,963.1945 Q1056.9656,963.3445 1056.9656,963.7102 L1056.9656,964.582 Q1056.9656,964.9477 1056.825,965.107 Q1056.6844,965.2664 1056.4594,965.2664 Q1056.2531,965.2664 1056.1313,965.1445 Q1056.0094,965.032 1055.9438,964.7227 Q1055.9156,964.507 1055.8031,964.3945 Q1055.6063,964.1695 1055.2406,964.0383 Q1054.875,963.907 1054.5,963.907 Q1054.0406,963.907 1053.6563,964.1039 Q1053.2813,964.3008 1052.9813,964.7508 Q1052.6906,965.2008 1052.6906,965.8195 L1052.6906,966.4758 Q1052.6906,967.2164 1053.225,967.7133 Q1053.7594,968.2008 1054.7156,968.2008 Q1055.2781,968.2008 1055.6719,968.0508 Q1055.9063,967.957 1056.1594,967.6945 Q1056.3188,967.5352 1056.4031,967.4883 Q1056.4969,967.4414 1056.6187,967.4414 Q1056.8156,967.4414 1056.9656,967.6008 Q1057.125,967.7508 1057.125,967.957 Q1057.125,968.1633 1056.9188,968.407 Q1056.6187,968.7539 1056.1406,968.9508 Q1055.4937,969.2227 1054.7156,969.2227 Q1053.8062,969.2227 1053.0844,968.8477 Q1052.4937,968.5477 1052.0813,967.9102 Q1051.6688,967.2633 1051.6688,966.4945 L1051.6688,965.8008 Q1051.6688,965.0039 1052.0344,964.3195 Q1052.4094,963.6258 1053.0656,963.2602 Q1053.7219,962.8852 1054.4625,962.8852 Q1054.9031,962.8852 1055.2875,962.9883 Q1055.6812,963.082 1056.0094,963.2977 Z " fill="#000000"/><text fill="#000000" font-family="sans-serif" font-size="8.4" lengthAdjust="spacing" textLength="109.2" x="1066.65" y="969.2508">CurrentlyIrrigatedPlotMapper</text><line style="stroke:#181818;stroke-width:0.3;" x1="987.3" x2="1235.7" y1="975.3727" y2="975.3727"/><line style="stroke:#181818;stroke-width:0.3;" x1="987.3" x2="1235.7" y1="980.1727" y2="980.1727"/><text fill="#000000" font-family="sans-serif" font-size="8.4" lengthAdjust="spacing" textLength="239.4" x="990.3" y="991.6371">+mapToDTO(currentlyIrrigatedSector) : CurrentlyIrrigatedPlotDTO</text><text fill="#000000" font-family="sans-serif" font-size="8.4" lengthAdjust="spacing" textLength="242.4" x="990.3" y="1002.8098">+mapToEntity(currentlyIrrigatedSectorDTO) : CurrentlyIrrigatedPlot</text><text fill="#000000" font-family="sans-serif" font-size="8.4" lengthAdjust="spacing" textLength="201.6" x="990.3" y="1013.9824">+toDTOList(cipList) : List&lt;CurrentlyIrrigatedPlotDTO&gt;</text><text fill="#000000" font-family="sans-serif" font-size="8.4" lengthAdjust="spacing" textLength="204.6" x="990.3" y="1025.1551">+toEntityList(cipDTOList) : List&lt;CurrentlyIrrigatedPlot&gt;</text></g><!--class Plot--><g id="elem_Plot"><rect codeLine="126" fill="#F1F1F1" height="174.0445" id="Plot" rx="1.5" ry="1.5" style="stroke:#181818;stroke-width:0.3;" width="133.2" x="1366.5" y="701.1727"/><ellipse cx="1423.35" cy="710.7727" fill="#ADD1B2" rx="6.6" ry="6.6" style="stroke:#181818;stroke-width:0.6;"/><path d="M1425.0094,708.2977 Q1425.1031,708.1664 1425.2156,708.1008 Q1425.3281,708.0352 1425.4594,708.0352 Q1425.6844,708.0352 1425.825,708.1945 Q1425.9656,708.3445 1425.9656,708.7102 L1425.9656,709.582 Q1425.9656,709.9477 1425.825,710.107 Q1425.6844,710.2664 1425.4594,710.2664 Q1425.2531,710.2664 1425.1313,710.1445 Q1425.0094,710.032 1424.9438,709.7227 Q1424.9156,709.507 1424.8031,709.3945 Q1424.6063,709.1695 1424.2406,709.0383 Q1423.875,708.907 1423.5,708.907 Q1423.0406,708.907 1422.6563,709.1039 Q1422.2813,709.3008 1421.9813,709.7508 Q1421.6906,710.2008 1421.6906,710.8195 L1421.6906,711.4758 Q1421.6906,712.2164 1422.225,712.7133 Q1422.7594,713.2008 1423.7156,713.2008 Q1424.2781,713.2008 1424.6719,713.0508 Q1424.9063,712.957 1425.1594,712.6945 Q1425.3188,712.5352 1425.4031,712.4883 Q1425.4969,712.4414 1425.6187,712.4414 Q1425.8156,712.4414 1425.9656,712.6008 Q1426.125,712.7508 1426.125,712.957 Q1426.125,713.1633 1425.9188,713.407 Q1425.6187,713.7539 1425.1406,713.9508 Q1424.4937,714.2227 1423.7156,714.2227 Q1422.8062,714.2227 1422.0844,713.8477 Q1421.4937,713.5477 1421.0813,712.9102 Q1420.6688,712.2633 1420.6688,711.4945 L1420.6688,710.8008 Q1420.6688,710.0039 1421.0344,709.3195 Q1421.4094,708.6258 1422.0656,708.2602 Q1422.7219,707.8852 1423.4625,707.8852 Q1423.9031,707.8852 1424.2875,707.9883 Q1424.6812,708.082 1425.0094,708.2977 Z " fill="#000000"/><text fill="#000000" font-family="sans-serif" font-size="8.4" lengthAdjust="spacing" textLength="14.4" x="1435.65" y="714.2508">Plot</text><line style="stroke:#181818;stroke-width:0.3;" x1="1367.1" x2="1499.1" y1="720.3727" y2="720.3727"/><text fill="#000000" font-family="sans-serif" font-size="8.4" lengthAdjust="spacing" textLength="46.8" x="1370.1" y="731.8371">-designation</text><text fill="#000000" font-family="sans-serif" font-size="8.4" lengthAdjust="spacing" textLength="20.4" x="1370.1" y="743.0098">-area</text><line style="stroke:#181818;stroke-width:0.3;" x1="1367.1" x2="1499.1" y1="747.518" y2="747.518"/><text fill="#000000" font-family="sans-serif" font-size="8.4" lengthAdjust="spacing" textLength="126" x="1370.1" y="758.9824">+Plot(designation, area, cropList)</text><text fill="#000000" font-family="sans-serif" font-size="8.4" lengthAdjust="spacing" textLength="69" x="1370.1" y="770.1551">+Plot(designation)</text><text fill="#000000" font-family="sans-serif" font-size="8.4" lengthAdjust="spacing" textLength="25.2" x="1370.1" y="781.3277">+Plot()</text><text fill="#000000" font-family="sans-serif" font-size="8.4" lengthAdjust="spacing" textLength="97.2" x="1370.1" y="792.5004">+getDesignation() : String</text><text fill="#000000" font-family="sans-serif" font-size="8.4" lengthAdjust="spacing" textLength="111" x="1370.1" y="803.673">+setDesignation(designation)</text><text fill="#000000" font-family="sans-serif" font-size="8.4" lengthAdjust="spacing" textLength="73.8" x="1370.1" y="814.8457">+getArea() : double</text><text fill="#000000" font-family="sans-serif" font-size="8.4" lengthAdjust="spacing" textLength="57.6" x="1370.1" y="826.0184">+setArea(area)</text><text fill="#000000" font-family="sans-serif" font-size="8.4" lengthAdjust="spacing" textLength="103.2" x="1370.1" y="837.191">+getCropList() : List&lt;Crop&gt;</text><text fill="#000000" font-family="sans-serif" font-size="8.4" lengthAdjust="spacing" textLength="84" x="1370.1" y="848.3637">+setCropList(cropList)</text><text fill="#000000" font-family="sans-serif" font-size="8.4" lengthAdjust="spacing" textLength="96.6" x="1370.1" y="859.5363">+equals(object) : boolean</text><text fill="#000000" font-family="sans-serif" font-size="8.4" lengthAdjust="spacing" textLength="66" x="1370.1" y="870.709">+hashCode() : int</text></g><!--class PlotDTO--><g id="elem_PlotDTO"><rect codeLine="142" fill="#F1F1F1" height="151.6992" id="PlotDTO" rx="1.5" ry="1.5" style="stroke:#181818;stroke-width:0.3;" width="169.2" x="992.1" y="1421.1727"/><ellipse cx="1057.95" cy="1430.7727" fill="#ADD1B2" rx="6.6" ry="6.6" style="stroke:#181818;stroke-width:0.6;"/><path d="M1059.6094,1428.2977 Q1059.7031,1428.1664 1059.8156,1428.1008 Q1059.9281,1428.0352 1060.0594,1428.0352 Q1060.2844,1428.0352 1060.425,1428.1945 Q1060.5656,1428.3445 1060.5656,1428.7102 L1060.5656,1429.582 Q1060.5656,1429.9477 1060.425,1430.107 Q1060.2844,1430.2664 1060.0594,1430.2664 Q1059.8531,1430.2664 1059.7313,1430.1445 Q1059.6094,1430.032 1059.5438,1429.7227 Q1059.5156,1429.507 1059.4031,1429.3945 Q1059.2063,1429.1695 1058.8406,1429.0383 Q1058.475,1428.907 1058.1,1428.907 Q1057.6406,1428.907 1057.2563,1429.1039 Q1056.8813,1429.3008 1056.5813,1429.7508 Q1056.2906,1430.2008 1056.2906,1430.8195 L1056.2906,1431.4758 Q1056.2906,1432.2164 1056.825,1432.7133 Q1057.3594,1433.2008 1058.3156,1433.2008 Q1058.8781,1433.2008 1059.2719,1433.0508 Q1059.5063,1432.957 1059.7594,1432.6945 Q1059.9188,1432.5352 1060.0031,1432.4883 Q1060.0969,1432.4414 1060.2188,1432.4414 Q1060.4156,1432.4414 1060.5656,1432.6008 Q1060.725,1432.7508 1060.725,1432.957 Q1060.725,1433.1633 1060.5188,1433.407 Q1060.2188,1433.7539 1059.7406,1433.9508 Q1059.0938,1434.2227 1058.3156,1434.2227 Q1057.4063,1434.2227 1056.6844,1433.8477 Q1056.0938,1433.5477 1055.6812,1432.9102 Q1055.2688,1432.2633 1055.2688,1431.4945 L1055.2688,1430.8008 Q1055.2688,1430.0039 1055.6344,1429.3195 Q1056.0094,1428.6258 1056.6656,1428.2602 Q1057.3219,1427.8852 1058.0625,1427.8852 Q1058.5031,1427.8852 1058.8875,1427.9883 Q1059.2813,1428.082 1059.6094,1428.2977 Z " fill="#000000"/><text fill="#000000" font-family="sans-serif" font-size="8.4" lengthAdjust="spacing" textLength="32.4" x="1070.25" y="1434.2508">PlotDTO</text><line style="stroke:#181818;stroke-width:0.3;" x1="992.7" x2="1160.7" y1="1440.3727" y2="1440.3727"/><text fill="#000000" font-family="sans-serif" font-size="8.4" lengthAdjust="spacing" textLength="46.8" x="995.7" y="1451.8371">-designation</text><text fill="#000000" font-family="sans-serif" font-size="8.4" lengthAdjust="spacing" textLength="20.4" x="995.7" y="1463.0098">-area</text><line style="stroke:#181818;stroke-width:0.3;" x1="992.7" x2="1160.7" y1="1467.518" y2="1467.518"/><text fill="#000000" font-family="sans-serif" font-size="8.4" lengthAdjust="spacing" textLength="162" x="995.7" y="1478.9824">+PlotDTO(designation, area, cropDTOList)</text><text fill="#000000" font-family="sans-serif" font-size="8.4" lengthAdjust="spacing" textLength="87" x="995.7" y="1490.1551">+PlotDTO(designation)</text><text fill="#000000" font-family="sans-serif" font-size="8.4" lengthAdjust="spacing" textLength="43.2" x="995.7" y="1501.3277">+PlotDTO()</text><text fill="#000000" font-family="sans-serif" font-size="8.4" lengthAdjust="spacing" textLength="97.2" x="995.7" y="1512.5004">+getDesignation() : String</text><text fill="#000000" font-family="sans-serif" font-size="8.4" lengthAdjust="spacing" textLength="111" x="995.7" y="1523.673">+setDesignation(designation)</text><text fill="#000000" font-family="sans-serif" font-size="8.4" lengthAdjust="spacing" textLength="73.8" x="995.7" y="1534.8457">+getArea() : double</text><text fill="#000000" font-family="sans-serif" font-size="8.4" lengthAdjust="spacing" textLength="57.6" x="995.7" y="1546.0184">+setArea(area)</text><text fill="#000000" font-family="sans-serif" font-size="8.4" lengthAdjust="spacing" textLength="139.2" x="995.7" y="1557.191">+getCropDTOList() : List&lt;CropDTO&gt;</text><text fill="#000000" font-family="sans-serif" font-size="8.4" lengthAdjust="spacing" textLength="120" x="995.7" y="1568.3637">+setCropDTOList(cropDTOList)</text></g><!--class PlotMapper--><g id="elem_PlotMapper"><rect codeLine="156" fill="#F1F1F1" height="73.4906" id="PlotMapper" rx="1.5" ry="1.5" style="stroke:#181818;stroke-width:0.3;" width="148.8" x="1257.3" y="956.1727"/><ellipse cx="1307.55" cy="965.7727" fill="#ADD1B2" rx="6.6" ry="6.6" style="stroke:#181818;stroke-width:0.6;"/><path d="M1309.2094,963.2977 Q1309.3031,963.1664 1309.4156,963.1008 Q1309.5281,963.0352 1309.6594,963.0352 Q1309.8844,963.0352 1310.025,963.1945 Q1310.1656,963.3445 1310.1656,963.7102 L1310.1656,964.582 Q1310.1656,964.9477 1310.025,965.107 Q1309.8844,965.2664 1309.6594,965.2664 Q1309.4531,965.2664 1309.3313,965.1445 Q1309.2094,965.032 1309.1438,964.7227 Q1309.1156,964.507 1309.0031,964.3945 Q1308.8062,964.1695 1308.4406,964.0383 Q1308.075,963.907 1307.7,963.907 Q1307.2406,963.907 1306.8563,964.1039 Q1306.4813,964.3008 1306.1812,964.7508 Q1305.8906,965.2008 1305.8906,965.8195 L1305.8906,966.4758 Q1305.8906,967.2164 1306.425,967.7133 Q1306.9594,968.2008 1307.9156,968.2008 Q1308.4781,968.2008 1308.8719,968.0508 Q1309.1063,967.957 1309.3594,967.6945 Q1309.5188,967.5352 1309.6031,967.4883 Q1309.6969,967.4414 1309.8188,967.4414 Q1310.0156,967.4414 1310.1656,967.6008 Q1310.325,967.7508 1310.325,967.957 Q1310.325,968.1633 1310.1187,968.407 Q1309.8188,968.7539 1309.3406,968.9508 Q1308.6938,969.2227 1307.9156,969.2227 Q1307.0063,969.2227 1306.2844,968.8477 Q1305.6938,968.5477 1305.2813,967.9102 Q1304.8687,967.2633 1304.8687,966.4945 L1304.8687,965.8008 Q1304.8687,965.0039 1305.2344,964.3195 Q1305.6094,963.6258 1306.2656,963.2602 Q1306.9219,962.8852 1307.6625,962.8852 Q1308.1031,962.8852 1308.4875,962.9883 Q1308.8813,963.082 1309.2094,963.2977 Z " fill="#000000"/><text fill="#000000" font-family="sans-serif" font-size="8.4" lengthAdjust="spacing" textLength="43.2" x="1319.85" y="969.2508">PlotMapper</text><line style="stroke:#181818;stroke-width:0.3;" x1="1257.9" x2="1405.5" y1="975.3727" y2="975.3727"/><line style="stroke:#181818;stroke-width:0.3;" x1="1257.9" x2="1405.5" y1="980.1727" y2="980.1727"/><text fill="#000000" font-family="sans-serif" font-size="8.4" lengthAdjust="spacing" textLength="108.6" x="1260.9" y="991.6371">+mapToDTO(plot) : PlotDTO</text><text fill="#000000" font-family="sans-serif" font-size="8.4" lengthAdjust="spacing" textLength="111.6" x="1260.9" y="1002.8098">+mapToEntity(plotDTO) : Plot</text><text fill="#000000" font-family="sans-serif" font-size="8.4" lengthAdjust="spacing" textLength="138.6" x="1260.9" y="1013.9824">+toDTOList(plotList) : List&lt;PlotDTO&gt;</text><text fill="#000000" font-family="sans-serif" font-size="8.4" lengthAdjust="spacing" textLength="141.6" x="1260.9" y="1025.1551">+toEntityList(plotDTOList) : List&lt;Plot&gt;</text></g><!--class Crop--><g id="elem_Crop"><rect codeLine="163" fill="#F1F1F1" height="140.5266" id="Crop" rx="1.5" ry="1.5" style="stroke:#181818;stroke-width:0.3;" width="116.4" x="1427.1" y="922.5727"/><ellipse cx="1473.45" cy="932.1727" fill="#ADD1B2" rx="6.6" ry="6.6" style="stroke:#181818;stroke-width:0.6;"/><path d="M1475.1094,929.6977 Q1475.2031,929.5664 1475.3156,929.5008 Q1475.4281,929.4352 1475.5594,929.4352 Q1475.7844,929.4352 1475.925,929.5945 Q1476.0656,929.7445 1476.0656,930.1102 L1476.0656,930.982 Q1476.0656,931.3477 1475.925,931.507 Q1475.7844,931.6664 1475.5594,931.6664 Q1475.3531,931.6664 1475.2313,931.5445 Q1475.1094,931.432 1475.0438,931.1227 Q1475.0156,930.907 1474.9031,930.7945 Q1474.7063,930.5695 1474.3406,930.4383 Q1473.975,930.307 1473.6,930.307 Q1473.1406,930.307 1472.7563,930.5039 Q1472.3813,930.7008 1472.0813,931.1508 Q1471.7906,931.6008 1471.7906,932.2195 L1471.7906,932.8758 Q1471.7906,933.6164 1472.325,934.1133 Q1472.8594,934.6008 1473.8156,934.6008 Q1474.3781,934.6008 1474.7719,934.4508 Q1475.0063,934.357 1475.2594,934.0945 Q1475.4188,933.9352 1475.5031,933.8883 Q1475.5969,933.8414 1475.7188,933.8414 Q1475.9156,933.8414 1476.0656,934.0008 Q1476.225,934.1508 1476.225,934.357 Q1476.225,934.5633 1476.0188,934.807 Q1475.7188,935.1539 1475.2406,935.3508 Q1474.5938,935.6227 1473.8156,935.6227 Q1472.9063,935.6227 1472.1844,935.2477 Q1471.5938,934.9477 1471.1812,934.3102 Q1470.7688,933.6633 1470.7688,932.8945 L1470.7688,932.2008 Q1470.7688,931.4039 1471.1344,930.7195 Q1471.5094,930.0258 1472.1656,929.6602 Q1472.8219,929.2852 1473.5625,929.2852 Q1474.0031,929.2852 1474.3875,929.3883 Q1474.7813,929.482 1475.1094,929.6977 Z " fill="#000000"/><text fill="#000000" font-family="sans-serif" font-size="8.4" lengthAdjust="spacing" textLength="18.6" x="1485.75" y="935.6508">Crop</text><line style="stroke:#181818;stroke-width:0.3;" x1="1427.7" x2="1542.9" y1="941.7727" y2="941.7727"/><text fill="#000000" font-family="sans-serif" font-size="8.4" lengthAdjust="spacing" textLength="39" x="1430.7" y="953.2371">-cropType</text><text fill="#000000" font-family="sans-serif" font-size="8.4" lengthAdjust="spacing" textLength="40.8" x="1430.7" y="964.4098">-cropCycle</text><line style="stroke:#181818;stroke-width:0.3;" x1="1427.7" x2="1542.9" y1="968.918" y2="968.918"/><text fill="#000000" font-family="sans-serif" font-size="8.4" lengthAdjust="spacing" textLength="108" x="1430.7" y="980.3824">+Crop(cropType, cropCycle)</text><text fill="#000000" font-family="sans-serif" font-size="8.4" lengthAdjust="spacing" textLength="29.4" x="1430.7" y="991.5551">+Crop()</text><text fill="#000000" font-family="sans-serif" font-size="8.4" lengthAdjust="spacing" textLength="105.6" x="1430.7" y="1002.7277">+getCropType() : CropType</text><text fill="#000000" font-family="sans-serif" font-size="8.4" lengthAdjust="spacing" textLength="96" x="1430.7" y="1013.9004">+setCropType(cropType)</text><text fill="#000000" font-family="sans-serif" font-size="8.4" lengthAdjust="spacing" textLength="109.2" x="1430.7" y="1025.073">+getCropCycle() : CropCycle</text><text fill="#000000" font-family="sans-serif" font-size="8.4" lengthAdjust="spacing" textLength="99.6" x="1430.7" y="1036.2457">+setCropCycle(cropCycle)</text><text fill="#000000" font-family="sans-serif" font-size="8.4" lengthAdjust="spacing" textLength="96.6" x="1430.7" y="1047.4184">+equals(object) : boolean</text><text fill="#000000" font-family="sans-serif" font-size="8.4" lengthAdjust="spacing" textLength="66" x="1430.7" y="1058.591">+hashCode() : int</text></g><!--class CropDTO--><g id="elem_CropDTO"><rect codeLine="176" fill="#F1F1F1" height="107.0086" id="CropDTO" rx="1.5" ry="1.5" style="stroke:#181818;stroke-width:0.3;" width="133.2" x="1010.1" y="1620.3727"/><ellipse cx="1055.85" cy="1629.9727" fill="#ADD1B2" rx="6.6" ry="6.6" style="stroke:#181818;stroke-width:0.6;"/><path d="M1057.5094,1627.4977 Q1057.6031,1627.3664 1057.7156,1627.3008 Q1057.8281,1627.2352 1057.9594,1627.2352 Q1058.1844,1627.2352 1058.325,1627.3945 Q1058.4656,1627.5445 1058.4656,1627.9102 L1058.4656,1628.782 Q1058.4656,1629.1477 1058.325,1629.307 Q1058.1844,1629.4664 1057.9594,1629.4664 Q1057.7531,1629.4664 1057.6313,1629.3445 Q1057.5094,1629.232 1057.4438,1628.9227 Q1057.4156,1628.707 1057.3031,1628.5945 Q1057.1063,1628.3695 1056.7406,1628.2383 Q1056.375,1628.107 1056,1628.107 Q1055.5406,1628.107 1055.1563,1628.3039 Q1054.7813,1628.5008 1054.4813,1628.9508 Q1054.1906,1629.4008 1054.1906,1630.0195 L1054.1906,1630.6758 Q1054.1906,1631.4164 1054.725,1631.9133 Q1055.2594,1632.4008 1056.2156,1632.4008 Q1056.7781,1632.4008 1057.1719,1632.2508 Q1057.4063,1632.157 1057.6594,1631.8945 Q1057.8188,1631.7352 1057.9031,1631.6883 Q1057.9969,1631.6414 1058.1187,1631.6414 Q1058.3156,1631.6414 1058.4656,1631.8008 Q1058.625,1631.9508 1058.625,1632.157 Q1058.625,1632.3633 1058.4188,1632.607 Q1058.1187,1632.9539 1057.6406,1633.1508 Q1056.9937,1633.4227 1056.2156,1633.4227 Q1055.3062,1633.4227 1054.5844,1633.0477 Q1053.9937,1632.7477 1053.5813,1632.1102 Q1053.1688,1631.4633 1053.1688,1630.6945 L1053.1688,1630.0008 Q1053.1688,1629.2039 1053.5344,1628.5195 Q1053.9094,1627.8258 1054.5656,1627.4602 Q1055.2219,1627.0852 1055.9625,1627.0852 Q1056.4031,1627.0852 1056.7875,1627.1883 Q1057.1812,1627.282 1057.5094,1627.4977 Z " fill="#000000"/><text fill="#000000" font-family="sans-serif" font-size="8.4" lengthAdjust="spacing" textLength="36.6" x="1068.15" y="1633.4508">CropDTO</text><line style="stroke:#181818;stroke-width:0.3;" x1="1010.7" x2="1142.7" y1="1639.5727" y2="1639.5727"/><text fill="#000000" font-family="sans-serif" font-size="8.4" lengthAdjust="spacing" textLength="39" x="1013.7" y="1651.0371">-cropType</text><text fill="#000000" font-family="sans-serif" font-size="8.4" lengthAdjust="spacing" textLength="40.8" x="1013.7" y="1662.2098">-cropCycle</text><line style="stroke:#181818;stroke-width:0.3;" x1="1010.7" x2="1142.7" y1="1666.718" y2="1666.718"/><text fill="#000000" font-family="sans-serif" font-size="8.4" lengthAdjust="spacing" textLength="126" x="1013.7" y="1678.1824">+CropDTO(cropType, cropCycle)</text><text fill="#000000" font-family="sans-serif" font-size="8.4" lengthAdjust="spacing" textLength="105.6" x="1013.7" y="1689.3551">+getCropType() : CropType</text><text fill="#000000" font-family="sans-serif" font-size="8.4" lengthAdjust="spacing" textLength="96" x="1013.7" y="1700.5277">+setCropType(cropType)</text><text fill="#000000" font-family="sans-serif" font-size="8.4" lengthAdjust="spacing" textLength="109.2" x="1013.7" y="1711.7004">+getCropCycle() : CropCycle</text><text fill="#000000" font-family="sans-serif" font-size="8.4" lengthAdjust="spacing" textLength="99.6" x="1013.7" y="1722.873">+setCropCycle(cropCycle)</text></g><!--class CropMapper--><g id="elem_CropMapper"><rect codeLine="186" fill="#F1F1F1" height="73.4906" id="CropMapper" rx="1.5" ry="1.5" style="stroke:#181818;stroke-width:0.3;" width="156" x="1407.3" y="1205.4727"/><ellipse cx="1459.05" cy="1215.0727" fill="#ADD1B2" rx="6.6" ry="6.6" style="stroke:#181818;stroke-width:0.6;"/><path d="M1460.7094,1212.5977 Q1460.8031,1212.4664 1460.9156,1212.4008 Q1461.0281,1212.3352 1461.1594,1212.3352 Q1461.3844,1212.3352 1461.525,1212.4945 Q1461.6656,1212.6445 1461.6656,1213.0102 L1461.6656,1213.882 Q1461.6656,1214.2477 1461.525,1214.407 Q1461.3844,1214.5664 1461.1594,1214.5664 Q1460.9531,1214.5664 1460.8313,1214.4445 Q1460.7094,1214.332 1460.6438,1214.0227 Q1460.6156,1213.807 1460.5031,1213.6945 Q1460.3062,1213.4695 1459.9406,1213.3383 Q1459.575,1213.207 1459.2,1213.207 Q1458.7406,1213.207 1458.3563,1213.4039 Q1457.9813,1213.6008 1457.6812,1214.0508 Q1457.3906,1214.5008 1457.3906,1215.1195 L1457.3906,1215.7758 Q1457.3906,1216.5164 1457.925,1217.0133 Q1458.4594,1217.5008 1459.4156,1217.5008 Q1459.9781,1217.5008 1460.3719,1217.3508 Q1460.6063,1217.257 1460.8594,1216.9945 Q1461.0188,1216.8352 1461.1031,1216.7883 Q1461.1969,1216.7414 1461.3188,1216.7414 Q1461.5156,1216.7414 1461.6656,1216.9008 Q1461.825,1217.0508 1461.825,1217.257 Q1461.825,1217.4633 1461.6187,1217.707 Q1461.3188,1218.0539 1460.8406,1218.2508 Q1460.1938,1218.5227 1459.4156,1218.5227 Q1458.5063,1218.5227 1457.7844,1218.1477 Q1457.1938,1217.8477 1456.7813,1217.2102 Q1456.3687,1216.5633 1456.3687,1215.7945 L1456.3687,1215.1008 Q1456.3687,1214.3039 1456.7344,1213.6195 Q1457.1094,1212.9258 1457.7656,1212.5602 Q1458.4219,1212.1852 1459.1625,1212.1852 Q1459.6031,1212.1852 1459.9875,1212.2883 Q1460.3813,1212.382 1460.7094,1212.5977 Z " fill="#000000"/><text fill="#000000" font-family="sans-serif" font-size="8.4" lengthAdjust="spacing" textLength="47.4" x="1471.35" y="1218.5508">CropMapper</text><line style="stroke:#181818;stroke-width:0.3;" x1="1407.9" x2="1562.7" y1="1224.6727" y2="1224.6727"/><line style="stroke:#181818;stroke-width:0.3;" x1="1407.9" x2="1562.7" y1="1229.4727" y2="1229.4727"/><text fill="#000000" font-family="sans-serif" font-size="8.4" lengthAdjust="spacing" textLength="115.8" x="1410.9" y="1240.9371">+mapToDTO(crop) : CropDTO</text><text fill="#000000" font-family="sans-serif" font-size="8.4" lengthAdjust="spacing" textLength="118.8" x="1410.9" y="1252.1098">+mapToEntity(cropDTO) : Crop</text><text fill="#000000" font-family="sans-serif" font-size="8.4" lengthAdjust="spacing" textLength="145.8" x="1410.9" y="1263.2824">+toDTOList(cropList) : List&lt;CropDTO&gt;</text><text fill="#000000" font-family="sans-serif" font-size="8.4" lengthAdjust="spacing" textLength="148.8" x="1410.9" y="1274.4551">+toEntityList(cropDTOList) : List&lt;Crop&gt;</text></g><!--class FileCreator--><g id="elem_FileCreator"><rect codeLine="193" fill="#F1F1F1" height="39.9727" id="FileCreator" rx="1.5" ry="1.5" style="stroke:#181818;stroke-width:0.3;" width="192" x="214.5" y="768.0727"/><ellipse cx="286.65" cy="777.6727" fill="#ADD1B2" rx="6.6" ry="6.6" style="stroke:#181818;stroke-width:0.6;"/><path d="M288.3094,775.1977 Q288.4031,775.0664 288.5156,775.0008 Q288.6281,774.9352 288.7594,774.9352 Q288.9844,774.9352 289.125,775.0945 Q289.2656,775.2445 289.2656,775.6102 L289.2656,776.482 Q289.2656,776.8477 289.125,777.007 Q288.9844,777.1664 288.7594,777.1664 Q288.5531,777.1664 288.4313,777.0445 Q288.3094,776.932 288.2438,776.6227 Q288.2156,776.407 288.1031,776.2945 Q287.9063,776.0695 287.5406,775.9383 Q287.175,775.807 286.8,775.807 Q286.3406,775.807 285.9563,776.0039 Q285.5813,776.2008 285.2813,776.6508 Q284.9906,777.1008 284.9906,777.7195 L284.9906,778.3758 Q284.9906,779.1164 285.525,779.6133 Q286.0594,780.1008 287.0156,780.1008 Q287.5781,780.1008 287.9719,779.9508 Q288.2063,779.857 288.4594,779.5945 Q288.6188,779.4352 288.7031,779.3883 Q288.7969,779.3414 288.9188,779.3414 Q289.1156,779.3414 289.2656,779.5008 Q289.425,779.6508 289.425,779.857 Q289.425,780.0633 289.2188,780.307 Q288.9188,780.6539 288.4406,780.8508 Q287.7938,781.1227 287.0156,781.1227 Q286.1063,781.1227 285.3844,780.7477 Q284.7938,780.4477 284.3812,779.8102 Q283.9688,779.1633 283.9688,778.3945 L283.9688,777.7008 Q283.9688,776.9039 284.3344,776.2195 Q284.7094,775.5258 285.3656,775.1602 Q286.0219,774.7852 286.7625,774.7852 Q287.2031,774.7852 287.5875,774.8883 Q287.9813,774.982 288.3094,775.1977 Z " fill="#000000"/><text fill="#000000" font-family="sans-serif" font-size="8.4" lengthAdjust="spacing" textLength="42.6" x="298.95" y="781.1508">FileCreator</text><line style="stroke:#181818;stroke-width:0.3;" x1="215.1" x2="405.9" y1="787.2727" y2="787.2727"/><line style="stroke:#181818;stroke-width:0.3;" x1="215.1" x2="405.9" y1="792.0727" y2="792.0727"/><text fill="#000000" font-family="sans-serif" font-size="8.4" lengthAdjust="spacing" textLength="184.8" x="218.1" y="803.5371">+createFile(filePath, fileName, content) : boolean</text></g><!--class FileReader--><g id="elem_FileReader"><rect codeLine="197" fill="#F1F1F1" height="39.9727" id="FileReader" rx="1.5" ry="1.5" style="stroke:#181818;stroke-width:0.3;" width="202.8" x="1089.9" y="72.6727"/><ellipse cx="1167.75" cy="82.2727" fill="#ADD1B2" rx="6.6" ry="6.6" style="stroke:#181818;stroke-width:0.6;"/><path d="M1169.4094,79.7977 Q1169.5031,79.6664 1169.6156,79.6008 Q1169.7281,79.5352 1169.8594,79.5352 Q1170.0844,79.5352 1170.225,79.6945 Q1170.3656,79.8445 1170.3656,80.2102 L1170.3656,81.082 Q1170.3656,81.4477 1170.225,81.607 Q1170.0844,81.7664 1169.8594,81.7664 Q1169.6531,81.7664 1169.5313,81.6445 Q1169.4094,81.532 1169.3438,81.2227 Q1169.3156,81.007 1169.2031,80.8945 Q1169.0063,80.6695 1168.6406,80.5383 Q1168.275,80.407 1167.9,80.407 Q1167.4406,80.407 1167.0562,80.6039 Q1166.6812,80.8008 1166.3813,81.2508 Q1166.0906,81.7008 1166.0906,82.3195 L1166.0906,82.9758 Q1166.0906,83.7164 1166.625,84.2133 Q1167.1594,84.7008 1168.1156,84.7008 Q1168.6781,84.7008 1169.0719,84.5508 Q1169.3062,84.457 1169.5594,84.1945 Q1169.7188,84.0352 1169.8031,83.9883 Q1169.8969,83.9414 1170.0188,83.9414 Q1170.2156,83.9414 1170.3656,84.1008 Q1170.525,84.2508 1170.525,84.457 Q1170.525,84.6633 1170.3188,84.907 Q1170.0188,85.2539 1169.5406,85.4508 Q1168.8938,85.7227 1168.1156,85.7227 Q1167.2063,85.7227 1166.4844,85.3477 Q1165.8938,85.0477 1165.4813,84.4102 Q1165.0688,83.7633 1165.0688,82.9945 L1165.0688,82.3008 Q1165.0688,81.5039 1165.4344,80.8195 Q1165.8094,80.1258 1166.4656,79.7602 Q1167.1219,79.3852 1167.8625,79.3852 Q1168.3031,79.3852 1168.6875,79.4883 Q1169.0813,79.582 1169.4094,79.7977 Z " fill="#000000"/><text fill="#000000" font-family="sans-serif" font-size="8.4" lengthAdjust="spacing" textLength="42" x="1180.05" y="85.7508">FileReader</text><line style="stroke:#181818;stroke-width:0.3;" x1="1090.5" x2="1292.1" y1="91.8727" y2="91.8727"/><line style="stroke:#181818;stroke-width:0.3;" x1="1090.5" x2="1292.1" y1="96.6727" y2="96.6727"/><text fill="#000000" font-family="sans-serif" font-size="8.4" lengthAdjust="spacing" textLength="195.6" x="1093.5" y="108.1371">+readIrrigationPlan(filePath, fileName) : List&lt;String&gt;</text></g><!--class Utils--><g id="elem_Utils"><rect codeLine="201" fill="#F1F1F1" height="84.6633" id="Utils" rx="1.5" ry="1.5" style="stroke:#181818;stroke-width:0.3;" width="189" x="4.2" y="745.8727"/><ellipse cx="88.35" cy="755.4727" fill="#ADD1B2" rx="6.6" ry="6.6" style="stroke:#181818;stroke-width:0.6;"/><path d="M90.0094,752.9977 Q90.1031,752.8664 90.2156,752.8008 Q90.3281,752.7352 90.4594,752.7352 Q90.6844,752.7352 90.825,752.8945 Q90.9656,753.0445 90.9656,753.4102 L90.9656,754.282 Q90.9656,754.6477 90.825,754.807 Q90.6844,754.9664 90.4594,754.9664 Q90.2531,754.9664 90.1313,754.8445 Q90.0094,754.732 89.9438,754.4227 Q89.9156,754.207 89.8031,754.0945 Q89.6063,753.8695 89.2406,753.7383 Q88.875,753.607 88.5,753.607 Q88.0406,753.607 87.6563,753.8039 Q87.2813,754.0008 86.9813,754.4508 Q86.6906,754.9008 86.6906,755.5195 L86.6906,756.1758 Q86.6906,756.9164 87.225,757.4133 Q87.7594,757.9008 88.7156,757.9008 Q89.2781,757.9008 89.6719,757.7508 Q89.9063,757.657 90.1594,757.3945 Q90.3188,757.2352 90.4031,757.1883 Q90.4969,757.1414 90.6187,757.1414 Q90.8156,757.1414 90.9656,757.3008 Q91.125,757.4508 91.125,757.657 Q91.125,757.8633 90.9188,758.107 Q90.6187,758.4539 90.1406,758.6508 Q89.4937,758.9227 88.7156,758.9227 Q87.8062,758.9227 87.0844,758.5477 Q86.4937,758.2477 86.0813,757.6102 Q85.6688,756.9633 85.6688,756.1945 L85.6688,755.5008 Q85.6688,754.7039 86.0344,754.0195 Q86.4094,753.3258 87.0656,752.9602 Q87.7219,752.5852 88.4625,752.5852 Q88.9031,752.5852 89.2875,752.6883 Q89.6812,752.782 90.0094,752.9977 Z " fill="#000000"/><text fill="#000000" font-family="sans-serif" font-size="8.4" lengthAdjust="spacing" textLength="15.6" x="100.65" y="758.9508">Utils</text><line style="stroke:#181818;stroke-width:0.3;" x1="4.8" x2="192.6" y1="765.0727" y2="765.0727"/><line style="stroke:#181818;stroke-width:0.3;" x1="4.8" x2="192.6" y1="769.8727" y2="769.8727"/><text fill="#000000" font-family="sans-serif" font-size="8.4" lengthAdjust="spacing" textLength="162.6" x="7.8" y="781.3371">+readLineFromConsole(String title) : String</text><text fill="#000000" font-family="sans-serif" font-size="8.4" lengthAdjust="spacing" textLength="159.6" x="7.8" y="792.5098">+readIntegerFromConsole(String title) : int</text><text fill="#000000" font-family="sans-serif" font-size="8.4" lengthAdjust="spacing" textLength="180.6" x="7.8" y="803.6824">+readDateFromConsole(String title) : LocalDate</text><text fill="#000000" font-family="sans-serif" font-size="8.4" lengthAdjust="spacing" textLength="181.8" x="7.8" y="814.8551">+readTimeFromConsole(String title) : LocalTime</text><text fill="#000000" font-family="sans-serif" font-size="8.4" lengthAdjust="spacing" textLength="172.2" x="7.8" y="826.0277">+parsedTimeHelper(String timeString) : String</text></g><!--link IrrigationSystemUI to IrrigationSystemController--><g id="link_IrrigationSystemUI_IrrigationSystemController"><path codeLine="209" d="M819.726,92.7727 C828.816,92.7727 835.698,92.7727 835.698,92.7727 C835.698,92.7727 834.024,92.7727 837.18,92.7727 " fill="none" id="IrrigationSystemUI-to-IrrigationSystemController" style="stroke:#181818;stroke-width:0.6;stroke-dasharray:7.0,7.0;"/><polygon fill="#181818" points="840.78,92.7727,835.38,90.3727,837.78,92.7727,835.38,95.1727,840.78,92.7727" style="stroke:#181818;stroke-width:0.6;"/></g><!--link IrrigationSystemController to IrrigationPlan--><g id="link_IrrigationSystemController_IrrigationPlan"><path codeLine="211" d="M875.97,157.7347 C863.22,168.1387 854.1,175.5727 854.1,175.5727 C854.1,175.5727 795.5974,299.8455 746.0554,405.0795 " fill="none" id="IrrigationSystemController-to-IrrigationPlan" style="stroke:#181818;stroke-width:0.6;stroke-dasharray:7.0,7.0;"/><polygon fill="#181818" points="744.522,408.3367,748.9935,404.4732,745.7998,405.6224,744.6507,402.4287,744.522,408.3367" style="stroke:#181818;stroke-width:0.6;"/></g><!--link IrrigationSystemController to IrrigationPlanDTO--><g id="link_IrrigationSystemController_IrrigationPlanDTO"><path codeLine="212" d="M840.738,152.1007 C834.132,155.5027 830.1,157.5727 830.1,157.5727 C830.1,157.5727 521.7,194.1727 521.7,194.1727 C521.7,194.1727 447.9,291.6727 447.9,291.6727 C447.9,291.6727 447.9,291.6727 447.9,993.3727 C447.9,993.3727 456.7538,1047.2104 466.5518,1106.7844 " fill="none" id="IrrigationSystemController-to-IrrigationPlanDTO" style="stroke:#181818;stroke-width:0.6;stroke-dasharray:7.0,7.0;"/><polygon fill="#181818" points="467.136,1110.3367,468.6278,1104.6188,466.6491,1107.3764,463.8915,1105.3977,467.136,1110.3367" style="stroke:#181818;stroke-width:0.6;"/></g><!--link IrrigationSystemController to IrrigationPlanMapper--><g id="link_IrrigationSystemController_IrrigationPlanMapper"><path codeLine="213" d="M840.738,152.1007 C834.132,155.5027 830.1,157.5727 830.1,157.5727 C830.1,157.5727 751.5,194.1727 751.5,194.1727 C751.5,194.1727 503.7,408.3727 503.7,408.3727 C503.7,408.3727 503.7,683.1727 503.7,683.1727 C503.7,683.1727 551.5075,890.0791 568.5055,963.6391 " fill="none" id="IrrigationSystemController-to-IrrigationPlanMapper" style="stroke:#181818;stroke-width:0.6;stroke-dasharray:7.0,7.0;"/><polygon fill="#181818" points="569.316,967.1467,570.4386,961.345,568.6406,964.2237,565.7618,962.4256,569.316,967.1467" style="stroke:#181818;stroke-width:0.6;"/></g><!--link IrrigationSystemController to CurrentlyIrrigatedSector--><g id="link_IrrigationSystemController_CurrentlyIrrigatedPlot"><path codeLine="215" d="M1023.468,157.7527 C1035.876,169.4047 1046.4395,179.3186 1059.5915,191.6666 " fill="none" id="IrrigationSystemController-to-CurrentlyIrrigatedPlot" style="stroke:#181818;stroke-width:0.6;stroke-dasharray:7.0,7.0;"/><polygon fill="#181818" points="1062.216,194.1307,1059.9219,188.6848,1060.0289,192.0772,1056.6365,192.1842,1062.216,194.1307" style="stroke:#181818;stroke-width:0.6;"/></g><!--link IrrigationSystemController to CurrentlyIrrigatedSectorDTO--><g id="link_IrrigationSystemController_CurrentlyIrrigatedPlotDTO"><path codeLine="216" d="M954.9,157.7527 C954.9,215.6587 954.9,291.6727 954.9,291.6727 C954.9,291.6727 954.9,291.6727 954.9,993.3727 C954.9,993.3727 975.9,1062.9727 975.9,1062.9727 C975.9,1062.9727 1012.4037,1127.62 1041.7857,1179.646 " fill="none" id="IrrigationSystemController-to-CurrentlyIrrigatedPlotDTO" style="stroke:#181818;stroke-width:0.6;stroke-dasharray:7.0,7.0;"/><polygon fill="#181818" points="1043.556,1182.7807,1042.9903,1176.8985,1042.0807,1180.1685,1038.8108,1179.2589,1043.556,1182.7807" style="stroke:#181818;stroke-width:0.6;"/></g><!--link IrrigationSystemController to CurrentlyIrrigatedSectorMapper--><g id="link_IrrigationSystemController_CurrentlyIrrigatedPlotMapper"><path codeLine="217" d="M967.116,157.7347 C969.09,168.1387 970.5,175.5727 970.5,175.5727 C970.5,175.5727 1077.3594,794.4472 1104.6474,952.4812 " fill="none" id="IrrigationSystemController-to-CurrentlyIrrigatedPlotMapper" style="stroke:#181818;stroke-width:0.6;stroke-dasharray:7.0,7.0;"/><polygon fill="#181818" points="1105.26,956.0287,1106.7062,950.299,1104.7495,953.0724,1101.9762,951.1158,1105.26,956.0287" style="stroke:#181818;stroke-width:0.6;"/></g><!--link IrrigationSystemController to Plot--><g id="link_IrrigationSystemController_Plot"><path codeLine="219" d="M1068.936,152.3167 C1075.26,155.5867 1079.1,157.5727 1079.1,157.5727 C1079.1,157.5727 1350.3,175.5727 1350.3,175.5727 C1350.3,175.5727 1398.0754,528.6932 1420.9054,697.4552 " fill="none" id="IrrigationSystemController-to-Plot" style="stroke:#181818;stroke-width:0.6;stroke-dasharray:7.0,7.0;"/><polygon fill="#181818" points="1421.388,701.0227,1423.0424,695.3497,1420.9858,698.0497,1418.2857,695.9931,1421.388,701.0227" style="stroke:#181818;stroke-width:0.6;"/></g><!--link IrrigationSystemController to PlotDTO--><g id="link_IrrigationSystemController_PlotDTO"><path codeLine="220" d="M941.07,157.7527 C928.632,215.6587 912.3,291.6727 912.3,291.6727 C912.3,291.6727 912.3,291.6727 912.3,1242.6727 C912.3,1242.6727 967.5,1373.7727 967.5,1373.7727 C967.5,1373.7727 984.6302,1393.0258 1007.1722,1418.3458 " fill="none" id="IrrigationSystemController-to-PlotDTO" style="stroke:#181818;stroke-width:0.6;stroke-dasharray:7.0,7.0;"/><polygon fill="#181818" points="1009.566,1421.0347,1007.7678,1415.4056,1007.5712,1418.794,1004.1828,1418.5973,1009.566,1421.0347" style="stroke:#181818;stroke-width:0.6;"/></g><!--link IrrigationSystemController to PlotMapper--><g id="link_IrrigationSystemController_PlotMapper"><path codeLine="221" d="M1068.936,152.3167 C1075.26,155.5867 1079.1,157.5727 1079.1,157.5727 C1079.1,157.5727 1313.1,194.1727 1313.1,194.1727 C1313.1,194.1727 1321.5,408.3727 1321.5,408.3727 C1321.5,408.3727 1328.7811,825.2112 1331.0071,952.4952 " fill="none" id="IrrigationSystemController-to-PlotMapper" style="stroke:#181818;stroke-width:0.6;stroke-dasharray:7.0,7.0;"/><polygon fill="#181818" points="1331.07,956.0947,1333.3752,950.6535,1331.0175,953.0951,1328.5759,950.7374,1331.07,956.0947" style="stroke:#181818;stroke-width:0.6;"/></g><!--link IrrigationSystemController to Crop--><g id="link_IrrigationSystemController_Crop"><path codeLine="223" d="M1068.936,152.3167 C1075.26,155.5867 1079.1,157.5727 1079.1,157.5727 C1079.1,157.5727 1590.9,175.5727 1590.9,175.5727 C1590.9,175.5727 1590.9,683.1727 1590.9,683.1727 C1590.9,683.1727 1541.4422,827.9001 1510.2962,919.0341 " fill="none" id="IrrigationSystemController-to-Crop" style="stroke:#181818;stroke-width:0.6;stroke-dasharray:7.0,7.0;"/><polygon fill="#181818" points="1509.132,922.4407,1513.1494,918.107,1510.1022,919.6019,1508.6073,916.5547,1509.132,922.4407" style="stroke:#181818;stroke-width:0.6;"/></g><!--link IrrigationSystemController to CropDTO--><g id="link_IrrigationSystemController_CropDTO"><path codeLine="224" d="M924.612,157.7827 C915.324,177.5347 907.5,194.1727 907.5,194.1727 C907.5,194.1727 869.7,291.6727 869.7,291.6727 C869.7,291.6727 869.7,291.6727 869.7,1497.6727 C869.7,1497.6727 950.618,1566.2766 1011.566,1617.9486 " fill="none" id="IrrigationSystemController-to-CropDTO" style="stroke:#181818;stroke-width:0.6;stroke-dasharray:7.0,7.0;"/><polygon fill="#181818" points="1014.312,1620.2767,1011.7451,1614.954,1012.0237,1618.3366,1008.641,1618.6152,1014.312,1620.2767" style="stroke:#181818;stroke-width:0.6;"/></g><!--link IrrigationSystemController to CropMapper--><g id="link_IrrigationSystemController_CropMapper"><path codeLine="225" d="M1068.936,152.3167 C1075.26,155.5867 1079.1,157.5727 1079.1,157.5727 C1079.1,157.5727 1365.9,175.5727 1365.9,175.5727 C1365.9,175.5727 1575.3,291.6727 1575.3,291.6727 C1575.3,291.6727 1575.3,291.6727 1575.3,993.3727 C1575.3,993.3727 1554.3,1062.9727 1554.3,1062.9727 C1554.3,1062.9727 1520.7262,1149.8369 1500.5602,1201.9949 " fill="none" id="IrrigationSystemController-to-CropMapper" style="stroke:#181818;stroke-width:0.6;stroke-dasharray:7.0,7.0;"/><polygon fill="#181818" points="1499.262,1205.3527,1503.4478,1201.1815,1500.3439,1202.5545,1498.9708,1199.4505,1499.262,1205.3527" style="stroke:#181818;stroke-width:0.6;"/></g><!--link IrrigationSystemController to IrrigationSystem--><g id="link_IrrigationSystemController_IrrigationSystem"><path codeLine="227" d="M840.738,152.1007 C834.132,155.5027 830.1,157.5727 830.1,157.5727 C830.1,157.5727 432.3,175.5727 432.3,175.5727 C432.3,175.5727 393.8923,209.6627 357.7723,241.7267 " fill="none" id="IrrigationSystemController-to-IrrigationSystem" style="stroke:#181818;stroke-width:0.6;stroke-dasharray:7.0,7.0;"/><polygon fill="#181818" points="355.08,244.1167,360.7117,242.3266,357.3235,242.125,357.5251,238.7369,355.08,244.1167" style="stroke:#181818;stroke-width:0.6;"/></g><!--link IrrigationSystemController to FileReader--><g id="link_IrrigationSystemController_FileReader"><path codeLine="229" d="M1068.954,92.7727 C1075.998,92.7727 1079.628,92.7727 1086.12,92.7727 " fill="none" id="IrrigationSystemController-to-FileReader" style="stroke:#181818;stroke-width:0.6;stroke-dasharray:7.0,7.0;"/><polygon fill="#181818" points="1089.72,92.7727,1084.32,90.3727,1086.72,92.7727,1084.32,95.1727,1089.72,92.7727" style="stroke:#181818;stroke-width:0.6;"/></g><!--link IrrigationSystem to Utils--><g id="link_IrrigationSystem_Utils"><path codeLine="231" d="M282.054,340.3087 C242.52,436.7407 154.7195,650.9217 117.2075,742.4277 " fill="none" id="IrrigationSystem-to-Utils" style="stroke:#181818;stroke-width:0.6;"/><polygon fill="#181818" points="115.842,745.7587,120.1109,741.6725,116.9799,742.9828,115.6696,739.8519,115.842,745.7587" style="stroke:#181818;stroke-width:0.6;"/></g><!--link IrrigationSystem to FileCreator--><g id="link_IrrigationSystem_FileCreator"><path codeLine="232" d="M302.364,340.3087 C304.284,445.7467 308.7666,692.3473 310.0746,764.3053 " fill="none" id="IrrigationSystem-to-FileCreator" style="stroke:#181818;stroke-width:0.6;"/><polygon fill="#181818" points="310.14,767.9047,312.4415,762.4619,310.0855,764.9052,307.6423,762.5492,310.14,767.9047" style="stroke:#181818;stroke-width:0.6;"/></g><!--link IrrigationPlan to IrrigationPlanMapper--><g id="link_IrrigationPlan_IrrigationPlanMapper"><path codeLine="234" d="M647.85,683.3107 C624.006,784.5247 593.592,913.6687 580.98,967.1947 " fill="none" id="IrrigationPlan-IrrigationPlanMapper" style="stroke:#181818;stroke-width:0.6;"/><polygon fill="#000000" points="647.1878,785.3399,644.2271,790.2181,647.6599,791.0267,647.1878,785.3399" style="stroke:#000000;stroke-width:0.6;"/><text fill="#000000" font-family="sans-serif" font-size="7.8" lengthAdjust="spacing" textLength="38.4" x="651.9" y="791.4896">mapped by</text><text fill="#000000" font-family="sans-serif" font-size="7.8" lengthAdjust="spacing" textLength="4.2" x="642.6302" y="695.9678">1</text><text fill="#000000" font-family="sans-serif" font-size="7.8" lengthAdjust="spacing" textLength="4.2" x="577.3824" y="960.5247">1</text></g><!--link IrrigationPlanMapper to IrrigationPlanDTO--><g id="link_IrrigationPlanMapper_IrrigationPlanDTO"><path codeLine="235" d="M566.418,1018.2967 C558.672,1040.5387 546.69,1074.9487 534.438,1110.1387 " fill="none" id="IrrigationPlanMapper-IrrigationPlanDTO" style="stroke:#181818;stroke-width:0.6;"/><polygon fill="#000000" points="544.7135,1089.5931,548.1634,1085.0478,544.8328,1083.888,544.7135,1089.5931" style="stroke:#000000;stroke-width:0.6;"/><text fill="#000000" font-family="sans-serif" font-size="7.8" lengthAdjust="spacing" textLength="19.2" x="551.1" y="1089.9896">maps</text><text fill="#000000" font-family="sans-serif" font-size="7.8" lengthAdjust="spacing" textLength="4.2" x="560.4996" y="1031.5967">1</text><text fill="#000000" font-family="sans-serif" font-size="7.8" lengthAdjust="spacing" textLength="4.2" x="531.8062" y="1103.4337">1</text></g><!--link CurrentlyIrrigatedSector to CurrentlyIrrigatedSectorMapper--><g id="link_CurrentlyIrrigatedPlot_CurrentlyIrrigatedPlotMapper"><path codeLine="237" d="M1158.48,390.4747 C1146.162,548.2267 1122.438,852.0547 1114.314,956.1547 " fill="none" id="CurrentlyIrrigatedPlot-CurrentlyIrrigatedPlotMapper" style="stroke:#181818;stroke-width:0.6;"/><polygon fill="#000000" points="1136.9335,785.2691,1134.7531,790.5424,1138.2691,790.8169,1136.9335,785.2691" style="stroke:#000000;stroke-width:0.6;"/><text fill="#000000" font-family="sans-serif" font-size="7.8" lengthAdjust="spacing" textLength="38.4" x="1142.1" y="791.4896">mapped by</text><text fill="#000000" font-family="sans-serif" font-size="7.8" lengthAdjust="spacing" textLength="4.2" x="1153.8092" y="403.895">1</text><text fill="#000000" font-family="sans-serif" font-size="7.8" lengthAdjust="spacing" textLength="4.2" x="1110.1966" y="949.5413">1</text></g><!--link CurrentlyIrrigatedSectorMapper to CurrentlyIrrigatedSectorDTO--><g id="link_CurrentlyIrrigatedPlotMapper_CurrentlyIrrigatedPlotDTO"><path codeLine="238" d="M1106.442,1029.4507 C1100.802,1069.6327 1091.61,1135.1887 1084.932,1182.7807 " fill="none" id="CurrentlyIrrigatedPlotMapper-CurrentlyIrrigatedPlotDTO" style="stroke:#181818;stroke-width:0.6;"/><polygon fill="#000000" points="1100.8832,1089.7309,1103.3834,1084.6014,1099.8909,1084.1115,1100.8832,1089.7309" style="stroke:#000000;stroke-width:0.6;"/><text fill="#000000" font-family="sans-serif" font-size="7.8" lengthAdjust="spacing" textLength="19.2" x="1106.7" y="1089.9896">maps</text><text fill="#000000" font-family="sans-serif" font-size="7.8" lengthAdjust="spacing" textLength="4.2" x="1101.3696" y="1042.9523">1</text><text fill="#000000" font-family="sans-serif" font-size="7.8" lengthAdjust="spacing" textLength="4.2" x="1081.1823" y="1176.276">1</text></g><!--link Plot to PlotMapper--><g id="link_Plot_PlotMapper"><path codeLine="240" d="M1389.948,875.3287 C1375.83,903.6547 1360.908,933.5887 1349.7,956.0647 " fill="none" id="Plot-PlotMapper" style="stroke:#181818;stroke-width:0.6;"/><polygon fill="#000000" points="1383.4384,896.2751,1379.439,900.3454,1382.5953,901.9188,1383.4384,896.2751" style="stroke:#000000;stroke-width:0.6;"/><text fill="#000000" font-family="sans-serif" font-size="7.8" lengthAdjust="spacing" textLength="38.4" x="1387.5" y="902.1896">mapped by</text><text fill="#000000" font-family="sans-serif" font-size="7.8" lengthAdjust="spacing" textLength="4.2" x="1383.4147" y="888.506">1</text><text fill="#000000" font-family="sans-serif" font-size="7.8" lengthAdjust="spacing" textLength="4.2" x="1347.3384" y="949.4409">1</text></g><!--link PlotMapper to PlotDTO--><g id="link_PlotMapper_PlotDTO"><path codeLine="241" d="M1317.798,1029.5047 C1281.252,1124.4547 1185.3,1373.7727 1185.3,1373.7727 C1185.3,1373.7727 1165.884,1395.7147 1143.468,1421.0347 " fill="none" id="PlotMapper-PlotDTO" style="stroke:#181818;stroke-width:0.6;"/><polygon fill="#000000" points="1286.0797,1244.9006,1289.8981,1240.66,1286.6763,1239.2255,1286.0797,1244.9006" style="stroke:#000000;stroke-width:0.6;"/><text fill="#000000" font-family="sans-serif" font-size="7.8" lengthAdjust="spacing" textLength="19.2" x="1292.7" y="1245.3896">maps</text><text fill="#000000" font-family="sans-serif" font-size="7.8" lengthAdjust="spacing" textLength="4.2" x="1311.7478" y="1042.7518">1</text><text fill="#000000" font-family="sans-serif" font-size="7.8" lengthAdjust="spacing" textLength="4.2" x="1143.2087" y="1414.3157">1</text></g><!--link Crop to CropMapper--><g id="link_Crop_CropMapper"><path codeLine="243" d="M1485.3,1062.9787 C1485.3,1109.2747 1485.3,1168.1947 1485.3,1205.3887 " fill="none" id="Crop-CropMapper" style="stroke:#181818;stroke-width:0.6;"/><polygon fill="#000000" points="1488.3,1083.76,1486.5366,1089.187,1490.0634,1089.187,1488.3,1083.76" style="stroke:#000000;stroke-width:0.6;"/><text fill="#000000" font-family="sans-serif" font-size="7.8" lengthAdjust="spacing" textLength="38.4" x="1493.7" y="1089.9896">mapped by</text><text fill="#000000" font-family="sans-serif" font-size="7.8" lengthAdjust="spacing" textLength="4.2" x="1480.9655" y="1076.2215">1</text><text fill="#000000" font-family="sans-serif" font-size="7.8" lengthAdjust="spacing" textLength="4.2" x="1480.8572" y="1198.7677">1</text></g><!--link CropMapper to CropDTO--><g id="link_CropMapper_CropDTO"><path codeLine="244" d="M1450.992,1278.8227 C1378.854,1354.8187 1211.208,1531.4587 1126.944,1620.2347 " fill="none" id="CropMapper-CropDTO" style="stroke:#181818;stroke-width:0.6;"/><polygon fill="#000000" points="1315.8347,1499.3359,1320.8498,1496.6135,1318.2919,1494.1857,1315.8347,1499.3359" style="stroke:#000000;stroke-width:0.6;"/><text fill="#000000" font-family="sans-serif" font-size="7.8" lengthAdjust="spacing" textLength="19.2" x="1323.3" y="1500.3896">maps</text><text fill="#000000" font-family="sans-serif" font-size="7.8" lengthAdjust="spacing" textLength="4.2" x="1442.5823" y="1292.0718">1</text><text fill="#000000" font-family="sans-serif" font-size="7.8" lengthAdjust="spacing" textLength="4.2" x="1126.7309" y="1613.5943">1</text></g><!--reverse link CurrentlyIrrigatedSector to Plot--><g id="link_CurrentlyIrrigatedPlot_Plot"><path codeLine="246" d="M1221.7804,396.9553 C1283.6284,512.5633 1374.9,683.1727 1374.9,683.1727 C1374.9,683.1727 1378.944,690.4327 1384.902,701.1187 " fill="none" id="CurrentlyIrrigatedPlot-backto-Plot" style="stroke:#181818;stroke-width:0.6;"/><polygon fill="none" points="1218.384,390.6067,1217.966,394.9131,1221.7804,396.9553,1222.1984,392.6488,1218.384,390.6067" style="stroke:#181818;stroke-width:0.6;"/><polygon fill="#000000" points="1379.3179,548.5038,1378.3069,542.8877,1375.1989,544.5545,1379.3179,548.5038" style="stroke:#000000;stroke-width:0.6;"/><text fill="#000000" font-family="sans-serif" font-size="7.8" lengthAdjust="spacing" textLength="6" x="1383.3" y="549.0896">is</text><text fill="#000000" font-family="sans-serif" font-size="7.8" lengthAdjust="spacing" textLength="4.2" x="1216.458" y="403.7102">1</text><text fill="#000000" font-family="sans-serif" font-size="7.8" lengthAdjust="spacing" textLength="4.2" x="1377.9513" y="694.2995">1</text></g><!--reverse link Plot to Crop--><g id="link_Plot_Crop"><path codeLine="248" d="M1457.102,882.3026 C1461.14,898.0346 1463.514,907.2847 1467.408,922.4587 " fill="none" id="Plot-backto-Crop" style="stroke:#181818;stroke-width:0.6;"/><polygon fill="none" points="1455.312,875.3287,1453.8824,879.4123,1457.102,882.3026,1458.5317,878.2189,1455.312,875.3287" style="stroke:#181818;stroke-width:0.6;"/><polygon fill="#000000" points="1465.6458,901.8658,1466.0047,896.1707,1462.5887,897.0475,1465.6458,901.8658" style="stroke:#000000;stroke-width:0.6;"/><text fill="#000000" font-family="sans-serif" font-size="7.8" lengthAdjust="spacing" textLength="12.6" x="1470.3" y="902.1896">has</text><text fill="#000000" font-family="sans-serif" font-size="7.8" lengthAdjust="spacing" textLength="4.2" x="1452.149" y="888.506">1</text><text fill="#000000" font-family="sans-serif" font-size="7.8" lengthAdjust="spacing" textLength="3" x="1463.1657" y="915.846">*</text></g><!--reverse link CurrentlyIrrigatedSectorDTO to PlotDTO--><g id="link_CurrentlyIrrigatedPlotDTO_PlotDTO"><path codeLine="250" d="M1076.7,1308.4207 C1076.7,1344.0667 1076.7,1382.7667 1076.7,1421.1127 " fill="none" id="CurrentlyIrrigatedPlotDTO-backto-PlotDTO" style="stroke:#181818;stroke-width:0.6;"/><polygon fill="none" points="1076.7,1301.2207,1074.3,1304.8207,1076.7,1308.4207,1079.1,1304.8207,1076.7,1301.2207" style="stroke:#181818;stroke-width:0.6;"/><polygon fill="#000000" points="1079.7,1400.56,1081.4634,1395.1329,1077.9366,1395.1329,1079.7,1400.56" style="stroke:#000000;stroke-width:0.6;"/><text fill="#000000" font-family="sans-serif" font-size="7.8" lengthAdjust="spacing" textLength="6" x="1085.1" y="1400.7896">is</text><text fill="#000000" font-family="sans-serif" font-size="7.8" lengthAdjust="spacing" textLength="4.2" x="1072.3458" y="1314.363">1</text><text fill="#000000" font-family="sans-serif" font-size="7.8" lengthAdjust="spacing" textLength="4.2" x="1072.372" y="1414.3984">1</text></g><!--reverse link PlotDTO to CropDTO--><g id="link_PlotDTO_CropDTO"><path codeLine="252" d="M1076.7,1580.3167 C1076.7,1596.2047 1076.7,1605.4387 1076.7,1620.2887 " fill="none" id="PlotDTO-backto-CropDTO" style="stroke:#181818;stroke-width:0.6;"/><polygon fill="none" points="1076.7,1573.1167,1074.3,1576.7167,1076.7,1580.3167,1079.1,1576.7167,1076.7,1573.1167" style="stroke:#181818;stroke-width:0.6;"/><polygon fill="#000000" points="1079.7,1599.76,1081.4634,1594.3329,1077.9366,1594.3329,1079.7,1599.76" style="stroke:#000000;stroke-width:0.6;"/><text fill="#000000" font-family="sans-serif" font-size="7.8" lengthAdjust="spacing" textLength="12.6" x="1085.1" y="1599.9896">has</text><text fill="#000000" font-family="sans-serif" font-size="7.8" lengthAdjust="spacing" textLength="4.2" x="1072.3852" y="1585.9787">1</text><text fill="#000000" font-family="sans-serif" font-size="7.8" lengthAdjust="spacing" textLength="3" x="1073.5758" y="1613.6528">*</text></g><!--SRC=[nLZRRjiu47ttLn1zSXgdwEvZKHZeEYtMGD84jVC1j4JBtCYYLgHHQ1VxxykRfE5Daei2xKiTpfap5tA68_9NMjMumMTKu-mL5sGdsfAWXcG2LqL95hm7y1FEsNTQ5UY8Imub9Qs8Q6k2QbQswey546ObvloJ40qzN0JPPgpQqNy8UhzO22gagPVTm_Fxtz4TsYWWkgUua6gBXTP3swQX1HPKQhLSaFFB5lsxGFBVBMekrVB6_kOdzdqdiBXmkVHVIdd3Aj6miYID9Rb3r8FOvICjYKAJIbWBQQxUYOA8BuFUKd5ynMS2n3x9yWPz29XZyESIL_Vx9mzlLwq2vK_LChiqZJH-ZmLP8Vl7daedfEA1iPBWQk3V6Bab9FbpoKHdnShArfTQzQmXSb75kuJSoTptssOKtI2M8DzXY32-N0SceX5b9vAzRezFn-EskiUjnJQak9IueQATdGFFIZmLutamnmZdkOrgpzoOj49cP2jax7616n4zlagZFxBQebnKUsoNgilvG9gdeuoQzoUuuMBJPYNvWnIq2bO_LxbTuqJwaGTGiDnXRpsN-fCVxAPZU-MQNGKMLvunUN9f_K2v0AMp0L7hJ3-m39Tz3ZJcAqY3nj2-V7LjEbuD9Ae-kZuImhnWRcA4qkTfEWLo4W6eTbv6Kcm1pazbd7F4Fm_bRWJClzaHGoD_V8nNnNfWxZIylIH_N-JriMI7l-GT4vRa2VFJXkMatxz4EJpYkkxx-2qwuthFLE-Y3cgiNsgLpvMyXLfFIs8YNIZXY0HRBnBbcIZHT9ccIdMaN9Cb6wjFbQQVNA9potGu7107K-Rn9KkwPt8GCCiUqtJvNzS2PhU1-QtWcdPmRKkOtnQkQGsmFSXZDQT3IDZQEmk3RjR_1FTWdAU_3-lkChv3-QNH1sbRFT9AJflTPJZC07RXRCGFvDXT474ZIqM-2ddXMB62R3Tpw29ucK8DKCa3qmMtoqeFGEzzVxpRZiSWGH20y5iVJSW4P62M6dGVXsX2PIYCX9sy32OsVsYwPl-xhZv_PrKJj9fZ6zADm-xmomUXvVX9-H1i9p-Kga8hcfzJgKXTX5aKFMUqXnTZbi9E3iQ2WQBM5JspBoXLOzrl2LEZHvyffp_aXDEYqaU_6ylbVMDDcN5_GAoqKDvk3NEc5X_dhCFA721m3uUo1F88dMJu9ErhrPnT3YMOrBH0UUTCnSmVo-GA7C8wW1_G3uzXVlbDfbSTnaI6-rwVHFkYNvlgy8epYrx2-uCFGtGIc2hQsfPekY3heVoYnQRaJh6CrPOb2_2Wb5GyuDEJrVks9k1FFGzqdLR-lUmmgq5y0-LUIXNKF3X0xZwLMjnHUggQkzU5Zd082DpuuQDlz_QQTEXEdCx8hqY24qxozf2oZZHnCnX91mgxVjTm4hNYDdbGAMudwxtLJslgGu4rtbkIVajHBqZFM9nMg7jta-aUNfI2kK8fVICu1y5BiZpoBkMozkwPTWCSV16qv0xP0wt8buQfjq8kpI-D2jBlda77qjQblmLfndI6QK8fg2-cCRJ_IA9qrA0_gGCU2MhSSAAr_YIbF2o3mfcOd-wm4dcoVRSUUJyDDS0xxRkxjVyTFeeEuEhmZci4AgOc9jrAJ3zJxgMdhqatnmR0INTdEJVRbIiCw-umcHNRPwPpq3UjAywDVLWVLLY3bX0YaRAjApmk0jq9Akk7spU_lP4O_L_q3Uk3wgiroT6XHHyNKKYIGbr7Mf-ZzMAH-586sgFV4AuZez19IjSntusaqRY9a52F9T29uIxpeXW47dnswXZmGdLWDo8jVMiefLHE3sawPT9dD6uCf0xcBNJLKFyF]--></g></svg>